M48
; DRILL file {KiCad (5.1.10)-1} date 05/27/22 17:54:42
; FORMAT={-:-/ absolute / metric / decimal}
; #@! TF.CreationDate,2022-05-27T17:54:42+02:00
; #@! TF.GenerationSoftware,Kicad,Pcbnew,(5.1.10)-1
; #@! TF.FileFunction,Plated,1,2,PTH
FMAT,2
METRIC
T1C0.300
T2C0.400
T3C0.600
T4C0.850
T5C0.900
T6C1.000
%
G90
G05
T1
X52.45Y-91.85
X54.0Y-97.25
X54.15Y-91.75
X55.304Y-104.554
X56.7Y-90.9
X57.9Y-102.798
X59.2Y-103.3
X59.5Y-91.85
X60.25Y-97.0
X60.4Y-102.1
X61.1Y-91.75
X61.7Y-101.55
X62.9Y-91.8
X62.977Y-104.027
X65.25Y-96.75
X66.4Y-91.85
X68.25Y-91.8
X70.1Y-91.05
X71.604Y-104.554
X72.75Y-97.25
X73.35Y-102.798
X73.45Y-91.9
X74.102Y-102.798
X75.05Y-91.85
X75.4Y-103.3
X76.65Y-102.1
X76.7Y-91.9
X77.95Y-101.55
X78.45Y-91.85
X79.223Y-104.027
X80.45Y-91.85
X83.0Y-97.25
X84.15Y-91.3
X87.45Y-91.9
X89.2Y-91.7
X90.0Y-97.25
X91.4Y-90.85
X91.446Y-104.554
X93.2Y-102.798
X93.948Y-102.798
X94.45Y-91.8
X95.15Y-103.3
X95.25Y-96.75
X96.15Y-91.8
X96.5Y-102.1
X97.75Y-101.55
X97.95Y-91.85
X98.973Y-104.027
X99.25Y-91.75
X101.5Y-91.85
X102.5Y-97.25
X105.45Y-90.85
X108.6Y-91.75
X109.25Y-97.25
X110.25Y-91.8
X110.446Y-104.554
X112.15Y-102.798
X112.5Y-91.0
X112.898Y-102.798
X114.2Y-103.3
X115.4Y-91.9
X115.45Y-102.1
X116.25Y-96.75
X116.7Y-101.55
X117.0Y-91.85
X117.977Y-104.027
X118.85Y-91.75
X120.15Y-91.7
X123.25Y-97.25
X124.15Y-91.7
X126.1Y-90.8
X129.2Y-104.554
X129.45Y-91.85
X130.25Y-97.25
X131.1Y-102.798
X131.2Y-91.8
X131.85Y-102.798
X132.9Y-103.3
X133.1Y-91.5
X134.25Y-102.1
X135.5Y-101.55
X136.3Y-91.9
X136.773Y-104.027
X138.1Y-91.75
X138.75Y-97.25
X140.15Y-92.1
X143.35Y-91.9
X144.25Y-97.25
X145.1Y-91.75
X147.25Y-90.9
X150.896Y-104.554
X151.25Y-97.25
X152.15Y-102.798
X152.2Y-91.75
X153.45Y-102.798
X154.15Y-90.95
X154.7Y-103.3
X156.0Y-102.1
X157.25Y-101.55
X157.4Y-91.85
X158.527Y-104.027
X158.75Y-97.25
X159.15Y-91.9
X161.1Y-91.85
X164.5Y-91.7
X165.25Y-97.25
X165.896Y-104.554
X166.0Y-91.85
X167.7Y-102.798
X168.0Y-91.8
X168.45Y-102.798
X169.7Y-103.3
X169.75Y-91.9
X170.95Y-102.1
X171.5Y-91.85
X172.2Y-101.55
X172.25Y-97.0
X173.4Y-91.85
X173.473Y-104.027
X176.45Y-91.75
X180.0Y-91.7
X180.0Y-97.25
X180.95Y-104.529
X182.25Y-91.85
X182.4Y-102.798
X183.7Y-92.0
X183.8Y-102.602
X184.8Y-103.3
X185.5Y-91.75
X186.1Y-102.1
X186.25Y-96.75
X187.0Y-91.75
X187.35Y-101.55
X188.573Y-104.027
X190.5Y-91.1
X192.65Y-91.85
X193.25Y-97.25
X194.45Y-91.85
X197.25Y-103.0
X205.0Y-101.5
X217.0Y-97.75
X219.75Y-88.25
X221.25Y-110.25
X221.75Y-90.5
X223.0Y-107.0
X226.75Y-101.0
X228.75Y-89.5
X229.25Y-113.25
X231.0Y-116.0
X231.75Y-95.75
X232.25Y-105.0
X232.5Y-92.0
X232.5Y-98.25
X232.5Y-99.75
X232.5Y-100.5
X233.0Y-83.5
X233.0Y-95.75
X233.5Y-87.25
X234.25Y-100.75
X234.5Y-97.248
X235.0Y-106.25
X235.013Y-97.763
X235.25Y-109.0
X236.75Y-88.75
X236.75Y-91.75
X236.75Y-97.0
X236.75Y-99.248
X236.75Y-100.529
X236.75Y-107.0
X237.432Y-103.932
X238.998Y-105.5
X239.25Y-94.5
X239.5Y-100.75
X239.5Y-109.748
X241.0Y-110.25
X242.25Y-96.0
X247.75Y-95.0
X248.5Y-91.0
X252.25Y-96.5
X252.25Y-98.5
X254.75Y-90.75
X260.5Y-99.0
X264.0Y-89.25
X265.25Y-110.5
T2
X70.65Y-97.15
X148.15Y-90.8
X212.304Y-104.654
X215.25Y-92.25
T4
X268.35Y-105.25
X268.35Y-110.25
T5
X264.8Y-97.5
X267.34Y-97.5
T6
X221.9Y-76.7
X224.44Y-76.7
X231.0Y-76.75
X233.54Y-76.75
X236.08Y-76.75
X238.62Y-76.75
X263.96Y-81.71
X263.96Y-84.25
X263.96Y-86.79
X266.5Y-81.71
X266.5Y-84.25
X266.5Y-86.79
T3
X270.7Y-104.25G85X271.4Y-104.25
G05
X271.4Y-111.25G85X270.7Y-111.25
G05
T0
M30
