%FSLAX45Y45*%
G04 Gerber Fmt 4.5, Leading zero omitted, Abs format (unit mm)*
G04 Created by KiCad (PCBNEW (5.1.10)-1) date 2022-05-27 17:54:43*
%MOMM*%
%LPD*%
G01*
G04 APERTURE LIST*
%TA.AperFunction,Profile*%
%ADD10C,0.038100*%
%TD*%
%ADD11C,0.200000*%
%ADD12C,0.300000*%
G04 APERTURE END LIST*
D10*
X27000000Y-7300000D02*
G75*
G02*
X27250000Y-7550000I0J-250000D01*
G01*
X27250000Y-11950000D02*
G75*
G02*
X27000000Y-12200000I-250000J0D01*
G01*
X21000000Y-12200000D02*
G75*
G02*
X20750000Y-11950000I0J250000D01*
G01*
X20750000Y-7550000D02*
G75*
G02*
X21000000Y-7300000I250000J0D01*
G01*
X20750000Y-11950000D02*
X20750000Y-10500000D01*
X27000000Y-12200000D02*
X21000000Y-12200000D01*
X27250000Y-7550000D02*
X27250000Y-11950000D01*
X21000000Y-7300000D02*
X27000000Y-7300000D01*
X20750000Y-9000000D02*
X20750000Y-7550000D01*
X5000000Y-10500000D02*
X20750000Y-10500000D01*
X20750000Y-9000000D02*
X5000000Y-9000000D01*
X20150000Y-10150000D02*
G75*
G03*
X20150000Y-10150000I-150000J0D01*
G01*
X20150000Y-9350000D02*
G75*
G03*
X20150000Y-9350000I-150000J0D01*
G01*
X5000000Y-9000000D02*
X5000000Y-10500000D01*
D11*
X5230000Y-9170000D02*
X5260000Y-9200000D01*
X5260000Y-9170000D02*
X5230000Y-9200000D01*
X5385000Y-9710000D02*
X5415000Y-9740000D01*
X5415000Y-9710000D02*
X5385000Y-9740000D01*
X5400000Y-9160000D02*
X5430000Y-9190000D01*
X5430000Y-9160000D02*
X5400000Y-9190000D01*
X5515394Y-10440395D02*
X5545394Y-10470395D01*
X5545394Y-10440395D02*
X5515394Y-10470395D01*
X5655000Y-9075000D02*
X5685000Y-9105000D01*
X5685000Y-9075000D02*
X5655000Y-9105000D01*
X5775000Y-10264794D02*
X5805000Y-10294794D01*
X5805000Y-10264794D02*
X5775000Y-10294794D01*
X5904994Y-10314994D02*
X5934994Y-10344994D01*
X5934994Y-10314994D02*
X5904994Y-10344994D01*
X5935000Y-9170000D02*
X5965000Y-9200000D01*
X5965000Y-9170000D02*
X5935000Y-9200000D01*
X6010000Y-9685000D02*
X6040000Y-9715000D01*
X6040000Y-9685000D02*
X6010000Y-9715000D01*
X6025000Y-10195000D02*
X6055000Y-10225000D01*
X6055000Y-10195000D02*
X6025000Y-10225000D01*
X6095000Y-9160000D02*
X6125000Y-9190000D01*
X6125000Y-9160000D02*
X6095000Y-9190000D01*
X6155000Y-10140000D02*
X6185000Y-10170000D01*
X6185000Y-10140000D02*
X6155000Y-10170000D01*
X6275000Y-9165000D02*
X6305000Y-9195000D01*
X6305000Y-9165000D02*
X6275000Y-9195000D01*
X6282694Y-10387694D02*
X6312694Y-10417694D01*
X6312694Y-10387694D02*
X6282694Y-10417694D01*
X6510000Y-9660000D02*
X6540000Y-9690000D01*
X6540000Y-9660000D02*
X6510000Y-9690000D01*
X6625000Y-9170000D02*
X6655000Y-9200000D01*
X6655000Y-9170000D02*
X6625000Y-9200000D01*
X6810000Y-9165000D02*
X6840000Y-9195000D01*
X6840000Y-9165000D02*
X6810000Y-9195000D01*
X6995000Y-9090000D02*
X7025000Y-9120000D01*
X7025000Y-9090000D02*
X6995000Y-9120000D01*
X7145394Y-10440395D02*
X7175394Y-10470395D01*
X7175394Y-10440395D02*
X7145394Y-10470395D01*
X7260000Y-9710000D02*
X7290000Y-9740000D01*
X7290000Y-9710000D02*
X7260000Y-9740000D01*
X7320000Y-10264794D02*
X7350000Y-10294794D01*
X7350000Y-10264794D02*
X7320000Y-10294794D01*
X7330000Y-9175000D02*
X7360000Y-9205000D01*
X7360000Y-9175000D02*
X7330000Y-9205000D01*
X7395206Y-10264794D02*
X7425206Y-10294794D01*
X7425206Y-10264794D02*
X7395206Y-10294794D01*
X7490000Y-9170000D02*
X7520000Y-9200000D01*
X7520000Y-9170000D02*
X7490000Y-9200000D01*
X7524994Y-10314994D02*
X7554994Y-10344994D01*
X7554994Y-10314994D02*
X7524994Y-10344994D01*
X7650000Y-10195000D02*
X7680000Y-10225000D01*
X7680000Y-10195000D02*
X7650000Y-10225000D01*
X7655000Y-9175000D02*
X7685000Y-9205000D01*
X7685000Y-9175000D02*
X7655000Y-9205000D01*
X7780000Y-10140000D02*
X7810000Y-10170000D01*
X7810000Y-10140000D02*
X7780000Y-10170000D01*
X7830000Y-9170000D02*
X7860000Y-9200000D01*
X7860000Y-9170000D02*
X7830000Y-9200000D01*
X7907306Y-10387694D02*
X7937306Y-10417694D01*
X7937306Y-10387694D02*
X7907306Y-10417694D01*
X8030000Y-9170000D02*
X8060000Y-9200000D01*
X8060000Y-9170000D02*
X8030000Y-9200000D01*
X8285000Y-9710000D02*
X8315000Y-9740000D01*
X8315000Y-9710000D02*
X8285000Y-9740000D01*
X8400000Y-9115000D02*
X8430000Y-9145000D01*
X8430000Y-9115000D02*
X8400000Y-9145000D01*
X8730000Y-9175000D02*
X8760000Y-9205000D01*
X8760000Y-9175000D02*
X8730000Y-9205000D01*
X8905000Y-9155000D02*
X8935000Y-9185000D01*
X8935000Y-9155000D02*
X8905000Y-9185000D01*
X8985000Y-9710000D02*
X9015000Y-9740000D01*
X9015000Y-9710000D02*
X8985000Y-9740000D01*
X9125000Y-9070000D02*
X9155000Y-9100000D01*
X9155000Y-9070000D02*
X9125000Y-9100000D01*
X9129606Y-10440395D02*
X9159606Y-10470395D01*
X9159606Y-10440395D02*
X9129606Y-10470395D01*
X9305000Y-10264794D02*
X9335000Y-10294794D01*
X9335000Y-10264794D02*
X9305000Y-10294794D01*
X9379794Y-10264794D02*
X9409794Y-10294794D01*
X9409794Y-10264794D02*
X9379794Y-10294794D01*
X9430000Y-9165000D02*
X9460000Y-9195000D01*
X9460000Y-9165000D02*
X9430000Y-9195000D01*
X9500006Y-10314994D02*
X9530006Y-10344994D01*
X9530006Y-10314994D02*
X9500006Y-10344994D01*
X9510000Y-9660000D02*
X9540000Y-9690000D01*
X9540000Y-9660000D02*
X9510000Y-9690000D01*
X9600000Y-9165000D02*
X9630000Y-9195000D01*
X9630000Y-9165000D02*
X9600000Y-9195000D01*
X9635000Y-10195000D02*
X9665000Y-10225000D01*
X9665000Y-10195000D02*
X9635000Y-10225000D01*
X9760000Y-10140000D02*
X9790000Y-10170000D01*
X9790000Y-10140000D02*
X9760000Y-10170000D01*
X9780000Y-9170000D02*
X9810000Y-9200000D01*
X9810000Y-9170000D02*
X9780000Y-9200000D01*
X9882306Y-10387694D02*
X9912306Y-10417694D01*
X9912306Y-10387694D02*
X9882306Y-10417694D01*
X9910000Y-9160000D02*
X9940000Y-9190000D01*
X9940000Y-9160000D02*
X9910000Y-9190000D01*
X10135000Y-9170000D02*
X10165000Y-9200000D01*
X10165000Y-9170000D02*
X10135000Y-9200000D01*
X10235000Y-9710000D02*
X10265000Y-9740000D01*
X10265000Y-9710000D02*
X10235000Y-9740000D01*
X10530000Y-9070000D02*
X10560000Y-9100000D01*
X10560000Y-9070000D02*
X10530000Y-9100000D01*
X10845000Y-9160000D02*
X10875000Y-9190000D01*
X10875000Y-9160000D02*
X10845000Y-9190000D01*
X10910000Y-9710000D02*
X10940000Y-9740000D01*
X10940000Y-9710000D02*
X10910000Y-9740000D01*
X11010000Y-9165000D02*
X11040000Y-9195000D01*
X11040000Y-9165000D02*
X11010000Y-9195000D01*
X11029606Y-10440395D02*
X11059606Y-10470395D01*
X11059606Y-10440395D02*
X11029606Y-10470395D01*
X11200000Y-10264794D02*
X11230000Y-10294794D01*
X11230000Y-10264794D02*
X11200000Y-10294794D01*
X11235000Y-9085000D02*
X11265000Y-9115000D01*
X11265000Y-9085000D02*
X11235000Y-9115000D01*
X11274794Y-10264794D02*
X11304794Y-10294794D01*
X11304794Y-10264794D02*
X11274794Y-10294794D01*
X11405006Y-10314994D02*
X11435006Y-10344994D01*
X11435006Y-10314994D02*
X11405006Y-10344994D01*
X11525000Y-9175000D02*
X11555000Y-9205000D01*
X11555000Y-9175000D02*
X11525000Y-9205000D01*
X11530000Y-10195000D02*
X11560000Y-10225000D01*
X11560000Y-10195000D02*
X11530000Y-10225000D01*
X11610000Y-9660000D02*
X11640000Y-9690000D01*
X11640000Y-9660000D02*
X11610000Y-9690000D01*
X11655000Y-10140000D02*
X11685000Y-10170000D01*
X11685000Y-10140000D02*
X11655000Y-10170000D01*
X11685000Y-9170000D02*
X11715000Y-9200000D01*
X11715000Y-9170000D02*
X11685000Y-9200000D01*
X11782694Y-10387694D02*
X11812694Y-10417694D01*
X11812694Y-10387694D02*
X11782694Y-10417694D01*
X11870000Y-9160000D02*
X11900000Y-9190000D01*
X11900000Y-9160000D02*
X11870000Y-9190000D01*
X12000000Y-9155000D02*
X12030000Y-9185000D01*
X12030000Y-9155000D02*
X12000000Y-9185000D01*
X12310000Y-9710000D02*
X12340000Y-9740000D01*
X12340000Y-9710000D02*
X12310000Y-9740000D01*
X12400000Y-9155000D02*
X12430000Y-9185000D01*
X12430000Y-9155000D02*
X12400000Y-9185000D01*
X12595000Y-9065000D02*
X12625000Y-9095000D01*
X12625000Y-9065000D02*
X12595000Y-9095000D01*
X12905000Y-10440395D02*
X12935000Y-10470395D01*
X12935000Y-10440395D02*
X12905000Y-10470395D01*
X12930000Y-9170000D02*
X12960000Y-9200000D01*
X12960000Y-9170000D02*
X12930000Y-9200000D01*
X13010000Y-9710000D02*
X13040000Y-9740000D01*
X13040000Y-9710000D02*
X13010000Y-9740000D01*
X13095000Y-10264794D02*
X13125000Y-10294794D01*
X13125000Y-10264794D02*
X13095000Y-10294794D01*
X13105000Y-9165000D02*
X13135000Y-9195000D01*
X13135000Y-9165000D02*
X13105000Y-9195000D01*
X13170000Y-10264794D02*
X13200000Y-10294794D01*
X13200000Y-10264794D02*
X13170000Y-10294794D01*
X13274994Y-10314994D02*
X13304994Y-10344994D01*
X13304994Y-10314994D02*
X13274994Y-10344994D01*
X13295000Y-9135000D02*
X13325000Y-9165000D01*
X13325000Y-9135000D02*
X13295000Y-9165000D01*
X13410000Y-10195000D02*
X13440000Y-10225000D01*
X13440000Y-10195000D02*
X13410000Y-10225000D01*
X13535000Y-10140000D02*
X13565000Y-10170000D01*
X13565000Y-10140000D02*
X13535000Y-10170000D01*
X13615000Y-9175000D02*
X13645000Y-9205000D01*
X13645000Y-9175000D02*
X13615000Y-9205000D01*
X13662306Y-10387694D02*
X13692306Y-10417694D01*
X13692306Y-10387694D02*
X13662306Y-10417694D01*
X13795000Y-9160000D02*
X13825000Y-9190000D01*
X13825000Y-9160000D02*
X13795000Y-9190000D01*
X13860000Y-9710000D02*
X13890000Y-9740000D01*
X13890000Y-9710000D02*
X13860000Y-9740000D01*
X14000000Y-9195000D02*
X14030000Y-9225000D01*
X14030000Y-9195000D02*
X14000000Y-9225000D01*
X14320000Y-9175000D02*
X14350000Y-9205000D01*
X14350000Y-9175000D02*
X14320000Y-9205000D01*
X14410000Y-9710000D02*
X14440000Y-9740000D01*
X14440000Y-9710000D02*
X14410000Y-9740000D01*
X14495000Y-9160000D02*
X14525000Y-9190000D01*
X14525000Y-9160000D02*
X14495000Y-9190000D01*
X14710000Y-9075000D02*
X14740000Y-9105000D01*
X14740000Y-9075000D02*
X14710000Y-9105000D01*
X15074606Y-10440395D02*
X15104606Y-10470395D01*
X15104606Y-10440395D02*
X15074606Y-10470395D01*
X15110000Y-9710000D02*
X15140000Y-9740000D01*
X15140000Y-9710000D02*
X15110000Y-9740000D01*
X15200000Y-10264794D02*
X15230000Y-10294794D01*
X15230000Y-10264794D02*
X15200000Y-10294794D01*
X15205000Y-9160000D02*
X15235000Y-9190000D01*
X15235000Y-9160000D02*
X15205000Y-9190000D01*
X15330000Y-10264794D02*
X15360000Y-10294794D01*
X15360000Y-10264794D02*
X15330000Y-10294794D01*
X15400000Y-9080000D02*
X15430000Y-9110000D01*
X15430000Y-9080000D02*
X15400000Y-9110000D01*
X15455006Y-10314994D02*
X15485006Y-10344994D01*
X15485006Y-10314994D02*
X15455006Y-10344994D01*
X15585000Y-10195000D02*
X15615000Y-10225000D01*
X15615000Y-10195000D02*
X15585000Y-10225000D01*
X15710000Y-10140000D02*
X15740000Y-10170000D01*
X15740000Y-10140000D02*
X15710000Y-10170000D01*
X15725000Y-9170000D02*
X15755000Y-9200000D01*
X15755000Y-9170000D02*
X15725000Y-9200000D01*
X15837694Y-10387694D02*
X15867694Y-10417694D01*
X15867694Y-10387694D02*
X15837694Y-10417694D01*
X15860000Y-9710000D02*
X15890000Y-9740000D01*
X15890000Y-9710000D02*
X15860000Y-9740000D01*
X15900000Y-9175000D02*
X15930000Y-9205000D01*
X15930000Y-9175000D02*
X15900000Y-9205000D01*
X16095000Y-9170000D02*
X16125000Y-9200000D01*
X16125000Y-9170000D02*
X16095000Y-9200000D01*
X16435000Y-9155000D02*
X16465000Y-9185000D01*
X16465000Y-9155000D02*
X16435000Y-9185000D01*
X16510000Y-9710000D02*
X16540000Y-9740000D01*
X16540000Y-9710000D02*
X16510000Y-9740000D01*
X16574606Y-10440395D02*
X16604606Y-10470395D01*
X16604606Y-10440395D02*
X16574606Y-10470395D01*
X16585000Y-9170000D02*
X16615000Y-9200000D01*
X16615000Y-9170000D02*
X16585000Y-9200000D01*
X16755000Y-10264794D02*
X16785000Y-10294794D01*
X16785000Y-10264794D02*
X16755000Y-10294794D01*
X16785000Y-9165000D02*
X16815000Y-9195000D01*
X16815000Y-9165000D02*
X16785000Y-9195000D01*
X16830000Y-10264794D02*
X16860000Y-10294794D01*
X16860000Y-10264794D02*
X16830000Y-10294794D01*
X16954994Y-10314994D02*
X16984994Y-10344994D01*
X16984994Y-10314994D02*
X16954994Y-10344994D01*
X16960000Y-9175000D02*
X16990000Y-9205000D01*
X16990000Y-9175000D02*
X16960000Y-9205000D01*
X17080000Y-10195000D02*
X17110000Y-10225000D01*
X17110000Y-10195000D02*
X17080000Y-10225000D01*
X17135000Y-9170000D02*
X17165000Y-9200000D01*
X17165000Y-9170000D02*
X17135000Y-9200000D01*
X17205000Y-10140000D02*
X17235000Y-10170000D01*
X17235000Y-10140000D02*
X17205000Y-10170000D01*
X17210000Y-9685000D02*
X17240000Y-9715000D01*
X17240000Y-9685000D02*
X17210000Y-9715000D01*
X17325000Y-9170000D02*
X17355000Y-9200000D01*
X17355000Y-9170000D02*
X17325000Y-9200000D01*
X17332306Y-10387694D02*
X17362306Y-10417694D01*
X17362306Y-10387694D02*
X17332306Y-10417694D01*
X17630000Y-9160000D02*
X17660000Y-9190000D01*
X17660000Y-9160000D02*
X17630000Y-9190000D01*
X17985000Y-9155000D02*
X18015000Y-9185000D01*
X18015000Y-9155000D02*
X17985000Y-9185000D01*
X17985000Y-9710000D02*
X18015000Y-9740000D01*
X18015000Y-9710000D02*
X17985000Y-9740000D01*
X18080000Y-10437894D02*
X18110000Y-10467894D01*
X18110000Y-10437894D02*
X18080000Y-10467894D01*
X18210000Y-9170000D02*
X18240000Y-9200000D01*
X18240000Y-9170000D02*
X18210000Y-9200000D01*
X18225000Y-10264794D02*
X18255000Y-10294794D01*
X18255000Y-10264794D02*
X18225000Y-10294794D01*
X18355000Y-9185000D02*
X18385000Y-9215000D01*
X18385000Y-9185000D02*
X18355000Y-9215000D01*
X18365000Y-10245200D02*
X18395000Y-10275200D01*
X18395000Y-10245200D02*
X18365000Y-10275200D01*
X18464994Y-10314994D02*
X18494994Y-10344994D01*
X18494994Y-10314994D02*
X18464994Y-10344994D01*
X18535000Y-9160000D02*
X18565000Y-9190000D01*
X18565000Y-9160000D02*
X18535000Y-9190000D01*
X18595000Y-10195000D02*
X18625000Y-10225000D01*
X18625000Y-10195000D02*
X18595000Y-10225000D01*
X18610000Y-9660000D02*
X18640000Y-9690000D01*
X18640000Y-9660000D02*
X18610000Y-9690000D01*
X18685000Y-9160000D02*
X18715000Y-9190000D01*
X18715000Y-9160000D02*
X18685000Y-9190000D01*
X18720000Y-10140000D02*
X18750000Y-10170000D01*
X18750000Y-10140000D02*
X18720000Y-10170000D01*
X18842306Y-10387694D02*
X18872306Y-10417694D01*
X18872306Y-10387694D02*
X18842306Y-10417694D01*
X19035000Y-9095000D02*
X19065000Y-9125000D01*
X19065000Y-9095000D02*
X19035000Y-9125000D01*
X19250000Y-9170000D02*
X19280000Y-9200000D01*
X19280000Y-9170000D02*
X19250000Y-9200000D01*
X19310000Y-9710000D02*
X19340000Y-9740000D01*
X19340000Y-9710000D02*
X19310000Y-9740000D01*
X19430000Y-9170000D02*
X19460000Y-9200000D01*
X19460000Y-9170000D02*
X19430000Y-9200000D01*
X19710000Y-10285000D02*
X19740000Y-10315000D01*
X19740000Y-10285000D02*
X19710000Y-10315000D01*
X20485000Y-10135000D02*
X20515000Y-10165000D01*
X20515000Y-10135000D02*
X20485000Y-10165000D01*
X21685000Y-9760000D02*
X21715000Y-9790000D01*
X21715000Y-9760000D02*
X21685000Y-9790000D01*
X21960000Y-8810000D02*
X21990000Y-8840000D01*
X21990000Y-8810000D02*
X21960000Y-8840000D01*
X22110000Y-11010000D02*
X22140000Y-11040000D01*
X22140000Y-11010000D02*
X22110000Y-11040000D01*
X22160000Y-9035000D02*
X22190000Y-9065000D01*
X22190000Y-9035000D02*
X22160000Y-9065000D01*
X22285000Y-10685000D02*
X22315000Y-10715000D01*
X22315000Y-10685000D02*
X22285000Y-10715000D01*
X22660000Y-10085000D02*
X22690000Y-10115000D01*
X22690000Y-10085000D02*
X22660000Y-10115000D01*
X22860000Y-8935000D02*
X22890000Y-8965000D01*
X22890000Y-8935000D02*
X22860000Y-8965000D01*
X22910000Y-11310000D02*
X22940000Y-11340000D01*
X22940000Y-11310000D02*
X22910000Y-11340000D01*
X23085000Y-11585000D02*
X23115000Y-11615000D01*
X23115000Y-11585000D02*
X23085000Y-11615000D01*
X23160000Y-9560000D02*
X23190000Y-9590000D01*
X23190000Y-9560000D02*
X23160000Y-9590000D01*
X23210000Y-10485000D02*
X23240000Y-10515000D01*
X23240000Y-10485000D02*
X23210000Y-10515000D01*
X23235000Y-9185000D02*
X23265000Y-9215000D01*
X23265000Y-9185000D02*
X23235000Y-9215000D01*
X23235000Y-9810000D02*
X23265000Y-9840000D01*
X23265000Y-9810000D02*
X23235000Y-9840000D01*
X23235000Y-9960000D02*
X23265000Y-9990000D01*
X23265000Y-9960000D02*
X23235000Y-9990000D01*
X23235000Y-10035000D02*
X23265000Y-10065000D01*
X23265000Y-10035000D02*
X23235000Y-10065000D01*
X23285000Y-8335000D02*
X23315000Y-8365000D01*
X23315000Y-8335000D02*
X23285000Y-8365000D01*
X23285000Y-9560000D02*
X23315000Y-9590000D01*
X23315000Y-9560000D02*
X23285000Y-9590000D01*
X23335000Y-8710000D02*
X23365000Y-8740000D01*
X23365000Y-8710000D02*
X23335000Y-8740000D01*
X23410000Y-10060000D02*
X23440000Y-10090000D01*
X23440000Y-10060000D02*
X23410000Y-10090000D01*
X23435000Y-9709800D02*
X23465000Y-9739800D01*
X23465000Y-9709800D02*
X23435000Y-9739800D01*
X23485000Y-10610000D02*
X23515000Y-10640000D01*
X23515000Y-10610000D02*
X23485000Y-10640000D01*
X23486304Y-9761309D02*
X23516304Y-9791309D01*
X23516304Y-9761309D02*
X23486304Y-9791309D01*
X23510000Y-10885000D02*
X23540000Y-10915000D01*
X23540000Y-10885000D02*
X23510000Y-10915000D01*
X23660000Y-8860000D02*
X23690000Y-8890000D01*
X23690000Y-8860000D02*
X23660000Y-8890000D01*
X23660000Y-9160000D02*
X23690000Y-9190000D01*
X23690000Y-9160000D02*
X23660000Y-9190000D01*
X23660000Y-9685000D02*
X23690000Y-9715000D01*
X23690000Y-9685000D02*
X23660000Y-9715000D01*
X23660000Y-9909800D02*
X23690000Y-9939800D01*
X23690000Y-9909800D02*
X23660000Y-9939800D01*
X23660000Y-10037901D02*
X23690000Y-10067901D01*
X23690000Y-10037901D02*
X23660000Y-10067901D01*
X23660000Y-10685000D02*
X23690000Y-10715000D01*
X23690000Y-10685000D02*
X23660000Y-10715000D01*
X23728164Y-10378164D02*
X23758164Y-10408164D01*
X23758164Y-10378164D02*
X23728164Y-10408164D01*
X23884800Y-10535000D02*
X23914800Y-10565000D01*
X23914800Y-10535000D02*
X23884800Y-10565000D01*
X23910000Y-9435000D02*
X23940000Y-9465000D01*
X23940000Y-9435000D02*
X23910000Y-9465000D01*
X23935000Y-10060000D02*
X23965000Y-10090000D01*
X23965000Y-10060000D02*
X23935000Y-10090000D01*
X23935000Y-10959800D02*
X23965000Y-10989800D01*
X23965000Y-10959800D02*
X23935000Y-10989800D01*
X24085000Y-11010000D02*
X24115000Y-11040000D01*
X24115000Y-11010000D02*
X24085000Y-11040000D01*
X24210000Y-9585000D02*
X24240000Y-9615000D01*
X24240000Y-9585000D02*
X24210000Y-9615000D01*
X24760000Y-9485000D02*
X24790000Y-9515000D01*
X24790000Y-9485000D02*
X24760000Y-9515000D01*
X24835000Y-9085000D02*
X24865000Y-9115000D01*
X24865000Y-9085000D02*
X24835000Y-9115000D01*
X25210000Y-9635000D02*
X25240000Y-9665000D01*
X25240000Y-9635000D02*
X25210000Y-9665000D01*
X25210000Y-9835000D02*
X25240000Y-9865000D01*
X25240000Y-9835000D02*
X25210000Y-9865000D01*
X25460000Y-9060000D02*
X25490000Y-9090000D01*
X25490000Y-9060000D02*
X25460000Y-9090000D01*
X26035000Y-9885000D02*
X26065000Y-9915000D01*
X26065000Y-9885000D02*
X26035000Y-9915000D01*
X26385000Y-8910000D02*
X26415000Y-8940000D01*
X26415000Y-8910000D02*
X26385000Y-8940000D01*
X26510000Y-11035000D02*
X26540000Y-11065000D01*
X26540000Y-11035000D02*
X26510000Y-11065000D01*
X7085000Y-9715000D02*
G75*
G03*
X7085000Y-9715000I-20000J0D01*
G01*
X14835000Y-9080000D02*
G75*
G03*
X14835000Y-9080000I-20000J0D01*
G01*
X21250394Y-10465394D02*
G75*
G03*
X21250394Y-10465394I-20000J0D01*
G01*
X21545000Y-9225000D02*
G75*
G03*
X21545000Y-9225000I-20000J0D01*
G01*
X27105000Y-10395000D02*
X27105000Y-10455000D01*
X27075000Y-10425000D02*
X27135000Y-10425000D01*
X27070000Y-10445000D02*
X27140000Y-10445000D01*
X27070000Y-10405000D02*
X27140000Y-10405000D01*
X27140000Y-10445000D02*
G75*
G03*
X27140000Y-10405000I0J20000D01*
G01*
X27070000Y-10405000D02*
G75*
G03*
X27070000Y-10445000I0J-20000D01*
G01*
X27105000Y-11095000D02*
X27105000Y-11155000D01*
X27075000Y-11125000D02*
X27135000Y-11125000D01*
X27140000Y-11105000D02*
X27070000Y-11105000D01*
X27140000Y-11145000D02*
X27070000Y-11145000D01*
X27070000Y-11105000D02*
G75*
G03*
X27070000Y-11145000I0J-20000D01*
G01*
X27140000Y-11145000D02*
G75*
G03*
X27140000Y-11105000I0J20000D01*
G01*
X26865052Y-10555052D02*
X26865052Y-10494948D01*
X26804948Y-10494948D01*
X26804948Y-10555052D01*
X26865052Y-10555052D01*
X26865052Y-11055052D02*
X26865052Y-10994948D01*
X26804948Y-10994948D01*
X26804948Y-11055052D01*
X26865052Y-11055052D01*
X26480000Y-9795000D02*
X26525000Y-9750000D01*
X26480000Y-9705000D01*
X26435000Y-9750000D01*
X26480000Y-9795000D01*
X26734000Y-9795000D02*
X26779000Y-9750000D01*
X26734000Y-9705000D01*
X26689000Y-9750000D01*
X26734000Y-9795000D01*
X22140000Y-7620000D02*
X22240000Y-7720000D01*
X22240000Y-7620000D02*
X22140000Y-7720000D01*
X22240000Y-7670000D02*
G75*
G03*
X22240000Y-7670000I-50000J0D01*
G01*
X22394000Y-7620000D02*
X22494000Y-7720000D01*
X22494000Y-7620000D02*
X22394000Y-7720000D01*
X22494000Y-7670000D02*
G75*
G03*
X22494000Y-7670000I-50000J0D01*
G01*
X23050000Y-7625000D02*
X23150000Y-7725000D01*
X23150000Y-7625000D02*
X23050000Y-7725000D01*
X23150000Y-7675000D02*
G75*
G03*
X23150000Y-7675000I-50000J0D01*
G01*
X23304000Y-7625000D02*
X23404000Y-7725000D01*
X23404000Y-7625000D02*
X23304000Y-7725000D01*
X23404000Y-7675000D02*
G75*
G03*
X23404000Y-7675000I-50000J0D01*
G01*
X23558000Y-7625000D02*
X23658000Y-7725000D01*
X23658000Y-7625000D02*
X23558000Y-7725000D01*
X23658000Y-7675000D02*
G75*
G03*
X23658000Y-7675000I-50000J0D01*
G01*
X23812000Y-7625000D02*
X23912000Y-7725000D01*
X23912000Y-7625000D02*
X23812000Y-7725000D01*
X23912000Y-7675000D02*
G75*
G03*
X23912000Y-7675000I-50000J0D01*
G01*
X26346000Y-8121000D02*
X26446000Y-8221000D01*
X26446000Y-8121000D02*
X26346000Y-8221000D01*
X26446000Y-8171000D02*
G75*
G03*
X26446000Y-8171000I-50000J0D01*
G01*
X26346000Y-8375000D02*
X26446000Y-8475000D01*
X26446000Y-8375000D02*
X26346000Y-8475000D01*
X26446000Y-8425000D02*
G75*
G03*
X26446000Y-8425000I-50000J0D01*
G01*
X26346000Y-8629000D02*
X26446000Y-8729000D01*
X26446000Y-8629000D02*
X26346000Y-8729000D01*
X26446000Y-8679000D02*
G75*
G03*
X26446000Y-8679000I-50000J0D01*
G01*
X26600000Y-8121000D02*
X26700000Y-8221000D01*
X26700000Y-8121000D02*
X26600000Y-8221000D01*
X26700000Y-8171000D02*
G75*
G03*
X26700000Y-8171000I-50000J0D01*
G01*
X26600000Y-8375000D02*
X26700000Y-8475000D01*
X26700000Y-8375000D02*
X26600000Y-8475000D01*
X26700000Y-8425000D02*
G75*
G03*
X26700000Y-8425000I-50000J0D01*
G01*
X26600000Y-8629000D02*
X26700000Y-8729000D01*
X26700000Y-8629000D02*
X26600000Y-8729000D01*
X26700000Y-8679000D02*
G75*
G03*
X26700000Y-8679000I-50000J0D01*
G01*
D12*
X5284523Y-12667619D02*
X5284523Y-12367619D01*
X5355952Y-12367619D01*
X5398809Y-12381905D01*
X5427381Y-12410476D01*
X5441666Y-12439048D01*
X5455952Y-12496191D01*
X5455952Y-12539048D01*
X5441666Y-12596191D01*
X5427381Y-12624762D01*
X5398809Y-12653334D01*
X5355952Y-12667619D01*
X5284523Y-12667619D01*
X5584523Y-12667619D02*
X5584523Y-12467619D01*
X5584523Y-12524762D02*
X5598809Y-12496191D01*
X5613095Y-12481905D01*
X5641666Y-12467619D01*
X5670238Y-12467619D01*
X5770238Y-12667619D02*
X5770238Y-12467619D01*
X5770238Y-12367619D02*
X5755952Y-12381905D01*
X5770238Y-12396191D01*
X5784523Y-12381905D01*
X5770238Y-12367619D01*
X5770238Y-12396191D01*
X5955952Y-12667619D02*
X5927381Y-12653334D01*
X5913095Y-12624762D01*
X5913095Y-12367619D01*
X6113095Y-12667619D02*
X6084523Y-12653334D01*
X6070238Y-12624762D01*
X6070238Y-12367619D01*
X6455952Y-12667619D02*
X6455952Y-12367619D01*
X6555952Y-12581905D01*
X6655952Y-12367619D01*
X6655952Y-12667619D01*
X6927381Y-12667619D02*
X6927381Y-12510476D01*
X6913095Y-12481905D01*
X6884523Y-12467619D01*
X6827381Y-12467619D01*
X6798809Y-12481905D01*
X6927381Y-12653334D02*
X6898809Y-12667619D01*
X6827381Y-12667619D01*
X6798809Y-12653334D01*
X6784523Y-12624762D01*
X6784523Y-12596191D01*
X6798809Y-12567619D01*
X6827381Y-12553334D01*
X6898809Y-12553334D01*
X6927381Y-12539048D01*
X7070238Y-12467619D02*
X7070238Y-12767619D01*
X7070238Y-12481905D02*
X7098809Y-12467619D01*
X7155952Y-12467619D01*
X7184523Y-12481905D01*
X7198809Y-12496191D01*
X7213095Y-12524762D01*
X7213095Y-12610476D01*
X7198809Y-12639048D01*
X7184523Y-12653334D01*
X7155952Y-12667619D01*
X7098809Y-12667619D01*
X7070238Y-12653334D01*
X7341666Y-12639048D02*
X7355952Y-12653334D01*
X7341666Y-12667619D01*
X7327381Y-12653334D01*
X7341666Y-12639048D01*
X7341666Y-12667619D01*
X7341666Y-12481905D02*
X7355952Y-12496191D01*
X7341666Y-12510476D01*
X7327381Y-12496191D01*
X7341666Y-12481905D01*
X7341666Y-12510476D01*
X4968095Y-13146905D02*
X4998095Y-13176905D01*
X4998095Y-13146905D02*
X4968095Y-13176905D01*
X5341666Y-12997619D02*
X5370238Y-12997619D01*
X5398809Y-13011905D01*
X5413095Y-13026191D01*
X5427381Y-13054762D01*
X5441666Y-13111905D01*
X5441666Y-13183334D01*
X5427381Y-13240476D01*
X5413095Y-13269048D01*
X5398809Y-13283334D01*
X5370238Y-13297619D01*
X5341666Y-13297619D01*
X5313095Y-13283334D01*
X5298809Y-13269048D01*
X5284523Y-13240476D01*
X5270238Y-13183334D01*
X5270238Y-13111905D01*
X5284523Y-13054762D01*
X5298809Y-13026191D01*
X5313095Y-13011905D01*
X5341666Y-12997619D01*
X5570238Y-13269048D02*
X5584523Y-13283334D01*
X5570238Y-13297619D01*
X5555952Y-13283334D01*
X5570238Y-13269048D01*
X5570238Y-13297619D01*
X5684523Y-12997619D02*
X5870238Y-12997619D01*
X5770238Y-13111905D01*
X5813095Y-13111905D01*
X5841666Y-13126191D01*
X5855952Y-13140476D01*
X5870238Y-13169048D01*
X5870238Y-13240476D01*
X5855952Y-13269048D01*
X5841666Y-13283334D01*
X5813095Y-13297619D01*
X5727381Y-13297619D01*
X5698809Y-13283334D01*
X5684523Y-13269048D01*
X6055952Y-12997619D02*
X6084523Y-12997619D01*
X6113095Y-13011905D01*
X6127381Y-13026191D01*
X6141666Y-13054762D01*
X6155952Y-13111905D01*
X6155952Y-13183334D01*
X6141666Y-13240476D01*
X6127381Y-13269048D01*
X6113095Y-13283334D01*
X6084523Y-13297619D01*
X6055952Y-13297619D01*
X6027381Y-13283334D01*
X6013095Y-13269048D01*
X5998809Y-13240476D01*
X5984523Y-13183334D01*
X5984523Y-13111905D01*
X5998809Y-13054762D01*
X6013095Y-13026191D01*
X6027381Y-13011905D01*
X6055952Y-12997619D01*
X6341666Y-12997619D02*
X6370238Y-12997619D01*
X6398809Y-13011905D01*
X6413095Y-13026191D01*
X6427381Y-13054762D01*
X6441666Y-13111905D01*
X6441666Y-13183334D01*
X6427381Y-13240476D01*
X6413095Y-13269048D01*
X6398809Y-13283334D01*
X6370238Y-13297619D01*
X6341666Y-13297619D01*
X6313095Y-13283334D01*
X6298809Y-13269048D01*
X6284523Y-13240476D01*
X6270238Y-13183334D01*
X6270238Y-13111905D01*
X6284523Y-13054762D01*
X6298809Y-13026191D01*
X6313095Y-13011905D01*
X6341666Y-12997619D01*
X6570238Y-13297619D02*
X6570238Y-13097619D01*
X6570238Y-13126191D02*
X6584523Y-13111905D01*
X6613095Y-13097619D01*
X6655952Y-13097619D01*
X6684523Y-13111905D01*
X6698809Y-13140476D01*
X6698809Y-13297619D01*
X6698809Y-13140476D02*
X6713095Y-13111905D01*
X6741666Y-13097619D01*
X6784523Y-13097619D01*
X6813095Y-13111905D01*
X6827381Y-13140476D01*
X6827381Y-13297619D01*
X6970238Y-13297619D02*
X6970238Y-13097619D01*
X6970238Y-13126191D02*
X6984523Y-13111905D01*
X7013095Y-13097619D01*
X7055952Y-13097619D01*
X7084523Y-13111905D01*
X7098809Y-13140476D01*
X7098809Y-13297619D01*
X7098809Y-13140476D02*
X7113095Y-13111905D01*
X7141666Y-13097619D01*
X7184523Y-13097619D01*
X7213095Y-13111905D01*
X7227381Y-13140476D01*
X7227381Y-13297619D01*
X7813095Y-12983334D02*
X7555952Y-13369048D01*
X8198809Y-12997619D02*
X8227381Y-12997619D01*
X8255952Y-13011905D01*
X8270238Y-13026191D01*
X8284523Y-13054762D01*
X8298809Y-13111905D01*
X8298809Y-13183334D01*
X8284523Y-13240476D01*
X8270238Y-13269048D01*
X8255952Y-13283334D01*
X8227381Y-13297619D01*
X8198809Y-13297619D01*
X8170238Y-13283334D01*
X8155952Y-13269048D01*
X8141666Y-13240476D01*
X8127381Y-13183334D01*
X8127381Y-13111905D01*
X8141666Y-13054762D01*
X8155952Y-13026191D01*
X8170238Y-13011905D01*
X8198809Y-12997619D01*
X8427381Y-13269048D02*
X8441666Y-13283334D01*
X8427381Y-13297619D01*
X8413095Y-13283334D01*
X8427381Y-13269048D01*
X8427381Y-13297619D01*
X8627381Y-12997619D02*
X8655952Y-12997619D01*
X8684523Y-13011905D01*
X8698809Y-13026191D01*
X8713095Y-13054762D01*
X8727381Y-13111905D01*
X8727381Y-13183334D01*
X8713095Y-13240476D01*
X8698809Y-13269048D01*
X8684523Y-13283334D01*
X8655952Y-13297619D01*
X8627381Y-13297619D01*
X8598809Y-13283334D01*
X8584523Y-13269048D01*
X8570238Y-13240476D01*
X8555952Y-13183334D01*
X8555952Y-13111905D01*
X8570238Y-13054762D01*
X8584523Y-13026191D01*
X8598809Y-13011905D01*
X8627381Y-12997619D01*
X9013095Y-13297619D02*
X8841666Y-13297619D01*
X8927381Y-13297619D02*
X8927381Y-12997619D01*
X8898809Y-13040476D01*
X8870238Y-13069048D01*
X8841666Y-13083334D01*
X9298809Y-13297619D02*
X9127381Y-13297619D01*
X9213095Y-13297619D02*
X9213095Y-12997619D01*
X9184523Y-13040476D01*
X9155952Y-13069048D01*
X9127381Y-13083334D01*
X9470238Y-13126191D02*
X9441666Y-13111905D01*
X9427381Y-13097619D01*
X9413095Y-13069048D01*
X9413095Y-13054762D01*
X9427381Y-13026191D01*
X9441666Y-13011905D01*
X9470238Y-12997619D01*
X9527381Y-12997619D01*
X9555952Y-13011905D01*
X9570238Y-13026191D01*
X9584523Y-13054762D01*
X9584523Y-13069048D01*
X9570238Y-13097619D01*
X9555952Y-13111905D01*
X9527381Y-13126191D01*
X9470238Y-13126191D01*
X9441666Y-13140476D01*
X9427381Y-13154762D01*
X9413095Y-13183334D01*
X9413095Y-13240476D01*
X9427381Y-13269048D01*
X9441666Y-13283334D01*
X9470238Y-13297619D01*
X9527381Y-13297619D01*
X9555952Y-13283334D01*
X9570238Y-13269048D01*
X9584523Y-13240476D01*
X9584523Y-13183334D01*
X9570238Y-13154762D01*
X9555952Y-13140476D01*
X9527381Y-13126191D01*
X9698809Y-12997619D02*
X9698809Y-13054762D01*
X9813095Y-12997619D02*
X9813095Y-13054762D01*
X10255952Y-13411905D02*
X10241666Y-13397619D01*
X10213095Y-13354762D01*
X10198809Y-13326191D01*
X10184523Y-13283334D01*
X10170238Y-13211905D01*
X10170238Y-13154762D01*
X10184523Y-13083334D01*
X10198809Y-13040476D01*
X10213095Y-13011905D01*
X10241666Y-12969048D01*
X10255952Y-12954762D01*
X10527381Y-13297619D02*
X10355952Y-13297619D01*
X10441666Y-13297619D02*
X10441666Y-12997619D01*
X10413095Y-13040476D01*
X10384523Y-13069048D01*
X10355952Y-13083334D01*
X10698809Y-13126191D02*
X10670238Y-13111905D01*
X10655952Y-13097619D01*
X10641666Y-13069048D01*
X10641666Y-13054762D01*
X10655952Y-13026191D01*
X10670238Y-13011905D01*
X10698809Y-12997619D01*
X10755952Y-12997619D01*
X10784523Y-13011905D01*
X10798809Y-13026191D01*
X10813095Y-13054762D01*
X10813095Y-13069048D01*
X10798809Y-13097619D01*
X10784523Y-13111905D01*
X10755952Y-13126191D01*
X10698809Y-13126191D01*
X10670238Y-13140476D01*
X10655952Y-13154762D01*
X10641666Y-13183334D01*
X10641666Y-13240476D01*
X10655952Y-13269048D01*
X10670238Y-13283334D01*
X10698809Y-13297619D01*
X10755952Y-13297619D01*
X10784523Y-13283334D01*
X10798809Y-13269048D01*
X10813095Y-13240476D01*
X10813095Y-13183334D01*
X10798809Y-13154762D01*
X10784523Y-13140476D01*
X10755952Y-13126191D01*
X11070238Y-13097619D02*
X11070238Y-13297619D01*
X10998809Y-12983334D02*
X10927381Y-13197619D01*
X11113095Y-13197619D01*
X11455952Y-13297619D02*
X11455952Y-12997619D01*
X11584523Y-13297619D02*
X11584523Y-13140476D01*
X11570238Y-13111905D01*
X11541666Y-13097619D01*
X11498809Y-13097619D01*
X11470238Y-13111905D01*
X11455952Y-13126191D01*
X11770238Y-13297619D02*
X11741666Y-13283334D01*
X11727381Y-13269048D01*
X11713095Y-13240476D01*
X11713095Y-13154762D01*
X11727381Y-13126191D01*
X11741666Y-13111905D01*
X11770238Y-13097619D01*
X11813095Y-13097619D01*
X11841666Y-13111905D01*
X11855952Y-13126191D01*
X11870238Y-13154762D01*
X11870238Y-13240476D01*
X11855952Y-13269048D01*
X11841666Y-13283334D01*
X11813095Y-13297619D01*
X11770238Y-13297619D01*
X12041666Y-13297619D02*
X12013095Y-13283334D01*
X11998809Y-13254762D01*
X11998809Y-12997619D01*
X12270238Y-13283334D02*
X12241666Y-13297619D01*
X12184523Y-13297619D01*
X12155952Y-13283334D01*
X12141666Y-13254762D01*
X12141666Y-13140476D01*
X12155952Y-13111905D01*
X12184523Y-13097619D01*
X12241666Y-13097619D01*
X12270238Y-13111905D01*
X12284523Y-13140476D01*
X12284523Y-13169048D01*
X12141666Y-13197619D01*
X12398809Y-13283334D02*
X12427381Y-13297619D01*
X12484523Y-13297619D01*
X12513095Y-13283334D01*
X12527381Y-13254762D01*
X12527381Y-13240476D01*
X12513095Y-13211905D01*
X12484523Y-13197619D01*
X12441666Y-13197619D01*
X12413095Y-13183334D01*
X12398809Y-13154762D01*
X12398809Y-13140476D01*
X12413095Y-13111905D01*
X12441666Y-13097619D01*
X12484523Y-13097619D01*
X12513095Y-13111905D01*
X12627381Y-13411905D02*
X12641666Y-13397619D01*
X12670238Y-13354762D01*
X12684523Y-13326191D01*
X12698809Y-13283334D01*
X12713095Y-13211905D01*
X12713095Y-13154762D01*
X12698809Y-13083334D01*
X12684523Y-13040476D01*
X12670238Y-13011905D01*
X12641666Y-12969048D01*
X12627381Y-12954762D01*
X4998095Y-13557905D02*
G75*
G03*
X4998095Y-13557905I-20000J0D01*
G01*
X5341666Y-13393619D02*
X5370238Y-13393619D01*
X5398809Y-13407905D01*
X5413095Y-13422191D01*
X5427381Y-13450762D01*
X5441666Y-13507905D01*
X5441666Y-13579334D01*
X5427381Y-13636476D01*
X5413095Y-13665048D01*
X5398809Y-13679334D01*
X5370238Y-13693619D01*
X5341666Y-13693619D01*
X5313095Y-13679334D01*
X5298809Y-13665048D01*
X5284523Y-13636476D01*
X5270238Y-13579334D01*
X5270238Y-13507905D01*
X5284523Y-13450762D01*
X5298809Y-13422191D01*
X5313095Y-13407905D01*
X5341666Y-13393619D01*
X5570238Y-13665048D02*
X5584523Y-13679334D01*
X5570238Y-13693619D01*
X5555952Y-13679334D01*
X5570238Y-13665048D01*
X5570238Y-13693619D01*
X5841666Y-13493619D02*
X5841666Y-13693619D01*
X5770238Y-13379334D02*
X5698809Y-13593619D01*
X5884523Y-13593619D01*
X6055952Y-13393619D02*
X6084523Y-13393619D01*
X6113095Y-13407905D01*
X6127381Y-13422191D01*
X6141666Y-13450762D01*
X6155952Y-13507905D01*
X6155952Y-13579334D01*
X6141666Y-13636476D01*
X6127381Y-13665048D01*
X6113095Y-13679334D01*
X6084523Y-13693619D01*
X6055952Y-13693619D01*
X6027381Y-13679334D01*
X6013095Y-13665048D01*
X5998809Y-13636476D01*
X5984523Y-13579334D01*
X5984523Y-13507905D01*
X5998809Y-13450762D01*
X6013095Y-13422191D01*
X6027381Y-13407905D01*
X6055952Y-13393619D01*
X6341666Y-13393619D02*
X6370238Y-13393619D01*
X6398809Y-13407905D01*
X6413095Y-13422191D01*
X6427381Y-13450762D01*
X6441666Y-13507905D01*
X6441666Y-13579334D01*
X6427381Y-13636476D01*
X6413095Y-13665048D01*
X6398809Y-13679334D01*
X6370238Y-13693619D01*
X6341666Y-13693619D01*
X6313095Y-13679334D01*
X6298809Y-13665048D01*
X6284523Y-13636476D01*
X6270238Y-13579334D01*
X6270238Y-13507905D01*
X6284523Y-13450762D01*
X6298809Y-13422191D01*
X6313095Y-13407905D01*
X6341666Y-13393619D01*
X6570238Y-13693619D02*
X6570238Y-13493619D01*
X6570238Y-13522191D02*
X6584523Y-13507905D01*
X6613095Y-13493619D01*
X6655952Y-13493619D01*
X6684523Y-13507905D01*
X6698809Y-13536476D01*
X6698809Y-13693619D01*
X6698809Y-13536476D02*
X6713095Y-13507905D01*
X6741666Y-13493619D01*
X6784523Y-13493619D01*
X6813095Y-13507905D01*
X6827381Y-13536476D01*
X6827381Y-13693619D01*
X6970238Y-13693619D02*
X6970238Y-13493619D01*
X6970238Y-13522191D02*
X6984523Y-13507905D01*
X7013095Y-13493619D01*
X7055952Y-13493619D01*
X7084523Y-13507905D01*
X7098809Y-13536476D01*
X7098809Y-13693619D01*
X7098809Y-13536476D02*
X7113095Y-13507905D01*
X7141666Y-13493619D01*
X7184523Y-13493619D01*
X7213095Y-13507905D01*
X7227381Y-13536476D01*
X7227381Y-13693619D01*
X7813095Y-13379334D02*
X7555952Y-13765048D01*
X8198809Y-13393619D02*
X8227381Y-13393619D01*
X8255952Y-13407905D01*
X8270238Y-13422191D01*
X8284523Y-13450762D01*
X8298809Y-13507905D01*
X8298809Y-13579334D01*
X8284523Y-13636476D01*
X8270238Y-13665048D01*
X8255952Y-13679334D01*
X8227381Y-13693619D01*
X8198809Y-13693619D01*
X8170238Y-13679334D01*
X8155952Y-13665048D01*
X8141666Y-13636476D01*
X8127381Y-13579334D01*
X8127381Y-13507905D01*
X8141666Y-13450762D01*
X8155952Y-13422191D01*
X8170238Y-13407905D01*
X8198809Y-13393619D01*
X8427381Y-13665048D02*
X8441666Y-13679334D01*
X8427381Y-13693619D01*
X8413095Y-13679334D01*
X8427381Y-13665048D01*
X8427381Y-13693619D01*
X8627381Y-13393619D02*
X8655952Y-13393619D01*
X8684523Y-13407905D01*
X8698809Y-13422191D01*
X8713095Y-13450762D01*
X8727381Y-13507905D01*
X8727381Y-13579334D01*
X8713095Y-13636476D01*
X8698809Y-13665048D01*
X8684523Y-13679334D01*
X8655952Y-13693619D01*
X8627381Y-13693619D01*
X8598809Y-13679334D01*
X8584523Y-13665048D01*
X8570238Y-13636476D01*
X8555952Y-13579334D01*
X8555952Y-13507905D01*
X8570238Y-13450762D01*
X8584523Y-13422191D01*
X8598809Y-13407905D01*
X8627381Y-13393619D01*
X9013095Y-13693619D02*
X8841666Y-13693619D01*
X8927381Y-13693619D02*
X8927381Y-13393619D01*
X8898809Y-13436476D01*
X8870238Y-13465048D01*
X8841666Y-13479334D01*
X9284523Y-13393619D02*
X9141666Y-13393619D01*
X9127381Y-13536476D01*
X9141666Y-13522191D01*
X9170238Y-13507905D01*
X9241666Y-13507905D01*
X9270238Y-13522191D01*
X9284523Y-13536476D01*
X9298809Y-13565048D01*
X9298809Y-13636476D01*
X9284523Y-13665048D01*
X9270238Y-13679334D01*
X9241666Y-13693619D01*
X9170238Y-13693619D01*
X9141666Y-13679334D01*
X9127381Y-13665048D01*
X9398809Y-13393619D02*
X9598809Y-13393619D01*
X9470238Y-13693619D01*
X9698809Y-13393619D02*
X9698809Y-13450762D01*
X9813095Y-13393619D02*
X9813095Y-13450762D01*
X10255952Y-13807905D02*
X10241666Y-13793619D01*
X10213095Y-13750762D01*
X10198809Y-13722191D01*
X10184523Y-13679334D01*
X10170238Y-13607905D01*
X10170238Y-13550762D01*
X10184523Y-13479334D01*
X10198809Y-13436476D01*
X10213095Y-13407905D01*
X10241666Y-13365048D01*
X10255952Y-13350762D01*
X10498809Y-13493619D02*
X10498809Y-13693619D01*
X10427381Y-13379334D02*
X10355952Y-13593619D01*
X10541666Y-13593619D01*
X10884523Y-13693619D02*
X10884523Y-13393619D01*
X11013095Y-13693619D02*
X11013095Y-13536476D01*
X10998809Y-13507905D01*
X10970238Y-13493619D01*
X10927381Y-13493619D01*
X10898809Y-13507905D01*
X10884523Y-13522191D01*
X11198809Y-13693619D02*
X11170238Y-13679334D01*
X11155952Y-13665048D01*
X11141666Y-13636476D01*
X11141666Y-13550762D01*
X11155952Y-13522191D01*
X11170238Y-13507905D01*
X11198809Y-13493619D01*
X11241666Y-13493619D01*
X11270238Y-13507905D01*
X11284523Y-13522191D01*
X11298809Y-13550762D01*
X11298809Y-13636476D01*
X11284523Y-13665048D01*
X11270238Y-13679334D01*
X11241666Y-13693619D01*
X11198809Y-13693619D01*
X11470238Y-13693619D02*
X11441666Y-13679334D01*
X11427381Y-13650762D01*
X11427381Y-13393619D01*
X11698809Y-13679334D02*
X11670238Y-13693619D01*
X11613095Y-13693619D01*
X11584523Y-13679334D01*
X11570238Y-13650762D01*
X11570238Y-13536476D01*
X11584523Y-13507905D01*
X11613095Y-13493619D01*
X11670238Y-13493619D01*
X11698809Y-13507905D01*
X11713095Y-13536476D01*
X11713095Y-13565048D01*
X11570238Y-13593619D01*
X11827381Y-13679334D02*
X11855952Y-13693619D01*
X11913095Y-13693619D01*
X11941666Y-13679334D01*
X11955952Y-13650762D01*
X11955952Y-13636476D01*
X11941666Y-13607905D01*
X11913095Y-13593619D01*
X11870238Y-13593619D01*
X11841666Y-13579334D01*
X11827381Y-13550762D01*
X11827381Y-13536476D01*
X11841666Y-13507905D01*
X11870238Y-13493619D01*
X11913095Y-13493619D01*
X11941666Y-13507905D01*
X12055952Y-13807905D02*
X12070238Y-13793619D01*
X12098809Y-13750762D01*
X12113095Y-13722191D01*
X12127381Y-13679334D01*
X12141666Y-13607905D01*
X12141666Y-13550762D01*
X12127381Y-13479334D01*
X12113095Y-13436476D01*
X12098809Y-13407905D01*
X12070238Y-13365048D01*
X12055952Y-13350762D01*
X4968095Y-13923905D02*
X4968095Y-13983905D01*
X4938095Y-13953905D02*
X4998095Y-13953905D01*
X5341666Y-13789619D02*
X5370238Y-13789619D01*
X5398809Y-13803905D01*
X5413095Y-13818191D01*
X5427381Y-13846762D01*
X5441666Y-13903905D01*
X5441666Y-13975334D01*
X5427381Y-14032476D01*
X5413095Y-14061048D01*
X5398809Y-14075334D01*
X5370238Y-14089619D01*
X5341666Y-14089619D01*
X5313095Y-14075334D01*
X5298809Y-14061048D01*
X5284523Y-14032476D01*
X5270238Y-13975334D01*
X5270238Y-13903905D01*
X5284523Y-13846762D01*
X5298809Y-13818191D01*
X5313095Y-13803905D01*
X5341666Y-13789619D01*
X5570238Y-14061048D02*
X5584523Y-14075334D01*
X5570238Y-14089619D01*
X5555952Y-14075334D01*
X5570238Y-14061048D01*
X5570238Y-14089619D01*
X5841666Y-13789619D02*
X5784523Y-13789619D01*
X5755952Y-13803905D01*
X5741666Y-13818191D01*
X5713095Y-13861048D01*
X5698809Y-13918191D01*
X5698809Y-14032476D01*
X5713095Y-14061048D01*
X5727381Y-14075334D01*
X5755952Y-14089619D01*
X5813095Y-14089619D01*
X5841666Y-14075334D01*
X5855952Y-14061048D01*
X5870238Y-14032476D01*
X5870238Y-13961048D01*
X5855952Y-13932476D01*
X5841666Y-13918191D01*
X5813095Y-13903905D01*
X5755952Y-13903905D01*
X5727381Y-13918191D01*
X5713095Y-13932476D01*
X5698809Y-13961048D01*
X6055952Y-13789619D02*
X6084523Y-13789619D01*
X6113095Y-13803905D01*
X6127381Y-13818191D01*
X6141666Y-13846762D01*
X6155952Y-13903905D01*
X6155952Y-13975334D01*
X6141666Y-14032476D01*
X6127381Y-14061048D01*
X6113095Y-14075334D01*
X6084523Y-14089619D01*
X6055952Y-14089619D01*
X6027381Y-14075334D01*
X6013095Y-14061048D01*
X5998809Y-14032476D01*
X5984523Y-13975334D01*
X5984523Y-13903905D01*
X5998809Y-13846762D01*
X6013095Y-13818191D01*
X6027381Y-13803905D01*
X6055952Y-13789619D01*
X6341666Y-13789619D02*
X6370238Y-13789619D01*
X6398809Y-13803905D01*
X6413095Y-13818191D01*
X6427381Y-13846762D01*
X6441666Y-13903905D01*
X6441666Y-13975334D01*
X6427381Y-14032476D01*
X6413095Y-14061048D01*
X6398809Y-14075334D01*
X6370238Y-14089619D01*
X6341666Y-14089619D01*
X6313095Y-14075334D01*
X6298809Y-14061048D01*
X6284523Y-14032476D01*
X6270238Y-13975334D01*
X6270238Y-13903905D01*
X6284523Y-13846762D01*
X6298809Y-13818191D01*
X6313095Y-13803905D01*
X6341666Y-13789619D01*
X6570238Y-14089619D02*
X6570238Y-13889619D01*
X6570238Y-13918191D02*
X6584523Y-13903905D01*
X6613095Y-13889619D01*
X6655952Y-13889619D01*
X6684523Y-13903905D01*
X6698809Y-13932476D01*
X6698809Y-14089619D01*
X6698809Y-13932476D02*
X6713095Y-13903905D01*
X6741666Y-13889619D01*
X6784523Y-13889619D01*
X6813095Y-13903905D01*
X6827381Y-13932476D01*
X6827381Y-14089619D01*
X6970238Y-14089619D02*
X6970238Y-13889619D01*
X6970238Y-13918191D02*
X6984523Y-13903905D01*
X7013095Y-13889619D01*
X7055952Y-13889619D01*
X7084523Y-13903905D01*
X7098809Y-13932476D01*
X7098809Y-14089619D01*
X7098809Y-13932476D02*
X7113095Y-13903905D01*
X7141666Y-13889619D01*
X7184523Y-13889619D01*
X7213095Y-13903905D01*
X7227381Y-13932476D01*
X7227381Y-14089619D01*
X7813095Y-13775334D02*
X7555952Y-14161048D01*
X8198809Y-13789619D02*
X8227381Y-13789619D01*
X8255952Y-13803905D01*
X8270238Y-13818191D01*
X8284523Y-13846762D01*
X8298809Y-13903905D01*
X8298809Y-13975334D01*
X8284523Y-14032476D01*
X8270238Y-14061048D01*
X8255952Y-14075334D01*
X8227381Y-14089619D01*
X8198809Y-14089619D01*
X8170238Y-14075334D01*
X8155952Y-14061048D01*
X8141666Y-14032476D01*
X8127381Y-13975334D01*
X8127381Y-13903905D01*
X8141666Y-13846762D01*
X8155952Y-13818191D01*
X8170238Y-13803905D01*
X8198809Y-13789619D01*
X8427381Y-14061048D02*
X8441666Y-14075334D01*
X8427381Y-14089619D01*
X8413095Y-14075334D01*
X8427381Y-14061048D01*
X8427381Y-14089619D01*
X8627381Y-13789619D02*
X8655952Y-13789619D01*
X8684523Y-13803905D01*
X8698809Y-13818191D01*
X8713095Y-13846762D01*
X8727381Y-13903905D01*
X8727381Y-13975334D01*
X8713095Y-14032476D01*
X8698809Y-14061048D01*
X8684523Y-14075334D01*
X8655952Y-14089619D01*
X8627381Y-14089619D01*
X8598809Y-14075334D01*
X8584523Y-14061048D01*
X8570238Y-14032476D01*
X8555952Y-13975334D01*
X8555952Y-13903905D01*
X8570238Y-13846762D01*
X8584523Y-13818191D01*
X8598809Y-13803905D01*
X8627381Y-13789619D01*
X8841666Y-13818191D02*
X8855952Y-13803905D01*
X8884523Y-13789619D01*
X8955952Y-13789619D01*
X8984523Y-13803905D01*
X8998809Y-13818191D01*
X9013095Y-13846762D01*
X9013095Y-13875334D01*
X8998809Y-13918191D01*
X8827381Y-14089619D01*
X9013095Y-14089619D01*
X9113095Y-13789619D02*
X9298809Y-13789619D01*
X9198809Y-13903905D01*
X9241666Y-13903905D01*
X9270238Y-13918191D01*
X9284523Y-13932476D01*
X9298809Y-13961048D01*
X9298809Y-14032476D01*
X9284523Y-14061048D01*
X9270238Y-14075334D01*
X9241666Y-14089619D01*
X9155952Y-14089619D01*
X9127381Y-14075334D01*
X9113095Y-14061048D01*
X9555952Y-13789619D02*
X9498809Y-13789619D01*
X9470238Y-13803905D01*
X9455952Y-13818191D01*
X9427381Y-13861048D01*
X9413095Y-13918191D01*
X9413095Y-14032476D01*
X9427381Y-14061048D01*
X9441666Y-14075334D01*
X9470238Y-14089619D01*
X9527381Y-14089619D01*
X9555952Y-14075334D01*
X9570238Y-14061048D01*
X9584523Y-14032476D01*
X9584523Y-13961048D01*
X9570238Y-13932476D01*
X9555952Y-13918191D01*
X9527381Y-13903905D01*
X9470238Y-13903905D01*
X9441666Y-13918191D01*
X9427381Y-13932476D01*
X9413095Y-13961048D01*
X9698809Y-13789619D02*
X9698809Y-13846762D01*
X9813095Y-13789619D02*
X9813095Y-13846762D01*
X10255952Y-14203905D02*
X10241666Y-14189619D01*
X10213095Y-14146762D01*
X10198809Y-14118191D01*
X10184523Y-14075334D01*
X10170238Y-14003905D01*
X10170238Y-13946762D01*
X10184523Y-13875334D01*
X10198809Y-13832476D01*
X10213095Y-13803905D01*
X10241666Y-13761048D01*
X10255952Y-13746762D01*
X10427381Y-13789619D02*
X10455952Y-13789619D01*
X10484523Y-13803905D01*
X10498809Y-13818191D01*
X10513095Y-13846762D01*
X10527381Y-13903905D01*
X10527381Y-13975334D01*
X10513095Y-14032476D01*
X10498809Y-14061048D01*
X10484523Y-14075334D01*
X10455952Y-14089619D01*
X10427381Y-14089619D01*
X10398809Y-14075334D01*
X10384523Y-14061048D01*
X10370238Y-14032476D01*
X10355952Y-13975334D01*
X10355952Y-13903905D01*
X10370238Y-13846762D01*
X10384523Y-13818191D01*
X10398809Y-13803905D01*
X10427381Y-13789619D01*
X10884523Y-14089619D02*
X10884523Y-13789619D01*
X11013095Y-14089619D02*
X11013095Y-13932476D01*
X10998809Y-13903905D01*
X10970238Y-13889619D01*
X10927381Y-13889619D01*
X10898809Y-13903905D01*
X10884523Y-13918191D01*
X11198809Y-14089619D02*
X11170238Y-14075334D01*
X11155952Y-14061048D01*
X11141666Y-14032476D01*
X11141666Y-13946762D01*
X11155952Y-13918191D01*
X11170238Y-13903905D01*
X11198809Y-13889619D01*
X11241666Y-13889619D01*
X11270238Y-13903905D01*
X11284523Y-13918191D01*
X11298809Y-13946762D01*
X11298809Y-14032476D01*
X11284523Y-14061048D01*
X11270238Y-14075334D01*
X11241666Y-14089619D01*
X11198809Y-14089619D01*
X11470238Y-14089619D02*
X11441666Y-14075334D01*
X11427381Y-14046762D01*
X11427381Y-13789619D01*
X11698809Y-14075334D02*
X11670238Y-14089619D01*
X11613095Y-14089619D01*
X11584523Y-14075334D01*
X11570238Y-14046762D01*
X11570238Y-13932476D01*
X11584523Y-13903905D01*
X11613095Y-13889619D01*
X11670238Y-13889619D01*
X11698809Y-13903905D01*
X11713095Y-13932476D01*
X11713095Y-13961048D01*
X11570238Y-13989619D01*
X11827381Y-14075334D02*
X11855952Y-14089619D01*
X11913095Y-14089619D01*
X11941666Y-14075334D01*
X11955952Y-14046762D01*
X11955952Y-14032476D01*
X11941666Y-14003905D01*
X11913095Y-13989619D01*
X11870238Y-13989619D01*
X11841666Y-13975334D01*
X11827381Y-13946762D01*
X11827381Y-13932476D01*
X11841666Y-13903905D01*
X11870238Y-13889619D01*
X11913095Y-13889619D01*
X11941666Y-13903905D01*
X12313095Y-13975334D02*
X12541666Y-13975334D01*
X12427381Y-14089619D02*
X12427381Y-13861048D01*
X12898809Y-13818191D02*
X12913095Y-13803905D01*
X12941666Y-13789619D01*
X13013095Y-13789619D01*
X13041666Y-13803905D01*
X13055952Y-13818191D01*
X13070238Y-13846762D01*
X13070238Y-13875334D01*
X13055952Y-13918191D01*
X12884523Y-14089619D01*
X13070238Y-14089619D01*
X13413095Y-14075334D02*
X13441666Y-14089619D01*
X13498809Y-14089619D01*
X13527381Y-14075334D01*
X13541666Y-14046762D01*
X13541666Y-14032476D01*
X13527381Y-14003905D01*
X13498809Y-13989619D01*
X13455952Y-13989619D01*
X13427381Y-13975334D01*
X13413095Y-13946762D01*
X13413095Y-13932476D01*
X13427381Y-13903905D01*
X13455952Y-13889619D01*
X13498809Y-13889619D01*
X13527381Y-13903905D01*
X13713095Y-14089619D02*
X13684523Y-14075334D01*
X13670238Y-14046762D01*
X13670238Y-13789619D01*
X13870238Y-14089619D02*
X13841666Y-14075334D01*
X13827381Y-14061048D01*
X13813095Y-14032476D01*
X13813095Y-13946762D01*
X13827381Y-13918191D01*
X13841666Y-13903905D01*
X13870238Y-13889619D01*
X13913095Y-13889619D01*
X13941666Y-13903905D01*
X13955952Y-13918191D01*
X13970238Y-13946762D01*
X13970238Y-14032476D01*
X13955952Y-14061048D01*
X13941666Y-14075334D01*
X13913095Y-14089619D01*
X13870238Y-14089619D01*
X14055952Y-13889619D02*
X14170238Y-13889619D01*
X14098809Y-13789619D02*
X14098809Y-14046762D01*
X14113095Y-14075334D01*
X14141666Y-14089619D01*
X14170238Y-14089619D01*
X14255952Y-14075334D02*
X14284523Y-14089619D01*
X14341666Y-14089619D01*
X14370238Y-14075334D01*
X14384523Y-14046762D01*
X14384523Y-14032476D01*
X14370238Y-14003905D01*
X14341666Y-13989619D01*
X14298809Y-13989619D01*
X14270238Y-13975334D01*
X14255952Y-13946762D01*
X14255952Y-13932476D01*
X14270238Y-13903905D01*
X14298809Y-13889619D01*
X14341666Y-13889619D01*
X14370238Y-13903905D01*
X14484523Y-14203905D02*
X14498809Y-14189619D01*
X14527381Y-14146762D01*
X14541666Y-14118191D01*
X14555952Y-14075334D01*
X14570238Y-14003905D01*
X14570238Y-13946762D01*
X14555952Y-13875334D01*
X14541666Y-13832476D01*
X14527381Y-13803905D01*
X14498809Y-13761048D01*
X14484523Y-13746762D01*
X4985647Y-14379957D02*
X4985647Y-14319853D01*
X4925543Y-14319853D01*
X4925543Y-14379957D01*
X4985647Y-14379957D01*
X5341666Y-14185619D02*
X5370238Y-14185619D01*
X5398809Y-14199905D01*
X5413095Y-14214191D01*
X5427381Y-14242762D01*
X5441666Y-14299905D01*
X5441666Y-14371334D01*
X5427381Y-14428476D01*
X5413095Y-14457048D01*
X5398809Y-14471334D01*
X5370238Y-14485619D01*
X5341666Y-14485619D01*
X5313095Y-14471334D01*
X5298809Y-14457048D01*
X5284523Y-14428476D01*
X5270238Y-14371334D01*
X5270238Y-14299905D01*
X5284523Y-14242762D01*
X5298809Y-14214191D01*
X5313095Y-14199905D01*
X5341666Y-14185619D01*
X5570238Y-14457048D02*
X5584523Y-14471334D01*
X5570238Y-14485619D01*
X5555952Y-14471334D01*
X5570238Y-14457048D01*
X5570238Y-14485619D01*
X5755952Y-14314191D02*
X5727381Y-14299905D01*
X5713095Y-14285619D01*
X5698809Y-14257048D01*
X5698809Y-14242762D01*
X5713095Y-14214191D01*
X5727381Y-14199905D01*
X5755952Y-14185619D01*
X5813095Y-14185619D01*
X5841666Y-14199905D01*
X5855952Y-14214191D01*
X5870238Y-14242762D01*
X5870238Y-14257048D01*
X5855952Y-14285619D01*
X5841666Y-14299905D01*
X5813095Y-14314191D01*
X5755952Y-14314191D01*
X5727381Y-14328476D01*
X5713095Y-14342762D01*
X5698809Y-14371334D01*
X5698809Y-14428476D01*
X5713095Y-14457048D01*
X5727381Y-14471334D01*
X5755952Y-14485619D01*
X5813095Y-14485619D01*
X5841666Y-14471334D01*
X5855952Y-14457048D01*
X5870238Y-14428476D01*
X5870238Y-14371334D01*
X5855952Y-14342762D01*
X5841666Y-14328476D01*
X5813095Y-14314191D01*
X6141666Y-14185619D02*
X5998809Y-14185619D01*
X5984523Y-14328476D01*
X5998809Y-14314191D01*
X6027381Y-14299905D01*
X6098809Y-14299905D01*
X6127381Y-14314191D01*
X6141666Y-14328476D01*
X6155952Y-14357048D01*
X6155952Y-14428476D01*
X6141666Y-14457048D01*
X6127381Y-14471334D01*
X6098809Y-14485619D01*
X6027381Y-14485619D01*
X5998809Y-14471334D01*
X5984523Y-14457048D01*
X6341666Y-14185619D02*
X6370238Y-14185619D01*
X6398809Y-14199905D01*
X6413095Y-14214191D01*
X6427381Y-14242762D01*
X6441666Y-14299905D01*
X6441666Y-14371334D01*
X6427381Y-14428476D01*
X6413095Y-14457048D01*
X6398809Y-14471334D01*
X6370238Y-14485619D01*
X6341666Y-14485619D01*
X6313095Y-14471334D01*
X6298809Y-14457048D01*
X6284523Y-14428476D01*
X6270238Y-14371334D01*
X6270238Y-14299905D01*
X6284523Y-14242762D01*
X6298809Y-14214191D01*
X6313095Y-14199905D01*
X6341666Y-14185619D01*
X6570238Y-14485619D02*
X6570238Y-14285619D01*
X6570238Y-14314191D02*
X6584523Y-14299905D01*
X6613095Y-14285619D01*
X6655952Y-14285619D01*
X6684523Y-14299905D01*
X6698809Y-14328476D01*
X6698809Y-14485619D01*
X6698809Y-14328476D02*
X6713095Y-14299905D01*
X6741666Y-14285619D01*
X6784523Y-14285619D01*
X6813095Y-14299905D01*
X6827381Y-14328476D01*
X6827381Y-14485619D01*
X6970238Y-14485619D02*
X6970238Y-14285619D01*
X6970238Y-14314191D02*
X6984523Y-14299905D01*
X7013095Y-14285619D01*
X7055952Y-14285619D01*
X7084523Y-14299905D01*
X7098809Y-14328476D01*
X7098809Y-14485619D01*
X7098809Y-14328476D02*
X7113095Y-14299905D01*
X7141666Y-14285619D01*
X7184523Y-14285619D01*
X7213095Y-14299905D01*
X7227381Y-14328476D01*
X7227381Y-14485619D01*
X7813095Y-14171334D02*
X7555952Y-14557048D01*
X8198809Y-14185619D02*
X8227381Y-14185619D01*
X8255952Y-14199905D01*
X8270238Y-14214191D01*
X8284523Y-14242762D01*
X8298809Y-14299905D01*
X8298809Y-14371334D01*
X8284523Y-14428476D01*
X8270238Y-14457048D01*
X8255952Y-14471334D01*
X8227381Y-14485619D01*
X8198809Y-14485619D01*
X8170238Y-14471334D01*
X8155952Y-14457048D01*
X8141666Y-14428476D01*
X8127381Y-14371334D01*
X8127381Y-14299905D01*
X8141666Y-14242762D01*
X8155952Y-14214191D01*
X8170238Y-14199905D01*
X8198809Y-14185619D01*
X8427381Y-14457048D02*
X8441666Y-14471334D01*
X8427381Y-14485619D01*
X8413095Y-14471334D01*
X8427381Y-14457048D01*
X8427381Y-14485619D01*
X8627381Y-14185619D02*
X8655952Y-14185619D01*
X8684523Y-14199905D01*
X8698809Y-14214191D01*
X8713095Y-14242762D01*
X8727381Y-14299905D01*
X8727381Y-14371334D01*
X8713095Y-14428476D01*
X8698809Y-14457048D01*
X8684523Y-14471334D01*
X8655952Y-14485619D01*
X8627381Y-14485619D01*
X8598809Y-14471334D01*
X8584523Y-14457048D01*
X8570238Y-14428476D01*
X8555952Y-14371334D01*
X8555952Y-14299905D01*
X8570238Y-14242762D01*
X8584523Y-14214191D01*
X8598809Y-14199905D01*
X8627381Y-14185619D01*
X8827381Y-14185619D02*
X9013095Y-14185619D01*
X8913095Y-14299905D01*
X8955952Y-14299905D01*
X8984523Y-14314191D01*
X8998809Y-14328476D01*
X9013095Y-14357048D01*
X9013095Y-14428476D01*
X8998809Y-14457048D01*
X8984523Y-14471334D01*
X8955952Y-14485619D01*
X8870238Y-14485619D01*
X8841666Y-14471334D01*
X8827381Y-14457048D01*
X9113095Y-14185619D02*
X9298809Y-14185619D01*
X9198809Y-14299905D01*
X9241666Y-14299905D01*
X9270238Y-14314191D01*
X9284523Y-14328476D01*
X9298809Y-14357048D01*
X9298809Y-14428476D01*
X9284523Y-14457048D01*
X9270238Y-14471334D01*
X9241666Y-14485619D01*
X9155952Y-14485619D01*
X9127381Y-14471334D01*
X9113095Y-14457048D01*
X9570238Y-14185619D02*
X9427381Y-14185619D01*
X9413095Y-14328476D01*
X9427381Y-14314191D01*
X9455952Y-14299905D01*
X9527381Y-14299905D01*
X9555952Y-14314191D01*
X9570238Y-14328476D01*
X9584523Y-14357048D01*
X9584523Y-14428476D01*
X9570238Y-14457048D01*
X9555952Y-14471334D01*
X9527381Y-14485619D01*
X9455952Y-14485619D01*
X9427381Y-14471334D01*
X9413095Y-14457048D01*
X9698809Y-14185619D02*
X9698809Y-14242762D01*
X9813095Y-14185619D02*
X9813095Y-14242762D01*
X10255952Y-14599905D02*
X10241666Y-14585619D01*
X10213095Y-14542762D01*
X10198809Y-14514191D01*
X10184523Y-14471334D01*
X10170238Y-14399905D01*
X10170238Y-14342762D01*
X10184523Y-14271334D01*
X10198809Y-14228476D01*
X10213095Y-14199905D01*
X10241666Y-14157048D01*
X10255952Y-14142762D01*
X10355952Y-14214191D02*
X10370238Y-14199905D01*
X10398809Y-14185619D01*
X10470238Y-14185619D01*
X10498809Y-14199905D01*
X10513095Y-14214191D01*
X10527381Y-14242762D01*
X10527381Y-14271334D01*
X10513095Y-14314191D01*
X10341666Y-14485619D01*
X10527381Y-14485619D01*
X10884523Y-14485619D02*
X10884523Y-14185619D01*
X11013095Y-14485619D02*
X11013095Y-14328476D01*
X10998809Y-14299905D01*
X10970238Y-14285619D01*
X10927381Y-14285619D01*
X10898809Y-14299905D01*
X10884523Y-14314191D01*
X11198809Y-14485619D02*
X11170238Y-14471334D01*
X11155952Y-14457048D01*
X11141666Y-14428476D01*
X11141666Y-14342762D01*
X11155952Y-14314191D01*
X11170238Y-14299905D01*
X11198809Y-14285619D01*
X11241666Y-14285619D01*
X11270238Y-14299905D01*
X11284523Y-14314191D01*
X11298809Y-14342762D01*
X11298809Y-14428476D01*
X11284523Y-14457048D01*
X11270238Y-14471334D01*
X11241666Y-14485619D01*
X11198809Y-14485619D01*
X11470238Y-14485619D02*
X11441666Y-14471334D01*
X11427381Y-14442762D01*
X11427381Y-14185619D01*
X11698809Y-14471334D02*
X11670238Y-14485619D01*
X11613095Y-14485619D01*
X11584523Y-14471334D01*
X11570238Y-14442762D01*
X11570238Y-14328476D01*
X11584523Y-14299905D01*
X11613095Y-14285619D01*
X11670238Y-14285619D01*
X11698809Y-14299905D01*
X11713095Y-14328476D01*
X11713095Y-14357048D01*
X11570238Y-14385619D01*
X11827381Y-14471334D02*
X11855952Y-14485619D01*
X11913095Y-14485619D01*
X11941666Y-14471334D01*
X11955952Y-14442762D01*
X11955952Y-14428476D01*
X11941666Y-14399905D01*
X11913095Y-14385619D01*
X11870238Y-14385619D01*
X11841666Y-14371334D01*
X11827381Y-14342762D01*
X11827381Y-14328476D01*
X11841666Y-14299905D01*
X11870238Y-14285619D01*
X11913095Y-14285619D01*
X11941666Y-14299905D01*
X12055952Y-14599905D02*
X12070238Y-14585619D01*
X12098809Y-14542762D01*
X12113095Y-14514191D01*
X12127381Y-14471334D01*
X12141666Y-14399905D01*
X12141666Y-14342762D01*
X12127381Y-14271334D01*
X12113095Y-14228476D01*
X12098809Y-14199905D01*
X12070238Y-14157048D01*
X12055952Y-14142762D01*
X4953095Y-14790905D02*
X4998095Y-14745905D01*
X4953095Y-14700905D01*
X4908095Y-14745905D01*
X4953095Y-14790905D01*
X5341666Y-14581619D02*
X5370238Y-14581619D01*
X5398809Y-14595905D01*
X5413095Y-14610191D01*
X5427381Y-14638762D01*
X5441666Y-14695905D01*
X5441666Y-14767334D01*
X5427381Y-14824476D01*
X5413095Y-14853048D01*
X5398809Y-14867334D01*
X5370238Y-14881619D01*
X5341666Y-14881619D01*
X5313095Y-14867334D01*
X5298809Y-14853048D01*
X5284523Y-14824476D01*
X5270238Y-14767334D01*
X5270238Y-14695905D01*
X5284523Y-14638762D01*
X5298809Y-14610191D01*
X5313095Y-14595905D01*
X5341666Y-14581619D01*
X5570238Y-14853048D02*
X5584523Y-14867334D01*
X5570238Y-14881619D01*
X5555952Y-14867334D01*
X5570238Y-14853048D01*
X5570238Y-14881619D01*
X5727381Y-14881619D02*
X5784523Y-14881619D01*
X5813095Y-14867334D01*
X5827381Y-14853048D01*
X5855952Y-14810191D01*
X5870238Y-14753048D01*
X5870238Y-14638762D01*
X5855952Y-14610191D01*
X5841666Y-14595905D01*
X5813095Y-14581619D01*
X5755952Y-14581619D01*
X5727381Y-14595905D01*
X5713095Y-14610191D01*
X5698809Y-14638762D01*
X5698809Y-14710191D01*
X5713095Y-14738762D01*
X5727381Y-14753048D01*
X5755952Y-14767334D01*
X5813095Y-14767334D01*
X5841666Y-14753048D01*
X5855952Y-14738762D01*
X5870238Y-14710191D01*
X6055952Y-14581619D02*
X6084523Y-14581619D01*
X6113095Y-14595905D01*
X6127381Y-14610191D01*
X6141666Y-14638762D01*
X6155952Y-14695905D01*
X6155952Y-14767334D01*
X6141666Y-14824476D01*
X6127381Y-14853048D01*
X6113095Y-14867334D01*
X6084523Y-14881619D01*
X6055952Y-14881619D01*
X6027381Y-14867334D01*
X6013095Y-14853048D01*
X5998809Y-14824476D01*
X5984523Y-14767334D01*
X5984523Y-14695905D01*
X5998809Y-14638762D01*
X6013095Y-14610191D01*
X6027381Y-14595905D01*
X6055952Y-14581619D01*
X6341666Y-14581619D02*
X6370238Y-14581619D01*
X6398809Y-14595905D01*
X6413095Y-14610191D01*
X6427381Y-14638762D01*
X6441666Y-14695905D01*
X6441666Y-14767334D01*
X6427381Y-14824476D01*
X6413095Y-14853048D01*
X6398809Y-14867334D01*
X6370238Y-14881619D01*
X6341666Y-14881619D01*
X6313095Y-14867334D01*
X6298809Y-14853048D01*
X6284523Y-14824476D01*
X6270238Y-14767334D01*
X6270238Y-14695905D01*
X6284523Y-14638762D01*
X6298809Y-14610191D01*
X6313095Y-14595905D01*
X6341666Y-14581619D01*
X6570238Y-14881619D02*
X6570238Y-14681619D01*
X6570238Y-14710191D02*
X6584523Y-14695905D01*
X6613095Y-14681619D01*
X6655952Y-14681619D01*
X6684523Y-14695905D01*
X6698809Y-14724476D01*
X6698809Y-14881619D01*
X6698809Y-14724476D02*
X6713095Y-14695905D01*
X6741666Y-14681619D01*
X6784523Y-14681619D01*
X6813095Y-14695905D01*
X6827381Y-14724476D01*
X6827381Y-14881619D01*
X6970238Y-14881619D02*
X6970238Y-14681619D01*
X6970238Y-14710191D02*
X6984523Y-14695905D01*
X7013095Y-14681619D01*
X7055952Y-14681619D01*
X7084523Y-14695905D01*
X7098809Y-14724476D01*
X7098809Y-14881619D01*
X7098809Y-14724476D02*
X7113095Y-14695905D01*
X7141666Y-14681619D01*
X7184523Y-14681619D01*
X7213095Y-14695905D01*
X7227381Y-14724476D01*
X7227381Y-14881619D01*
X7813095Y-14567334D02*
X7555952Y-14953048D01*
X8198809Y-14581619D02*
X8227381Y-14581619D01*
X8255952Y-14595905D01*
X8270238Y-14610191D01*
X8284523Y-14638762D01*
X8298809Y-14695905D01*
X8298809Y-14767334D01*
X8284523Y-14824476D01*
X8270238Y-14853048D01*
X8255952Y-14867334D01*
X8227381Y-14881619D01*
X8198809Y-14881619D01*
X8170238Y-14867334D01*
X8155952Y-14853048D01*
X8141666Y-14824476D01*
X8127381Y-14767334D01*
X8127381Y-14695905D01*
X8141666Y-14638762D01*
X8155952Y-14610191D01*
X8170238Y-14595905D01*
X8198809Y-14581619D01*
X8427381Y-14853048D02*
X8441666Y-14867334D01*
X8427381Y-14881619D01*
X8413095Y-14867334D01*
X8427381Y-14853048D01*
X8427381Y-14881619D01*
X8627381Y-14581619D02*
X8655952Y-14581619D01*
X8684523Y-14595905D01*
X8698809Y-14610191D01*
X8713095Y-14638762D01*
X8727381Y-14695905D01*
X8727381Y-14767334D01*
X8713095Y-14824476D01*
X8698809Y-14853048D01*
X8684523Y-14867334D01*
X8655952Y-14881619D01*
X8627381Y-14881619D01*
X8598809Y-14867334D01*
X8584523Y-14853048D01*
X8570238Y-14824476D01*
X8555952Y-14767334D01*
X8555952Y-14695905D01*
X8570238Y-14638762D01*
X8584523Y-14610191D01*
X8598809Y-14595905D01*
X8627381Y-14581619D01*
X8827381Y-14581619D02*
X9013095Y-14581619D01*
X8913095Y-14695905D01*
X8955952Y-14695905D01*
X8984523Y-14710191D01*
X8998809Y-14724476D01*
X9013095Y-14753048D01*
X9013095Y-14824476D01*
X8998809Y-14853048D01*
X8984523Y-14867334D01*
X8955952Y-14881619D01*
X8870238Y-14881619D01*
X8841666Y-14867334D01*
X8827381Y-14853048D01*
X9284523Y-14581619D02*
X9141666Y-14581619D01*
X9127381Y-14724476D01*
X9141666Y-14710191D01*
X9170238Y-14695905D01*
X9241666Y-14695905D01*
X9270238Y-14710191D01*
X9284523Y-14724476D01*
X9298809Y-14753048D01*
X9298809Y-14824476D01*
X9284523Y-14853048D01*
X9270238Y-14867334D01*
X9241666Y-14881619D01*
X9170238Y-14881619D01*
X9141666Y-14867334D01*
X9127381Y-14853048D01*
X9555952Y-14681619D02*
X9555952Y-14881619D01*
X9484523Y-14567334D02*
X9413095Y-14781619D01*
X9598809Y-14781619D01*
X9698809Y-14581619D02*
X9698809Y-14638762D01*
X9813095Y-14581619D02*
X9813095Y-14638762D01*
X10255952Y-14995905D02*
X10241666Y-14981619D01*
X10213095Y-14938762D01*
X10198809Y-14910191D01*
X10184523Y-14867334D01*
X10170238Y-14795905D01*
X10170238Y-14738762D01*
X10184523Y-14667334D01*
X10198809Y-14624476D01*
X10213095Y-14595905D01*
X10241666Y-14553048D01*
X10255952Y-14538762D01*
X10355952Y-14610191D02*
X10370238Y-14595905D01*
X10398809Y-14581619D01*
X10470238Y-14581619D01*
X10498809Y-14595905D01*
X10513095Y-14610191D01*
X10527381Y-14638762D01*
X10527381Y-14667334D01*
X10513095Y-14710191D01*
X10341666Y-14881619D01*
X10527381Y-14881619D01*
X10884523Y-14881619D02*
X10884523Y-14581619D01*
X11013095Y-14881619D02*
X11013095Y-14724476D01*
X10998809Y-14695905D01*
X10970238Y-14681619D01*
X10927381Y-14681619D01*
X10898809Y-14695905D01*
X10884523Y-14710191D01*
X11198809Y-14881619D02*
X11170238Y-14867334D01*
X11155952Y-14853048D01*
X11141666Y-14824476D01*
X11141666Y-14738762D01*
X11155952Y-14710191D01*
X11170238Y-14695905D01*
X11198809Y-14681619D01*
X11241666Y-14681619D01*
X11270238Y-14695905D01*
X11284523Y-14710191D01*
X11298809Y-14738762D01*
X11298809Y-14824476D01*
X11284523Y-14853048D01*
X11270238Y-14867334D01*
X11241666Y-14881619D01*
X11198809Y-14881619D01*
X11470238Y-14881619D02*
X11441666Y-14867334D01*
X11427381Y-14838762D01*
X11427381Y-14581619D01*
X11698809Y-14867334D02*
X11670238Y-14881619D01*
X11613095Y-14881619D01*
X11584523Y-14867334D01*
X11570238Y-14838762D01*
X11570238Y-14724476D01*
X11584523Y-14695905D01*
X11613095Y-14681619D01*
X11670238Y-14681619D01*
X11698809Y-14695905D01*
X11713095Y-14724476D01*
X11713095Y-14753048D01*
X11570238Y-14781619D01*
X11827381Y-14867334D02*
X11855952Y-14881619D01*
X11913095Y-14881619D01*
X11941666Y-14867334D01*
X11955952Y-14838762D01*
X11955952Y-14824476D01*
X11941666Y-14795905D01*
X11913095Y-14781619D01*
X11870238Y-14781619D01*
X11841666Y-14767334D01*
X11827381Y-14738762D01*
X11827381Y-14724476D01*
X11841666Y-14695905D01*
X11870238Y-14681619D01*
X11913095Y-14681619D01*
X11941666Y-14695905D01*
X12055952Y-14995905D02*
X12070238Y-14981619D01*
X12098809Y-14938762D01*
X12113095Y-14910191D01*
X12127381Y-14867334D01*
X12141666Y-14795905D01*
X12141666Y-14738762D01*
X12127381Y-14667334D01*
X12113095Y-14624476D01*
X12098809Y-14595905D01*
X12070238Y-14553048D01*
X12055952Y-14538762D01*
X4898095Y-15091905D02*
X4998095Y-15191905D01*
X4998095Y-15091905D02*
X4898095Y-15191905D01*
X4998095Y-15141905D02*
G75*
G03*
X4998095Y-15141905I-50000J0D01*
G01*
X5441666Y-15277619D02*
X5270238Y-15277619D01*
X5355952Y-15277619D02*
X5355952Y-14977619D01*
X5327381Y-15020476D01*
X5298809Y-15049048D01*
X5270238Y-15063334D01*
X5570238Y-15249048D02*
X5584523Y-15263334D01*
X5570238Y-15277619D01*
X5555952Y-15263334D01*
X5570238Y-15249048D01*
X5570238Y-15277619D01*
X5770238Y-14977619D02*
X5798809Y-14977619D01*
X5827381Y-14991905D01*
X5841666Y-15006191D01*
X5855952Y-15034762D01*
X5870238Y-15091905D01*
X5870238Y-15163334D01*
X5855952Y-15220476D01*
X5841666Y-15249048D01*
X5827381Y-15263334D01*
X5798809Y-15277619D01*
X5770238Y-15277619D01*
X5741666Y-15263334D01*
X5727381Y-15249048D01*
X5713095Y-15220476D01*
X5698809Y-15163334D01*
X5698809Y-15091905D01*
X5713095Y-15034762D01*
X5727381Y-15006191D01*
X5741666Y-14991905D01*
X5770238Y-14977619D01*
X6055952Y-14977619D02*
X6084523Y-14977619D01*
X6113095Y-14991905D01*
X6127381Y-15006191D01*
X6141666Y-15034762D01*
X6155952Y-15091905D01*
X6155952Y-15163334D01*
X6141666Y-15220476D01*
X6127381Y-15249048D01*
X6113095Y-15263334D01*
X6084523Y-15277619D01*
X6055952Y-15277619D01*
X6027381Y-15263334D01*
X6013095Y-15249048D01*
X5998809Y-15220476D01*
X5984523Y-15163334D01*
X5984523Y-15091905D01*
X5998809Y-15034762D01*
X6013095Y-15006191D01*
X6027381Y-14991905D01*
X6055952Y-14977619D01*
X6341666Y-14977619D02*
X6370238Y-14977619D01*
X6398809Y-14991905D01*
X6413095Y-15006191D01*
X6427381Y-15034762D01*
X6441666Y-15091905D01*
X6441666Y-15163334D01*
X6427381Y-15220476D01*
X6413095Y-15249048D01*
X6398809Y-15263334D01*
X6370238Y-15277619D01*
X6341666Y-15277619D01*
X6313095Y-15263334D01*
X6298809Y-15249048D01*
X6284523Y-15220476D01*
X6270238Y-15163334D01*
X6270238Y-15091905D01*
X6284523Y-15034762D01*
X6298809Y-15006191D01*
X6313095Y-14991905D01*
X6341666Y-14977619D01*
X6570238Y-15277619D02*
X6570238Y-15077619D01*
X6570238Y-15106191D02*
X6584523Y-15091905D01*
X6613095Y-15077619D01*
X6655952Y-15077619D01*
X6684523Y-15091905D01*
X6698809Y-15120476D01*
X6698809Y-15277619D01*
X6698809Y-15120476D02*
X6713095Y-15091905D01*
X6741666Y-15077619D01*
X6784523Y-15077619D01*
X6813095Y-15091905D01*
X6827381Y-15120476D01*
X6827381Y-15277619D01*
X6970238Y-15277619D02*
X6970238Y-15077619D01*
X6970238Y-15106191D02*
X6984523Y-15091905D01*
X7013095Y-15077619D01*
X7055952Y-15077619D01*
X7084523Y-15091905D01*
X7098809Y-15120476D01*
X7098809Y-15277619D01*
X7098809Y-15120476D02*
X7113095Y-15091905D01*
X7141666Y-15077619D01*
X7184523Y-15077619D01*
X7213095Y-15091905D01*
X7227381Y-15120476D01*
X7227381Y-15277619D01*
X7813095Y-14963334D02*
X7555952Y-15349048D01*
X8198809Y-14977619D02*
X8227381Y-14977619D01*
X8255952Y-14991905D01*
X8270238Y-15006191D01*
X8284523Y-15034762D01*
X8298809Y-15091905D01*
X8298809Y-15163334D01*
X8284523Y-15220476D01*
X8270238Y-15249048D01*
X8255952Y-15263334D01*
X8227381Y-15277619D01*
X8198809Y-15277619D01*
X8170238Y-15263334D01*
X8155952Y-15249048D01*
X8141666Y-15220476D01*
X8127381Y-15163334D01*
X8127381Y-15091905D01*
X8141666Y-15034762D01*
X8155952Y-15006191D01*
X8170238Y-14991905D01*
X8198809Y-14977619D01*
X8427381Y-15249048D02*
X8441666Y-15263334D01*
X8427381Y-15277619D01*
X8413095Y-15263334D01*
X8427381Y-15249048D01*
X8427381Y-15277619D01*
X8627381Y-14977619D02*
X8655952Y-14977619D01*
X8684523Y-14991905D01*
X8698809Y-15006191D01*
X8713095Y-15034762D01*
X8727381Y-15091905D01*
X8727381Y-15163334D01*
X8713095Y-15220476D01*
X8698809Y-15249048D01*
X8684523Y-15263334D01*
X8655952Y-15277619D01*
X8627381Y-15277619D01*
X8598809Y-15263334D01*
X8584523Y-15249048D01*
X8570238Y-15220476D01*
X8555952Y-15163334D01*
X8555952Y-15091905D01*
X8570238Y-15034762D01*
X8584523Y-15006191D01*
X8598809Y-14991905D01*
X8627381Y-14977619D01*
X8827381Y-14977619D02*
X9013095Y-14977619D01*
X8913095Y-15091905D01*
X8955952Y-15091905D01*
X8984523Y-15106191D01*
X8998809Y-15120476D01*
X9013095Y-15149048D01*
X9013095Y-15220476D01*
X8998809Y-15249048D01*
X8984523Y-15263334D01*
X8955952Y-15277619D01*
X8870238Y-15277619D01*
X8841666Y-15263334D01*
X8827381Y-15249048D01*
X9155952Y-15277619D02*
X9213095Y-15277619D01*
X9241666Y-15263334D01*
X9255952Y-15249048D01*
X9284523Y-15206191D01*
X9298809Y-15149048D01*
X9298809Y-15034762D01*
X9284523Y-15006191D01*
X9270238Y-14991905D01*
X9241666Y-14977619D01*
X9184523Y-14977619D01*
X9155952Y-14991905D01*
X9141666Y-15006191D01*
X9127381Y-15034762D01*
X9127381Y-15106191D01*
X9141666Y-15134762D01*
X9155952Y-15149048D01*
X9184523Y-15163334D01*
X9241666Y-15163334D01*
X9270238Y-15149048D01*
X9284523Y-15134762D01*
X9298809Y-15106191D01*
X9555952Y-15077619D02*
X9555952Y-15277619D01*
X9484523Y-14963334D02*
X9413095Y-15177619D01*
X9598809Y-15177619D01*
X9698809Y-14977619D02*
X9698809Y-15034762D01*
X9813095Y-14977619D02*
X9813095Y-15034762D01*
X10255952Y-15391905D02*
X10241666Y-15377619D01*
X10213095Y-15334762D01*
X10198809Y-15306191D01*
X10184523Y-15263334D01*
X10170238Y-15191905D01*
X10170238Y-15134762D01*
X10184523Y-15063334D01*
X10198809Y-15020476D01*
X10213095Y-14991905D01*
X10241666Y-14949048D01*
X10255952Y-14934762D01*
X10527381Y-15277619D02*
X10355952Y-15277619D01*
X10441666Y-15277619D02*
X10441666Y-14977619D01*
X10413095Y-15020476D01*
X10384523Y-15049048D01*
X10355952Y-15063334D01*
X10641666Y-15006191D02*
X10655952Y-14991905D01*
X10684523Y-14977619D01*
X10755952Y-14977619D01*
X10784523Y-14991905D01*
X10798809Y-15006191D01*
X10813095Y-15034762D01*
X10813095Y-15063334D01*
X10798809Y-15106191D01*
X10627381Y-15277619D01*
X10813095Y-15277619D01*
X11170238Y-15277619D02*
X11170238Y-14977619D01*
X11298809Y-15277619D02*
X11298809Y-15120476D01*
X11284523Y-15091905D01*
X11255952Y-15077619D01*
X11213095Y-15077619D01*
X11184523Y-15091905D01*
X11170238Y-15106191D01*
X11484523Y-15277619D02*
X11455952Y-15263334D01*
X11441666Y-15249048D01*
X11427381Y-15220476D01*
X11427381Y-15134762D01*
X11441666Y-15106191D01*
X11455952Y-15091905D01*
X11484523Y-15077619D01*
X11527381Y-15077619D01*
X11555952Y-15091905D01*
X11570238Y-15106191D01*
X11584523Y-15134762D01*
X11584523Y-15220476D01*
X11570238Y-15249048D01*
X11555952Y-15263334D01*
X11527381Y-15277619D01*
X11484523Y-15277619D01*
X11755952Y-15277619D02*
X11727381Y-15263334D01*
X11713095Y-15234762D01*
X11713095Y-14977619D01*
X11984523Y-15263334D02*
X11955952Y-15277619D01*
X11898809Y-15277619D01*
X11870238Y-15263334D01*
X11855952Y-15234762D01*
X11855952Y-15120476D01*
X11870238Y-15091905D01*
X11898809Y-15077619D01*
X11955952Y-15077619D01*
X11984523Y-15091905D01*
X11998809Y-15120476D01*
X11998809Y-15149048D01*
X11855952Y-15177619D01*
X12113095Y-15263334D02*
X12141666Y-15277619D01*
X12198809Y-15277619D01*
X12227381Y-15263334D01*
X12241666Y-15234762D01*
X12241666Y-15220476D01*
X12227381Y-15191905D01*
X12198809Y-15177619D01*
X12155952Y-15177619D01*
X12127381Y-15163334D01*
X12113095Y-15134762D01*
X12113095Y-15120476D01*
X12127381Y-15091905D01*
X12155952Y-15077619D01*
X12198809Y-15077619D01*
X12227381Y-15091905D01*
X12341666Y-15391905D02*
X12355952Y-15377619D01*
X12384523Y-15334762D01*
X12398809Y-15306191D01*
X12413095Y-15263334D01*
X12427381Y-15191905D01*
X12427381Y-15134762D01*
X12413095Y-15063334D01*
X12398809Y-15020476D01*
X12384523Y-14991905D01*
X12355952Y-14949048D01*
X12341666Y-14934762D01*
M02*
