G04 #@! TF.GenerationSoftware,KiCad,Pcbnew,(5.1.10)-1*
G04 #@! TF.CreationDate,2022-05-27T17:54:39+02:00*
G04 #@! TF.ProjectId,POV_display_schematic,504f565f-6469-4737-906c-61795f736368,1*
G04 #@! TF.SameCoordinates,Original*
G04 #@! TF.FileFunction,Legend,Bot*
G04 #@! TF.FilePolarity,Positive*
%FSLAX46Y46*%
G04 Gerber Fmt 4.6, Leading zero omitted, Abs format (unit mm)*
G04 Created by KiCad (PCBNEW (5.1.10)-1) date 2022-05-27 17:54:39*
%MOMM*%
%LPD*%
G01*
G04 APERTURE LIST*
%ADD10C,0.152400*%
%ADD11C,0.120000*%
%ADD12C,0.150000*%
%ADD13C,1.800000*%
%ADD14R,1.800000X1.800000*%
%ADD15C,1.700000*%
%ADD16O,1.700000X1.700000*%
%ADD17R,1.700000X1.700000*%
%ADD18O,1.900000X1.200000*%
%ADD19C,1.450000*%
%ADD20C,3.200000*%
G04 APERTURE END LIST*
D10*
X257754361Y-111554895D02*
X257754361Y-112135466D01*
X257793066Y-112251580D01*
X257870476Y-112328990D01*
X257986590Y-112367695D01*
X258064000Y-112367695D01*
X256980266Y-112367695D02*
X257367314Y-112367695D01*
X257367314Y-111554895D01*
X256244876Y-112290285D02*
X256283580Y-112328990D01*
X256399695Y-112367695D01*
X256477104Y-112367695D01*
X256593219Y-112328990D01*
X256670628Y-112251580D01*
X256709333Y-112174171D01*
X256748038Y-112019352D01*
X256748038Y-111903238D01*
X256709333Y-111748419D01*
X256670628Y-111671009D01*
X256593219Y-111593600D01*
X256477104Y-111554895D01*
X256399695Y-111554895D01*
X256283580Y-111593600D01*
X256244876Y-111632304D01*
X255664304Y-111554895D02*
X255664304Y-112135466D01*
X255703009Y-112251580D01*
X255780419Y-112328990D01*
X255896533Y-112367695D01*
X255973942Y-112367695D01*
X254890209Y-112367695D02*
X255277257Y-112367695D01*
X255277257Y-111554895D01*
X254154819Y-112290285D02*
X254193523Y-112328990D01*
X254309638Y-112367695D01*
X254387047Y-112367695D01*
X254503161Y-112328990D01*
X254580571Y-112251580D01*
X254619276Y-112174171D01*
X254657980Y-112019352D01*
X254657980Y-111903238D01*
X254619276Y-111748419D01*
X254580571Y-111671009D01*
X254503161Y-111593600D01*
X254387047Y-111554895D01*
X254309638Y-111554895D01*
X254193523Y-111593600D01*
X254154819Y-111632304D01*
X253574247Y-111554895D02*
X253574247Y-112135466D01*
X253612952Y-112251580D01*
X253690361Y-112328990D01*
X253806476Y-112367695D01*
X253883885Y-112367695D01*
X252800152Y-112367695D02*
X253187200Y-112367695D01*
X253187200Y-111554895D01*
X252064761Y-112290285D02*
X252103466Y-112328990D01*
X252219580Y-112367695D01*
X252296990Y-112367695D01*
X252413104Y-112328990D01*
X252490514Y-112251580D01*
X252529219Y-112174171D01*
X252567923Y-112019352D01*
X252567923Y-111903238D01*
X252529219Y-111748419D01*
X252490514Y-111671009D01*
X252413104Y-111593600D01*
X252296990Y-111554895D01*
X252219580Y-111554895D01*
X252103466Y-111593600D01*
X252064761Y-111632304D01*
X251484190Y-111554895D02*
X251484190Y-112135466D01*
X251522895Y-112251580D01*
X251600304Y-112328990D01*
X251716419Y-112367695D01*
X251793828Y-112367695D01*
X250710095Y-112367695D02*
X251097142Y-112367695D01*
X251097142Y-111554895D01*
X249974704Y-112290285D02*
X250013409Y-112328990D01*
X250129523Y-112367695D01*
X250206933Y-112367695D01*
X250323047Y-112328990D01*
X250400457Y-112251580D01*
X250439161Y-112174171D01*
X250477866Y-112019352D01*
X250477866Y-111903238D01*
X250439161Y-111748419D01*
X250400457Y-111671009D01*
X250323047Y-111593600D01*
X250206933Y-111554895D01*
X250129523Y-111554895D01*
X250013409Y-111593600D01*
X249974704Y-111632304D01*
X221364351Y-79377297D02*
X221983627Y-79377297D01*
X221673989Y-79067659D02*
X221673989Y-79686935D01*
X224228504Y-79377297D02*
X224847780Y-79377297D01*
X238464076Y-96496095D02*
X238851123Y-96496095D01*
X238851123Y-95683295D01*
X238193142Y-96496095D02*
X238193142Y-95954228D01*
X238193142Y-95683295D02*
X238231847Y-95722000D01*
X238193142Y-95760704D01*
X238154438Y-95722000D01*
X238193142Y-95683295D01*
X238193142Y-95760704D01*
X237806095Y-96186457D02*
X237186819Y-96186457D01*
X236799771Y-96496095D02*
X236799771Y-95683295D01*
X236490133Y-95683295D01*
X236412723Y-95722000D01*
X236374019Y-95760704D01*
X236335314Y-95838114D01*
X236335314Y-95954228D01*
X236374019Y-96031638D01*
X236412723Y-96070342D01*
X236490133Y-96109047D01*
X236799771Y-96109047D01*
X235870857Y-96496095D02*
X235948266Y-96457390D01*
X235986971Y-96418685D01*
X236025676Y-96341276D01*
X236025676Y-96109047D01*
X235986971Y-96031638D01*
X235948266Y-95992933D01*
X235870857Y-95954228D01*
X235754742Y-95954228D01*
X235677333Y-95992933D01*
X235638628Y-96031638D01*
X235599923Y-96109047D01*
X235599923Y-96341276D01*
X235638628Y-96418685D01*
X235677333Y-96457390D01*
X235754742Y-96496095D01*
X235870857Y-96496095D01*
X235135466Y-96496095D02*
X235212876Y-96457390D01*
X235251580Y-96379980D01*
X235251580Y-95683295D01*
X234245257Y-96263866D02*
X233858209Y-96263866D01*
X234322666Y-96496095D02*
X234051733Y-95683295D01*
X233780800Y-96496095D01*
X233509866Y-96496095D02*
X233509866Y-95683295D01*
X233432457Y-96186457D02*
X233200228Y-96496095D01*
X233200228Y-95954228D02*
X233509866Y-96263866D01*
X232929295Y-95954228D02*
X232735771Y-96496095D01*
X232542247Y-95954228D02*
X232735771Y-96496095D01*
X232813180Y-96689619D01*
X232851885Y-96728323D01*
X232929295Y-96767028D01*
X231884266Y-95954228D02*
X231884266Y-96612209D01*
X231922971Y-96689619D01*
X231961676Y-96728323D01*
X232039085Y-96767028D01*
X232155200Y-96767028D01*
X232232609Y-96728323D01*
X231884266Y-96457390D02*
X231961676Y-96496095D01*
X232116495Y-96496095D01*
X232193904Y-96457390D01*
X232232609Y-96418685D01*
X232271314Y-96341276D01*
X232271314Y-96109047D01*
X232232609Y-96031638D01*
X232193904Y-95992933D01*
X232116495Y-95954228D01*
X231961676Y-95954228D01*
X231884266Y-95992933D01*
X231148876Y-96496095D02*
X231148876Y-96070342D01*
X231187580Y-95992933D01*
X231264990Y-95954228D01*
X231419809Y-95954228D01*
X231497219Y-95992933D01*
X231148876Y-96457390D02*
X231226285Y-96496095D01*
X231419809Y-96496095D01*
X231497219Y-96457390D01*
X231535923Y-96379980D01*
X231535923Y-96302571D01*
X231497219Y-96225161D01*
X231419809Y-96186457D01*
X231226285Y-96186457D01*
X231148876Y-96147752D01*
X237496457Y-97867695D02*
X237341638Y-97867695D01*
X237264228Y-97828990D01*
X237225523Y-97790285D01*
X237148114Y-97674171D01*
X237109409Y-97519352D01*
X237109409Y-97209714D01*
X237148114Y-97132304D01*
X237186819Y-97093600D01*
X237264228Y-97054895D01*
X237419047Y-97054895D01*
X237496457Y-97093600D01*
X237535161Y-97132304D01*
X237573866Y-97209714D01*
X237573866Y-97403238D01*
X237535161Y-97480647D01*
X237496457Y-97519352D01*
X237419047Y-97558057D01*
X237264228Y-97558057D01*
X237186819Y-97519352D01*
X237148114Y-97480647D01*
X237109409Y-97403238D01*
X236644952Y-97403238D02*
X236722361Y-97364533D01*
X236761066Y-97325828D01*
X236799771Y-97248419D01*
X236799771Y-97209714D01*
X236761066Y-97132304D01*
X236722361Y-97093600D01*
X236644952Y-97054895D01*
X236490133Y-97054895D01*
X236412723Y-97093600D01*
X236374019Y-97132304D01*
X236335314Y-97209714D01*
X236335314Y-97248419D01*
X236374019Y-97325828D01*
X236412723Y-97364533D01*
X236490133Y-97403238D01*
X236644952Y-97403238D01*
X236722361Y-97441942D01*
X236761066Y-97480647D01*
X236799771Y-97558057D01*
X236799771Y-97712876D01*
X236761066Y-97790285D01*
X236722361Y-97828990D01*
X236644952Y-97867695D01*
X236490133Y-97867695D01*
X236412723Y-97828990D01*
X236374019Y-97790285D01*
X236335314Y-97712876D01*
X236335314Y-97558057D01*
X236374019Y-97480647D01*
X236412723Y-97441942D01*
X236490133Y-97403238D01*
X235832152Y-97054895D02*
X235754742Y-97054895D01*
X235677333Y-97093600D01*
X235638628Y-97132304D01*
X235599923Y-97209714D01*
X235561219Y-97364533D01*
X235561219Y-97558057D01*
X235599923Y-97712876D01*
X235638628Y-97790285D01*
X235677333Y-97828990D01*
X235754742Y-97867695D01*
X235832152Y-97867695D01*
X235909561Y-97828990D01*
X235948266Y-97790285D01*
X235986971Y-97712876D01*
X236025676Y-97558057D01*
X236025676Y-97364533D01*
X235986971Y-97209714D01*
X235948266Y-97132304D01*
X235909561Y-97093600D01*
X235832152Y-97054895D01*
X234593600Y-97867695D02*
X234593600Y-97325828D01*
X234593600Y-97403238D02*
X234554895Y-97364533D01*
X234477485Y-97325828D01*
X234361371Y-97325828D01*
X234283961Y-97364533D01*
X234245257Y-97441942D01*
X234245257Y-97867695D01*
X234245257Y-97441942D02*
X234206552Y-97364533D01*
X234129142Y-97325828D01*
X234013028Y-97325828D01*
X233935619Y-97364533D01*
X233896914Y-97441942D01*
X233896914Y-97867695D01*
X233548571Y-97635466D02*
X233161523Y-97635466D01*
X233625980Y-97867695D02*
X233355047Y-97054895D01*
X233084114Y-97867695D01*
X232813180Y-97867695D02*
X232813180Y-97054895D01*
X232464838Y-97867695D02*
X232464838Y-97441942D01*
X232503542Y-97364533D01*
X232580952Y-97325828D01*
X232697066Y-97325828D01*
X232774476Y-97364533D01*
X232813180Y-97403238D01*
X237090057Y-99239295D02*
X237554514Y-99239295D01*
X237322285Y-99239295D02*
X237322285Y-98426495D01*
X237399695Y-98542609D01*
X237477104Y-98620019D01*
X237554514Y-98658723D01*
X236780419Y-99200590D02*
X236664304Y-99239295D01*
X236470780Y-99239295D01*
X236393371Y-99200590D01*
X236354666Y-99161885D01*
X236315961Y-99084476D01*
X236315961Y-99007066D01*
X236354666Y-98929657D01*
X236393371Y-98890952D01*
X236470780Y-98852247D01*
X236625600Y-98813542D01*
X236703009Y-98774838D01*
X236741714Y-98736133D01*
X236780419Y-98658723D01*
X236780419Y-98581314D01*
X236741714Y-98503904D01*
X236703009Y-98465200D01*
X236625600Y-98426495D01*
X236432076Y-98426495D01*
X236315961Y-98465200D01*
X235425752Y-98426495D02*
X234922590Y-98426495D01*
X235193523Y-98736133D01*
X235077409Y-98736133D01*
X235000000Y-98774838D01*
X234961295Y-98813542D01*
X234922590Y-98890952D01*
X234922590Y-99084476D01*
X234961295Y-99161885D01*
X235000000Y-99200590D01*
X235077409Y-99239295D01*
X235309638Y-99239295D01*
X235387047Y-99200590D01*
X235425752Y-99161885D01*
X234535542Y-99200590D02*
X234535542Y-99239295D01*
X234574247Y-99316704D01*
X234612952Y-99355409D01*
X234264609Y-98426495D02*
X233722742Y-98426495D01*
X234071085Y-99239295D01*
X232909942Y-98426495D02*
X232639009Y-99239295D01*
X232368076Y-98426495D01*
X260000000Y-114500000D02*
X210000000Y-114500000D01*
X260000000Y-80500000D02*
X260000000Y-114500000D01*
X210000000Y-80500000D02*
X260000000Y-80500000D01*
X210000000Y-114500000D02*
X210000000Y-80500000D01*
X207500000Y-90000000D02*
X207500000Y-105000000D01*
X192500000Y-105000000D02*
X192500000Y-90000000D01*
D11*
X268570000Y-97500000D02*
G75*
G03*
X268570000Y-97500000I-2500000J0D01*
G01*
X263510000Y-99045000D02*
X263510000Y-95955000D01*
X269060000Y-97500462D02*
G75*
G03*
X263510000Y-95955170I-2990000J462D01*
G01*
X269060000Y-97499538D02*
G75*
G02*
X263510000Y-99044830I-2990000J-462D01*
G01*
X68985000Y-97761252D02*
X68985000Y-97238748D01*
X67515000Y-97761252D02*
X67515000Y-97238748D01*
X52785000Y-97761252D02*
X52785000Y-97238748D01*
X51315000Y-97761252D02*
X51315000Y-97238748D01*
X88785000Y-97761252D02*
X88785000Y-97238748D01*
X87315000Y-97761252D02*
X87315000Y-97238748D01*
X107735000Y-97761252D02*
X107735000Y-97238748D01*
X106265000Y-97761252D02*
X106265000Y-97238748D01*
X126735000Y-97761252D02*
X126735000Y-97238748D01*
X125265000Y-97761252D02*
X125265000Y-97238748D01*
X148335000Y-97761252D02*
X148335000Y-97238748D01*
X146865000Y-97761252D02*
X146865000Y-97238748D01*
X163485000Y-97761252D02*
X163485000Y-97238748D01*
X162015000Y-97761252D02*
X162015000Y-97238748D01*
X178535000Y-97861252D02*
X178535000Y-97338748D01*
X177065000Y-97861252D02*
X177065000Y-97338748D01*
X225770000Y-75370000D02*
X225770000Y-78030000D01*
X223170000Y-75370000D02*
X225770000Y-75370000D01*
X223170000Y-78030000D02*
X225770000Y-78030000D01*
X223170000Y-75370000D02*
X223170000Y-78030000D01*
X221900000Y-75370000D02*
X220570000Y-75370000D01*
X220570000Y-75370000D02*
X220570000Y-76700000D01*
X64860000Y-97300000D02*
X64860000Y-99250000D01*
X64860000Y-97300000D02*
X64860000Y-95350000D01*
X54740000Y-97300000D02*
X54740000Y-99250000D01*
X54740000Y-97300000D02*
X54740000Y-93850000D01*
X81110000Y-97300000D02*
X81110000Y-99250000D01*
X81110000Y-97300000D02*
X81110000Y-95350000D01*
X70990000Y-97300000D02*
X70990000Y-99250000D01*
X70990000Y-97300000D02*
X70990000Y-93850000D01*
X100910000Y-97300000D02*
X100910000Y-99250000D01*
X100910000Y-97300000D02*
X100910000Y-95350000D01*
X90790000Y-97300000D02*
X90790000Y-99250000D01*
X90790000Y-97300000D02*
X90790000Y-93850000D01*
X119860000Y-97300000D02*
X119860000Y-99250000D01*
X119860000Y-97300000D02*
X119860000Y-95350000D01*
X109740000Y-97300000D02*
X109740000Y-99250000D01*
X109740000Y-97300000D02*
X109740000Y-93850000D01*
X138660000Y-97400000D02*
X138660000Y-99350000D01*
X138660000Y-97400000D02*
X138660000Y-95450000D01*
X128540000Y-97400000D02*
X128540000Y-99350000D01*
X128540000Y-97400000D02*
X128540000Y-93950000D01*
X160410000Y-97200000D02*
X160410000Y-99150000D01*
X160410000Y-97200000D02*
X160410000Y-95250000D01*
X150290000Y-97200000D02*
X150290000Y-99150000D01*
X150290000Y-97200000D02*
X150290000Y-93750000D01*
X175410000Y-97300000D02*
X175410000Y-99250000D01*
X175410000Y-97300000D02*
X175410000Y-95350000D01*
X165290000Y-97300000D02*
X165290000Y-99250000D01*
X165290000Y-97300000D02*
X165290000Y-93850000D01*
X190460000Y-97225000D02*
X190460000Y-99175000D01*
X190460000Y-97225000D02*
X190460000Y-95275000D01*
X180340000Y-97225000D02*
X180340000Y-99175000D01*
X180340000Y-97225000D02*
X180340000Y-93775000D01*
D12*
X67107142Y-96857142D02*
X67154761Y-96809523D01*
X67202380Y-96666666D01*
X67202380Y-96571428D01*
X67154761Y-96428571D01*
X67059523Y-96333333D01*
X66964285Y-96285714D01*
X66773809Y-96238095D01*
X66630952Y-96238095D01*
X66440476Y-96285714D01*
X66345238Y-96333333D01*
X66250000Y-96428571D01*
X66202380Y-96571428D01*
X66202380Y-96666666D01*
X66250000Y-96809523D01*
X66297619Y-96857142D01*
X67202380Y-97809523D02*
X67202380Y-97238095D01*
X67202380Y-97523809D02*
X66202380Y-97523809D01*
X66345238Y-97428571D01*
X66440476Y-97333333D01*
X66488095Y-97238095D01*
X66202380Y-98666666D02*
X66202380Y-98476190D01*
X66250000Y-98380952D01*
X66297619Y-98333333D01*
X66440476Y-98238095D01*
X66630952Y-98190476D01*
X67011904Y-98190476D01*
X67107142Y-98238095D01*
X67154761Y-98285714D01*
X67202380Y-98380952D01*
X67202380Y-98571428D01*
X67154761Y-98666666D01*
X67107142Y-98714285D01*
X67011904Y-98761904D01*
X66773809Y-98761904D01*
X66678571Y-98714285D01*
X66630952Y-98666666D01*
X66583333Y-98571428D01*
X66583333Y-98380952D01*
X66630952Y-98285714D01*
X66678571Y-98238095D01*
X66773809Y-98190476D01*
X52642857Y-95107142D02*
X52690476Y-95154761D01*
X52833333Y-95202380D01*
X52928571Y-95202380D01*
X53071428Y-95154761D01*
X53166666Y-95059523D01*
X53214285Y-94964285D01*
X53261904Y-94773809D01*
X53261904Y-94630952D01*
X53214285Y-94440476D01*
X53166666Y-94345238D01*
X53071428Y-94250000D01*
X52928571Y-94202380D01*
X52833333Y-94202380D01*
X52690476Y-94250000D01*
X52642857Y-94297619D01*
X51690476Y-95202380D02*
X52261904Y-95202380D01*
X51976190Y-95202380D02*
X51976190Y-94202380D01*
X52071428Y-94345238D01*
X52166666Y-94440476D01*
X52261904Y-94488095D01*
X50833333Y-94535714D02*
X50833333Y-95202380D01*
X51071428Y-94154761D02*
X51309523Y-94869047D01*
X50690476Y-94869047D01*
X86857142Y-96857142D02*
X86904761Y-96809523D01*
X86952380Y-96666666D01*
X86952380Y-96571428D01*
X86904761Y-96428571D01*
X86809523Y-96333333D01*
X86714285Y-96285714D01*
X86523809Y-96238095D01*
X86380952Y-96238095D01*
X86190476Y-96285714D01*
X86095238Y-96333333D01*
X86000000Y-96428571D01*
X85952380Y-96571428D01*
X85952380Y-96666666D01*
X86000000Y-96809523D01*
X86047619Y-96857142D01*
X86952380Y-97809523D02*
X86952380Y-97238095D01*
X86952380Y-97523809D02*
X85952380Y-97523809D01*
X86095238Y-97428571D01*
X86190476Y-97333333D01*
X86238095Y-97238095D01*
X85952380Y-98142857D02*
X85952380Y-98761904D01*
X86333333Y-98428571D01*
X86333333Y-98571428D01*
X86380952Y-98666666D01*
X86428571Y-98714285D01*
X86523809Y-98761904D01*
X86761904Y-98761904D01*
X86857142Y-98714285D01*
X86904761Y-98666666D01*
X86952380Y-98571428D01*
X86952380Y-98285714D01*
X86904761Y-98190476D01*
X86857142Y-98142857D01*
X105857142Y-96857142D02*
X105904761Y-96809523D01*
X105952380Y-96666666D01*
X105952380Y-96571428D01*
X105904761Y-96428571D01*
X105809523Y-96333333D01*
X105714285Y-96285714D01*
X105523809Y-96238095D01*
X105380952Y-96238095D01*
X105190476Y-96285714D01*
X105095238Y-96333333D01*
X105000000Y-96428571D01*
X104952380Y-96571428D01*
X104952380Y-96666666D01*
X105000000Y-96809523D01*
X105047619Y-96857142D01*
X105952380Y-97809523D02*
X105952380Y-97238095D01*
X105952380Y-97523809D02*
X104952380Y-97523809D01*
X105095238Y-97428571D01*
X105190476Y-97333333D01*
X105238095Y-97238095D01*
X105952380Y-98761904D02*
X105952380Y-98190476D01*
X105952380Y-98476190D02*
X104952380Y-98476190D01*
X105095238Y-98380952D01*
X105190476Y-98285714D01*
X105238095Y-98190476D01*
X124857142Y-97333333D02*
X124904761Y-97285714D01*
X124952380Y-97142857D01*
X124952380Y-97047619D01*
X124904761Y-96904761D01*
X124809523Y-96809523D01*
X124714285Y-96761904D01*
X124523809Y-96714285D01*
X124380952Y-96714285D01*
X124190476Y-96761904D01*
X124095238Y-96809523D01*
X124000000Y-96904761D01*
X123952380Y-97047619D01*
X123952380Y-97142857D01*
X124000000Y-97285714D01*
X124047619Y-97333333D01*
X124952380Y-97809523D02*
X124952380Y-98000000D01*
X124904761Y-98095238D01*
X124857142Y-98142857D01*
X124714285Y-98238095D01*
X124523809Y-98285714D01*
X124142857Y-98285714D01*
X124047619Y-98238095D01*
X124000000Y-98190476D01*
X123952380Y-98095238D01*
X123952380Y-97904761D01*
X124000000Y-97809523D01*
X124047619Y-97761904D01*
X124142857Y-97714285D01*
X124380952Y-97714285D01*
X124476190Y-97761904D01*
X124523809Y-97809523D01*
X124571428Y-97904761D01*
X124571428Y-98095238D01*
X124523809Y-98190476D01*
X124476190Y-98238095D01*
X124380952Y-98285714D01*
X146357142Y-97333333D02*
X146404761Y-97285714D01*
X146452380Y-97142857D01*
X146452380Y-97047619D01*
X146404761Y-96904761D01*
X146309523Y-96809523D01*
X146214285Y-96761904D01*
X146023809Y-96714285D01*
X145880952Y-96714285D01*
X145690476Y-96761904D01*
X145595238Y-96809523D01*
X145500000Y-96904761D01*
X145452380Y-97047619D01*
X145452380Y-97142857D01*
X145500000Y-97285714D01*
X145547619Y-97333333D01*
X145452380Y-97666666D02*
X145452380Y-98333333D01*
X146452380Y-97904761D01*
X161607142Y-97333333D02*
X161654761Y-97285714D01*
X161702380Y-97142857D01*
X161702380Y-97047619D01*
X161654761Y-96904761D01*
X161559523Y-96809523D01*
X161464285Y-96761904D01*
X161273809Y-96714285D01*
X161130952Y-96714285D01*
X160940476Y-96761904D01*
X160845238Y-96809523D01*
X160750000Y-96904761D01*
X160702380Y-97047619D01*
X160702380Y-97142857D01*
X160750000Y-97285714D01*
X160797619Y-97333333D01*
X160702380Y-98190476D02*
X160702380Y-98000000D01*
X160750000Y-97904761D01*
X160797619Y-97857142D01*
X160940476Y-97761904D01*
X161130952Y-97714285D01*
X161511904Y-97714285D01*
X161607142Y-97761904D01*
X161654761Y-97809523D01*
X161702380Y-97904761D01*
X161702380Y-98095238D01*
X161654761Y-98190476D01*
X161607142Y-98238095D01*
X161511904Y-98285714D01*
X161273809Y-98285714D01*
X161178571Y-98238095D01*
X161130952Y-98190476D01*
X161083333Y-98095238D01*
X161083333Y-97904761D01*
X161130952Y-97809523D01*
X161178571Y-97761904D01*
X161273809Y-97714285D01*
X176607142Y-97433333D02*
X176654761Y-97385714D01*
X176702380Y-97242857D01*
X176702380Y-97147619D01*
X176654761Y-97004761D01*
X176559523Y-96909523D01*
X176464285Y-96861904D01*
X176273809Y-96814285D01*
X176130952Y-96814285D01*
X175940476Y-96861904D01*
X175845238Y-96909523D01*
X175750000Y-97004761D01*
X175702380Y-97147619D01*
X175702380Y-97242857D01*
X175750000Y-97385714D01*
X175797619Y-97433333D01*
X175702380Y-98338095D02*
X175702380Y-97861904D01*
X176178571Y-97814285D01*
X176130952Y-97861904D01*
X176083333Y-97957142D01*
X176083333Y-98195238D01*
X176130952Y-98290476D01*
X176178571Y-98338095D01*
X176273809Y-98385714D01*
X176511904Y-98385714D01*
X176607142Y-98338095D01*
X176654761Y-98290476D01*
X176702380Y-98195238D01*
X176702380Y-97957142D01*
X176654761Y-97861904D01*
X176607142Y-97814285D01*
X53452380Y-96061904D02*
X54261904Y-96061904D01*
X54357142Y-96109523D01*
X54404761Y-96157142D01*
X54452380Y-96252380D01*
X54452380Y-96442857D01*
X54404761Y-96538095D01*
X54357142Y-96585714D01*
X54261904Y-96633333D01*
X53452380Y-96633333D01*
X54452380Y-97633333D02*
X54452380Y-97061904D01*
X54452380Y-97347619D02*
X53452380Y-97347619D01*
X53595238Y-97252380D01*
X53690476Y-97157142D01*
X53738095Y-97061904D01*
X54452380Y-98585714D02*
X54452380Y-98014285D01*
X54452380Y-98300000D02*
X53452380Y-98300000D01*
X53595238Y-98204761D01*
X53690476Y-98109523D01*
X53738095Y-98014285D01*
X69652380Y-96538095D02*
X70461904Y-96538095D01*
X70557142Y-96585714D01*
X70604761Y-96633333D01*
X70652380Y-96728571D01*
X70652380Y-96919047D01*
X70604761Y-97014285D01*
X70557142Y-97061904D01*
X70461904Y-97109523D01*
X69652380Y-97109523D01*
X70080952Y-97728571D02*
X70033333Y-97633333D01*
X69985714Y-97585714D01*
X69890476Y-97538095D01*
X69842857Y-97538095D01*
X69747619Y-97585714D01*
X69700000Y-97633333D01*
X69652380Y-97728571D01*
X69652380Y-97919047D01*
X69700000Y-98014285D01*
X69747619Y-98061904D01*
X69842857Y-98109523D01*
X69890476Y-98109523D01*
X69985714Y-98061904D01*
X70033333Y-98014285D01*
X70080952Y-97919047D01*
X70080952Y-97728571D01*
X70128571Y-97633333D01*
X70176190Y-97585714D01*
X70271428Y-97538095D01*
X70461904Y-97538095D01*
X70557142Y-97585714D01*
X70604761Y-97633333D01*
X70652380Y-97728571D01*
X70652380Y-97919047D01*
X70604761Y-98014285D01*
X70557142Y-98061904D01*
X70461904Y-98109523D01*
X70271428Y-98109523D01*
X70176190Y-98061904D01*
X70128571Y-98014285D01*
X70080952Y-97919047D01*
X89452380Y-96538095D02*
X90261904Y-96538095D01*
X90357142Y-96585714D01*
X90404761Y-96633333D01*
X90452380Y-96728571D01*
X90452380Y-96919047D01*
X90404761Y-97014285D01*
X90357142Y-97061904D01*
X90261904Y-97109523D01*
X89452380Y-97109523D01*
X89452380Y-98014285D02*
X89452380Y-97823809D01*
X89500000Y-97728571D01*
X89547619Y-97680952D01*
X89690476Y-97585714D01*
X89880952Y-97538095D01*
X90261904Y-97538095D01*
X90357142Y-97585714D01*
X90404761Y-97633333D01*
X90452380Y-97728571D01*
X90452380Y-97919047D01*
X90404761Y-98014285D01*
X90357142Y-98061904D01*
X90261904Y-98109523D01*
X90023809Y-98109523D01*
X89928571Y-98061904D01*
X89880952Y-98014285D01*
X89833333Y-97919047D01*
X89833333Y-97728571D01*
X89880952Y-97633333D01*
X89928571Y-97585714D01*
X90023809Y-97538095D01*
X108452380Y-96538095D02*
X109261904Y-96538095D01*
X109357142Y-96585714D01*
X109404761Y-96633333D01*
X109452380Y-96728571D01*
X109452380Y-96919047D01*
X109404761Y-97014285D01*
X109357142Y-97061904D01*
X109261904Y-97109523D01*
X108452380Y-97109523D01*
X108452380Y-97490476D02*
X108452380Y-98109523D01*
X108833333Y-97776190D01*
X108833333Y-97919047D01*
X108880952Y-98014285D01*
X108928571Y-98061904D01*
X109023809Y-98109523D01*
X109261904Y-98109523D01*
X109357142Y-98061904D01*
X109404761Y-98014285D01*
X109452380Y-97919047D01*
X109452380Y-97633333D01*
X109404761Y-97538095D01*
X109357142Y-97490476D01*
X127252380Y-96161904D02*
X128061904Y-96161904D01*
X128157142Y-96209523D01*
X128204761Y-96257142D01*
X128252380Y-96352380D01*
X128252380Y-96542857D01*
X128204761Y-96638095D01*
X128157142Y-96685714D01*
X128061904Y-96733333D01*
X127252380Y-96733333D01*
X128252380Y-97733333D02*
X128252380Y-97161904D01*
X128252380Y-97447619D02*
X127252380Y-97447619D01*
X127395238Y-97352380D01*
X127490476Y-97257142D01*
X127538095Y-97161904D01*
X127252380Y-98352380D02*
X127252380Y-98447619D01*
X127300000Y-98542857D01*
X127347619Y-98590476D01*
X127442857Y-98638095D01*
X127633333Y-98685714D01*
X127871428Y-98685714D01*
X128061904Y-98638095D01*
X128157142Y-98590476D01*
X128204761Y-98542857D01*
X128252380Y-98447619D01*
X128252380Y-98352380D01*
X128204761Y-98257142D01*
X128157142Y-98209523D01*
X128061904Y-98161904D01*
X127871428Y-98114285D01*
X127633333Y-98114285D01*
X127442857Y-98161904D01*
X127347619Y-98209523D01*
X127300000Y-98257142D01*
X127252380Y-98352380D01*
X149052380Y-96538095D02*
X149861904Y-96538095D01*
X149957142Y-96585714D01*
X150004761Y-96633333D01*
X150052380Y-96728571D01*
X150052380Y-96919047D01*
X150004761Y-97014285D01*
X149957142Y-97061904D01*
X149861904Y-97109523D01*
X149052380Y-97109523D01*
X149052380Y-97490476D02*
X149052380Y-98157142D01*
X150052380Y-97728571D01*
X164052380Y-96538095D02*
X164861904Y-96538095D01*
X164957142Y-96585714D01*
X165004761Y-96633333D01*
X165052380Y-96728571D01*
X165052380Y-96919047D01*
X165004761Y-97014285D01*
X164957142Y-97061904D01*
X164861904Y-97109523D01*
X164052380Y-97109523D01*
X164052380Y-98061904D02*
X164052380Y-97585714D01*
X164528571Y-97538095D01*
X164480952Y-97585714D01*
X164433333Y-97680952D01*
X164433333Y-97919047D01*
X164480952Y-98014285D01*
X164528571Y-98061904D01*
X164623809Y-98109523D01*
X164861904Y-98109523D01*
X164957142Y-98061904D01*
X165004761Y-98014285D01*
X165052380Y-97919047D01*
X165052380Y-97680952D01*
X165004761Y-97585714D01*
X164957142Y-97538095D01*
X179052380Y-96463095D02*
X179861904Y-96463095D01*
X179957142Y-96510714D01*
X180004761Y-96558333D01*
X180052380Y-96653571D01*
X180052380Y-96844047D01*
X180004761Y-96939285D01*
X179957142Y-96986904D01*
X179861904Y-97034523D01*
X179052380Y-97034523D01*
X179385714Y-97939285D02*
X180052380Y-97939285D01*
X179004761Y-97701190D02*
X179719047Y-97463095D01*
X179719047Y-98082142D01*
%LPC*%
D13*
X267340000Y-97500000D03*
D14*
X264800000Y-97500000D03*
D15*
X263960000Y-81710000D03*
X263960000Y-84250000D03*
X263960000Y-86790000D03*
X266500000Y-81710000D03*
X266500000Y-84250000D03*
G36*
G01*
X267350000Y-86190000D02*
X267350000Y-87390000D01*
G75*
G02*
X267100000Y-87640000I-250000J0D01*
G01*
X265900000Y-87640000D01*
G75*
G02*
X265650000Y-87390000I0J250000D01*
G01*
X265650000Y-86190000D01*
G75*
G02*
X265900000Y-85940000I250000J0D01*
G01*
X267100000Y-85940000D01*
G75*
G02*
X267350000Y-86190000I0J-250000D01*
G01*
G37*
D16*
X238620000Y-76750000D03*
X236080000Y-76750000D03*
X233540000Y-76750000D03*
D17*
X231000000Y-76750000D03*
D18*
X271050000Y-104250000D03*
X271050000Y-111250000D03*
D19*
X268350000Y-105250000D03*
X268350000Y-110250000D03*
D20*
X213750000Y-76750000D03*
X256250000Y-118250000D03*
X256250000Y-76750000D03*
X213750000Y-118250000D03*
G36*
G01*
X68725000Y-97050000D02*
X67775000Y-97050000D01*
G75*
G02*
X67525000Y-96800000I0J250000D01*
G01*
X67525000Y-96125000D01*
G75*
G02*
X67775000Y-95875000I250000J0D01*
G01*
X68725000Y-95875000D01*
G75*
G02*
X68975000Y-96125000I0J-250000D01*
G01*
X68975000Y-96800000D01*
G75*
G02*
X68725000Y-97050000I-250000J0D01*
G01*
G37*
G36*
G01*
X68725000Y-99125000D02*
X67775000Y-99125000D01*
G75*
G02*
X67525000Y-98875000I0J250000D01*
G01*
X67525000Y-98200000D01*
G75*
G02*
X67775000Y-97950000I250000J0D01*
G01*
X68725000Y-97950000D01*
G75*
G02*
X68975000Y-98200000I0J-250000D01*
G01*
X68975000Y-98875000D01*
G75*
G02*
X68725000Y-99125000I-250000J0D01*
G01*
G37*
G36*
G01*
X52525000Y-97050000D02*
X51575000Y-97050000D01*
G75*
G02*
X51325000Y-96800000I0J250000D01*
G01*
X51325000Y-96125000D01*
G75*
G02*
X51575000Y-95875000I250000J0D01*
G01*
X52525000Y-95875000D01*
G75*
G02*
X52775000Y-96125000I0J-250000D01*
G01*
X52775000Y-96800000D01*
G75*
G02*
X52525000Y-97050000I-250000J0D01*
G01*
G37*
G36*
G01*
X52525000Y-99125000D02*
X51575000Y-99125000D01*
G75*
G02*
X51325000Y-98875000I0J250000D01*
G01*
X51325000Y-98200000D01*
G75*
G02*
X51575000Y-97950000I250000J0D01*
G01*
X52525000Y-97950000D01*
G75*
G02*
X52775000Y-98200000I0J-250000D01*
G01*
X52775000Y-98875000D01*
G75*
G02*
X52525000Y-99125000I-250000J0D01*
G01*
G37*
G36*
G01*
X88525000Y-97050000D02*
X87575000Y-97050000D01*
G75*
G02*
X87325000Y-96800000I0J250000D01*
G01*
X87325000Y-96125000D01*
G75*
G02*
X87575000Y-95875000I250000J0D01*
G01*
X88525000Y-95875000D01*
G75*
G02*
X88775000Y-96125000I0J-250000D01*
G01*
X88775000Y-96800000D01*
G75*
G02*
X88525000Y-97050000I-250000J0D01*
G01*
G37*
G36*
G01*
X88525000Y-99125000D02*
X87575000Y-99125000D01*
G75*
G02*
X87325000Y-98875000I0J250000D01*
G01*
X87325000Y-98200000D01*
G75*
G02*
X87575000Y-97950000I250000J0D01*
G01*
X88525000Y-97950000D01*
G75*
G02*
X88775000Y-98200000I0J-250000D01*
G01*
X88775000Y-98875000D01*
G75*
G02*
X88525000Y-99125000I-250000J0D01*
G01*
G37*
G36*
G01*
X107475000Y-97050000D02*
X106525000Y-97050000D01*
G75*
G02*
X106275000Y-96800000I0J250000D01*
G01*
X106275000Y-96125000D01*
G75*
G02*
X106525000Y-95875000I250000J0D01*
G01*
X107475000Y-95875000D01*
G75*
G02*
X107725000Y-96125000I0J-250000D01*
G01*
X107725000Y-96800000D01*
G75*
G02*
X107475000Y-97050000I-250000J0D01*
G01*
G37*
G36*
G01*
X107475000Y-99125000D02*
X106525000Y-99125000D01*
G75*
G02*
X106275000Y-98875000I0J250000D01*
G01*
X106275000Y-98200000D01*
G75*
G02*
X106525000Y-97950000I250000J0D01*
G01*
X107475000Y-97950000D01*
G75*
G02*
X107725000Y-98200000I0J-250000D01*
G01*
X107725000Y-98875000D01*
G75*
G02*
X107475000Y-99125000I-250000J0D01*
G01*
G37*
G36*
G01*
X126475000Y-97050000D02*
X125525000Y-97050000D01*
G75*
G02*
X125275000Y-96800000I0J250000D01*
G01*
X125275000Y-96125000D01*
G75*
G02*
X125525000Y-95875000I250000J0D01*
G01*
X126475000Y-95875000D01*
G75*
G02*
X126725000Y-96125000I0J-250000D01*
G01*
X126725000Y-96800000D01*
G75*
G02*
X126475000Y-97050000I-250000J0D01*
G01*
G37*
G36*
G01*
X126475000Y-99125000D02*
X125525000Y-99125000D01*
G75*
G02*
X125275000Y-98875000I0J250000D01*
G01*
X125275000Y-98200000D01*
G75*
G02*
X125525000Y-97950000I250000J0D01*
G01*
X126475000Y-97950000D01*
G75*
G02*
X126725000Y-98200000I0J-250000D01*
G01*
X126725000Y-98875000D01*
G75*
G02*
X126475000Y-99125000I-250000J0D01*
G01*
G37*
G36*
G01*
X148075000Y-97050000D02*
X147125000Y-97050000D01*
G75*
G02*
X146875000Y-96800000I0J250000D01*
G01*
X146875000Y-96125000D01*
G75*
G02*
X147125000Y-95875000I250000J0D01*
G01*
X148075000Y-95875000D01*
G75*
G02*
X148325000Y-96125000I0J-250000D01*
G01*
X148325000Y-96800000D01*
G75*
G02*
X148075000Y-97050000I-250000J0D01*
G01*
G37*
G36*
G01*
X148075000Y-99125000D02*
X147125000Y-99125000D01*
G75*
G02*
X146875000Y-98875000I0J250000D01*
G01*
X146875000Y-98200000D01*
G75*
G02*
X147125000Y-97950000I250000J0D01*
G01*
X148075000Y-97950000D01*
G75*
G02*
X148325000Y-98200000I0J-250000D01*
G01*
X148325000Y-98875000D01*
G75*
G02*
X148075000Y-99125000I-250000J0D01*
G01*
G37*
G36*
G01*
X163225000Y-97050000D02*
X162275000Y-97050000D01*
G75*
G02*
X162025000Y-96800000I0J250000D01*
G01*
X162025000Y-96125000D01*
G75*
G02*
X162275000Y-95875000I250000J0D01*
G01*
X163225000Y-95875000D01*
G75*
G02*
X163475000Y-96125000I0J-250000D01*
G01*
X163475000Y-96800000D01*
G75*
G02*
X163225000Y-97050000I-250000J0D01*
G01*
G37*
G36*
G01*
X163225000Y-99125000D02*
X162275000Y-99125000D01*
G75*
G02*
X162025000Y-98875000I0J250000D01*
G01*
X162025000Y-98200000D01*
G75*
G02*
X162275000Y-97950000I250000J0D01*
G01*
X163225000Y-97950000D01*
G75*
G02*
X163475000Y-98200000I0J-250000D01*
G01*
X163475000Y-98875000D01*
G75*
G02*
X163225000Y-99125000I-250000J0D01*
G01*
G37*
G36*
G01*
X178275000Y-97150000D02*
X177325000Y-97150000D01*
G75*
G02*
X177075000Y-96900000I0J250000D01*
G01*
X177075000Y-96225000D01*
G75*
G02*
X177325000Y-95975000I250000J0D01*
G01*
X178275000Y-95975000D01*
G75*
G02*
X178525000Y-96225000I0J-250000D01*
G01*
X178525000Y-96900000D01*
G75*
G02*
X178275000Y-97150000I-250000J0D01*
G01*
G37*
G36*
G01*
X178275000Y-99225000D02*
X177325000Y-99225000D01*
G75*
G02*
X177075000Y-98975000I0J250000D01*
G01*
X177075000Y-98300000D01*
G75*
G02*
X177325000Y-98050000I250000J0D01*
G01*
X178275000Y-98050000D01*
G75*
G02*
X178525000Y-98300000I0J-250000D01*
G01*
X178525000Y-98975000D01*
G75*
G02*
X178275000Y-99225000I-250000J0D01*
G01*
G37*
D16*
X224440000Y-76700000D03*
D17*
X221900000Y-76700000D03*
G36*
G01*
X55205000Y-99000000D02*
X55505000Y-99000000D01*
G75*
G02*
X55655000Y-99150000I0J-150000D01*
G01*
X55655000Y-100600000D01*
G75*
G02*
X55505000Y-100750000I-150000J0D01*
G01*
X55205000Y-100750000D01*
G75*
G02*
X55055000Y-100600000I0J150000D01*
G01*
X55055000Y-99150000D01*
G75*
G02*
X55205000Y-99000000I150000J0D01*
G01*
G37*
G36*
G01*
X56475000Y-99000000D02*
X56775000Y-99000000D01*
G75*
G02*
X56925000Y-99150000I0J-150000D01*
G01*
X56925000Y-100600000D01*
G75*
G02*
X56775000Y-100750000I-150000J0D01*
G01*
X56475000Y-100750000D01*
G75*
G02*
X56325000Y-100600000I0J150000D01*
G01*
X56325000Y-99150000D01*
G75*
G02*
X56475000Y-99000000I150000J0D01*
G01*
G37*
G36*
G01*
X57745000Y-99000000D02*
X58045000Y-99000000D01*
G75*
G02*
X58195000Y-99150000I0J-150000D01*
G01*
X58195000Y-100600000D01*
G75*
G02*
X58045000Y-100750000I-150000J0D01*
G01*
X57745000Y-100750000D01*
G75*
G02*
X57595000Y-100600000I0J150000D01*
G01*
X57595000Y-99150000D01*
G75*
G02*
X57745000Y-99000000I150000J0D01*
G01*
G37*
G36*
G01*
X59015000Y-99000000D02*
X59315000Y-99000000D01*
G75*
G02*
X59465000Y-99150000I0J-150000D01*
G01*
X59465000Y-100600000D01*
G75*
G02*
X59315000Y-100750000I-150000J0D01*
G01*
X59015000Y-100750000D01*
G75*
G02*
X58865000Y-100600000I0J150000D01*
G01*
X58865000Y-99150000D01*
G75*
G02*
X59015000Y-99000000I150000J0D01*
G01*
G37*
G36*
G01*
X60285000Y-99000000D02*
X60585000Y-99000000D01*
G75*
G02*
X60735000Y-99150000I0J-150000D01*
G01*
X60735000Y-100600000D01*
G75*
G02*
X60585000Y-100750000I-150000J0D01*
G01*
X60285000Y-100750000D01*
G75*
G02*
X60135000Y-100600000I0J150000D01*
G01*
X60135000Y-99150000D01*
G75*
G02*
X60285000Y-99000000I150000J0D01*
G01*
G37*
G36*
G01*
X61555000Y-99000000D02*
X61855000Y-99000000D01*
G75*
G02*
X62005000Y-99150000I0J-150000D01*
G01*
X62005000Y-100600000D01*
G75*
G02*
X61855000Y-100750000I-150000J0D01*
G01*
X61555000Y-100750000D01*
G75*
G02*
X61405000Y-100600000I0J150000D01*
G01*
X61405000Y-99150000D01*
G75*
G02*
X61555000Y-99000000I150000J0D01*
G01*
G37*
G36*
G01*
X62825000Y-99000000D02*
X63125000Y-99000000D01*
G75*
G02*
X63275000Y-99150000I0J-150000D01*
G01*
X63275000Y-100600000D01*
G75*
G02*
X63125000Y-100750000I-150000J0D01*
G01*
X62825000Y-100750000D01*
G75*
G02*
X62675000Y-100600000I0J150000D01*
G01*
X62675000Y-99150000D01*
G75*
G02*
X62825000Y-99000000I150000J0D01*
G01*
G37*
G36*
G01*
X64095000Y-99000000D02*
X64395000Y-99000000D01*
G75*
G02*
X64545000Y-99150000I0J-150000D01*
G01*
X64545000Y-100600000D01*
G75*
G02*
X64395000Y-100750000I-150000J0D01*
G01*
X64095000Y-100750000D01*
G75*
G02*
X63945000Y-100600000I0J150000D01*
G01*
X63945000Y-99150000D01*
G75*
G02*
X64095000Y-99000000I150000J0D01*
G01*
G37*
G36*
G01*
X64095000Y-93850000D02*
X64395000Y-93850000D01*
G75*
G02*
X64545000Y-94000000I0J-150000D01*
G01*
X64545000Y-95450000D01*
G75*
G02*
X64395000Y-95600000I-150000J0D01*
G01*
X64095000Y-95600000D01*
G75*
G02*
X63945000Y-95450000I0J150000D01*
G01*
X63945000Y-94000000D01*
G75*
G02*
X64095000Y-93850000I150000J0D01*
G01*
G37*
G36*
G01*
X62825000Y-93850000D02*
X63125000Y-93850000D01*
G75*
G02*
X63275000Y-94000000I0J-150000D01*
G01*
X63275000Y-95450000D01*
G75*
G02*
X63125000Y-95600000I-150000J0D01*
G01*
X62825000Y-95600000D01*
G75*
G02*
X62675000Y-95450000I0J150000D01*
G01*
X62675000Y-94000000D01*
G75*
G02*
X62825000Y-93850000I150000J0D01*
G01*
G37*
G36*
G01*
X61555000Y-93850000D02*
X61855000Y-93850000D01*
G75*
G02*
X62005000Y-94000000I0J-150000D01*
G01*
X62005000Y-95450000D01*
G75*
G02*
X61855000Y-95600000I-150000J0D01*
G01*
X61555000Y-95600000D01*
G75*
G02*
X61405000Y-95450000I0J150000D01*
G01*
X61405000Y-94000000D01*
G75*
G02*
X61555000Y-93850000I150000J0D01*
G01*
G37*
G36*
G01*
X60285000Y-93850000D02*
X60585000Y-93850000D01*
G75*
G02*
X60735000Y-94000000I0J-150000D01*
G01*
X60735000Y-95450000D01*
G75*
G02*
X60585000Y-95600000I-150000J0D01*
G01*
X60285000Y-95600000D01*
G75*
G02*
X60135000Y-95450000I0J150000D01*
G01*
X60135000Y-94000000D01*
G75*
G02*
X60285000Y-93850000I150000J0D01*
G01*
G37*
G36*
G01*
X59015000Y-93850000D02*
X59315000Y-93850000D01*
G75*
G02*
X59465000Y-94000000I0J-150000D01*
G01*
X59465000Y-95450000D01*
G75*
G02*
X59315000Y-95600000I-150000J0D01*
G01*
X59015000Y-95600000D01*
G75*
G02*
X58865000Y-95450000I0J150000D01*
G01*
X58865000Y-94000000D01*
G75*
G02*
X59015000Y-93850000I150000J0D01*
G01*
G37*
G36*
G01*
X57745000Y-93850000D02*
X58045000Y-93850000D01*
G75*
G02*
X58195000Y-94000000I0J-150000D01*
G01*
X58195000Y-95450000D01*
G75*
G02*
X58045000Y-95600000I-150000J0D01*
G01*
X57745000Y-95600000D01*
G75*
G02*
X57595000Y-95450000I0J150000D01*
G01*
X57595000Y-94000000D01*
G75*
G02*
X57745000Y-93850000I150000J0D01*
G01*
G37*
G36*
G01*
X56475000Y-93850000D02*
X56775000Y-93850000D01*
G75*
G02*
X56925000Y-94000000I0J-150000D01*
G01*
X56925000Y-95450000D01*
G75*
G02*
X56775000Y-95600000I-150000J0D01*
G01*
X56475000Y-95600000D01*
G75*
G02*
X56325000Y-95450000I0J150000D01*
G01*
X56325000Y-94000000D01*
G75*
G02*
X56475000Y-93850000I150000J0D01*
G01*
G37*
G36*
G01*
X55205000Y-93850000D02*
X55505000Y-93850000D01*
G75*
G02*
X55655000Y-94000000I0J-150000D01*
G01*
X55655000Y-95450000D01*
G75*
G02*
X55505000Y-95600000I-150000J0D01*
G01*
X55205000Y-95600000D01*
G75*
G02*
X55055000Y-95450000I0J150000D01*
G01*
X55055000Y-94000000D01*
G75*
G02*
X55205000Y-93850000I150000J0D01*
G01*
G37*
G36*
G01*
X71455000Y-99000000D02*
X71755000Y-99000000D01*
G75*
G02*
X71905000Y-99150000I0J-150000D01*
G01*
X71905000Y-100600000D01*
G75*
G02*
X71755000Y-100750000I-150000J0D01*
G01*
X71455000Y-100750000D01*
G75*
G02*
X71305000Y-100600000I0J150000D01*
G01*
X71305000Y-99150000D01*
G75*
G02*
X71455000Y-99000000I150000J0D01*
G01*
G37*
G36*
G01*
X72725000Y-99000000D02*
X73025000Y-99000000D01*
G75*
G02*
X73175000Y-99150000I0J-150000D01*
G01*
X73175000Y-100600000D01*
G75*
G02*
X73025000Y-100750000I-150000J0D01*
G01*
X72725000Y-100750000D01*
G75*
G02*
X72575000Y-100600000I0J150000D01*
G01*
X72575000Y-99150000D01*
G75*
G02*
X72725000Y-99000000I150000J0D01*
G01*
G37*
G36*
G01*
X73995000Y-99000000D02*
X74295000Y-99000000D01*
G75*
G02*
X74445000Y-99150000I0J-150000D01*
G01*
X74445000Y-100600000D01*
G75*
G02*
X74295000Y-100750000I-150000J0D01*
G01*
X73995000Y-100750000D01*
G75*
G02*
X73845000Y-100600000I0J150000D01*
G01*
X73845000Y-99150000D01*
G75*
G02*
X73995000Y-99000000I150000J0D01*
G01*
G37*
G36*
G01*
X75265000Y-99000000D02*
X75565000Y-99000000D01*
G75*
G02*
X75715000Y-99150000I0J-150000D01*
G01*
X75715000Y-100600000D01*
G75*
G02*
X75565000Y-100750000I-150000J0D01*
G01*
X75265000Y-100750000D01*
G75*
G02*
X75115000Y-100600000I0J150000D01*
G01*
X75115000Y-99150000D01*
G75*
G02*
X75265000Y-99000000I150000J0D01*
G01*
G37*
G36*
G01*
X76535000Y-99000000D02*
X76835000Y-99000000D01*
G75*
G02*
X76985000Y-99150000I0J-150000D01*
G01*
X76985000Y-100600000D01*
G75*
G02*
X76835000Y-100750000I-150000J0D01*
G01*
X76535000Y-100750000D01*
G75*
G02*
X76385000Y-100600000I0J150000D01*
G01*
X76385000Y-99150000D01*
G75*
G02*
X76535000Y-99000000I150000J0D01*
G01*
G37*
G36*
G01*
X77805000Y-99000000D02*
X78105000Y-99000000D01*
G75*
G02*
X78255000Y-99150000I0J-150000D01*
G01*
X78255000Y-100600000D01*
G75*
G02*
X78105000Y-100750000I-150000J0D01*
G01*
X77805000Y-100750000D01*
G75*
G02*
X77655000Y-100600000I0J150000D01*
G01*
X77655000Y-99150000D01*
G75*
G02*
X77805000Y-99000000I150000J0D01*
G01*
G37*
G36*
G01*
X79075000Y-99000000D02*
X79375000Y-99000000D01*
G75*
G02*
X79525000Y-99150000I0J-150000D01*
G01*
X79525000Y-100600000D01*
G75*
G02*
X79375000Y-100750000I-150000J0D01*
G01*
X79075000Y-100750000D01*
G75*
G02*
X78925000Y-100600000I0J150000D01*
G01*
X78925000Y-99150000D01*
G75*
G02*
X79075000Y-99000000I150000J0D01*
G01*
G37*
G36*
G01*
X80345000Y-99000000D02*
X80645000Y-99000000D01*
G75*
G02*
X80795000Y-99150000I0J-150000D01*
G01*
X80795000Y-100600000D01*
G75*
G02*
X80645000Y-100750000I-150000J0D01*
G01*
X80345000Y-100750000D01*
G75*
G02*
X80195000Y-100600000I0J150000D01*
G01*
X80195000Y-99150000D01*
G75*
G02*
X80345000Y-99000000I150000J0D01*
G01*
G37*
G36*
G01*
X80345000Y-93850000D02*
X80645000Y-93850000D01*
G75*
G02*
X80795000Y-94000000I0J-150000D01*
G01*
X80795000Y-95450000D01*
G75*
G02*
X80645000Y-95600000I-150000J0D01*
G01*
X80345000Y-95600000D01*
G75*
G02*
X80195000Y-95450000I0J150000D01*
G01*
X80195000Y-94000000D01*
G75*
G02*
X80345000Y-93850000I150000J0D01*
G01*
G37*
G36*
G01*
X79075000Y-93850000D02*
X79375000Y-93850000D01*
G75*
G02*
X79525000Y-94000000I0J-150000D01*
G01*
X79525000Y-95450000D01*
G75*
G02*
X79375000Y-95600000I-150000J0D01*
G01*
X79075000Y-95600000D01*
G75*
G02*
X78925000Y-95450000I0J150000D01*
G01*
X78925000Y-94000000D01*
G75*
G02*
X79075000Y-93850000I150000J0D01*
G01*
G37*
G36*
G01*
X77805000Y-93850000D02*
X78105000Y-93850000D01*
G75*
G02*
X78255000Y-94000000I0J-150000D01*
G01*
X78255000Y-95450000D01*
G75*
G02*
X78105000Y-95600000I-150000J0D01*
G01*
X77805000Y-95600000D01*
G75*
G02*
X77655000Y-95450000I0J150000D01*
G01*
X77655000Y-94000000D01*
G75*
G02*
X77805000Y-93850000I150000J0D01*
G01*
G37*
G36*
G01*
X76535000Y-93850000D02*
X76835000Y-93850000D01*
G75*
G02*
X76985000Y-94000000I0J-150000D01*
G01*
X76985000Y-95450000D01*
G75*
G02*
X76835000Y-95600000I-150000J0D01*
G01*
X76535000Y-95600000D01*
G75*
G02*
X76385000Y-95450000I0J150000D01*
G01*
X76385000Y-94000000D01*
G75*
G02*
X76535000Y-93850000I150000J0D01*
G01*
G37*
G36*
G01*
X75265000Y-93850000D02*
X75565000Y-93850000D01*
G75*
G02*
X75715000Y-94000000I0J-150000D01*
G01*
X75715000Y-95450000D01*
G75*
G02*
X75565000Y-95600000I-150000J0D01*
G01*
X75265000Y-95600000D01*
G75*
G02*
X75115000Y-95450000I0J150000D01*
G01*
X75115000Y-94000000D01*
G75*
G02*
X75265000Y-93850000I150000J0D01*
G01*
G37*
G36*
G01*
X73995000Y-93850000D02*
X74295000Y-93850000D01*
G75*
G02*
X74445000Y-94000000I0J-150000D01*
G01*
X74445000Y-95450000D01*
G75*
G02*
X74295000Y-95600000I-150000J0D01*
G01*
X73995000Y-95600000D01*
G75*
G02*
X73845000Y-95450000I0J150000D01*
G01*
X73845000Y-94000000D01*
G75*
G02*
X73995000Y-93850000I150000J0D01*
G01*
G37*
G36*
G01*
X72725000Y-93850000D02*
X73025000Y-93850000D01*
G75*
G02*
X73175000Y-94000000I0J-150000D01*
G01*
X73175000Y-95450000D01*
G75*
G02*
X73025000Y-95600000I-150000J0D01*
G01*
X72725000Y-95600000D01*
G75*
G02*
X72575000Y-95450000I0J150000D01*
G01*
X72575000Y-94000000D01*
G75*
G02*
X72725000Y-93850000I150000J0D01*
G01*
G37*
G36*
G01*
X71455000Y-93850000D02*
X71755000Y-93850000D01*
G75*
G02*
X71905000Y-94000000I0J-150000D01*
G01*
X71905000Y-95450000D01*
G75*
G02*
X71755000Y-95600000I-150000J0D01*
G01*
X71455000Y-95600000D01*
G75*
G02*
X71305000Y-95450000I0J150000D01*
G01*
X71305000Y-94000000D01*
G75*
G02*
X71455000Y-93850000I150000J0D01*
G01*
G37*
G36*
G01*
X91255000Y-99000000D02*
X91555000Y-99000000D01*
G75*
G02*
X91705000Y-99150000I0J-150000D01*
G01*
X91705000Y-100600000D01*
G75*
G02*
X91555000Y-100750000I-150000J0D01*
G01*
X91255000Y-100750000D01*
G75*
G02*
X91105000Y-100600000I0J150000D01*
G01*
X91105000Y-99150000D01*
G75*
G02*
X91255000Y-99000000I150000J0D01*
G01*
G37*
G36*
G01*
X92525000Y-99000000D02*
X92825000Y-99000000D01*
G75*
G02*
X92975000Y-99150000I0J-150000D01*
G01*
X92975000Y-100600000D01*
G75*
G02*
X92825000Y-100750000I-150000J0D01*
G01*
X92525000Y-100750000D01*
G75*
G02*
X92375000Y-100600000I0J150000D01*
G01*
X92375000Y-99150000D01*
G75*
G02*
X92525000Y-99000000I150000J0D01*
G01*
G37*
G36*
G01*
X93795000Y-99000000D02*
X94095000Y-99000000D01*
G75*
G02*
X94245000Y-99150000I0J-150000D01*
G01*
X94245000Y-100600000D01*
G75*
G02*
X94095000Y-100750000I-150000J0D01*
G01*
X93795000Y-100750000D01*
G75*
G02*
X93645000Y-100600000I0J150000D01*
G01*
X93645000Y-99150000D01*
G75*
G02*
X93795000Y-99000000I150000J0D01*
G01*
G37*
G36*
G01*
X95065000Y-99000000D02*
X95365000Y-99000000D01*
G75*
G02*
X95515000Y-99150000I0J-150000D01*
G01*
X95515000Y-100600000D01*
G75*
G02*
X95365000Y-100750000I-150000J0D01*
G01*
X95065000Y-100750000D01*
G75*
G02*
X94915000Y-100600000I0J150000D01*
G01*
X94915000Y-99150000D01*
G75*
G02*
X95065000Y-99000000I150000J0D01*
G01*
G37*
G36*
G01*
X96335000Y-99000000D02*
X96635000Y-99000000D01*
G75*
G02*
X96785000Y-99150000I0J-150000D01*
G01*
X96785000Y-100600000D01*
G75*
G02*
X96635000Y-100750000I-150000J0D01*
G01*
X96335000Y-100750000D01*
G75*
G02*
X96185000Y-100600000I0J150000D01*
G01*
X96185000Y-99150000D01*
G75*
G02*
X96335000Y-99000000I150000J0D01*
G01*
G37*
G36*
G01*
X97605000Y-99000000D02*
X97905000Y-99000000D01*
G75*
G02*
X98055000Y-99150000I0J-150000D01*
G01*
X98055000Y-100600000D01*
G75*
G02*
X97905000Y-100750000I-150000J0D01*
G01*
X97605000Y-100750000D01*
G75*
G02*
X97455000Y-100600000I0J150000D01*
G01*
X97455000Y-99150000D01*
G75*
G02*
X97605000Y-99000000I150000J0D01*
G01*
G37*
G36*
G01*
X98875000Y-99000000D02*
X99175000Y-99000000D01*
G75*
G02*
X99325000Y-99150000I0J-150000D01*
G01*
X99325000Y-100600000D01*
G75*
G02*
X99175000Y-100750000I-150000J0D01*
G01*
X98875000Y-100750000D01*
G75*
G02*
X98725000Y-100600000I0J150000D01*
G01*
X98725000Y-99150000D01*
G75*
G02*
X98875000Y-99000000I150000J0D01*
G01*
G37*
G36*
G01*
X100145000Y-99000000D02*
X100445000Y-99000000D01*
G75*
G02*
X100595000Y-99150000I0J-150000D01*
G01*
X100595000Y-100600000D01*
G75*
G02*
X100445000Y-100750000I-150000J0D01*
G01*
X100145000Y-100750000D01*
G75*
G02*
X99995000Y-100600000I0J150000D01*
G01*
X99995000Y-99150000D01*
G75*
G02*
X100145000Y-99000000I150000J0D01*
G01*
G37*
G36*
G01*
X100145000Y-93850000D02*
X100445000Y-93850000D01*
G75*
G02*
X100595000Y-94000000I0J-150000D01*
G01*
X100595000Y-95450000D01*
G75*
G02*
X100445000Y-95600000I-150000J0D01*
G01*
X100145000Y-95600000D01*
G75*
G02*
X99995000Y-95450000I0J150000D01*
G01*
X99995000Y-94000000D01*
G75*
G02*
X100145000Y-93850000I150000J0D01*
G01*
G37*
G36*
G01*
X98875000Y-93850000D02*
X99175000Y-93850000D01*
G75*
G02*
X99325000Y-94000000I0J-150000D01*
G01*
X99325000Y-95450000D01*
G75*
G02*
X99175000Y-95600000I-150000J0D01*
G01*
X98875000Y-95600000D01*
G75*
G02*
X98725000Y-95450000I0J150000D01*
G01*
X98725000Y-94000000D01*
G75*
G02*
X98875000Y-93850000I150000J0D01*
G01*
G37*
G36*
G01*
X97605000Y-93850000D02*
X97905000Y-93850000D01*
G75*
G02*
X98055000Y-94000000I0J-150000D01*
G01*
X98055000Y-95450000D01*
G75*
G02*
X97905000Y-95600000I-150000J0D01*
G01*
X97605000Y-95600000D01*
G75*
G02*
X97455000Y-95450000I0J150000D01*
G01*
X97455000Y-94000000D01*
G75*
G02*
X97605000Y-93850000I150000J0D01*
G01*
G37*
G36*
G01*
X96335000Y-93850000D02*
X96635000Y-93850000D01*
G75*
G02*
X96785000Y-94000000I0J-150000D01*
G01*
X96785000Y-95450000D01*
G75*
G02*
X96635000Y-95600000I-150000J0D01*
G01*
X96335000Y-95600000D01*
G75*
G02*
X96185000Y-95450000I0J150000D01*
G01*
X96185000Y-94000000D01*
G75*
G02*
X96335000Y-93850000I150000J0D01*
G01*
G37*
G36*
G01*
X95065000Y-93850000D02*
X95365000Y-93850000D01*
G75*
G02*
X95515000Y-94000000I0J-150000D01*
G01*
X95515000Y-95450000D01*
G75*
G02*
X95365000Y-95600000I-150000J0D01*
G01*
X95065000Y-95600000D01*
G75*
G02*
X94915000Y-95450000I0J150000D01*
G01*
X94915000Y-94000000D01*
G75*
G02*
X95065000Y-93850000I150000J0D01*
G01*
G37*
G36*
G01*
X93795000Y-93850000D02*
X94095000Y-93850000D01*
G75*
G02*
X94245000Y-94000000I0J-150000D01*
G01*
X94245000Y-95450000D01*
G75*
G02*
X94095000Y-95600000I-150000J0D01*
G01*
X93795000Y-95600000D01*
G75*
G02*
X93645000Y-95450000I0J150000D01*
G01*
X93645000Y-94000000D01*
G75*
G02*
X93795000Y-93850000I150000J0D01*
G01*
G37*
G36*
G01*
X92525000Y-93850000D02*
X92825000Y-93850000D01*
G75*
G02*
X92975000Y-94000000I0J-150000D01*
G01*
X92975000Y-95450000D01*
G75*
G02*
X92825000Y-95600000I-150000J0D01*
G01*
X92525000Y-95600000D01*
G75*
G02*
X92375000Y-95450000I0J150000D01*
G01*
X92375000Y-94000000D01*
G75*
G02*
X92525000Y-93850000I150000J0D01*
G01*
G37*
G36*
G01*
X91255000Y-93850000D02*
X91555000Y-93850000D01*
G75*
G02*
X91705000Y-94000000I0J-150000D01*
G01*
X91705000Y-95450000D01*
G75*
G02*
X91555000Y-95600000I-150000J0D01*
G01*
X91255000Y-95600000D01*
G75*
G02*
X91105000Y-95450000I0J150000D01*
G01*
X91105000Y-94000000D01*
G75*
G02*
X91255000Y-93850000I150000J0D01*
G01*
G37*
G36*
G01*
X110205000Y-99000000D02*
X110505000Y-99000000D01*
G75*
G02*
X110655000Y-99150000I0J-150000D01*
G01*
X110655000Y-100600000D01*
G75*
G02*
X110505000Y-100750000I-150000J0D01*
G01*
X110205000Y-100750000D01*
G75*
G02*
X110055000Y-100600000I0J150000D01*
G01*
X110055000Y-99150000D01*
G75*
G02*
X110205000Y-99000000I150000J0D01*
G01*
G37*
G36*
G01*
X111475000Y-99000000D02*
X111775000Y-99000000D01*
G75*
G02*
X111925000Y-99150000I0J-150000D01*
G01*
X111925000Y-100600000D01*
G75*
G02*
X111775000Y-100750000I-150000J0D01*
G01*
X111475000Y-100750000D01*
G75*
G02*
X111325000Y-100600000I0J150000D01*
G01*
X111325000Y-99150000D01*
G75*
G02*
X111475000Y-99000000I150000J0D01*
G01*
G37*
G36*
G01*
X112745000Y-99000000D02*
X113045000Y-99000000D01*
G75*
G02*
X113195000Y-99150000I0J-150000D01*
G01*
X113195000Y-100600000D01*
G75*
G02*
X113045000Y-100750000I-150000J0D01*
G01*
X112745000Y-100750000D01*
G75*
G02*
X112595000Y-100600000I0J150000D01*
G01*
X112595000Y-99150000D01*
G75*
G02*
X112745000Y-99000000I150000J0D01*
G01*
G37*
G36*
G01*
X114015000Y-99000000D02*
X114315000Y-99000000D01*
G75*
G02*
X114465000Y-99150000I0J-150000D01*
G01*
X114465000Y-100600000D01*
G75*
G02*
X114315000Y-100750000I-150000J0D01*
G01*
X114015000Y-100750000D01*
G75*
G02*
X113865000Y-100600000I0J150000D01*
G01*
X113865000Y-99150000D01*
G75*
G02*
X114015000Y-99000000I150000J0D01*
G01*
G37*
G36*
G01*
X115285000Y-99000000D02*
X115585000Y-99000000D01*
G75*
G02*
X115735000Y-99150000I0J-150000D01*
G01*
X115735000Y-100600000D01*
G75*
G02*
X115585000Y-100750000I-150000J0D01*
G01*
X115285000Y-100750000D01*
G75*
G02*
X115135000Y-100600000I0J150000D01*
G01*
X115135000Y-99150000D01*
G75*
G02*
X115285000Y-99000000I150000J0D01*
G01*
G37*
G36*
G01*
X116555000Y-99000000D02*
X116855000Y-99000000D01*
G75*
G02*
X117005000Y-99150000I0J-150000D01*
G01*
X117005000Y-100600000D01*
G75*
G02*
X116855000Y-100750000I-150000J0D01*
G01*
X116555000Y-100750000D01*
G75*
G02*
X116405000Y-100600000I0J150000D01*
G01*
X116405000Y-99150000D01*
G75*
G02*
X116555000Y-99000000I150000J0D01*
G01*
G37*
G36*
G01*
X117825000Y-99000000D02*
X118125000Y-99000000D01*
G75*
G02*
X118275000Y-99150000I0J-150000D01*
G01*
X118275000Y-100600000D01*
G75*
G02*
X118125000Y-100750000I-150000J0D01*
G01*
X117825000Y-100750000D01*
G75*
G02*
X117675000Y-100600000I0J150000D01*
G01*
X117675000Y-99150000D01*
G75*
G02*
X117825000Y-99000000I150000J0D01*
G01*
G37*
G36*
G01*
X119095000Y-99000000D02*
X119395000Y-99000000D01*
G75*
G02*
X119545000Y-99150000I0J-150000D01*
G01*
X119545000Y-100600000D01*
G75*
G02*
X119395000Y-100750000I-150000J0D01*
G01*
X119095000Y-100750000D01*
G75*
G02*
X118945000Y-100600000I0J150000D01*
G01*
X118945000Y-99150000D01*
G75*
G02*
X119095000Y-99000000I150000J0D01*
G01*
G37*
G36*
G01*
X119095000Y-93850000D02*
X119395000Y-93850000D01*
G75*
G02*
X119545000Y-94000000I0J-150000D01*
G01*
X119545000Y-95450000D01*
G75*
G02*
X119395000Y-95600000I-150000J0D01*
G01*
X119095000Y-95600000D01*
G75*
G02*
X118945000Y-95450000I0J150000D01*
G01*
X118945000Y-94000000D01*
G75*
G02*
X119095000Y-93850000I150000J0D01*
G01*
G37*
G36*
G01*
X117825000Y-93850000D02*
X118125000Y-93850000D01*
G75*
G02*
X118275000Y-94000000I0J-150000D01*
G01*
X118275000Y-95450000D01*
G75*
G02*
X118125000Y-95600000I-150000J0D01*
G01*
X117825000Y-95600000D01*
G75*
G02*
X117675000Y-95450000I0J150000D01*
G01*
X117675000Y-94000000D01*
G75*
G02*
X117825000Y-93850000I150000J0D01*
G01*
G37*
G36*
G01*
X116555000Y-93850000D02*
X116855000Y-93850000D01*
G75*
G02*
X117005000Y-94000000I0J-150000D01*
G01*
X117005000Y-95450000D01*
G75*
G02*
X116855000Y-95600000I-150000J0D01*
G01*
X116555000Y-95600000D01*
G75*
G02*
X116405000Y-95450000I0J150000D01*
G01*
X116405000Y-94000000D01*
G75*
G02*
X116555000Y-93850000I150000J0D01*
G01*
G37*
G36*
G01*
X115285000Y-93850000D02*
X115585000Y-93850000D01*
G75*
G02*
X115735000Y-94000000I0J-150000D01*
G01*
X115735000Y-95450000D01*
G75*
G02*
X115585000Y-95600000I-150000J0D01*
G01*
X115285000Y-95600000D01*
G75*
G02*
X115135000Y-95450000I0J150000D01*
G01*
X115135000Y-94000000D01*
G75*
G02*
X115285000Y-93850000I150000J0D01*
G01*
G37*
G36*
G01*
X114015000Y-93850000D02*
X114315000Y-93850000D01*
G75*
G02*
X114465000Y-94000000I0J-150000D01*
G01*
X114465000Y-95450000D01*
G75*
G02*
X114315000Y-95600000I-150000J0D01*
G01*
X114015000Y-95600000D01*
G75*
G02*
X113865000Y-95450000I0J150000D01*
G01*
X113865000Y-94000000D01*
G75*
G02*
X114015000Y-93850000I150000J0D01*
G01*
G37*
G36*
G01*
X112745000Y-93850000D02*
X113045000Y-93850000D01*
G75*
G02*
X113195000Y-94000000I0J-150000D01*
G01*
X113195000Y-95450000D01*
G75*
G02*
X113045000Y-95600000I-150000J0D01*
G01*
X112745000Y-95600000D01*
G75*
G02*
X112595000Y-95450000I0J150000D01*
G01*
X112595000Y-94000000D01*
G75*
G02*
X112745000Y-93850000I150000J0D01*
G01*
G37*
G36*
G01*
X111475000Y-93850000D02*
X111775000Y-93850000D01*
G75*
G02*
X111925000Y-94000000I0J-150000D01*
G01*
X111925000Y-95450000D01*
G75*
G02*
X111775000Y-95600000I-150000J0D01*
G01*
X111475000Y-95600000D01*
G75*
G02*
X111325000Y-95450000I0J150000D01*
G01*
X111325000Y-94000000D01*
G75*
G02*
X111475000Y-93850000I150000J0D01*
G01*
G37*
G36*
G01*
X110205000Y-93850000D02*
X110505000Y-93850000D01*
G75*
G02*
X110655000Y-94000000I0J-150000D01*
G01*
X110655000Y-95450000D01*
G75*
G02*
X110505000Y-95600000I-150000J0D01*
G01*
X110205000Y-95600000D01*
G75*
G02*
X110055000Y-95450000I0J150000D01*
G01*
X110055000Y-94000000D01*
G75*
G02*
X110205000Y-93850000I150000J0D01*
G01*
G37*
G36*
G01*
X129005000Y-99100000D02*
X129305000Y-99100000D01*
G75*
G02*
X129455000Y-99250000I0J-150000D01*
G01*
X129455000Y-100700000D01*
G75*
G02*
X129305000Y-100850000I-150000J0D01*
G01*
X129005000Y-100850000D01*
G75*
G02*
X128855000Y-100700000I0J150000D01*
G01*
X128855000Y-99250000D01*
G75*
G02*
X129005000Y-99100000I150000J0D01*
G01*
G37*
G36*
G01*
X130275000Y-99100000D02*
X130575000Y-99100000D01*
G75*
G02*
X130725000Y-99250000I0J-150000D01*
G01*
X130725000Y-100700000D01*
G75*
G02*
X130575000Y-100850000I-150000J0D01*
G01*
X130275000Y-100850000D01*
G75*
G02*
X130125000Y-100700000I0J150000D01*
G01*
X130125000Y-99250000D01*
G75*
G02*
X130275000Y-99100000I150000J0D01*
G01*
G37*
G36*
G01*
X131545000Y-99100000D02*
X131845000Y-99100000D01*
G75*
G02*
X131995000Y-99250000I0J-150000D01*
G01*
X131995000Y-100700000D01*
G75*
G02*
X131845000Y-100850000I-150000J0D01*
G01*
X131545000Y-100850000D01*
G75*
G02*
X131395000Y-100700000I0J150000D01*
G01*
X131395000Y-99250000D01*
G75*
G02*
X131545000Y-99100000I150000J0D01*
G01*
G37*
G36*
G01*
X132815000Y-99100000D02*
X133115000Y-99100000D01*
G75*
G02*
X133265000Y-99250000I0J-150000D01*
G01*
X133265000Y-100700000D01*
G75*
G02*
X133115000Y-100850000I-150000J0D01*
G01*
X132815000Y-100850000D01*
G75*
G02*
X132665000Y-100700000I0J150000D01*
G01*
X132665000Y-99250000D01*
G75*
G02*
X132815000Y-99100000I150000J0D01*
G01*
G37*
G36*
G01*
X134085000Y-99100000D02*
X134385000Y-99100000D01*
G75*
G02*
X134535000Y-99250000I0J-150000D01*
G01*
X134535000Y-100700000D01*
G75*
G02*
X134385000Y-100850000I-150000J0D01*
G01*
X134085000Y-100850000D01*
G75*
G02*
X133935000Y-100700000I0J150000D01*
G01*
X133935000Y-99250000D01*
G75*
G02*
X134085000Y-99100000I150000J0D01*
G01*
G37*
G36*
G01*
X135355000Y-99100000D02*
X135655000Y-99100000D01*
G75*
G02*
X135805000Y-99250000I0J-150000D01*
G01*
X135805000Y-100700000D01*
G75*
G02*
X135655000Y-100850000I-150000J0D01*
G01*
X135355000Y-100850000D01*
G75*
G02*
X135205000Y-100700000I0J150000D01*
G01*
X135205000Y-99250000D01*
G75*
G02*
X135355000Y-99100000I150000J0D01*
G01*
G37*
G36*
G01*
X136625000Y-99100000D02*
X136925000Y-99100000D01*
G75*
G02*
X137075000Y-99250000I0J-150000D01*
G01*
X137075000Y-100700000D01*
G75*
G02*
X136925000Y-100850000I-150000J0D01*
G01*
X136625000Y-100850000D01*
G75*
G02*
X136475000Y-100700000I0J150000D01*
G01*
X136475000Y-99250000D01*
G75*
G02*
X136625000Y-99100000I150000J0D01*
G01*
G37*
G36*
G01*
X137895000Y-99100000D02*
X138195000Y-99100000D01*
G75*
G02*
X138345000Y-99250000I0J-150000D01*
G01*
X138345000Y-100700000D01*
G75*
G02*
X138195000Y-100850000I-150000J0D01*
G01*
X137895000Y-100850000D01*
G75*
G02*
X137745000Y-100700000I0J150000D01*
G01*
X137745000Y-99250000D01*
G75*
G02*
X137895000Y-99100000I150000J0D01*
G01*
G37*
G36*
G01*
X137895000Y-93950000D02*
X138195000Y-93950000D01*
G75*
G02*
X138345000Y-94100000I0J-150000D01*
G01*
X138345000Y-95550000D01*
G75*
G02*
X138195000Y-95700000I-150000J0D01*
G01*
X137895000Y-95700000D01*
G75*
G02*
X137745000Y-95550000I0J150000D01*
G01*
X137745000Y-94100000D01*
G75*
G02*
X137895000Y-93950000I150000J0D01*
G01*
G37*
G36*
G01*
X136625000Y-93950000D02*
X136925000Y-93950000D01*
G75*
G02*
X137075000Y-94100000I0J-150000D01*
G01*
X137075000Y-95550000D01*
G75*
G02*
X136925000Y-95700000I-150000J0D01*
G01*
X136625000Y-95700000D01*
G75*
G02*
X136475000Y-95550000I0J150000D01*
G01*
X136475000Y-94100000D01*
G75*
G02*
X136625000Y-93950000I150000J0D01*
G01*
G37*
G36*
G01*
X135355000Y-93950000D02*
X135655000Y-93950000D01*
G75*
G02*
X135805000Y-94100000I0J-150000D01*
G01*
X135805000Y-95550000D01*
G75*
G02*
X135655000Y-95700000I-150000J0D01*
G01*
X135355000Y-95700000D01*
G75*
G02*
X135205000Y-95550000I0J150000D01*
G01*
X135205000Y-94100000D01*
G75*
G02*
X135355000Y-93950000I150000J0D01*
G01*
G37*
G36*
G01*
X134085000Y-93950000D02*
X134385000Y-93950000D01*
G75*
G02*
X134535000Y-94100000I0J-150000D01*
G01*
X134535000Y-95550000D01*
G75*
G02*
X134385000Y-95700000I-150000J0D01*
G01*
X134085000Y-95700000D01*
G75*
G02*
X133935000Y-95550000I0J150000D01*
G01*
X133935000Y-94100000D01*
G75*
G02*
X134085000Y-93950000I150000J0D01*
G01*
G37*
G36*
G01*
X132815000Y-93950000D02*
X133115000Y-93950000D01*
G75*
G02*
X133265000Y-94100000I0J-150000D01*
G01*
X133265000Y-95550000D01*
G75*
G02*
X133115000Y-95700000I-150000J0D01*
G01*
X132815000Y-95700000D01*
G75*
G02*
X132665000Y-95550000I0J150000D01*
G01*
X132665000Y-94100000D01*
G75*
G02*
X132815000Y-93950000I150000J0D01*
G01*
G37*
G36*
G01*
X131545000Y-93950000D02*
X131845000Y-93950000D01*
G75*
G02*
X131995000Y-94100000I0J-150000D01*
G01*
X131995000Y-95550000D01*
G75*
G02*
X131845000Y-95700000I-150000J0D01*
G01*
X131545000Y-95700000D01*
G75*
G02*
X131395000Y-95550000I0J150000D01*
G01*
X131395000Y-94100000D01*
G75*
G02*
X131545000Y-93950000I150000J0D01*
G01*
G37*
G36*
G01*
X130275000Y-93950000D02*
X130575000Y-93950000D01*
G75*
G02*
X130725000Y-94100000I0J-150000D01*
G01*
X130725000Y-95550000D01*
G75*
G02*
X130575000Y-95700000I-150000J0D01*
G01*
X130275000Y-95700000D01*
G75*
G02*
X130125000Y-95550000I0J150000D01*
G01*
X130125000Y-94100000D01*
G75*
G02*
X130275000Y-93950000I150000J0D01*
G01*
G37*
G36*
G01*
X129005000Y-93950000D02*
X129305000Y-93950000D01*
G75*
G02*
X129455000Y-94100000I0J-150000D01*
G01*
X129455000Y-95550000D01*
G75*
G02*
X129305000Y-95700000I-150000J0D01*
G01*
X129005000Y-95700000D01*
G75*
G02*
X128855000Y-95550000I0J150000D01*
G01*
X128855000Y-94100000D01*
G75*
G02*
X129005000Y-93950000I150000J0D01*
G01*
G37*
G36*
G01*
X150755000Y-98900000D02*
X151055000Y-98900000D01*
G75*
G02*
X151205000Y-99050000I0J-150000D01*
G01*
X151205000Y-100500000D01*
G75*
G02*
X151055000Y-100650000I-150000J0D01*
G01*
X150755000Y-100650000D01*
G75*
G02*
X150605000Y-100500000I0J150000D01*
G01*
X150605000Y-99050000D01*
G75*
G02*
X150755000Y-98900000I150000J0D01*
G01*
G37*
G36*
G01*
X152025000Y-98900000D02*
X152325000Y-98900000D01*
G75*
G02*
X152475000Y-99050000I0J-150000D01*
G01*
X152475000Y-100500000D01*
G75*
G02*
X152325000Y-100650000I-150000J0D01*
G01*
X152025000Y-100650000D01*
G75*
G02*
X151875000Y-100500000I0J150000D01*
G01*
X151875000Y-99050000D01*
G75*
G02*
X152025000Y-98900000I150000J0D01*
G01*
G37*
G36*
G01*
X153295000Y-98900000D02*
X153595000Y-98900000D01*
G75*
G02*
X153745000Y-99050000I0J-150000D01*
G01*
X153745000Y-100500000D01*
G75*
G02*
X153595000Y-100650000I-150000J0D01*
G01*
X153295000Y-100650000D01*
G75*
G02*
X153145000Y-100500000I0J150000D01*
G01*
X153145000Y-99050000D01*
G75*
G02*
X153295000Y-98900000I150000J0D01*
G01*
G37*
G36*
G01*
X154565000Y-98900000D02*
X154865000Y-98900000D01*
G75*
G02*
X155015000Y-99050000I0J-150000D01*
G01*
X155015000Y-100500000D01*
G75*
G02*
X154865000Y-100650000I-150000J0D01*
G01*
X154565000Y-100650000D01*
G75*
G02*
X154415000Y-100500000I0J150000D01*
G01*
X154415000Y-99050000D01*
G75*
G02*
X154565000Y-98900000I150000J0D01*
G01*
G37*
G36*
G01*
X155835000Y-98900000D02*
X156135000Y-98900000D01*
G75*
G02*
X156285000Y-99050000I0J-150000D01*
G01*
X156285000Y-100500000D01*
G75*
G02*
X156135000Y-100650000I-150000J0D01*
G01*
X155835000Y-100650000D01*
G75*
G02*
X155685000Y-100500000I0J150000D01*
G01*
X155685000Y-99050000D01*
G75*
G02*
X155835000Y-98900000I150000J0D01*
G01*
G37*
G36*
G01*
X157105000Y-98900000D02*
X157405000Y-98900000D01*
G75*
G02*
X157555000Y-99050000I0J-150000D01*
G01*
X157555000Y-100500000D01*
G75*
G02*
X157405000Y-100650000I-150000J0D01*
G01*
X157105000Y-100650000D01*
G75*
G02*
X156955000Y-100500000I0J150000D01*
G01*
X156955000Y-99050000D01*
G75*
G02*
X157105000Y-98900000I150000J0D01*
G01*
G37*
G36*
G01*
X158375000Y-98900000D02*
X158675000Y-98900000D01*
G75*
G02*
X158825000Y-99050000I0J-150000D01*
G01*
X158825000Y-100500000D01*
G75*
G02*
X158675000Y-100650000I-150000J0D01*
G01*
X158375000Y-100650000D01*
G75*
G02*
X158225000Y-100500000I0J150000D01*
G01*
X158225000Y-99050000D01*
G75*
G02*
X158375000Y-98900000I150000J0D01*
G01*
G37*
G36*
G01*
X159645000Y-98900000D02*
X159945000Y-98900000D01*
G75*
G02*
X160095000Y-99050000I0J-150000D01*
G01*
X160095000Y-100500000D01*
G75*
G02*
X159945000Y-100650000I-150000J0D01*
G01*
X159645000Y-100650000D01*
G75*
G02*
X159495000Y-100500000I0J150000D01*
G01*
X159495000Y-99050000D01*
G75*
G02*
X159645000Y-98900000I150000J0D01*
G01*
G37*
G36*
G01*
X159645000Y-93750000D02*
X159945000Y-93750000D01*
G75*
G02*
X160095000Y-93900000I0J-150000D01*
G01*
X160095000Y-95350000D01*
G75*
G02*
X159945000Y-95500000I-150000J0D01*
G01*
X159645000Y-95500000D01*
G75*
G02*
X159495000Y-95350000I0J150000D01*
G01*
X159495000Y-93900000D01*
G75*
G02*
X159645000Y-93750000I150000J0D01*
G01*
G37*
G36*
G01*
X158375000Y-93750000D02*
X158675000Y-93750000D01*
G75*
G02*
X158825000Y-93900000I0J-150000D01*
G01*
X158825000Y-95350000D01*
G75*
G02*
X158675000Y-95500000I-150000J0D01*
G01*
X158375000Y-95500000D01*
G75*
G02*
X158225000Y-95350000I0J150000D01*
G01*
X158225000Y-93900000D01*
G75*
G02*
X158375000Y-93750000I150000J0D01*
G01*
G37*
G36*
G01*
X157105000Y-93750000D02*
X157405000Y-93750000D01*
G75*
G02*
X157555000Y-93900000I0J-150000D01*
G01*
X157555000Y-95350000D01*
G75*
G02*
X157405000Y-95500000I-150000J0D01*
G01*
X157105000Y-95500000D01*
G75*
G02*
X156955000Y-95350000I0J150000D01*
G01*
X156955000Y-93900000D01*
G75*
G02*
X157105000Y-93750000I150000J0D01*
G01*
G37*
G36*
G01*
X155835000Y-93750000D02*
X156135000Y-93750000D01*
G75*
G02*
X156285000Y-93900000I0J-150000D01*
G01*
X156285000Y-95350000D01*
G75*
G02*
X156135000Y-95500000I-150000J0D01*
G01*
X155835000Y-95500000D01*
G75*
G02*
X155685000Y-95350000I0J150000D01*
G01*
X155685000Y-93900000D01*
G75*
G02*
X155835000Y-93750000I150000J0D01*
G01*
G37*
G36*
G01*
X154565000Y-93750000D02*
X154865000Y-93750000D01*
G75*
G02*
X155015000Y-93900000I0J-150000D01*
G01*
X155015000Y-95350000D01*
G75*
G02*
X154865000Y-95500000I-150000J0D01*
G01*
X154565000Y-95500000D01*
G75*
G02*
X154415000Y-95350000I0J150000D01*
G01*
X154415000Y-93900000D01*
G75*
G02*
X154565000Y-93750000I150000J0D01*
G01*
G37*
G36*
G01*
X153295000Y-93750000D02*
X153595000Y-93750000D01*
G75*
G02*
X153745000Y-93900000I0J-150000D01*
G01*
X153745000Y-95350000D01*
G75*
G02*
X153595000Y-95500000I-150000J0D01*
G01*
X153295000Y-95500000D01*
G75*
G02*
X153145000Y-95350000I0J150000D01*
G01*
X153145000Y-93900000D01*
G75*
G02*
X153295000Y-93750000I150000J0D01*
G01*
G37*
G36*
G01*
X152025000Y-93750000D02*
X152325000Y-93750000D01*
G75*
G02*
X152475000Y-93900000I0J-150000D01*
G01*
X152475000Y-95350000D01*
G75*
G02*
X152325000Y-95500000I-150000J0D01*
G01*
X152025000Y-95500000D01*
G75*
G02*
X151875000Y-95350000I0J150000D01*
G01*
X151875000Y-93900000D01*
G75*
G02*
X152025000Y-93750000I150000J0D01*
G01*
G37*
G36*
G01*
X150755000Y-93750000D02*
X151055000Y-93750000D01*
G75*
G02*
X151205000Y-93900000I0J-150000D01*
G01*
X151205000Y-95350000D01*
G75*
G02*
X151055000Y-95500000I-150000J0D01*
G01*
X150755000Y-95500000D01*
G75*
G02*
X150605000Y-95350000I0J150000D01*
G01*
X150605000Y-93900000D01*
G75*
G02*
X150755000Y-93750000I150000J0D01*
G01*
G37*
G36*
G01*
X165755000Y-99000000D02*
X166055000Y-99000000D01*
G75*
G02*
X166205000Y-99150000I0J-150000D01*
G01*
X166205000Y-100600000D01*
G75*
G02*
X166055000Y-100750000I-150000J0D01*
G01*
X165755000Y-100750000D01*
G75*
G02*
X165605000Y-100600000I0J150000D01*
G01*
X165605000Y-99150000D01*
G75*
G02*
X165755000Y-99000000I150000J0D01*
G01*
G37*
G36*
G01*
X167025000Y-99000000D02*
X167325000Y-99000000D01*
G75*
G02*
X167475000Y-99150000I0J-150000D01*
G01*
X167475000Y-100600000D01*
G75*
G02*
X167325000Y-100750000I-150000J0D01*
G01*
X167025000Y-100750000D01*
G75*
G02*
X166875000Y-100600000I0J150000D01*
G01*
X166875000Y-99150000D01*
G75*
G02*
X167025000Y-99000000I150000J0D01*
G01*
G37*
G36*
G01*
X168295000Y-99000000D02*
X168595000Y-99000000D01*
G75*
G02*
X168745000Y-99150000I0J-150000D01*
G01*
X168745000Y-100600000D01*
G75*
G02*
X168595000Y-100750000I-150000J0D01*
G01*
X168295000Y-100750000D01*
G75*
G02*
X168145000Y-100600000I0J150000D01*
G01*
X168145000Y-99150000D01*
G75*
G02*
X168295000Y-99000000I150000J0D01*
G01*
G37*
G36*
G01*
X169565000Y-99000000D02*
X169865000Y-99000000D01*
G75*
G02*
X170015000Y-99150000I0J-150000D01*
G01*
X170015000Y-100600000D01*
G75*
G02*
X169865000Y-100750000I-150000J0D01*
G01*
X169565000Y-100750000D01*
G75*
G02*
X169415000Y-100600000I0J150000D01*
G01*
X169415000Y-99150000D01*
G75*
G02*
X169565000Y-99000000I150000J0D01*
G01*
G37*
G36*
G01*
X170835000Y-99000000D02*
X171135000Y-99000000D01*
G75*
G02*
X171285000Y-99150000I0J-150000D01*
G01*
X171285000Y-100600000D01*
G75*
G02*
X171135000Y-100750000I-150000J0D01*
G01*
X170835000Y-100750000D01*
G75*
G02*
X170685000Y-100600000I0J150000D01*
G01*
X170685000Y-99150000D01*
G75*
G02*
X170835000Y-99000000I150000J0D01*
G01*
G37*
G36*
G01*
X172105000Y-99000000D02*
X172405000Y-99000000D01*
G75*
G02*
X172555000Y-99150000I0J-150000D01*
G01*
X172555000Y-100600000D01*
G75*
G02*
X172405000Y-100750000I-150000J0D01*
G01*
X172105000Y-100750000D01*
G75*
G02*
X171955000Y-100600000I0J150000D01*
G01*
X171955000Y-99150000D01*
G75*
G02*
X172105000Y-99000000I150000J0D01*
G01*
G37*
G36*
G01*
X173375000Y-99000000D02*
X173675000Y-99000000D01*
G75*
G02*
X173825000Y-99150000I0J-150000D01*
G01*
X173825000Y-100600000D01*
G75*
G02*
X173675000Y-100750000I-150000J0D01*
G01*
X173375000Y-100750000D01*
G75*
G02*
X173225000Y-100600000I0J150000D01*
G01*
X173225000Y-99150000D01*
G75*
G02*
X173375000Y-99000000I150000J0D01*
G01*
G37*
G36*
G01*
X174645000Y-99000000D02*
X174945000Y-99000000D01*
G75*
G02*
X175095000Y-99150000I0J-150000D01*
G01*
X175095000Y-100600000D01*
G75*
G02*
X174945000Y-100750000I-150000J0D01*
G01*
X174645000Y-100750000D01*
G75*
G02*
X174495000Y-100600000I0J150000D01*
G01*
X174495000Y-99150000D01*
G75*
G02*
X174645000Y-99000000I150000J0D01*
G01*
G37*
G36*
G01*
X174645000Y-93850000D02*
X174945000Y-93850000D01*
G75*
G02*
X175095000Y-94000000I0J-150000D01*
G01*
X175095000Y-95450000D01*
G75*
G02*
X174945000Y-95600000I-150000J0D01*
G01*
X174645000Y-95600000D01*
G75*
G02*
X174495000Y-95450000I0J150000D01*
G01*
X174495000Y-94000000D01*
G75*
G02*
X174645000Y-93850000I150000J0D01*
G01*
G37*
G36*
G01*
X173375000Y-93850000D02*
X173675000Y-93850000D01*
G75*
G02*
X173825000Y-94000000I0J-150000D01*
G01*
X173825000Y-95450000D01*
G75*
G02*
X173675000Y-95600000I-150000J0D01*
G01*
X173375000Y-95600000D01*
G75*
G02*
X173225000Y-95450000I0J150000D01*
G01*
X173225000Y-94000000D01*
G75*
G02*
X173375000Y-93850000I150000J0D01*
G01*
G37*
G36*
G01*
X172105000Y-93850000D02*
X172405000Y-93850000D01*
G75*
G02*
X172555000Y-94000000I0J-150000D01*
G01*
X172555000Y-95450000D01*
G75*
G02*
X172405000Y-95600000I-150000J0D01*
G01*
X172105000Y-95600000D01*
G75*
G02*
X171955000Y-95450000I0J150000D01*
G01*
X171955000Y-94000000D01*
G75*
G02*
X172105000Y-93850000I150000J0D01*
G01*
G37*
G36*
G01*
X170835000Y-93850000D02*
X171135000Y-93850000D01*
G75*
G02*
X171285000Y-94000000I0J-150000D01*
G01*
X171285000Y-95450000D01*
G75*
G02*
X171135000Y-95600000I-150000J0D01*
G01*
X170835000Y-95600000D01*
G75*
G02*
X170685000Y-95450000I0J150000D01*
G01*
X170685000Y-94000000D01*
G75*
G02*
X170835000Y-93850000I150000J0D01*
G01*
G37*
G36*
G01*
X169565000Y-93850000D02*
X169865000Y-93850000D01*
G75*
G02*
X170015000Y-94000000I0J-150000D01*
G01*
X170015000Y-95450000D01*
G75*
G02*
X169865000Y-95600000I-150000J0D01*
G01*
X169565000Y-95600000D01*
G75*
G02*
X169415000Y-95450000I0J150000D01*
G01*
X169415000Y-94000000D01*
G75*
G02*
X169565000Y-93850000I150000J0D01*
G01*
G37*
G36*
G01*
X168295000Y-93850000D02*
X168595000Y-93850000D01*
G75*
G02*
X168745000Y-94000000I0J-150000D01*
G01*
X168745000Y-95450000D01*
G75*
G02*
X168595000Y-95600000I-150000J0D01*
G01*
X168295000Y-95600000D01*
G75*
G02*
X168145000Y-95450000I0J150000D01*
G01*
X168145000Y-94000000D01*
G75*
G02*
X168295000Y-93850000I150000J0D01*
G01*
G37*
G36*
G01*
X167025000Y-93850000D02*
X167325000Y-93850000D01*
G75*
G02*
X167475000Y-94000000I0J-150000D01*
G01*
X167475000Y-95450000D01*
G75*
G02*
X167325000Y-95600000I-150000J0D01*
G01*
X167025000Y-95600000D01*
G75*
G02*
X166875000Y-95450000I0J150000D01*
G01*
X166875000Y-94000000D01*
G75*
G02*
X167025000Y-93850000I150000J0D01*
G01*
G37*
G36*
G01*
X165755000Y-93850000D02*
X166055000Y-93850000D01*
G75*
G02*
X166205000Y-94000000I0J-150000D01*
G01*
X166205000Y-95450000D01*
G75*
G02*
X166055000Y-95600000I-150000J0D01*
G01*
X165755000Y-95600000D01*
G75*
G02*
X165605000Y-95450000I0J150000D01*
G01*
X165605000Y-94000000D01*
G75*
G02*
X165755000Y-93850000I150000J0D01*
G01*
G37*
G36*
G01*
X180805000Y-98925000D02*
X181105000Y-98925000D01*
G75*
G02*
X181255000Y-99075000I0J-150000D01*
G01*
X181255000Y-100525000D01*
G75*
G02*
X181105000Y-100675000I-150000J0D01*
G01*
X180805000Y-100675000D01*
G75*
G02*
X180655000Y-100525000I0J150000D01*
G01*
X180655000Y-99075000D01*
G75*
G02*
X180805000Y-98925000I150000J0D01*
G01*
G37*
G36*
G01*
X182075000Y-98925000D02*
X182375000Y-98925000D01*
G75*
G02*
X182525000Y-99075000I0J-150000D01*
G01*
X182525000Y-100525000D01*
G75*
G02*
X182375000Y-100675000I-150000J0D01*
G01*
X182075000Y-100675000D01*
G75*
G02*
X181925000Y-100525000I0J150000D01*
G01*
X181925000Y-99075000D01*
G75*
G02*
X182075000Y-98925000I150000J0D01*
G01*
G37*
G36*
G01*
X183345000Y-98925000D02*
X183645000Y-98925000D01*
G75*
G02*
X183795000Y-99075000I0J-150000D01*
G01*
X183795000Y-100525000D01*
G75*
G02*
X183645000Y-100675000I-150000J0D01*
G01*
X183345000Y-100675000D01*
G75*
G02*
X183195000Y-100525000I0J150000D01*
G01*
X183195000Y-99075000D01*
G75*
G02*
X183345000Y-98925000I150000J0D01*
G01*
G37*
G36*
G01*
X184615000Y-98925000D02*
X184915000Y-98925000D01*
G75*
G02*
X185065000Y-99075000I0J-150000D01*
G01*
X185065000Y-100525000D01*
G75*
G02*
X184915000Y-100675000I-150000J0D01*
G01*
X184615000Y-100675000D01*
G75*
G02*
X184465000Y-100525000I0J150000D01*
G01*
X184465000Y-99075000D01*
G75*
G02*
X184615000Y-98925000I150000J0D01*
G01*
G37*
G36*
G01*
X185885000Y-98925000D02*
X186185000Y-98925000D01*
G75*
G02*
X186335000Y-99075000I0J-150000D01*
G01*
X186335000Y-100525000D01*
G75*
G02*
X186185000Y-100675000I-150000J0D01*
G01*
X185885000Y-100675000D01*
G75*
G02*
X185735000Y-100525000I0J150000D01*
G01*
X185735000Y-99075000D01*
G75*
G02*
X185885000Y-98925000I150000J0D01*
G01*
G37*
G36*
G01*
X187155000Y-98925000D02*
X187455000Y-98925000D01*
G75*
G02*
X187605000Y-99075000I0J-150000D01*
G01*
X187605000Y-100525000D01*
G75*
G02*
X187455000Y-100675000I-150000J0D01*
G01*
X187155000Y-100675000D01*
G75*
G02*
X187005000Y-100525000I0J150000D01*
G01*
X187005000Y-99075000D01*
G75*
G02*
X187155000Y-98925000I150000J0D01*
G01*
G37*
G36*
G01*
X188425000Y-98925000D02*
X188725000Y-98925000D01*
G75*
G02*
X188875000Y-99075000I0J-150000D01*
G01*
X188875000Y-100525000D01*
G75*
G02*
X188725000Y-100675000I-150000J0D01*
G01*
X188425000Y-100675000D01*
G75*
G02*
X188275000Y-100525000I0J150000D01*
G01*
X188275000Y-99075000D01*
G75*
G02*
X188425000Y-98925000I150000J0D01*
G01*
G37*
G36*
G01*
X189695000Y-98925000D02*
X189995000Y-98925000D01*
G75*
G02*
X190145000Y-99075000I0J-150000D01*
G01*
X190145000Y-100525000D01*
G75*
G02*
X189995000Y-100675000I-150000J0D01*
G01*
X189695000Y-100675000D01*
G75*
G02*
X189545000Y-100525000I0J150000D01*
G01*
X189545000Y-99075000D01*
G75*
G02*
X189695000Y-98925000I150000J0D01*
G01*
G37*
G36*
G01*
X189695000Y-93775000D02*
X189995000Y-93775000D01*
G75*
G02*
X190145000Y-93925000I0J-150000D01*
G01*
X190145000Y-95375000D01*
G75*
G02*
X189995000Y-95525000I-150000J0D01*
G01*
X189695000Y-95525000D01*
G75*
G02*
X189545000Y-95375000I0J150000D01*
G01*
X189545000Y-93925000D01*
G75*
G02*
X189695000Y-93775000I150000J0D01*
G01*
G37*
G36*
G01*
X188425000Y-93775000D02*
X188725000Y-93775000D01*
G75*
G02*
X188875000Y-93925000I0J-150000D01*
G01*
X188875000Y-95375000D01*
G75*
G02*
X188725000Y-95525000I-150000J0D01*
G01*
X188425000Y-95525000D01*
G75*
G02*
X188275000Y-95375000I0J150000D01*
G01*
X188275000Y-93925000D01*
G75*
G02*
X188425000Y-93775000I150000J0D01*
G01*
G37*
G36*
G01*
X187155000Y-93775000D02*
X187455000Y-93775000D01*
G75*
G02*
X187605000Y-93925000I0J-150000D01*
G01*
X187605000Y-95375000D01*
G75*
G02*
X187455000Y-95525000I-150000J0D01*
G01*
X187155000Y-95525000D01*
G75*
G02*
X187005000Y-95375000I0J150000D01*
G01*
X187005000Y-93925000D01*
G75*
G02*
X187155000Y-93775000I150000J0D01*
G01*
G37*
G36*
G01*
X185885000Y-93775000D02*
X186185000Y-93775000D01*
G75*
G02*
X186335000Y-93925000I0J-150000D01*
G01*
X186335000Y-95375000D01*
G75*
G02*
X186185000Y-95525000I-150000J0D01*
G01*
X185885000Y-95525000D01*
G75*
G02*
X185735000Y-95375000I0J150000D01*
G01*
X185735000Y-93925000D01*
G75*
G02*
X185885000Y-93775000I150000J0D01*
G01*
G37*
G36*
G01*
X184615000Y-93775000D02*
X184915000Y-93775000D01*
G75*
G02*
X185065000Y-93925000I0J-150000D01*
G01*
X185065000Y-95375000D01*
G75*
G02*
X184915000Y-95525000I-150000J0D01*
G01*
X184615000Y-95525000D01*
G75*
G02*
X184465000Y-95375000I0J150000D01*
G01*
X184465000Y-93925000D01*
G75*
G02*
X184615000Y-93775000I150000J0D01*
G01*
G37*
G36*
G01*
X183345000Y-93775000D02*
X183645000Y-93775000D01*
G75*
G02*
X183795000Y-93925000I0J-150000D01*
G01*
X183795000Y-95375000D01*
G75*
G02*
X183645000Y-95525000I-150000J0D01*
G01*
X183345000Y-95525000D01*
G75*
G02*
X183195000Y-95375000I0J150000D01*
G01*
X183195000Y-93925000D01*
G75*
G02*
X183345000Y-93775000I150000J0D01*
G01*
G37*
G36*
G01*
X182075000Y-93775000D02*
X182375000Y-93775000D01*
G75*
G02*
X182525000Y-93925000I0J-150000D01*
G01*
X182525000Y-95375000D01*
G75*
G02*
X182375000Y-95525000I-150000J0D01*
G01*
X182075000Y-95525000D01*
G75*
G02*
X181925000Y-95375000I0J150000D01*
G01*
X181925000Y-93925000D01*
G75*
G02*
X182075000Y-93775000I150000J0D01*
G01*
G37*
G36*
G01*
X180805000Y-93775000D02*
X181105000Y-93775000D01*
G75*
G02*
X181255000Y-93925000I0J-150000D01*
G01*
X181255000Y-95375000D01*
G75*
G02*
X181105000Y-95525000I-150000J0D01*
G01*
X180805000Y-95525000D01*
G75*
G02*
X180655000Y-95375000I0J150000D01*
G01*
X180655000Y-93925000D01*
G75*
G02*
X180805000Y-93775000I150000J0D01*
G01*
G37*
M02*
