G04 #@! TF.GenerationSoftware,KiCad,Pcbnew,(5.1.10)-1*
G04 #@! TF.CreationDate,2022-05-27T17:54:39+02:00*
G04 #@! TF.ProjectId,POV_display_schematic,504f565f-6469-4737-906c-61795f736368,1*
G04 #@! TF.SameCoordinates,Original*
G04 #@! TF.FileFunction,Legend,Top*
G04 #@! TF.FilePolarity,Positive*
%FSLAX46Y46*%
G04 Gerber Fmt 4.6, Leading zero omitted, Abs format (unit mm)*
G04 Created by KiCad (PCBNEW (5.1.10)-1) date 2022-05-27 17:54:39*
%MOMM*%
%LPD*%
G01*
G04 APERTURE LIST*
%ADD10C,0.152400*%
%ADD11C,0.120000*%
%ADD12C,0.150000*%
%ADD13R,1.100000X2.000000*%
%ADD14C,1.800000*%
%ADD15R,1.800000X1.800000*%
%ADD16R,1.100000X1.050000*%
%ADD17R,2.300000X0.900000*%
%ADD18R,2.000000X2.000000*%
%ADD19R,1.500000X0.600000*%
%ADD20R,0.650000X2.000000*%
%ADD21C,1.700000*%
%ADD22O,1.700000X1.700000*%
%ADD23R,1.700000X1.700000*%
%ADD24R,1.900000X1.200000*%
%ADD25O,1.900000X1.200000*%
%ADD26R,1.900000X1.500000*%
%ADD27C,1.450000*%
%ADD28R,1.350000X0.400000*%
%ADD29C,3.200000*%
G04 APERTURE END LIST*
D10*
X244954971Y-116358057D02*
X245574247Y-116358057D01*
X245264609Y-116667695D02*
X245264609Y-116048419D01*
X246348342Y-115854895D02*
X245961295Y-115854895D01*
X245922590Y-116241942D01*
X245961295Y-116203238D01*
X246038704Y-116164533D01*
X246232228Y-116164533D01*
X246309638Y-116203238D01*
X246348342Y-116241942D01*
X246387047Y-116319352D01*
X246387047Y-116512876D01*
X246348342Y-116590285D01*
X246309638Y-116628990D01*
X246232228Y-116667695D01*
X246038704Y-116667695D01*
X245961295Y-116628990D01*
X245922590Y-116590285D01*
X246619276Y-115854895D02*
X246890209Y-116667695D01*
X247161142Y-115854895D01*
X239896914Y-116241942D02*
X239625980Y-116241942D01*
X239625980Y-116667695D02*
X239625980Y-115854895D01*
X240013028Y-115854895D01*
X240322666Y-116667695D02*
X240322666Y-115854895D01*
X240516190Y-115854895D01*
X240632304Y-115893600D01*
X240709714Y-115971009D01*
X240748419Y-116048419D01*
X240787123Y-116203238D01*
X240787123Y-116319352D01*
X240748419Y-116474171D01*
X240709714Y-116551580D01*
X240632304Y-116628990D01*
X240516190Y-116667695D01*
X240322666Y-116667695D01*
X241406400Y-116241942D02*
X241522514Y-116280647D01*
X241561219Y-116319352D01*
X241599923Y-116396761D01*
X241599923Y-116512876D01*
X241561219Y-116590285D01*
X241522514Y-116628990D01*
X241445104Y-116667695D01*
X241135466Y-116667695D01*
X241135466Y-115854895D01*
X241406400Y-115854895D01*
X241483809Y-115893600D01*
X241522514Y-115932304D01*
X241561219Y-116009714D01*
X241561219Y-116087123D01*
X241522514Y-116164533D01*
X241483809Y-116203238D01*
X241406400Y-116241942D01*
X241135466Y-116241942D01*
X241948266Y-116667695D02*
X241948266Y-115854895D01*
X242412723Y-116667695D02*
X242064380Y-116203238D01*
X242412723Y-115854895D02*
X241948266Y-116319352D01*
X234122819Y-116435466D02*
X234509866Y-116435466D01*
X234045409Y-116667695D02*
X234316342Y-115854895D01*
X234587276Y-116667695D01*
X234858209Y-116667695D02*
X234858209Y-115854895D01*
X235051733Y-115854895D01*
X235167847Y-115893600D01*
X235245257Y-115971009D01*
X235283961Y-116048419D01*
X235322666Y-116203238D01*
X235322666Y-116319352D01*
X235283961Y-116474171D01*
X235245257Y-116551580D01*
X235167847Y-116628990D01*
X235051733Y-116667695D01*
X234858209Y-116667695D01*
X236135466Y-116590285D02*
X236096761Y-116628990D01*
X235980647Y-116667695D01*
X235903238Y-116667695D01*
X235787123Y-116628990D01*
X235709714Y-116551580D01*
X235671009Y-116474171D01*
X235632304Y-116319352D01*
X235632304Y-116203238D01*
X235671009Y-116048419D01*
X235709714Y-115971009D01*
X235787123Y-115893600D01*
X235903238Y-115854895D01*
X235980647Y-115854895D01*
X236096761Y-115893600D01*
X236135466Y-115932304D01*
X237103085Y-116667695D02*
X237103085Y-116125828D01*
X237103085Y-115854895D02*
X237064380Y-115893600D01*
X237103085Y-115932304D01*
X237141790Y-115893600D01*
X237103085Y-115854895D01*
X237103085Y-115932304D01*
X237490133Y-116125828D02*
X237490133Y-116667695D01*
X237490133Y-116203238D02*
X237528838Y-116164533D01*
X237606247Y-116125828D01*
X237722361Y-116125828D01*
X237799771Y-116164533D01*
X237838476Y-116241942D01*
X237838476Y-116667695D01*
X229684038Y-116358057D02*
X230303314Y-116358057D01*
X229993676Y-116667695D02*
X229993676Y-116048419D01*
X230961295Y-116241942D02*
X231077409Y-116280647D01*
X231116114Y-116319352D01*
X231154819Y-116396761D01*
X231154819Y-116512876D01*
X231116114Y-116590285D01*
X231077409Y-116628990D01*
X231000000Y-116667695D01*
X230690361Y-116667695D01*
X230690361Y-115854895D01*
X230961295Y-115854895D01*
X231038704Y-115893600D01*
X231077409Y-115932304D01*
X231116114Y-116009714D01*
X231116114Y-116087123D01*
X231077409Y-116164533D01*
X231038704Y-116203238D01*
X230961295Y-116241942D01*
X230690361Y-116241942D01*
X231851504Y-116667695D02*
X231851504Y-116241942D01*
X231812800Y-116164533D01*
X231735390Y-116125828D01*
X231580571Y-116125828D01*
X231503161Y-116164533D01*
X231851504Y-116628990D02*
X231774095Y-116667695D01*
X231580571Y-116667695D01*
X231503161Y-116628990D01*
X231464457Y-116551580D01*
X231464457Y-116474171D01*
X231503161Y-116396761D01*
X231580571Y-116358057D01*
X231774095Y-116358057D01*
X231851504Y-116319352D01*
X232122438Y-116125828D02*
X232432076Y-116125828D01*
X232238552Y-115854895D02*
X232238552Y-116551580D01*
X232277257Y-116628990D01*
X232354666Y-116667695D01*
X232432076Y-116667695D01*
X220380723Y-115893600D02*
X220303314Y-115854895D01*
X220187200Y-115854895D01*
X220071085Y-115893600D01*
X219993676Y-115971009D01*
X219954971Y-116048419D01*
X219916266Y-116203238D01*
X219916266Y-116319352D01*
X219954971Y-116474171D01*
X219993676Y-116551580D01*
X220071085Y-116628990D01*
X220187200Y-116667695D01*
X220264609Y-116667695D01*
X220380723Y-116628990D01*
X220419428Y-116590285D01*
X220419428Y-116319352D01*
X220264609Y-116319352D01*
X220767771Y-116667695D02*
X220767771Y-115854895D01*
X221232228Y-116667695D01*
X221232228Y-115854895D01*
X221619276Y-116667695D02*
X221619276Y-115854895D01*
X221812800Y-115854895D01*
X221928914Y-115893600D01*
X222006323Y-115971009D01*
X222045028Y-116048419D01*
X222083733Y-116203238D01*
X222083733Y-116319352D01*
X222045028Y-116474171D01*
X222006323Y-116551580D01*
X221928914Y-116628990D01*
X221812800Y-116667695D01*
X221619276Y-116667695D01*
X251977866Y-85111695D02*
X252248800Y-85924495D01*
X252519733Y-85111695D01*
X253255123Y-85847085D02*
X253216419Y-85885790D01*
X253100304Y-85924495D01*
X253022895Y-85924495D01*
X252906780Y-85885790D01*
X252829371Y-85808380D01*
X252790666Y-85730971D01*
X252751961Y-85576152D01*
X252751961Y-85460038D01*
X252790666Y-85305219D01*
X252829371Y-85227809D01*
X252906780Y-85150400D01*
X253022895Y-85111695D01*
X253100304Y-85111695D01*
X253216419Y-85150400D01*
X253255123Y-85189104D01*
X254067923Y-85847085D02*
X254029219Y-85885790D01*
X253913104Y-85924495D01*
X253835695Y-85924495D01*
X253719580Y-85885790D01*
X253642171Y-85808380D01*
X253603466Y-85730971D01*
X253564761Y-85576152D01*
X253564761Y-85460038D01*
X253603466Y-85305219D01*
X253642171Y-85227809D01*
X253719580Y-85150400D01*
X253835695Y-85111695D01*
X253913104Y-85111695D01*
X254029219Y-85150400D01*
X254067923Y-85189104D01*
X254996838Y-85072990D02*
X254300152Y-86118019D01*
X255267771Y-85614857D02*
X255887047Y-85614857D01*
X256274095Y-85614857D02*
X256893371Y-85614857D01*
X257280419Y-85614857D02*
X257899695Y-85614857D01*
X258286742Y-85614857D02*
X258906019Y-85614857D01*
X252093980Y-87516664D02*
X252906780Y-87516664D01*
X252751961Y-88667695D02*
X252481028Y-88280647D01*
X252287504Y-88667695D02*
X252287504Y-87854895D01*
X252597142Y-87854895D01*
X252674552Y-87893600D01*
X252713257Y-87932304D01*
X252751961Y-88009714D01*
X252751961Y-88125828D01*
X252713257Y-88203238D01*
X252674552Y-88241942D01*
X252597142Y-88280647D01*
X252287504Y-88280647D01*
X252906780Y-87516664D02*
X253680876Y-87516664D01*
X253061600Y-88628990D02*
X253177714Y-88667695D01*
X253371238Y-88667695D01*
X253448647Y-88628990D01*
X253487352Y-88590285D01*
X253526057Y-88512876D01*
X253526057Y-88435466D01*
X253487352Y-88358057D01*
X253448647Y-88319352D01*
X253371238Y-88280647D01*
X253216419Y-88241942D01*
X253139009Y-88203238D01*
X253100304Y-88164533D01*
X253061600Y-88087123D01*
X253061600Y-88009714D01*
X253100304Y-87932304D01*
X253139009Y-87893600D01*
X253216419Y-87854895D01*
X253409942Y-87854895D01*
X253526057Y-87893600D01*
X253680876Y-87516664D02*
X254300152Y-87516664D01*
X253758285Y-87854895D02*
X254222742Y-87854895D01*
X253990514Y-88667695D02*
X253990514Y-87854895D01*
X255074247Y-87816190D02*
X254377561Y-88861219D01*
X255306476Y-88628990D02*
X255422590Y-88667695D01*
X255616114Y-88667695D01*
X255693523Y-88628990D01*
X255732228Y-88590285D01*
X255770933Y-88512876D01*
X255770933Y-88435466D01*
X255732228Y-88358057D01*
X255693523Y-88319352D01*
X255616114Y-88280647D01*
X255461295Y-88241942D01*
X255383885Y-88203238D01*
X255345180Y-88164533D01*
X255306476Y-88087123D01*
X255306476Y-88009714D01*
X255345180Y-87932304D01*
X255383885Y-87893600D01*
X255461295Y-87854895D01*
X255654819Y-87854895D01*
X255770933Y-87893600D01*
X256041866Y-87854895D02*
X256235390Y-88667695D01*
X256390209Y-88087123D01*
X256545028Y-88667695D01*
X256738552Y-87854895D01*
X257048190Y-88667695D02*
X257048190Y-87854895D01*
X257241714Y-87854895D01*
X257357828Y-87893600D01*
X257435238Y-87971009D01*
X257473942Y-88048419D01*
X257512647Y-88203238D01*
X257512647Y-88319352D01*
X257473942Y-88474171D01*
X257435238Y-88551580D01*
X257357828Y-88628990D01*
X257241714Y-88667695D01*
X257048190Y-88667695D01*
X257860990Y-88667695D02*
X257860990Y-87854895D01*
X258402857Y-87854895D02*
X258557676Y-87854895D01*
X258635085Y-87893600D01*
X258712495Y-87971009D01*
X258751200Y-88125828D01*
X258751200Y-88396761D01*
X258712495Y-88551580D01*
X258635085Y-88628990D01*
X258557676Y-88667695D01*
X258402857Y-88667695D01*
X258325447Y-88628990D01*
X258248038Y-88551580D01*
X258209333Y-88396761D01*
X258209333Y-88125828D01*
X258248038Y-87971009D01*
X258325447Y-87893600D01*
X258402857Y-87854895D01*
X251997219Y-91372190D02*
X252113333Y-91410895D01*
X252306857Y-91410895D01*
X252384266Y-91372190D01*
X252422971Y-91333485D01*
X252461676Y-91256076D01*
X252461676Y-91178666D01*
X252422971Y-91101257D01*
X252384266Y-91062552D01*
X252306857Y-91023847D01*
X252152038Y-90985142D01*
X252074628Y-90946438D01*
X252035923Y-90907733D01*
X251997219Y-90830323D01*
X251997219Y-90752914D01*
X252035923Y-90675504D01*
X252074628Y-90636800D01*
X252152038Y-90598095D01*
X252345561Y-90598095D01*
X252461676Y-90636800D01*
X252732609Y-90598095D02*
X252926133Y-91410895D01*
X253080952Y-90830323D01*
X253235771Y-91410895D01*
X253429295Y-90598095D01*
X254203390Y-91333485D02*
X254164685Y-91372190D01*
X254048571Y-91410895D01*
X253971161Y-91410895D01*
X253855047Y-91372190D01*
X253777638Y-91294780D01*
X253738933Y-91217371D01*
X253700228Y-91062552D01*
X253700228Y-90946438D01*
X253738933Y-90791619D01*
X253777638Y-90714209D01*
X253855047Y-90636800D01*
X253971161Y-90598095D01*
X254048571Y-90598095D01*
X254164685Y-90636800D01*
X254203390Y-90675504D01*
X254938780Y-91410895D02*
X254551733Y-91410895D01*
X254551733Y-90598095D01*
X255209714Y-91410895D02*
X255209714Y-90598095D01*
X255674171Y-91410895D02*
X255325828Y-90946438D01*
X255674171Y-90598095D02*
X255209714Y-91062552D01*
X256603085Y-90559390D02*
X255906400Y-91604419D01*
X257299771Y-90636800D02*
X257222361Y-90598095D01*
X257106247Y-90598095D01*
X256990133Y-90636800D01*
X256912723Y-90714209D01*
X256874019Y-90791619D01*
X256835314Y-90946438D01*
X256835314Y-91062552D01*
X256874019Y-91217371D01*
X256912723Y-91294780D01*
X256990133Y-91372190D01*
X257106247Y-91410895D01*
X257183657Y-91410895D01*
X257299771Y-91372190D01*
X257338476Y-91333485D01*
X257338476Y-91062552D01*
X257183657Y-91062552D01*
X257686819Y-91410895D02*
X257686819Y-90598095D01*
X258151276Y-91410895D01*
X258151276Y-90598095D01*
X258538323Y-91410895D02*
X258538323Y-90598095D01*
X258731847Y-90598095D01*
X258847961Y-90636800D01*
X258925371Y-90714209D01*
X258964076Y-90791619D01*
X259002780Y-90946438D01*
X259002780Y-91062552D01*
X258964076Y-91217371D01*
X258925371Y-91294780D01*
X258847961Y-91372190D01*
X258731847Y-91410895D01*
X258538323Y-91410895D01*
X228265371Y-73754895D02*
X228536304Y-74567695D01*
X228807238Y-73754895D01*
X229426514Y-74528990D02*
X229349104Y-74567695D01*
X229194285Y-74567695D01*
X229116876Y-74528990D01*
X229078171Y-74490285D01*
X229039466Y-74412876D01*
X229039466Y-74180647D01*
X229078171Y-74103238D01*
X229116876Y-74064533D01*
X229194285Y-74025828D01*
X229349104Y-74025828D01*
X229426514Y-74064533D01*
X230123200Y-74528990D02*
X230045790Y-74567695D01*
X229890971Y-74567695D01*
X229813561Y-74528990D01*
X229774857Y-74490285D01*
X229736152Y-74412876D01*
X229736152Y-74180647D01*
X229774857Y-74103238D01*
X229813561Y-74064533D01*
X229890971Y-74025828D01*
X230045790Y-74025828D01*
X230123200Y-74064533D01*
X231671390Y-73716190D02*
X230974704Y-74761219D01*
X232987352Y-73793600D02*
X232909942Y-73754895D01*
X232793828Y-73754895D01*
X232677714Y-73793600D01*
X232600304Y-73871009D01*
X232561600Y-73948419D01*
X232522895Y-74103238D01*
X232522895Y-74219352D01*
X232561600Y-74374171D01*
X232600304Y-74451580D01*
X232677714Y-74528990D01*
X232793828Y-74567695D01*
X232871238Y-74567695D01*
X232987352Y-74528990D01*
X233026057Y-74490285D01*
X233026057Y-74219352D01*
X232871238Y-74219352D01*
X233374400Y-74025828D02*
X233374400Y-74567695D01*
X233374400Y-74103238D02*
X233413104Y-74064533D01*
X233490514Y-74025828D01*
X233606628Y-74025828D01*
X233684038Y-74064533D01*
X233722742Y-74141942D01*
X233722742Y-74567695D01*
X234458133Y-74567695D02*
X234458133Y-73754895D01*
X234458133Y-74528990D02*
X234380723Y-74567695D01*
X234225904Y-74567695D01*
X234148495Y-74528990D01*
X234109790Y-74490285D01*
X234071085Y-74412876D01*
X234071085Y-74180647D01*
X234109790Y-74103238D01*
X234148495Y-74064533D01*
X234225904Y-74025828D01*
X234380723Y-74025828D01*
X234458133Y-74064533D01*
X236045028Y-73716190D02*
X235348342Y-74761219D01*
X236819123Y-73754895D02*
X237283580Y-73754895D01*
X237051352Y-74567695D02*
X237051352Y-73754895D01*
X237477104Y-73754895D02*
X238018971Y-74567695D01*
X238018971Y-73754895D02*
X237477104Y-74567695D01*
X239528457Y-73716190D02*
X238831771Y-74761219D01*
X240883123Y-74567695D02*
X240612190Y-74180647D01*
X240418666Y-74567695D02*
X240418666Y-73754895D01*
X240728304Y-73754895D01*
X240805714Y-73793600D01*
X240844419Y-73832304D01*
X240883123Y-73909714D01*
X240883123Y-74025828D01*
X240844419Y-74103238D01*
X240805714Y-74141942D01*
X240728304Y-74180647D01*
X240418666Y-74180647D01*
X241154057Y-73754895D02*
X241695923Y-74567695D01*
X241695923Y-73754895D02*
X241154057Y-74567695D01*
X268454971Y-119054895D02*
X268725904Y-119867695D01*
X268996838Y-119054895D01*
X269422590Y-119054895D02*
X269500000Y-119054895D01*
X269577409Y-119093600D01*
X269616114Y-119132304D01*
X269654819Y-119209714D01*
X269693523Y-119364533D01*
X269693523Y-119558057D01*
X269654819Y-119712876D01*
X269616114Y-119790285D01*
X269577409Y-119828990D01*
X269500000Y-119867695D01*
X269422590Y-119867695D01*
X269345180Y-119828990D01*
X269306476Y-119790285D01*
X269267771Y-119712876D01*
X269229066Y-119558057D01*
X269229066Y-119364533D01*
X269267771Y-119209714D01*
X269306476Y-119132304D01*
X269345180Y-119093600D01*
X269422590Y-119054895D01*
X270003161Y-119132304D02*
X270041866Y-119093600D01*
X270119276Y-119054895D01*
X270312800Y-119054895D01*
X270390209Y-119093600D01*
X270428914Y-119132304D01*
X270467619Y-119209714D01*
X270467619Y-119287123D01*
X270428914Y-119403238D01*
X269964457Y-119867695D01*
X270467619Y-119867695D01*
X211194361Y-97181895D02*
X211194361Y-96369095D01*
X211504000Y-96369095D01*
X211581409Y-96407800D01*
X211620114Y-96446504D01*
X211658819Y-96523914D01*
X211658819Y-96640028D01*
X211620114Y-96717438D01*
X211581409Y-96756142D01*
X211504000Y-96794847D01*
X211194361Y-96794847D01*
X212316800Y-97143190D02*
X212239390Y-97181895D01*
X212084571Y-97181895D01*
X212007161Y-97143190D01*
X211968457Y-97065780D01*
X211968457Y-96756142D01*
X212007161Y-96678733D01*
X212084571Y-96640028D01*
X212239390Y-96640028D01*
X212316800Y-96678733D01*
X212355504Y-96756142D01*
X212355504Y-96833552D01*
X211968457Y-96910961D01*
X212703847Y-97181895D02*
X212703847Y-96640028D01*
X212703847Y-96794847D02*
X212742552Y-96717438D01*
X212781257Y-96678733D01*
X212858666Y-96640028D01*
X212936076Y-96640028D01*
X213168304Y-97143190D02*
X213245714Y-97181895D01*
X213400533Y-97181895D01*
X213477942Y-97143190D01*
X213516647Y-97065780D01*
X213516647Y-97027076D01*
X213477942Y-96949666D01*
X213400533Y-96910961D01*
X213284419Y-96910961D01*
X213207009Y-96872257D01*
X213168304Y-96794847D01*
X213168304Y-96756142D01*
X213207009Y-96678733D01*
X213284419Y-96640028D01*
X213400533Y-96640028D01*
X213477942Y-96678733D01*
X213864990Y-97181895D02*
X213864990Y-96640028D01*
X213864990Y-96369095D02*
X213826285Y-96407800D01*
X213864990Y-96446504D01*
X213903695Y-96407800D01*
X213864990Y-96369095D01*
X213864990Y-96446504D01*
X214213333Y-97143190D02*
X214290742Y-97181895D01*
X214445561Y-97181895D01*
X214522971Y-97143190D01*
X214561676Y-97065780D01*
X214561676Y-97027076D01*
X214522971Y-96949666D01*
X214445561Y-96910961D01*
X214329447Y-96910961D01*
X214252038Y-96872257D01*
X214213333Y-96794847D01*
X214213333Y-96756142D01*
X214252038Y-96678733D01*
X214329447Y-96640028D01*
X214445561Y-96640028D01*
X214522971Y-96678733D01*
X214793904Y-96640028D02*
X215103542Y-96640028D01*
X214910019Y-96369095D02*
X214910019Y-97065780D01*
X214948723Y-97143190D01*
X215026133Y-97181895D01*
X215103542Y-97181895D01*
X215722819Y-97181895D02*
X215722819Y-96756142D01*
X215684114Y-96678733D01*
X215606704Y-96640028D01*
X215451885Y-96640028D01*
X215374476Y-96678733D01*
X215722819Y-97143190D02*
X215645409Y-97181895D01*
X215451885Y-97181895D01*
X215374476Y-97143190D01*
X215335771Y-97065780D01*
X215335771Y-96988371D01*
X215374476Y-96910961D01*
X215451885Y-96872257D01*
X215645409Y-96872257D01*
X215722819Y-96833552D01*
X216109866Y-96640028D02*
X216109866Y-97181895D01*
X216109866Y-96717438D02*
X216148571Y-96678733D01*
X216225980Y-96640028D01*
X216342095Y-96640028D01*
X216419504Y-96678733D01*
X216458209Y-96756142D01*
X216458209Y-97181895D01*
X217193600Y-97143190D02*
X217116190Y-97181895D01*
X216961371Y-97181895D01*
X216883961Y-97143190D01*
X216845257Y-97104485D01*
X216806552Y-97027076D01*
X216806552Y-96794847D01*
X216845257Y-96717438D01*
X216883961Y-96678733D01*
X216961371Y-96640028D01*
X217116190Y-96640028D01*
X217193600Y-96678733D01*
X217851580Y-97143190D02*
X217774171Y-97181895D01*
X217619352Y-97181895D01*
X217541942Y-97143190D01*
X217503238Y-97065780D01*
X217503238Y-96756142D01*
X217541942Y-96678733D01*
X217619352Y-96640028D01*
X217774171Y-96640028D01*
X217851580Y-96678733D01*
X217890285Y-96756142D01*
X217890285Y-96833552D01*
X217503238Y-96910961D01*
X219012723Y-96369095D02*
X219167542Y-96369095D01*
X219244952Y-96407800D01*
X219322361Y-96485209D01*
X219361066Y-96640028D01*
X219361066Y-96910961D01*
X219322361Y-97065780D01*
X219244952Y-97143190D01*
X219167542Y-97181895D01*
X219012723Y-97181895D01*
X218935314Y-97143190D01*
X218857904Y-97065780D01*
X218819200Y-96910961D01*
X218819200Y-96640028D01*
X218857904Y-96485209D01*
X218935314Y-96407800D01*
X219012723Y-96369095D01*
X219593295Y-96640028D02*
X219902933Y-96640028D01*
X219709409Y-97181895D02*
X219709409Y-96485209D01*
X219748114Y-96407800D01*
X219825523Y-96369095D01*
X219902933Y-96369095D01*
X220677028Y-96369095D02*
X220947961Y-97181895D01*
X221218895Y-96369095D01*
X221489828Y-97181895D02*
X221489828Y-96640028D01*
X221489828Y-96369095D02*
X221451123Y-96407800D01*
X221489828Y-96446504D01*
X221528533Y-96407800D01*
X221489828Y-96369095D01*
X221489828Y-96446504D01*
X221838171Y-97143190D02*
X221915580Y-97181895D01*
X222070400Y-97181895D01*
X222147809Y-97143190D01*
X222186514Y-97065780D01*
X222186514Y-97027076D01*
X222147809Y-96949666D01*
X222070400Y-96910961D01*
X221954285Y-96910961D01*
X221876876Y-96872257D01*
X221838171Y-96794847D01*
X221838171Y-96756142D01*
X221876876Y-96678733D01*
X221954285Y-96640028D01*
X222070400Y-96640028D01*
X222147809Y-96678733D01*
X222534857Y-97181895D02*
X222534857Y-96640028D01*
X222534857Y-96369095D02*
X222496152Y-96407800D01*
X222534857Y-96446504D01*
X222573561Y-96407800D01*
X222534857Y-96369095D01*
X222534857Y-96446504D01*
X223038019Y-97181895D02*
X222960609Y-97143190D01*
X222921904Y-97104485D01*
X222883200Y-97027076D01*
X222883200Y-96794847D01*
X222921904Y-96717438D01*
X222960609Y-96678733D01*
X223038019Y-96640028D01*
X223154133Y-96640028D01*
X223231542Y-96678733D01*
X223270247Y-96717438D01*
X223308952Y-96794847D01*
X223308952Y-97027076D01*
X223270247Y-97104485D01*
X223231542Y-97143190D01*
X223154133Y-97181895D01*
X223038019Y-97181895D01*
X223657295Y-96640028D02*
X223657295Y-97181895D01*
X223657295Y-96717438D02*
X223696000Y-96678733D01*
X223773409Y-96640028D01*
X223889523Y-96640028D01*
X223966933Y-96678733D01*
X224005638Y-96756142D01*
X224005638Y-97181895D01*
X211039542Y-98553495D02*
X211039542Y-97740695D01*
X211039542Y-98050333D02*
X211116952Y-98011628D01*
X211271771Y-98011628D01*
X211349180Y-98050333D01*
X211387885Y-98089038D01*
X211426590Y-98166447D01*
X211426590Y-98398676D01*
X211387885Y-98476085D01*
X211349180Y-98514790D01*
X211271771Y-98553495D01*
X211116952Y-98553495D01*
X211039542Y-98514790D01*
X211697523Y-98011628D02*
X211891047Y-98553495D01*
X212084571Y-98011628D02*
X211891047Y-98553495D01*
X211813638Y-98747019D01*
X211774933Y-98785723D01*
X211697523Y-98824428D01*
X213013485Y-98553495D02*
X213013485Y-97740695D01*
X213284419Y-98321266D01*
X213555352Y-97740695D01*
X213555352Y-98553495D01*
X214290742Y-98553495D02*
X214290742Y-98127742D01*
X214252038Y-98050333D01*
X214174628Y-98011628D01*
X214019809Y-98011628D01*
X213942400Y-98050333D01*
X214290742Y-98514790D02*
X214213333Y-98553495D01*
X214019809Y-98553495D01*
X213942400Y-98514790D01*
X213903695Y-98437380D01*
X213903695Y-98359971D01*
X213942400Y-98282561D01*
X214019809Y-98243857D01*
X214213333Y-98243857D01*
X214290742Y-98205152D01*
X215026133Y-98514790D02*
X214948723Y-98553495D01*
X214793904Y-98553495D01*
X214716495Y-98514790D01*
X214677790Y-98476085D01*
X214639085Y-98398676D01*
X214639085Y-98166447D01*
X214677790Y-98089038D01*
X214716495Y-98050333D01*
X214793904Y-98011628D01*
X214948723Y-98011628D01*
X215026133Y-98050333D01*
X215374476Y-98553495D02*
X215374476Y-98011628D01*
X215374476Y-97740695D02*
X215335771Y-97779400D01*
X215374476Y-97818104D01*
X215413180Y-97779400D01*
X215374476Y-97740695D01*
X215374476Y-97818104D01*
X216071161Y-98514790D02*
X215993752Y-98553495D01*
X215838933Y-98553495D01*
X215761523Y-98514790D01*
X215722819Y-98437380D01*
X215722819Y-98127742D01*
X215761523Y-98050333D01*
X215838933Y-98011628D01*
X215993752Y-98011628D01*
X216071161Y-98050333D01*
X216109866Y-98127742D01*
X216109866Y-98205152D01*
X215722819Y-98282561D01*
X216458209Y-98011628D02*
X216458209Y-98708314D01*
X216419504Y-98785723D01*
X216342095Y-98824428D01*
X216303390Y-98824428D01*
X216458209Y-97740695D02*
X216419504Y-97779400D01*
X216458209Y-97818104D01*
X216496914Y-97779400D01*
X216458209Y-97740695D01*
X216458209Y-97818104D01*
X217464533Y-98553495D02*
X217464533Y-97740695D01*
X217928990Y-98553495D02*
X217580647Y-98089038D01*
X217928990Y-97740695D02*
X217464533Y-98205152D01*
X218277333Y-98553495D02*
X218277333Y-98011628D01*
X218277333Y-98166447D02*
X218316038Y-98089038D01*
X218354742Y-98050333D01*
X218432152Y-98011628D01*
X218509561Y-98011628D01*
X218703085Y-98011628D02*
X218896609Y-98553495D01*
X219090133Y-98011628D02*
X218896609Y-98553495D01*
X218819200Y-98747019D01*
X218780495Y-98785723D01*
X218703085Y-98824428D01*
X219361066Y-98514790D02*
X219438476Y-98553495D01*
X219593295Y-98553495D01*
X219670704Y-98514790D01*
X219709409Y-98437380D01*
X219709409Y-98398676D01*
X219670704Y-98321266D01*
X219593295Y-98282561D01*
X219477180Y-98282561D01*
X219399771Y-98243857D01*
X219361066Y-98166447D01*
X219361066Y-98127742D01*
X219399771Y-98050333D01*
X219477180Y-98011628D01*
X219593295Y-98011628D01*
X219670704Y-98050333D01*
X219980342Y-98011628D02*
X220406095Y-98011628D01*
X219980342Y-98553495D01*
X220406095Y-98553495D01*
X220599619Y-98011628D02*
X220909257Y-98011628D01*
X220715733Y-97740695D02*
X220715733Y-98437380D01*
X220754438Y-98514790D01*
X220831847Y-98553495D01*
X220909257Y-98553495D01*
X221296304Y-98553495D02*
X221218895Y-98514790D01*
X221180190Y-98476085D01*
X221141485Y-98398676D01*
X221141485Y-98166447D01*
X221180190Y-98089038D01*
X221218895Y-98050333D01*
X221296304Y-98011628D01*
X221412419Y-98011628D01*
X221489828Y-98050333D01*
X221528533Y-98089038D01*
X221567238Y-98166447D01*
X221567238Y-98398676D01*
X221528533Y-98476085D01*
X221489828Y-98514790D01*
X221412419Y-98553495D01*
X221296304Y-98553495D01*
X221838171Y-98011628D02*
X221992990Y-98553495D01*
X222147809Y-98166447D01*
X222302628Y-98553495D01*
X222457447Y-98011628D01*
X222767085Y-98553495D02*
X222767085Y-98011628D01*
X222767085Y-97740695D02*
X222728380Y-97779400D01*
X222767085Y-97818104D01*
X222805790Y-97779400D01*
X222767085Y-97740695D01*
X222767085Y-97818104D01*
X223502476Y-98553495D02*
X223502476Y-98127742D01*
X223463771Y-98050333D01*
X223386361Y-98011628D01*
X223231542Y-98011628D01*
X223154133Y-98050333D01*
X223502476Y-98514790D02*
X223425066Y-98553495D01*
X223231542Y-98553495D01*
X223154133Y-98514790D01*
X223115428Y-98437380D01*
X223115428Y-98359971D01*
X223154133Y-98282561D01*
X223231542Y-98243857D01*
X223425066Y-98243857D01*
X223502476Y-98205152D01*
X223889523Y-98553495D02*
X223889523Y-97740695D01*
X223966933Y-98243857D02*
X224199161Y-98553495D01*
X224199161Y-98011628D02*
X223889523Y-98321266D01*
X224866266Y-115854895D02*
X225137200Y-116667695D01*
X225408133Y-115854895D01*
X226143523Y-116590285D02*
X226104819Y-116628990D01*
X225988704Y-116667695D01*
X225911295Y-116667695D01*
X225795180Y-116628990D01*
X225717771Y-116551580D01*
X225679066Y-116474171D01*
X225640361Y-116319352D01*
X225640361Y-116203238D01*
X225679066Y-116048419D01*
X225717771Y-115971009D01*
X225795180Y-115893600D01*
X225911295Y-115854895D01*
X225988704Y-115854895D01*
X226104819Y-115893600D01*
X226143523Y-115932304D01*
X226956323Y-116590285D02*
X226917619Y-116628990D01*
X226801504Y-116667695D01*
X226724095Y-116667695D01*
X226607980Y-116628990D01*
X226530571Y-116551580D01*
X226491866Y-116474171D01*
X226453161Y-116319352D01*
X226453161Y-116203238D01*
X226491866Y-116048419D01*
X226530571Y-115971009D01*
X226607980Y-115893600D01*
X226724095Y-115854895D01*
X226801504Y-115854895D01*
X226917619Y-115893600D01*
X226956323Y-115932304D01*
X224847780Y-79377297D02*
X224228504Y-79377297D01*
X221983627Y-79377297D02*
X221364351Y-79377297D01*
X221673989Y-79067659D02*
X221673989Y-79686935D01*
X203000000Y-101500000D02*
G75*
G03*
X203000000Y-101500000I-3000000J0D01*
G01*
X203000000Y-93500000D02*
G75*
G03*
X203000000Y-93500000I-3000000J0D01*
G01*
D11*
X50550000Y-99750000D02*
X50550000Y-94750000D01*
X54850000Y-93650000D02*
X55950000Y-93650000D01*
X55950000Y-93650000D02*
X55950000Y-99750000D01*
X57550000Y-99750000D02*
X57550000Y-94750000D01*
X61850000Y-93650000D02*
X62950000Y-93650000D01*
X62950000Y-93650000D02*
X62950000Y-99750000D01*
X64550000Y-99750000D02*
X64550000Y-94750000D01*
X68850000Y-93650000D02*
X69950000Y-93650000D01*
X69950000Y-93650000D02*
X69950000Y-99750000D01*
X71550000Y-99750000D02*
X71550000Y-94750000D01*
X75850000Y-93650000D02*
X76950000Y-93650000D01*
X76950000Y-93650000D02*
X76950000Y-99750000D01*
X78550000Y-99750000D02*
X78550000Y-94750000D01*
X82850000Y-93650000D02*
X83950000Y-93650000D01*
X83950000Y-93650000D02*
X83950000Y-99750000D01*
X85550000Y-99750000D02*
X85550000Y-94750000D01*
X89850000Y-93650000D02*
X90950000Y-93650000D01*
X90950000Y-93650000D02*
X90950000Y-99750000D01*
X92550000Y-99750000D02*
X92550000Y-94750000D01*
X96850000Y-93650000D02*
X97950000Y-93650000D01*
X97950000Y-93650000D02*
X97950000Y-99750000D01*
X99550000Y-99750000D02*
X99550000Y-94750000D01*
X103850000Y-93650000D02*
X104950000Y-93650000D01*
X104950000Y-93650000D02*
X104950000Y-99750000D01*
X106550000Y-99750000D02*
X106550000Y-94750000D01*
X110850000Y-93650000D02*
X111950000Y-93650000D01*
X111950000Y-93650000D02*
X111950000Y-99750000D01*
X113550000Y-99750000D02*
X113550000Y-94750000D01*
X117850000Y-93650000D02*
X118950000Y-93650000D01*
X118950000Y-93650000D02*
X118950000Y-99750000D01*
X120550000Y-99750000D02*
X120550000Y-94750000D01*
X124850000Y-93650000D02*
X125950000Y-93650000D01*
X125950000Y-93650000D02*
X125950000Y-99750000D01*
X127550000Y-99750000D02*
X127550000Y-94750000D01*
X131850000Y-93650000D02*
X132950000Y-93650000D01*
X132950000Y-93650000D02*
X132950000Y-99750000D01*
X134550000Y-99750000D02*
X134550000Y-94750000D01*
X138850000Y-93650000D02*
X139950000Y-93650000D01*
X139950000Y-93650000D02*
X139950000Y-99750000D01*
X141550000Y-99750000D02*
X141550000Y-94750000D01*
X145850000Y-93650000D02*
X146950000Y-93650000D01*
X146950000Y-93650000D02*
X146950000Y-99750000D01*
X148550000Y-99750000D02*
X148550000Y-94750000D01*
X152850000Y-93650000D02*
X153950000Y-93650000D01*
X153950000Y-93650000D02*
X153950000Y-99750000D01*
X155550000Y-99700000D02*
X155550000Y-94700000D01*
X159850000Y-93600000D02*
X160950000Y-93600000D01*
X160950000Y-93600000D02*
X160950000Y-99700000D01*
X162550000Y-99750000D02*
X162550000Y-94750000D01*
X166850000Y-93650000D02*
X167950000Y-93650000D01*
X167950000Y-93650000D02*
X167950000Y-99750000D01*
X169550000Y-99750000D02*
X169550000Y-94750000D01*
X173850000Y-93650000D02*
X174950000Y-93650000D01*
X174950000Y-93650000D02*
X174950000Y-99750000D01*
X176550000Y-99750000D02*
X176550000Y-94750000D01*
X180850000Y-93650000D02*
X181950000Y-93650000D01*
X181950000Y-93650000D02*
X181950000Y-99750000D01*
X183550000Y-99750000D02*
X183550000Y-94750000D01*
X187850000Y-93650000D02*
X188950000Y-93650000D01*
X188950000Y-93650000D02*
X188950000Y-99750000D01*
X190550000Y-99750000D02*
X190550000Y-94750000D01*
X194850000Y-93650000D02*
X195950000Y-93650000D01*
X195950000Y-93650000D02*
X195950000Y-99750000D01*
X243800000Y-100875000D02*
X243800000Y-98025000D01*
X243800000Y-98025000D02*
X242200000Y-98025000D01*
X242200000Y-98025000D02*
X242200000Y-100875000D01*
X230840000Y-94390000D02*
X230390000Y-94390000D01*
X230390000Y-94390000D02*
X230390000Y-94840000D01*
X237160000Y-94390000D02*
X237610000Y-94390000D01*
X237610000Y-94390000D02*
X237610000Y-94840000D01*
X230840000Y-101610000D02*
X230390000Y-101610000D01*
X230390000Y-101610000D02*
X230390000Y-101160000D01*
X237160000Y-101610000D02*
X237610000Y-101610000D01*
X237610000Y-101610000D02*
X237610000Y-101160000D01*
X237610000Y-101160000D02*
X238900000Y-101160000D01*
X232135000Y-83635000D02*
X232135000Y-81685000D01*
X232135000Y-83635000D02*
X232135000Y-85585000D01*
X227015000Y-83635000D02*
X227015000Y-81685000D01*
X227015000Y-83635000D02*
X227015000Y-87085000D01*
X220960000Y-84400000D02*
X220960000Y-85710000D01*
X220960000Y-85710000D02*
X218240000Y-85710000D01*
X217100000Y-81220000D02*
X218240000Y-81220000D01*
X220960000Y-80990000D02*
X220960000Y-82300000D01*
X218240000Y-80990000D02*
X220960000Y-80990000D01*
X218240000Y-80990000D02*
X218240000Y-81220000D01*
X218240000Y-85710000D02*
X218240000Y-85480000D01*
X229800000Y-117050000D02*
X232200000Y-117050000D01*
X232200000Y-117050000D02*
X232200000Y-119450000D01*
X232200000Y-119450000D02*
X229800000Y-119450000D01*
X229800000Y-119450000D02*
X229800000Y-117050000D01*
X244800000Y-117050000D02*
X247200000Y-117050000D01*
X247200000Y-117050000D02*
X247200000Y-119450000D01*
X247200000Y-119450000D02*
X244800000Y-119450000D01*
X244800000Y-119450000D02*
X244800000Y-117050000D01*
X234800000Y-117050000D02*
X237200000Y-117050000D01*
X237200000Y-117050000D02*
X237200000Y-119450000D01*
X237200000Y-119450000D02*
X234800000Y-119450000D01*
X234800000Y-119450000D02*
X234800000Y-117050000D01*
X239800000Y-117050000D02*
X242200000Y-117050000D01*
X242200000Y-117050000D02*
X242200000Y-119450000D01*
X242200000Y-119450000D02*
X239800000Y-119450000D01*
X239800000Y-119450000D02*
X239800000Y-117050000D01*
X219800000Y-117050000D02*
X222200000Y-117050000D01*
X222200000Y-117050000D02*
X222200000Y-119450000D01*
X222200000Y-119450000D02*
X219800000Y-119450000D01*
X219800000Y-119450000D02*
X219800000Y-117050000D01*
X224800000Y-117050000D02*
X227200000Y-117050000D01*
X227200000Y-117050000D02*
X227200000Y-119450000D01*
X227200000Y-119450000D02*
X224800000Y-119450000D01*
X224800000Y-119450000D02*
X224800000Y-117050000D01*
X237000000Y-109500000D02*
X237000000Y-111000000D01*
X241000000Y-109500000D02*
X237000000Y-109500000D01*
X241000000Y-111000000D02*
X241000000Y-109500000D01*
X237000000Y-111000000D02*
X241000000Y-111000000D01*
X236000000Y-108500000D02*
X236000000Y-112000000D01*
X242000000Y-108500000D02*
X236000000Y-108500000D01*
X242000000Y-112000000D02*
X242000000Y-108500000D01*
X236000000Y-112000000D02*
X242000000Y-112000000D01*
X224500000Y-109500000D02*
X224500000Y-111000000D01*
X228500000Y-109500000D02*
X224500000Y-109500000D01*
X228500000Y-111000000D02*
X228500000Y-109500000D01*
X224500000Y-111000000D02*
X228500000Y-111000000D01*
X223500000Y-108500000D02*
X223500000Y-112000000D01*
X229500000Y-108500000D02*
X223500000Y-108500000D01*
X229500000Y-112000000D02*
X229500000Y-108500000D01*
X223500000Y-112000000D02*
X229500000Y-112000000D01*
X55522500Y-91562742D02*
X55522500Y-92037258D01*
X54477500Y-91562742D02*
X54477500Y-92037258D01*
X62522500Y-91575242D02*
X62522500Y-92049758D01*
X61477500Y-91575242D02*
X61477500Y-92049758D01*
X69522500Y-91575242D02*
X69522500Y-92049758D01*
X68477500Y-91575242D02*
X68477500Y-92049758D01*
X76522500Y-91562742D02*
X76522500Y-92037258D01*
X75477500Y-91562742D02*
X75477500Y-92037258D01*
X83522500Y-91562742D02*
X83522500Y-92037258D01*
X82477500Y-91562742D02*
X82477500Y-92037258D01*
X90422500Y-91562742D02*
X90422500Y-92037258D01*
X89377500Y-91562742D02*
X89377500Y-92037258D01*
X97522500Y-91575242D02*
X97522500Y-92049758D01*
X96477500Y-91575242D02*
X96477500Y-92049758D01*
X53722500Y-91575242D02*
X53722500Y-92049758D01*
X52677500Y-91575242D02*
X52677500Y-92049758D01*
X60722500Y-91562742D02*
X60722500Y-92037258D01*
X59677500Y-91562742D02*
X59677500Y-92037258D01*
X67722500Y-91562742D02*
X67722500Y-92037258D01*
X66677500Y-91562742D02*
X66677500Y-92037258D01*
X74722500Y-91562742D02*
X74722500Y-92037258D01*
X73677500Y-91562742D02*
X73677500Y-92037258D01*
X81822500Y-91550242D02*
X81822500Y-92024758D01*
X80777500Y-91550242D02*
X80777500Y-92024758D01*
X88822500Y-91562742D02*
X88822500Y-92037258D01*
X87777500Y-91562742D02*
X87777500Y-92037258D01*
X95722500Y-91562742D02*
X95722500Y-92037258D01*
X94677500Y-91562742D02*
X94677500Y-92037258D01*
X52022500Y-91562742D02*
X52022500Y-92037258D01*
X50977500Y-91562742D02*
X50977500Y-92037258D01*
X59022500Y-91562742D02*
X59022500Y-92037258D01*
X57977500Y-91562742D02*
X57977500Y-92037258D01*
X66022500Y-91562742D02*
X66022500Y-92037258D01*
X64977500Y-91562742D02*
X64977500Y-92037258D01*
X73022500Y-91562742D02*
X73022500Y-92037258D01*
X71977500Y-91562742D02*
X71977500Y-92037258D01*
X80022500Y-91575242D02*
X80022500Y-92049758D01*
X78977500Y-91575242D02*
X78977500Y-92049758D01*
X87022500Y-91562742D02*
X87022500Y-92037258D01*
X85977500Y-91562742D02*
X85977500Y-92037258D01*
X94022500Y-91562742D02*
X94022500Y-92037258D01*
X92977500Y-91562742D02*
X92977500Y-92037258D01*
X104522500Y-91562742D02*
X104522500Y-92037258D01*
X103477500Y-91562742D02*
X103477500Y-92037258D01*
X111522500Y-91562742D02*
X111522500Y-92037258D01*
X110477500Y-91562742D02*
X110477500Y-92037258D01*
X118522500Y-91562742D02*
X118522500Y-92037258D01*
X117477500Y-91562742D02*
X117477500Y-92037258D01*
X125522500Y-91562742D02*
X125522500Y-92037258D01*
X124477500Y-91562742D02*
X124477500Y-92037258D01*
X132522500Y-91562742D02*
X132522500Y-92037258D01*
X131477500Y-91562742D02*
X131477500Y-92037258D01*
X139522500Y-91550242D02*
X139522500Y-92024758D01*
X138477500Y-91550242D02*
X138477500Y-92024758D01*
X146522500Y-91550242D02*
X146522500Y-92024758D01*
X145477500Y-91550242D02*
X145477500Y-92024758D01*
X102822500Y-91562742D02*
X102822500Y-92037258D01*
X101777500Y-91562742D02*
X101777500Y-92037258D01*
X109722500Y-91562742D02*
X109722500Y-92037258D01*
X108677500Y-91562742D02*
X108677500Y-92037258D01*
X116722500Y-91650242D02*
X116722500Y-92124758D01*
X115677500Y-91650242D02*
X115677500Y-92124758D01*
X123822500Y-91562742D02*
X123822500Y-92037258D01*
X122777500Y-91562742D02*
X122777500Y-92037258D01*
X130722500Y-91562742D02*
X130722500Y-92037258D01*
X129677500Y-91562742D02*
X129677500Y-92037258D01*
X137722500Y-91575242D02*
X137722500Y-92049758D01*
X136677500Y-91575242D02*
X136677500Y-92049758D01*
X144722500Y-91562742D02*
X144722500Y-92037258D01*
X143677500Y-91562742D02*
X143677500Y-92037258D01*
X101122500Y-91550242D02*
X101122500Y-92024758D01*
X100077500Y-91550242D02*
X100077500Y-92024758D01*
X108022500Y-91550242D02*
X108022500Y-92024758D01*
X106977500Y-91550242D02*
X106977500Y-92024758D01*
X115022500Y-91562742D02*
X115022500Y-92037258D01*
X113977500Y-91562742D02*
X113977500Y-92037258D01*
X122022500Y-91562742D02*
X122022500Y-92037258D01*
X120977500Y-91562742D02*
X120977500Y-92037258D01*
X129022500Y-91562742D02*
X129022500Y-92037258D01*
X127977500Y-91562742D02*
X127977500Y-92037258D01*
X136022500Y-91562742D02*
X136022500Y-92037258D01*
X134977500Y-91562742D02*
X134977500Y-92037258D01*
X143022500Y-91562742D02*
X143022500Y-92037258D01*
X141977500Y-91562742D02*
X141977500Y-92037258D01*
X153422500Y-91562742D02*
X153422500Y-92037258D01*
X152377500Y-91562742D02*
X152377500Y-92037258D01*
X160522500Y-91562742D02*
X160522500Y-92037258D01*
X159477500Y-91562742D02*
X159477500Y-92037258D01*
X167522500Y-91562742D02*
X167522500Y-92037258D01*
X166477500Y-91562742D02*
X166477500Y-92037258D01*
X174522500Y-91575242D02*
X174522500Y-92049758D01*
X173477500Y-91575242D02*
X173477500Y-92049758D01*
X181522500Y-91575242D02*
X181522500Y-92049758D01*
X180477500Y-91575242D02*
X180477500Y-92049758D01*
X188522500Y-91550242D02*
X188522500Y-92024758D01*
X187477500Y-91550242D02*
X187477500Y-92024758D01*
X195522500Y-91562742D02*
X195522500Y-92037258D01*
X194477500Y-91562742D02*
X194477500Y-92037258D01*
X151722500Y-91575242D02*
X151722500Y-92049758D01*
X150677500Y-91575242D02*
X150677500Y-92049758D01*
X158722500Y-91562742D02*
X158722500Y-92037258D01*
X157677500Y-91562742D02*
X157677500Y-92037258D01*
X165722500Y-91562742D02*
X165722500Y-92037258D01*
X164677500Y-91562742D02*
X164677500Y-92037258D01*
X172722500Y-91562742D02*
X172722500Y-92037258D01*
X171677500Y-91562742D02*
X171677500Y-92037258D01*
X179722500Y-91562742D02*
X179722500Y-92037258D01*
X178677500Y-91562742D02*
X178677500Y-92037258D01*
X186722500Y-91562742D02*
X186722500Y-92037258D01*
X185677500Y-91562742D02*
X185677500Y-92037258D01*
X193822500Y-91575242D02*
X193822500Y-92049758D01*
X192777500Y-91575242D02*
X192777500Y-92049758D01*
X150022500Y-91562742D02*
X150022500Y-92037258D01*
X148977500Y-91562742D02*
X148977500Y-92037258D01*
X157022500Y-91562742D02*
X157022500Y-92037258D01*
X155977500Y-91562742D02*
X155977500Y-92037258D01*
X164022500Y-91550242D02*
X164022500Y-92024758D01*
X162977500Y-91550242D02*
X162977500Y-92024758D01*
X171022500Y-91562742D02*
X171022500Y-92037258D01*
X169977500Y-91562742D02*
X169977500Y-92037258D01*
X178022500Y-91562742D02*
X178022500Y-92037258D01*
X176977500Y-91562742D02*
X176977500Y-92037258D01*
X185022500Y-91562742D02*
X185022500Y-92037258D01*
X183977500Y-91562742D02*
X183977500Y-92037258D01*
X192022500Y-91562742D02*
X192022500Y-92037258D01*
X190977500Y-91562742D02*
X190977500Y-92037258D01*
X246322936Y-109515000D02*
X246777064Y-109515000D01*
X246322936Y-110985000D02*
X246777064Y-110985000D01*
X218672936Y-109515000D02*
X219127064Y-109515000D01*
X218672936Y-110985000D02*
X219127064Y-110985000D01*
X243515000Y-87427064D02*
X243515000Y-86972936D01*
X244985000Y-87427064D02*
X244985000Y-86972936D01*
X247685000Y-86972936D02*
X247685000Y-87427064D01*
X246215000Y-86972936D02*
X246215000Y-87427064D01*
X259322936Y-96765000D02*
X259777064Y-96765000D01*
X259322936Y-98235000D02*
X259777064Y-98235000D01*
X249215000Y-87427064D02*
X249215000Y-86972936D01*
X250685000Y-87427064D02*
X250685000Y-86972936D01*
X224977064Y-89735000D02*
X224522936Y-89735000D01*
X224977064Y-88265000D02*
X224522936Y-88265000D01*
X262922936Y-111165000D02*
X263377064Y-111165000D01*
X262922936Y-112635000D02*
X263377064Y-112635000D01*
X263377064Y-109785000D02*
X262922936Y-109785000D01*
X263377064Y-108315000D02*
X262922936Y-108315000D01*
X236577064Y-82785000D02*
X236122936Y-82785000D01*
X236577064Y-81315000D02*
X236122936Y-81315000D01*
X236122936Y-84165000D02*
X236577064Y-84165000D01*
X236122936Y-85635000D02*
X236577064Y-85635000D01*
X246450000Y-82150000D02*
X245400000Y-82150000D01*
X245400000Y-82150000D02*
X245400000Y-80300000D01*
X248450000Y-82150000D02*
X247450000Y-82150000D01*
X248460000Y-82130000D02*
X248460000Y-79700000D01*
X251400000Y-80260000D02*
X252450000Y-80260000D01*
X252450000Y-80260000D02*
X252450000Y-82110000D01*
X249400000Y-80260000D02*
X250400000Y-80260000D01*
X249390000Y-80280000D02*
X249390000Y-82710000D01*
X269790000Y-92000000D02*
X260670000Y-92000000D01*
X260670000Y-92000000D02*
X260670000Y-76500000D01*
X260670000Y-76500000D02*
X269790000Y-76500000D01*
X269790000Y-76500000D02*
X269790000Y-92000000D01*
X269790000Y-86300000D02*
X268480000Y-86300000D01*
X268480000Y-86300000D02*
X268480000Y-90700000D01*
X268480000Y-90700000D02*
X261980000Y-90700000D01*
X261980000Y-90700000D02*
X261980000Y-77800000D01*
X261980000Y-77800000D02*
X268480000Y-77800000D01*
X268480000Y-77800000D02*
X268480000Y-82200000D01*
X268480000Y-82200000D02*
X268480000Y-82200000D01*
X268480000Y-82200000D02*
X269790000Y-82200000D01*
X270180000Y-86790000D02*
X271180000Y-87290000D01*
X271180000Y-87290000D02*
X271180000Y-86290000D01*
X271180000Y-86290000D02*
X270180000Y-86790000D01*
X239950000Y-78080000D02*
X239950000Y-75420000D01*
X232270000Y-78080000D02*
X239950000Y-78080000D01*
X232270000Y-75420000D02*
X239950000Y-75420000D01*
X232270000Y-78080000D02*
X232270000Y-75420000D01*
X231000000Y-78080000D02*
X229670000Y-78080000D01*
X229670000Y-78080000D02*
X229670000Y-76750000D01*
X268050000Y-111650000D02*
X268050000Y-111200000D01*
X269900000Y-111650000D02*
X268050000Y-111650000D01*
X272450000Y-103850000D02*
X272200000Y-103850000D01*
X272450000Y-111650000D02*
X272200000Y-111650000D01*
X269900000Y-103850000D02*
X268050000Y-103850000D01*
X268050000Y-103850000D02*
X268050000Y-104300000D01*
X267500000Y-109450000D02*
X267500000Y-109000000D01*
X267500000Y-109450000D02*
X267950000Y-109450000D01*
X241825000Y-81090000D02*
X238965000Y-81090000D01*
X238965000Y-81090000D02*
X238965000Y-83010000D01*
X238965000Y-83010000D02*
X241825000Y-83010000D01*
X241825000Y-83890000D02*
X238965000Y-83890000D01*
X238965000Y-83890000D02*
X238965000Y-85810000D01*
X238965000Y-85810000D02*
X241825000Y-85810000D01*
X241260000Y-96691233D02*
X241260000Y-96983767D01*
X240240000Y-96691233D02*
X240240000Y-96983767D01*
X240240000Y-100558768D02*
X240240000Y-100266234D01*
X241260000Y-100558768D02*
X241260000Y-100266234D01*
X241176247Y-91815000D02*
X241698751Y-91815000D01*
X241176247Y-93285000D02*
X241698751Y-93285000D01*
X227761252Y-93485000D02*
X227238748Y-93485000D01*
X227761252Y-92015000D02*
X227238748Y-92015000D01*
X227973752Y-103985000D02*
X227451248Y-103985000D01*
X227973752Y-102515000D02*
X227451248Y-102515000D01*
X239776247Y-102515000D02*
X240298751Y-102515000D01*
X239776247Y-103985000D02*
X240298751Y-103985000D01*
X225035000Y-84126248D02*
X225035000Y-84648752D01*
X223565000Y-84126248D02*
X223565000Y-84648752D01*
X212973752Y-87685000D02*
X212451248Y-87685000D01*
X212973752Y-86215000D02*
X212451248Y-86215000D01*
X232251248Y-88165000D02*
X232773752Y-88165000D01*
X232251248Y-89635000D02*
X232773752Y-89635000D01*
X213023752Y-84085000D02*
X212501248Y-84085000D01*
X213023752Y-82615000D02*
X212501248Y-82615000D01*
D12*
X244473809Y-99526190D02*
X244473809Y-100002380D01*
X244140476Y-99002380D02*
X244473809Y-99526190D01*
X244807142Y-99002380D01*
X245664285Y-100002380D02*
X245092857Y-100002380D01*
X245378571Y-100002380D02*
X245378571Y-99002380D01*
X245283333Y-99145238D01*
X245188095Y-99240476D01*
X245092857Y-99288095D01*
X233238095Y-103302380D02*
X233238095Y-104111904D01*
X233285714Y-104207142D01*
X233333333Y-104254761D01*
X233428571Y-104302380D01*
X233619047Y-104302380D01*
X233714285Y-104254761D01*
X233761904Y-104207142D01*
X233809523Y-104111904D01*
X233809523Y-103302380D01*
X234333333Y-104302380D02*
X234523809Y-104302380D01*
X234619047Y-104254761D01*
X234666666Y-104207142D01*
X234761904Y-104064285D01*
X234809523Y-103873809D01*
X234809523Y-103492857D01*
X234761904Y-103397619D01*
X234714285Y-103350000D01*
X234619047Y-103302380D01*
X234428571Y-103302380D01*
X234333333Y-103350000D01*
X234285714Y-103397619D01*
X234238095Y-103492857D01*
X234238095Y-103730952D01*
X234285714Y-103826190D01*
X234333333Y-103873809D01*
X234428571Y-103921428D01*
X234619047Y-103921428D01*
X234714285Y-103873809D01*
X234761904Y-103826190D01*
X234809523Y-103730952D01*
X225627380Y-84396904D02*
X226436904Y-84396904D01*
X226532142Y-84349285D01*
X226579761Y-84301666D01*
X226627380Y-84206428D01*
X226627380Y-84015952D01*
X226579761Y-83920714D01*
X226532142Y-83873095D01*
X226436904Y-83825476D01*
X225627380Y-83825476D01*
X225722619Y-83396904D02*
X225675000Y-83349285D01*
X225627380Y-83254047D01*
X225627380Y-83015952D01*
X225675000Y-82920714D01*
X225722619Y-82873095D01*
X225817857Y-82825476D01*
X225913095Y-82825476D01*
X226055952Y-82873095D01*
X226627380Y-83444523D01*
X226627380Y-82825476D01*
X218838095Y-86202380D02*
X218838095Y-87011904D01*
X218885714Y-87107142D01*
X218933333Y-87154761D01*
X219028571Y-87202380D01*
X219219047Y-87202380D01*
X219314285Y-87154761D01*
X219361904Y-87107142D01*
X219409523Y-87011904D01*
X219409523Y-86202380D01*
X220409523Y-87202380D02*
X219838095Y-87202380D01*
X220123809Y-87202380D02*
X220123809Y-86202380D01*
X220028571Y-86345238D01*
X219933333Y-86440476D01*
X219838095Y-86488095D01*
X245907142Y-109052380D02*
X245573809Y-108576190D01*
X245335714Y-109052380D02*
X245335714Y-108052380D01*
X245716666Y-108052380D01*
X245811904Y-108100000D01*
X245859523Y-108147619D01*
X245907142Y-108242857D01*
X245907142Y-108385714D01*
X245859523Y-108480952D01*
X245811904Y-108528571D01*
X245716666Y-108576190D01*
X245335714Y-108576190D01*
X246859523Y-109052380D02*
X246288095Y-109052380D01*
X246573809Y-109052380D02*
X246573809Y-108052380D01*
X246478571Y-108195238D01*
X246383333Y-108290476D01*
X246288095Y-108338095D01*
X247811904Y-109052380D02*
X247240476Y-109052380D01*
X247526190Y-109052380D02*
X247526190Y-108052380D01*
X247430952Y-108195238D01*
X247335714Y-108290476D01*
X247240476Y-108338095D01*
X218257142Y-109052380D02*
X217923809Y-108576190D01*
X217685714Y-109052380D02*
X217685714Y-108052380D01*
X218066666Y-108052380D01*
X218161904Y-108100000D01*
X218209523Y-108147619D01*
X218257142Y-108242857D01*
X218257142Y-108385714D01*
X218209523Y-108480952D01*
X218161904Y-108528571D01*
X218066666Y-108576190D01*
X217685714Y-108576190D01*
X219209523Y-109052380D02*
X218638095Y-109052380D01*
X218923809Y-109052380D02*
X218923809Y-108052380D01*
X218828571Y-108195238D01*
X218733333Y-108290476D01*
X218638095Y-108338095D01*
X219828571Y-108052380D02*
X219923809Y-108052380D01*
X220019047Y-108100000D01*
X220066666Y-108147619D01*
X220114285Y-108242857D01*
X220161904Y-108433333D01*
X220161904Y-108671428D01*
X220114285Y-108861904D01*
X220066666Y-108957142D01*
X220019047Y-109004761D01*
X219923809Y-109052380D01*
X219828571Y-109052380D01*
X219733333Y-109004761D01*
X219685714Y-108957142D01*
X219638095Y-108861904D01*
X219590476Y-108671428D01*
X219590476Y-108433333D01*
X219638095Y-108242857D01*
X219685714Y-108147619D01*
X219733333Y-108100000D01*
X219828571Y-108052380D01*
X244083333Y-90252380D02*
X243750000Y-89776190D01*
X243511904Y-90252380D02*
X243511904Y-89252380D01*
X243892857Y-89252380D01*
X243988095Y-89300000D01*
X244035714Y-89347619D01*
X244083333Y-89442857D01*
X244083333Y-89585714D01*
X244035714Y-89680952D01*
X243988095Y-89728571D01*
X243892857Y-89776190D01*
X243511904Y-89776190D01*
X244559523Y-90252380D02*
X244750000Y-90252380D01*
X244845238Y-90204761D01*
X244892857Y-90157142D01*
X244988095Y-90014285D01*
X245035714Y-89823809D01*
X245035714Y-89442857D01*
X244988095Y-89347619D01*
X244940476Y-89300000D01*
X244845238Y-89252380D01*
X244654761Y-89252380D01*
X244559523Y-89300000D01*
X244511904Y-89347619D01*
X244464285Y-89442857D01*
X244464285Y-89680952D01*
X244511904Y-89776190D01*
X244559523Y-89823809D01*
X244654761Y-89871428D01*
X244845238Y-89871428D01*
X244940476Y-89823809D01*
X244988095Y-89776190D01*
X245035714Y-89680952D01*
X246783333Y-90252380D02*
X246450000Y-89776190D01*
X246211904Y-90252380D02*
X246211904Y-89252380D01*
X246592857Y-89252380D01*
X246688095Y-89300000D01*
X246735714Y-89347619D01*
X246783333Y-89442857D01*
X246783333Y-89585714D01*
X246735714Y-89680952D01*
X246688095Y-89728571D01*
X246592857Y-89776190D01*
X246211904Y-89776190D01*
X247354761Y-89680952D02*
X247259523Y-89633333D01*
X247211904Y-89585714D01*
X247164285Y-89490476D01*
X247164285Y-89442857D01*
X247211904Y-89347619D01*
X247259523Y-89300000D01*
X247354761Y-89252380D01*
X247545238Y-89252380D01*
X247640476Y-89300000D01*
X247688095Y-89347619D01*
X247735714Y-89442857D01*
X247735714Y-89490476D01*
X247688095Y-89585714D01*
X247640476Y-89633333D01*
X247545238Y-89680952D01*
X247354761Y-89680952D01*
X247259523Y-89728571D01*
X247211904Y-89776190D01*
X247164285Y-89871428D01*
X247164285Y-90061904D01*
X247211904Y-90157142D01*
X247259523Y-90204761D01*
X247354761Y-90252380D01*
X247545238Y-90252380D01*
X247640476Y-90204761D01*
X247688095Y-90157142D01*
X247735714Y-90061904D01*
X247735714Y-89871428D01*
X247688095Y-89776190D01*
X247640476Y-89728571D01*
X247545238Y-89680952D01*
X259383333Y-96302380D02*
X259050000Y-95826190D01*
X258811904Y-96302380D02*
X258811904Y-95302380D01*
X259192857Y-95302380D01*
X259288095Y-95350000D01*
X259335714Y-95397619D01*
X259383333Y-95492857D01*
X259383333Y-95635714D01*
X259335714Y-95730952D01*
X259288095Y-95778571D01*
X259192857Y-95826190D01*
X258811904Y-95826190D01*
X259716666Y-95302380D02*
X260383333Y-95302380D01*
X259954761Y-96302380D01*
X249783333Y-90252380D02*
X249450000Y-89776190D01*
X249211904Y-90252380D02*
X249211904Y-89252380D01*
X249592857Y-89252380D01*
X249688095Y-89300000D01*
X249735714Y-89347619D01*
X249783333Y-89442857D01*
X249783333Y-89585714D01*
X249735714Y-89680952D01*
X249688095Y-89728571D01*
X249592857Y-89776190D01*
X249211904Y-89776190D01*
X250640476Y-89252380D02*
X250450000Y-89252380D01*
X250354761Y-89300000D01*
X250307142Y-89347619D01*
X250211904Y-89490476D01*
X250164285Y-89680952D01*
X250164285Y-90061904D01*
X250211904Y-90157142D01*
X250259523Y-90204761D01*
X250354761Y-90252380D01*
X250545238Y-90252380D01*
X250640476Y-90204761D01*
X250688095Y-90157142D01*
X250735714Y-90061904D01*
X250735714Y-89823809D01*
X250688095Y-89728571D01*
X250640476Y-89680952D01*
X250545238Y-89633333D01*
X250354761Y-89633333D01*
X250259523Y-89680952D01*
X250211904Y-89728571D01*
X250164285Y-89823809D01*
X224583333Y-87802380D02*
X224250000Y-87326190D01*
X224011904Y-87802380D02*
X224011904Y-86802380D01*
X224392857Y-86802380D01*
X224488095Y-86850000D01*
X224535714Y-86897619D01*
X224583333Y-86992857D01*
X224583333Y-87135714D01*
X224535714Y-87230952D01*
X224488095Y-87278571D01*
X224392857Y-87326190D01*
X224011904Y-87326190D01*
X225488095Y-86802380D02*
X225011904Y-86802380D01*
X224964285Y-87278571D01*
X225011904Y-87230952D01*
X225107142Y-87183333D01*
X225345238Y-87183333D01*
X225440476Y-87230952D01*
X225488095Y-87278571D01*
X225535714Y-87373809D01*
X225535714Y-87611904D01*
X225488095Y-87707142D01*
X225440476Y-87754761D01*
X225345238Y-87802380D01*
X225107142Y-87802380D01*
X225011904Y-87754761D01*
X224964285Y-87707142D01*
X259983333Y-112352380D02*
X259650000Y-111876190D01*
X259411904Y-112352380D02*
X259411904Y-111352380D01*
X259792857Y-111352380D01*
X259888095Y-111400000D01*
X259935714Y-111447619D01*
X259983333Y-111542857D01*
X259983333Y-111685714D01*
X259935714Y-111780952D01*
X259888095Y-111828571D01*
X259792857Y-111876190D01*
X259411904Y-111876190D01*
X260840476Y-111685714D02*
X260840476Y-112352380D01*
X260602380Y-111304761D02*
X260364285Y-112019047D01*
X260983333Y-112019047D01*
X259933333Y-109502380D02*
X259600000Y-109026190D01*
X259361904Y-109502380D02*
X259361904Y-108502380D01*
X259742857Y-108502380D01*
X259838095Y-108550000D01*
X259885714Y-108597619D01*
X259933333Y-108692857D01*
X259933333Y-108835714D01*
X259885714Y-108930952D01*
X259838095Y-108978571D01*
X259742857Y-109026190D01*
X259361904Y-109026190D01*
X260266666Y-108502380D02*
X260885714Y-108502380D01*
X260552380Y-108883333D01*
X260695238Y-108883333D01*
X260790476Y-108930952D01*
X260838095Y-108978571D01*
X260885714Y-109073809D01*
X260885714Y-109311904D01*
X260838095Y-109407142D01*
X260790476Y-109454761D01*
X260695238Y-109502380D01*
X260409523Y-109502380D01*
X260314285Y-109454761D01*
X260266666Y-109407142D01*
X236183333Y-80902380D02*
X235850000Y-80426190D01*
X235611904Y-80902380D02*
X235611904Y-79902380D01*
X235992857Y-79902380D01*
X236088095Y-79950000D01*
X236135714Y-79997619D01*
X236183333Y-80092857D01*
X236183333Y-80235714D01*
X236135714Y-80330952D01*
X236088095Y-80378571D01*
X235992857Y-80426190D01*
X235611904Y-80426190D01*
X236564285Y-79997619D02*
X236611904Y-79950000D01*
X236707142Y-79902380D01*
X236945238Y-79902380D01*
X237040476Y-79950000D01*
X237088095Y-79997619D01*
X237135714Y-80092857D01*
X237135714Y-80188095D01*
X237088095Y-80330952D01*
X236516666Y-80902380D01*
X237135714Y-80902380D01*
X236183333Y-87002380D02*
X235850000Y-86526190D01*
X235611904Y-87002380D02*
X235611904Y-86002380D01*
X235992857Y-86002380D01*
X236088095Y-86050000D01*
X236135714Y-86097619D01*
X236183333Y-86192857D01*
X236183333Y-86335714D01*
X236135714Y-86430952D01*
X236088095Y-86478571D01*
X235992857Y-86526190D01*
X235611904Y-86526190D01*
X237135714Y-87002380D02*
X236564285Y-87002380D01*
X236850000Y-87002380D02*
X236850000Y-86002380D01*
X236754761Y-86145238D01*
X236659523Y-86240476D01*
X236564285Y-86288095D01*
X246854761Y-78047619D02*
X246759523Y-78000000D01*
X246664285Y-77904761D01*
X246521428Y-77761904D01*
X246426190Y-77714285D01*
X246330952Y-77714285D01*
X246378571Y-77952380D02*
X246283333Y-77904761D01*
X246188095Y-77809523D01*
X246140476Y-77619047D01*
X246140476Y-77285714D01*
X246188095Y-77095238D01*
X246283333Y-77000000D01*
X246378571Y-76952380D01*
X246569047Y-76952380D01*
X246664285Y-77000000D01*
X246759523Y-77095238D01*
X246807142Y-77285714D01*
X246807142Y-77619047D01*
X246759523Y-77809523D01*
X246664285Y-77904761D01*
X246569047Y-77952380D01*
X246378571Y-77952380D01*
X247140476Y-76952380D02*
X247759523Y-76952380D01*
X247426190Y-77333333D01*
X247569047Y-77333333D01*
X247664285Y-77380952D01*
X247711904Y-77428571D01*
X247759523Y-77523809D01*
X247759523Y-77761904D01*
X247711904Y-77857142D01*
X247664285Y-77904761D01*
X247569047Y-77952380D01*
X247283333Y-77952380D01*
X247188095Y-77904761D01*
X247140476Y-77857142D01*
X250804761Y-77997619D02*
X250709523Y-77950000D01*
X250614285Y-77854761D01*
X250471428Y-77711904D01*
X250376190Y-77664285D01*
X250280952Y-77664285D01*
X250328571Y-77902380D02*
X250233333Y-77854761D01*
X250138095Y-77759523D01*
X250090476Y-77569047D01*
X250090476Y-77235714D01*
X250138095Y-77045238D01*
X250233333Y-76950000D01*
X250328571Y-76902380D01*
X250519047Y-76902380D01*
X250614285Y-76950000D01*
X250709523Y-77045238D01*
X250757142Y-77235714D01*
X250757142Y-77569047D01*
X250709523Y-77759523D01*
X250614285Y-77854761D01*
X250519047Y-77902380D01*
X250328571Y-77902380D01*
X251138095Y-76997619D02*
X251185714Y-76950000D01*
X251280952Y-76902380D01*
X251519047Y-76902380D01*
X251614285Y-76950000D01*
X251661904Y-76997619D01*
X251709523Y-77092857D01*
X251709523Y-77188095D01*
X251661904Y-77330952D01*
X251090476Y-77902380D01*
X251709523Y-77902380D01*
X240086904Y-80852380D02*
X240086904Y-79852380D01*
X240325000Y-79852380D01*
X240467857Y-79900000D01*
X240563095Y-79995238D01*
X240610714Y-80090476D01*
X240658333Y-80280952D01*
X240658333Y-80423809D01*
X240610714Y-80614285D01*
X240563095Y-80709523D01*
X240467857Y-80804761D01*
X240325000Y-80852380D01*
X240086904Y-80852380D01*
X241039285Y-79947619D02*
X241086904Y-79900000D01*
X241182142Y-79852380D01*
X241420238Y-79852380D01*
X241515476Y-79900000D01*
X241563095Y-79947619D01*
X241610714Y-80042857D01*
X241610714Y-80138095D01*
X241563095Y-80280952D01*
X240991666Y-80852380D01*
X241610714Y-80852380D01*
X240086904Y-87002380D02*
X240086904Y-86002380D01*
X240325000Y-86002380D01*
X240467857Y-86050000D01*
X240563095Y-86145238D01*
X240610714Y-86240476D01*
X240658333Y-86430952D01*
X240658333Y-86573809D01*
X240610714Y-86764285D01*
X240563095Y-86859523D01*
X240467857Y-86954761D01*
X240325000Y-87002380D01*
X240086904Y-87002380D01*
X241610714Y-87002380D02*
X241039285Y-87002380D01*
X241325000Y-87002380D02*
X241325000Y-86002380D01*
X241229761Y-86145238D01*
X241134523Y-86240476D01*
X241039285Y-86288095D01*
X242407142Y-96407142D02*
X242359523Y-96454761D01*
X242216666Y-96502380D01*
X242121428Y-96502380D01*
X241978571Y-96454761D01*
X241883333Y-96359523D01*
X241835714Y-96264285D01*
X241788095Y-96073809D01*
X241788095Y-95930952D01*
X241835714Y-95740476D01*
X241883333Y-95645238D01*
X241978571Y-95550000D01*
X242121428Y-95502380D01*
X242216666Y-95502380D01*
X242359523Y-95550000D01*
X242407142Y-95597619D01*
X243359523Y-96502380D02*
X242788095Y-96502380D01*
X243073809Y-96502380D02*
X243073809Y-95502380D01*
X242978571Y-95645238D01*
X242883333Y-95740476D01*
X242788095Y-95788095D01*
X243930952Y-95930952D02*
X243835714Y-95883333D01*
X243788095Y-95835714D01*
X243740476Y-95740476D01*
X243740476Y-95692857D01*
X243788095Y-95597619D01*
X243835714Y-95550000D01*
X243930952Y-95502380D01*
X244121428Y-95502380D01*
X244216666Y-95550000D01*
X244264285Y-95597619D01*
X244311904Y-95692857D01*
X244311904Y-95740476D01*
X244264285Y-95835714D01*
X244216666Y-95883333D01*
X244121428Y-95930952D01*
X243930952Y-95930952D01*
X243835714Y-95978571D01*
X243788095Y-96026190D01*
X243740476Y-96121428D01*
X243740476Y-96311904D01*
X243788095Y-96407142D01*
X243835714Y-96454761D01*
X243930952Y-96502380D01*
X244121428Y-96502380D01*
X244216666Y-96454761D01*
X244264285Y-96407142D01*
X244311904Y-96311904D01*
X244311904Y-96121428D01*
X244264285Y-96026190D01*
X244216666Y-95978571D01*
X244121428Y-95930952D01*
X242857142Y-102657142D02*
X242809523Y-102704761D01*
X242666666Y-102752380D01*
X242571428Y-102752380D01*
X242428571Y-102704761D01*
X242333333Y-102609523D01*
X242285714Y-102514285D01*
X242238095Y-102323809D01*
X242238095Y-102180952D01*
X242285714Y-101990476D01*
X242333333Y-101895238D01*
X242428571Y-101800000D01*
X242571428Y-101752380D01*
X242666666Y-101752380D01*
X242809523Y-101800000D01*
X242857142Y-101847619D01*
X243809523Y-102752380D02*
X243238095Y-102752380D01*
X243523809Y-102752380D02*
X243523809Y-101752380D01*
X243428571Y-101895238D01*
X243333333Y-101990476D01*
X243238095Y-102038095D01*
X244142857Y-101752380D02*
X244809523Y-101752380D01*
X244380952Y-102752380D01*
X240794641Y-94657142D02*
X240747022Y-94704761D01*
X240604165Y-94752380D01*
X240508927Y-94752380D01*
X240366070Y-94704761D01*
X240270832Y-94609523D01*
X240223213Y-94514285D01*
X240175594Y-94323809D01*
X240175594Y-94180952D01*
X240223213Y-93990476D01*
X240270832Y-93895238D01*
X240366070Y-93800000D01*
X240508927Y-93752380D01*
X240604165Y-93752380D01*
X240747022Y-93800000D01*
X240794641Y-93847619D01*
X241747022Y-94752380D02*
X241175594Y-94752380D01*
X241461308Y-94752380D02*
X241461308Y-93752380D01*
X241366070Y-93895238D01*
X241270832Y-93990476D01*
X241175594Y-94038095D01*
X242651784Y-93752380D02*
X242175594Y-93752380D01*
X242127975Y-94228571D01*
X242175594Y-94180952D01*
X242270832Y-94133333D01*
X242508927Y-94133333D01*
X242604165Y-94180952D01*
X242651784Y-94228571D01*
X242699403Y-94323809D01*
X242699403Y-94561904D01*
X242651784Y-94657142D01*
X242604165Y-94704761D01*
X242508927Y-94752380D01*
X242270832Y-94752380D01*
X242175594Y-94704761D01*
X242127975Y-94657142D01*
X226857142Y-94787142D02*
X226809523Y-94834761D01*
X226666666Y-94882380D01*
X226571428Y-94882380D01*
X226428571Y-94834761D01*
X226333333Y-94739523D01*
X226285714Y-94644285D01*
X226238095Y-94453809D01*
X226238095Y-94310952D01*
X226285714Y-94120476D01*
X226333333Y-94025238D01*
X226428571Y-93930000D01*
X226571428Y-93882380D01*
X226666666Y-93882380D01*
X226809523Y-93930000D01*
X226857142Y-93977619D01*
X227809523Y-94882380D02*
X227238095Y-94882380D01*
X227523809Y-94882380D02*
X227523809Y-93882380D01*
X227428571Y-94025238D01*
X227333333Y-94120476D01*
X227238095Y-94168095D01*
X228190476Y-93977619D02*
X228238095Y-93930000D01*
X228333333Y-93882380D01*
X228571428Y-93882380D01*
X228666666Y-93930000D01*
X228714285Y-93977619D01*
X228761904Y-94072857D01*
X228761904Y-94168095D01*
X228714285Y-94310952D01*
X228142857Y-94882380D01*
X228761904Y-94882380D01*
X227069642Y-105287142D02*
X227022023Y-105334761D01*
X226879166Y-105382380D01*
X226783928Y-105382380D01*
X226641071Y-105334761D01*
X226545833Y-105239523D01*
X226498214Y-105144285D01*
X226450595Y-104953809D01*
X226450595Y-104810952D01*
X226498214Y-104620476D01*
X226545833Y-104525238D01*
X226641071Y-104430000D01*
X226783928Y-104382380D01*
X226879166Y-104382380D01*
X227022023Y-104430000D01*
X227069642Y-104477619D01*
X228022023Y-105382380D02*
X227450595Y-105382380D01*
X227736309Y-105382380D02*
X227736309Y-104382380D01*
X227641071Y-104525238D01*
X227545833Y-104620476D01*
X227450595Y-104668095D01*
X228641071Y-104382380D02*
X228736309Y-104382380D01*
X228831547Y-104430000D01*
X228879166Y-104477619D01*
X228926785Y-104572857D01*
X228974404Y-104763333D01*
X228974404Y-105001428D01*
X228926785Y-105191904D01*
X228879166Y-105287142D01*
X228831547Y-105334761D01*
X228736309Y-105382380D01*
X228641071Y-105382380D01*
X228545833Y-105334761D01*
X228498214Y-105287142D01*
X228450595Y-105191904D01*
X228402976Y-105001428D01*
X228402976Y-104763333D01*
X228450595Y-104572857D01*
X228498214Y-104477619D01*
X228545833Y-104430000D01*
X228641071Y-104382380D01*
X239870832Y-105357142D02*
X239823213Y-105404761D01*
X239680356Y-105452380D01*
X239585118Y-105452380D01*
X239442260Y-105404761D01*
X239347022Y-105309523D01*
X239299403Y-105214285D01*
X239251784Y-105023809D01*
X239251784Y-104880952D01*
X239299403Y-104690476D01*
X239347022Y-104595238D01*
X239442260Y-104500000D01*
X239585118Y-104452380D01*
X239680356Y-104452380D01*
X239823213Y-104500000D01*
X239870832Y-104547619D01*
X240442260Y-104880952D02*
X240347022Y-104833333D01*
X240299403Y-104785714D01*
X240251784Y-104690476D01*
X240251784Y-104642857D01*
X240299403Y-104547619D01*
X240347022Y-104500000D01*
X240442260Y-104452380D01*
X240632737Y-104452380D01*
X240727975Y-104500000D01*
X240775594Y-104547619D01*
X240823213Y-104642857D01*
X240823213Y-104690476D01*
X240775594Y-104785714D01*
X240727975Y-104833333D01*
X240632737Y-104880952D01*
X240442260Y-104880952D01*
X240347022Y-104928571D01*
X240299403Y-104976190D01*
X240251784Y-105071428D01*
X240251784Y-105261904D01*
X240299403Y-105357142D01*
X240347022Y-105404761D01*
X240442260Y-105452380D01*
X240632737Y-105452380D01*
X240727975Y-105404761D01*
X240775594Y-105357142D01*
X240823213Y-105261904D01*
X240823213Y-105071428D01*
X240775594Y-104976190D01*
X240727975Y-104928571D01*
X240632737Y-104880952D01*
X224083333Y-82307142D02*
X224035714Y-82354761D01*
X223892857Y-82402380D01*
X223797619Y-82402380D01*
X223654761Y-82354761D01*
X223559523Y-82259523D01*
X223511904Y-82164285D01*
X223464285Y-81973809D01*
X223464285Y-81830952D01*
X223511904Y-81640476D01*
X223559523Y-81545238D01*
X223654761Y-81450000D01*
X223797619Y-81402380D01*
X223892857Y-81402380D01*
X224035714Y-81450000D01*
X224083333Y-81497619D01*
X224940476Y-81735714D02*
X224940476Y-82402380D01*
X224702380Y-81354761D02*
X224464285Y-82069047D01*
X225083333Y-82069047D01*
X212533333Y-85557142D02*
X212485714Y-85604761D01*
X212342857Y-85652380D01*
X212247619Y-85652380D01*
X212104761Y-85604761D01*
X212009523Y-85509523D01*
X211961904Y-85414285D01*
X211914285Y-85223809D01*
X211914285Y-85080952D01*
X211961904Y-84890476D01*
X212009523Y-84795238D01*
X212104761Y-84700000D01*
X212247619Y-84652380D01*
X212342857Y-84652380D01*
X212485714Y-84700000D01*
X212533333Y-84747619D01*
X212866666Y-84652380D02*
X213485714Y-84652380D01*
X213152380Y-85033333D01*
X213295238Y-85033333D01*
X213390476Y-85080952D01*
X213438095Y-85128571D01*
X213485714Y-85223809D01*
X213485714Y-85461904D01*
X213438095Y-85557142D01*
X213390476Y-85604761D01*
X213295238Y-85652380D01*
X213009523Y-85652380D01*
X212914285Y-85604761D01*
X212866666Y-85557142D01*
X232333333Y-91007142D02*
X232285714Y-91054761D01*
X232142857Y-91102380D01*
X232047619Y-91102380D01*
X231904761Y-91054761D01*
X231809523Y-90959523D01*
X231761904Y-90864285D01*
X231714285Y-90673809D01*
X231714285Y-90530952D01*
X231761904Y-90340476D01*
X231809523Y-90245238D01*
X231904761Y-90150000D01*
X232047619Y-90102380D01*
X232142857Y-90102380D01*
X232285714Y-90150000D01*
X232333333Y-90197619D01*
X232714285Y-90197619D02*
X232761904Y-90150000D01*
X232857142Y-90102380D01*
X233095238Y-90102380D01*
X233190476Y-90150000D01*
X233238095Y-90197619D01*
X233285714Y-90292857D01*
X233285714Y-90388095D01*
X233238095Y-90530952D01*
X232666666Y-91102380D01*
X233285714Y-91102380D01*
X212595833Y-81957142D02*
X212548214Y-82004761D01*
X212405357Y-82052380D01*
X212310119Y-82052380D01*
X212167261Y-82004761D01*
X212072023Y-81909523D01*
X212024404Y-81814285D01*
X211976785Y-81623809D01*
X211976785Y-81480952D01*
X212024404Y-81290476D01*
X212072023Y-81195238D01*
X212167261Y-81100000D01*
X212310119Y-81052380D01*
X212405357Y-81052380D01*
X212548214Y-81100000D01*
X212595833Y-81147619D01*
X213548214Y-82052380D02*
X212976785Y-82052380D01*
X213262500Y-82052380D02*
X213262500Y-81052380D01*
X213167261Y-81195238D01*
X213072023Y-81290476D01*
X212976785Y-81338095D01*
%LPC*%
D13*
X54950000Y-99650000D03*
X53250000Y-99650000D03*
X51550000Y-99650000D03*
X51550000Y-94850000D03*
X53250000Y-94850000D03*
X54950000Y-94850000D03*
X61950000Y-99650000D03*
X60250000Y-99650000D03*
X58550000Y-99650000D03*
X58550000Y-94850000D03*
X60250000Y-94850000D03*
X61950000Y-94850000D03*
X68950000Y-99650000D03*
X67250000Y-99650000D03*
X65550000Y-99650000D03*
X65550000Y-94850000D03*
X67250000Y-94850000D03*
X68950000Y-94850000D03*
X75950000Y-99650000D03*
X74250000Y-99650000D03*
X72550000Y-99650000D03*
X72550000Y-94850000D03*
X74250000Y-94850000D03*
X75950000Y-94850000D03*
X82950000Y-99650000D03*
X81250000Y-99650000D03*
X79550000Y-99650000D03*
X79550000Y-94850000D03*
X81250000Y-94850000D03*
X82950000Y-94850000D03*
X89950000Y-99650000D03*
X88250000Y-99650000D03*
X86550000Y-99650000D03*
X86550000Y-94850000D03*
X88250000Y-94850000D03*
X89950000Y-94850000D03*
X96950000Y-99650000D03*
X95250000Y-99650000D03*
X93550000Y-99650000D03*
X93550000Y-94850000D03*
X95250000Y-94850000D03*
X96950000Y-94850000D03*
X103950000Y-99650000D03*
X102250000Y-99650000D03*
X100550000Y-99650000D03*
X100550000Y-94850000D03*
X102250000Y-94850000D03*
X103950000Y-94850000D03*
X110950000Y-99650000D03*
X109250000Y-99650000D03*
X107550000Y-99650000D03*
X107550000Y-94850000D03*
X109250000Y-94850000D03*
X110950000Y-94850000D03*
X117950000Y-99650000D03*
X116250000Y-99650000D03*
X114550000Y-99650000D03*
X114550000Y-94850000D03*
X116250000Y-94850000D03*
X117950000Y-94850000D03*
X124950000Y-99650000D03*
X123250000Y-99650000D03*
X121550000Y-99650000D03*
X121550000Y-94850000D03*
X123250000Y-94850000D03*
X124950000Y-94850000D03*
X131950000Y-99650000D03*
X130250000Y-99650000D03*
X128550000Y-99650000D03*
X128550000Y-94850000D03*
X130250000Y-94850000D03*
X131950000Y-94850000D03*
X138950000Y-99650000D03*
X137250000Y-99650000D03*
X135550000Y-99650000D03*
X135550000Y-94850000D03*
X137250000Y-94850000D03*
X138950000Y-94850000D03*
X145950000Y-99650000D03*
X144250000Y-99650000D03*
X142550000Y-99650000D03*
X142550000Y-94850000D03*
X144250000Y-94850000D03*
X145950000Y-94850000D03*
X152950000Y-99650000D03*
X151250000Y-99650000D03*
X149550000Y-99650000D03*
X149550000Y-94850000D03*
X151250000Y-94850000D03*
X152950000Y-94850000D03*
X159950000Y-99600000D03*
X158250000Y-99600000D03*
X156550000Y-99600000D03*
X156550000Y-94800000D03*
X158250000Y-94800000D03*
X159950000Y-94800000D03*
X166950000Y-99650000D03*
X165250000Y-99650000D03*
X163550000Y-99650000D03*
X163550000Y-94850000D03*
X165250000Y-94850000D03*
X166950000Y-94850000D03*
X173950000Y-99650000D03*
X172250000Y-99650000D03*
X170550000Y-99650000D03*
X170550000Y-94850000D03*
X172250000Y-94850000D03*
X173950000Y-94850000D03*
X180950000Y-99650000D03*
X179250000Y-99650000D03*
X177550000Y-99650000D03*
X177550000Y-94850000D03*
X179250000Y-94850000D03*
X180950000Y-94850000D03*
X187950000Y-99650000D03*
X186250000Y-99650000D03*
X184550000Y-99650000D03*
X184550000Y-94850000D03*
X186250000Y-94850000D03*
X187950000Y-94850000D03*
X194950000Y-99650000D03*
X193250000Y-99650000D03*
X191550000Y-99650000D03*
X191550000Y-94850000D03*
X193250000Y-94850000D03*
X194950000Y-94850000D03*
D14*
X267340000Y-97500000D03*
D15*
X264800000Y-97500000D03*
D16*
X243000000Y-100600000D03*
X243000000Y-98750000D03*
G36*
G01*
X236900000Y-101500000D02*
X236900000Y-102825000D01*
G75*
G02*
X236825000Y-102900000I-75000J0D01*
G01*
X236675000Y-102900000D01*
G75*
G02*
X236600000Y-102825000I0J75000D01*
G01*
X236600000Y-101500000D01*
G75*
G02*
X236675000Y-101425000I75000J0D01*
G01*
X236825000Y-101425000D01*
G75*
G02*
X236900000Y-101500000I0J-75000D01*
G01*
G37*
G36*
G01*
X236400000Y-101500000D02*
X236400000Y-102825000D01*
G75*
G02*
X236325000Y-102900000I-75000J0D01*
G01*
X236175000Y-102900000D01*
G75*
G02*
X236100000Y-102825000I0J75000D01*
G01*
X236100000Y-101500000D01*
G75*
G02*
X236175000Y-101425000I75000J0D01*
G01*
X236325000Y-101425000D01*
G75*
G02*
X236400000Y-101500000I0J-75000D01*
G01*
G37*
G36*
G01*
X235900000Y-101500000D02*
X235900000Y-102825000D01*
G75*
G02*
X235825000Y-102900000I-75000J0D01*
G01*
X235675000Y-102900000D01*
G75*
G02*
X235600000Y-102825000I0J75000D01*
G01*
X235600000Y-101500000D01*
G75*
G02*
X235675000Y-101425000I75000J0D01*
G01*
X235825000Y-101425000D01*
G75*
G02*
X235900000Y-101500000I0J-75000D01*
G01*
G37*
G36*
G01*
X235400000Y-101500000D02*
X235400000Y-102825000D01*
G75*
G02*
X235325000Y-102900000I-75000J0D01*
G01*
X235175000Y-102900000D01*
G75*
G02*
X235100000Y-102825000I0J75000D01*
G01*
X235100000Y-101500000D01*
G75*
G02*
X235175000Y-101425000I75000J0D01*
G01*
X235325000Y-101425000D01*
G75*
G02*
X235400000Y-101500000I0J-75000D01*
G01*
G37*
G36*
G01*
X234900000Y-101500000D02*
X234900000Y-102825000D01*
G75*
G02*
X234825000Y-102900000I-75000J0D01*
G01*
X234675000Y-102900000D01*
G75*
G02*
X234600000Y-102825000I0J75000D01*
G01*
X234600000Y-101500000D01*
G75*
G02*
X234675000Y-101425000I75000J0D01*
G01*
X234825000Y-101425000D01*
G75*
G02*
X234900000Y-101500000I0J-75000D01*
G01*
G37*
G36*
G01*
X234400000Y-101500000D02*
X234400000Y-102825000D01*
G75*
G02*
X234325000Y-102900000I-75000J0D01*
G01*
X234175000Y-102900000D01*
G75*
G02*
X234100000Y-102825000I0J75000D01*
G01*
X234100000Y-101500000D01*
G75*
G02*
X234175000Y-101425000I75000J0D01*
G01*
X234325000Y-101425000D01*
G75*
G02*
X234400000Y-101500000I0J-75000D01*
G01*
G37*
G36*
G01*
X233900000Y-101500000D02*
X233900000Y-102825000D01*
G75*
G02*
X233825000Y-102900000I-75000J0D01*
G01*
X233675000Y-102900000D01*
G75*
G02*
X233600000Y-102825000I0J75000D01*
G01*
X233600000Y-101500000D01*
G75*
G02*
X233675000Y-101425000I75000J0D01*
G01*
X233825000Y-101425000D01*
G75*
G02*
X233900000Y-101500000I0J-75000D01*
G01*
G37*
G36*
G01*
X233400000Y-101500000D02*
X233400000Y-102825000D01*
G75*
G02*
X233325000Y-102900000I-75000J0D01*
G01*
X233175000Y-102900000D01*
G75*
G02*
X233100000Y-102825000I0J75000D01*
G01*
X233100000Y-101500000D01*
G75*
G02*
X233175000Y-101425000I75000J0D01*
G01*
X233325000Y-101425000D01*
G75*
G02*
X233400000Y-101500000I0J-75000D01*
G01*
G37*
G36*
G01*
X232900000Y-101500000D02*
X232900000Y-102825000D01*
G75*
G02*
X232825000Y-102900000I-75000J0D01*
G01*
X232675000Y-102900000D01*
G75*
G02*
X232600000Y-102825000I0J75000D01*
G01*
X232600000Y-101500000D01*
G75*
G02*
X232675000Y-101425000I75000J0D01*
G01*
X232825000Y-101425000D01*
G75*
G02*
X232900000Y-101500000I0J-75000D01*
G01*
G37*
G36*
G01*
X232400000Y-101500000D02*
X232400000Y-102825000D01*
G75*
G02*
X232325000Y-102900000I-75000J0D01*
G01*
X232175000Y-102900000D01*
G75*
G02*
X232100000Y-102825000I0J75000D01*
G01*
X232100000Y-101500000D01*
G75*
G02*
X232175000Y-101425000I75000J0D01*
G01*
X232325000Y-101425000D01*
G75*
G02*
X232400000Y-101500000I0J-75000D01*
G01*
G37*
G36*
G01*
X231900000Y-101500000D02*
X231900000Y-102825000D01*
G75*
G02*
X231825000Y-102900000I-75000J0D01*
G01*
X231675000Y-102900000D01*
G75*
G02*
X231600000Y-102825000I0J75000D01*
G01*
X231600000Y-101500000D01*
G75*
G02*
X231675000Y-101425000I75000J0D01*
G01*
X231825000Y-101425000D01*
G75*
G02*
X231900000Y-101500000I0J-75000D01*
G01*
G37*
G36*
G01*
X231400000Y-101500000D02*
X231400000Y-102825000D01*
G75*
G02*
X231325000Y-102900000I-75000J0D01*
G01*
X231175000Y-102900000D01*
G75*
G02*
X231100000Y-102825000I0J75000D01*
G01*
X231100000Y-101500000D01*
G75*
G02*
X231175000Y-101425000I75000J0D01*
G01*
X231325000Y-101425000D01*
G75*
G02*
X231400000Y-101500000I0J-75000D01*
G01*
G37*
G36*
G01*
X230575000Y-100675000D02*
X230575000Y-100825000D01*
G75*
G02*
X230500000Y-100900000I-75000J0D01*
G01*
X229175000Y-100900000D01*
G75*
G02*
X229100000Y-100825000I0J75000D01*
G01*
X229100000Y-100675000D01*
G75*
G02*
X229175000Y-100600000I75000J0D01*
G01*
X230500000Y-100600000D01*
G75*
G02*
X230575000Y-100675000I0J-75000D01*
G01*
G37*
G36*
G01*
X230575000Y-100175000D02*
X230575000Y-100325000D01*
G75*
G02*
X230500000Y-100400000I-75000J0D01*
G01*
X229175000Y-100400000D01*
G75*
G02*
X229100000Y-100325000I0J75000D01*
G01*
X229100000Y-100175000D01*
G75*
G02*
X229175000Y-100100000I75000J0D01*
G01*
X230500000Y-100100000D01*
G75*
G02*
X230575000Y-100175000I0J-75000D01*
G01*
G37*
G36*
G01*
X230575000Y-99675000D02*
X230575000Y-99825000D01*
G75*
G02*
X230500000Y-99900000I-75000J0D01*
G01*
X229175000Y-99900000D01*
G75*
G02*
X229100000Y-99825000I0J75000D01*
G01*
X229100000Y-99675000D01*
G75*
G02*
X229175000Y-99600000I75000J0D01*
G01*
X230500000Y-99600000D01*
G75*
G02*
X230575000Y-99675000I0J-75000D01*
G01*
G37*
G36*
G01*
X230575000Y-99175000D02*
X230575000Y-99325000D01*
G75*
G02*
X230500000Y-99400000I-75000J0D01*
G01*
X229175000Y-99400000D01*
G75*
G02*
X229100000Y-99325000I0J75000D01*
G01*
X229100000Y-99175000D01*
G75*
G02*
X229175000Y-99100000I75000J0D01*
G01*
X230500000Y-99100000D01*
G75*
G02*
X230575000Y-99175000I0J-75000D01*
G01*
G37*
G36*
G01*
X230575000Y-98675000D02*
X230575000Y-98825000D01*
G75*
G02*
X230500000Y-98900000I-75000J0D01*
G01*
X229175000Y-98900000D01*
G75*
G02*
X229100000Y-98825000I0J75000D01*
G01*
X229100000Y-98675000D01*
G75*
G02*
X229175000Y-98600000I75000J0D01*
G01*
X230500000Y-98600000D01*
G75*
G02*
X230575000Y-98675000I0J-75000D01*
G01*
G37*
G36*
G01*
X230575000Y-98175000D02*
X230575000Y-98325000D01*
G75*
G02*
X230500000Y-98400000I-75000J0D01*
G01*
X229175000Y-98400000D01*
G75*
G02*
X229100000Y-98325000I0J75000D01*
G01*
X229100000Y-98175000D01*
G75*
G02*
X229175000Y-98100000I75000J0D01*
G01*
X230500000Y-98100000D01*
G75*
G02*
X230575000Y-98175000I0J-75000D01*
G01*
G37*
G36*
G01*
X230575000Y-97675000D02*
X230575000Y-97825000D01*
G75*
G02*
X230500000Y-97900000I-75000J0D01*
G01*
X229175000Y-97900000D01*
G75*
G02*
X229100000Y-97825000I0J75000D01*
G01*
X229100000Y-97675000D01*
G75*
G02*
X229175000Y-97600000I75000J0D01*
G01*
X230500000Y-97600000D01*
G75*
G02*
X230575000Y-97675000I0J-75000D01*
G01*
G37*
G36*
G01*
X230575000Y-97175000D02*
X230575000Y-97325000D01*
G75*
G02*
X230500000Y-97400000I-75000J0D01*
G01*
X229175000Y-97400000D01*
G75*
G02*
X229100000Y-97325000I0J75000D01*
G01*
X229100000Y-97175000D01*
G75*
G02*
X229175000Y-97100000I75000J0D01*
G01*
X230500000Y-97100000D01*
G75*
G02*
X230575000Y-97175000I0J-75000D01*
G01*
G37*
G36*
G01*
X230575000Y-96675000D02*
X230575000Y-96825000D01*
G75*
G02*
X230500000Y-96900000I-75000J0D01*
G01*
X229175000Y-96900000D01*
G75*
G02*
X229100000Y-96825000I0J75000D01*
G01*
X229100000Y-96675000D01*
G75*
G02*
X229175000Y-96600000I75000J0D01*
G01*
X230500000Y-96600000D01*
G75*
G02*
X230575000Y-96675000I0J-75000D01*
G01*
G37*
G36*
G01*
X230575000Y-96175000D02*
X230575000Y-96325000D01*
G75*
G02*
X230500000Y-96400000I-75000J0D01*
G01*
X229175000Y-96400000D01*
G75*
G02*
X229100000Y-96325000I0J75000D01*
G01*
X229100000Y-96175000D01*
G75*
G02*
X229175000Y-96100000I75000J0D01*
G01*
X230500000Y-96100000D01*
G75*
G02*
X230575000Y-96175000I0J-75000D01*
G01*
G37*
G36*
G01*
X230575000Y-95675000D02*
X230575000Y-95825000D01*
G75*
G02*
X230500000Y-95900000I-75000J0D01*
G01*
X229175000Y-95900000D01*
G75*
G02*
X229100000Y-95825000I0J75000D01*
G01*
X229100000Y-95675000D01*
G75*
G02*
X229175000Y-95600000I75000J0D01*
G01*
X230500000Y-95600000D01*
G75*
G02*
X230575000Y-95675000I0J-75000D01*
G01*
G37*
G36*
G01*
X230575000Y-95175000D02*
X230575000Y-95325000D01*
G75*
G02*
X230500000Y-95400000I-75000J0D01*
G01*
X229175000Y-95400000D01*
G75*
G02*
X229100000Y-95325000I0J75000D01*
G01*
X229100000Y-95175000D01*
G75*
G02*
X229175000Y-95100000I75000J0D01*
G01*
X230500000Y-95100000D01*
G75*
G02*
X230575000Y-95175000I0J-75000D01*
G01*
G37*
G36*
G01*
X231400000Y-93175000D02*
X231400000Y-94500000D01*
G75*
G02*
X231325000Y-94575000I-75000J0D01*
G01*
X231175000Y-94575000D01*
G75*
G02*
X231100000Y-94500000I0J75000D01*
G01*
X231100000Y-93175000D01*
G75*
G02*
X231175000Y-93100000I75000J0D01*
G01*
X231325000Y-93100000D01*
G75*
G02*
X231400000Y-93175000I0J-75000D01*
G01*
G37*
G36*
G01*
X231900000Y-93175000D02*
X231900000Y-94500000D01*
G75*
G02*
X231825000Y-94575000I-75000J0D01*
G01*
X231675000Y-94575000D01*
G75*
G02*
X231600000Y-94500000I0J75000D01*
G01*
X231600000Y-93175000D01*
G75*
G02*
X231675000Y-93100000I75000J0D01*
G01*
X231825000Y-93100000D01*
G75*
G02*
X231900000Y-93175000I0J-75000D01*
G01*
G37*
G36*
G01*
X232400000Y-93175000D02*
X232400000Y-94500000D01*
G75*
G02*
X232325000Y-94575000I-75000J0D01*
G01*
X232175000Y-94575000D01*
G75*
G02*
X232100000Y-94500000I0J75000D01*
G01*
X232100000Y-93175000D01*
G75*
G02*
X232175000Y-93100000I75000J0D01*
G01*
X232325000Y-93100000D01*
G75*
G02*
X232400000Y-93175000I0J-75000D01*
G01*
G37*
G36*
G01*
X232900000Y-93175000D02*
X232900000Y-94500000D01*
G75*
G02*
X232825000Y-94575000I-75000J0D01*
G01*
X232675000Y-94575000D01*
G75*
G02*
X232600000Y-94500000I0J75000D01*
G01*
X232600000Y-93175000D01*
G75*
G02*
X232675000Y-93100000I75000J0D01*
G01*
X232825000Y-93100000D01*
G75*
G02*
X232900000Y-93175000I0J-75000D01*
G01*
G37*
G36*
G01*
X233400000Y-93175000D02*
X233400000Y-94500000D01*
G75*
G02*
X233325000Y-94575000I-75000J0D01*
G01*
X233175000Y-94575000D01*
G75*
G02*
X233100000Y-94500000I0J75000D01*
G01*
X233100000Y-93175000D01*
G75*
G02*
X233175000Y-93100000I75000J0D01*
G01*
X233325000Y-93100000D01*
G75*
G02*
X233400000Y-93175000I0J-75000D01*
G01*
G37*
G36*
G01*
X233900000Y-93175000D02*
X233900000Y-94500000D01*
G75*
G02*
X233825000Y-94575000I-75000J0D01*
G01*
X233675000Y-94575000D01*
G75*
G02*
X233600000Y-94500000I0J75000D01*
G01*
X233600000Y-93175000D01*
G75*
G02*
X233675000Y-93100000I75000J0D01*
G01*
X233825000Y-93100000D01*
G75*
G02*
X233900000Y-93175000I0J-75000D01*
G01*
G37*
G36*
G01*
X234400000Y-93175000D02*
X234400000Y-94500000D01*
G75*
G02*
X234325000Y-94575000I-75000J0D01*
G01*
X234175000Y-94575000D01*
G75*
G02*
X234100000Y-94500000I0J75000D01*
G01*
X234100000Y-93175000D01*
G75*
G02*
X234175000Y-93100000I75000J0D01*
G01*
X234325000Y-93100000D01*
G75*
G02*
X234400000Y-93175000I0J-75000D01*
G01*
G37*
G36*
G01*
X234900000Y-93175000D02*
X234900000Y-94500000D01*
G75*
G02*
X234825000Y-94575000I-75000J0D01*
G01*
X234675000Y-94575000D01*
G75*
G02*
X234600000Y-94500000I0J75000D01*
G01*
X234600000Y-93175000D01*
G75*
G02*
X234675000Y-93100000I75000J0D01*
G01*
X234825000Y-93100000D01*
G75*
G02*
X234900000Y-93175000I0J-75000D01*
G01*
G37*
G36*
G01*
X235400000Y-93175000D02*
X235400000Y-94500000D01*
G75*
G02*
X235325000Y-94575000I-75000J0D01*
G01*
X235175000Y-94575000D01*
G75*
G02*
X235100000Y-94500000I0J75000D01*
G01*
X235100000Y-93175000D01*
G75*
G02*
X235175000Y-93100000I75000J0D01*
G01*
X235325000Y-93100000D01*
G75*
G02*
X235400000Y-93175000I0J-75000D01*
G01*
G37*
G36*
G01*
X235900000Y-93175000D02*
X235900000Y-94500000D01*
G75*
G02*
X235825000Y-94575000I-75000J0D01*
G01*
X235675000Y-94575000D01*
G75*
G02*
X235600000Y-94500000I0J75000D01*
G01*
X235600000Y-93175000D01*
G75*
G02*
X235675000Y-93100000I75000J0D01*
G01*
X235825000Y-93100000D01*
G75*
G02*
X235900000Y-93175000I0J-75000D01*
G01*
G37*
G36*
G01*
X236400000Y-93175000D02*
X236400000Y-94500000D01*
G75*
G02*
X236325000Y-94575000I-75000J0D01*
G01*
X236175000Y-94575000D01*
G75*
G02*
X236100000Y-94500000I0J75000D01*
G01*
X236100000Y-93175000D01*
G75*
G02*
X236175000Y-93100000I75000J0D01*
G01*
X236325000Y-93100000D01*
G75*
G02*
X236400000Y-93175000I0J-75000D01*
G01*
G37*
G36*
G01*
X236900000Y-93175000D02*
X236900000Y-94500000D01*
G75*
G02*
X236825000Y-94575000I-75000J0D01*
G01*
X236675000Y-94575000D01*
G75*
G02*
X236600000Y-94500000I0J75000D01*
G01*
X236600000Y-93175000D01*
G75*
G02*
X236675000Y-93100000I75000J0D01*
G01*
X236825000Y-93100000D01*
G75*
G02*
X236900000Y-93175000I0J-75000D01*
G01*
G37*
G36*
G01*
X238900000Y-95175000D02*
X238900000Y-95325000D01*
G75*
G02*
X238825000Y-95400000I-75000J0D01*
G01*
X237500000Y-95400000D01*
G75*
G02*
X237425000Y-95325000I0J75000D01*
G01*
X237425000Y-95175000D01*
G75*
G02*
X237500000Y-95100000I75000J0D01*
G01*
X238825000Y-95100000D01*
G75*
G02*
X238900000Y-95175000I0J-75000D01*
G01*
G37*
G36*
G01*
X238900000Y-95675000D02*
X238900000Y-95825000D01*
G75*
G02*
X238825000Y-95900000I-75000J0D01*
G01*
X237500000Y-95900000D01*
G75*
G02*
X237425000Y-95825000I0J75000D01*
G01*
X237425000Y-95675000D01*
G75*
G02*
X237500000Y-95600000I75000J0D01*
G01*
X238825000Y-95600000D01*
G75*
G02*
X238900000Y-95675000I0J-75000D01*
G01*
G37*
G36*
G01*
X238900000Y-96175000D02*
X238900000Y-96325000D01*
G75*
G02*
X238825000Y-96400000I-75000J0D01*
G01*
X237500000Y-96400000D01*
G75*
G02*
X237425000Y-96325000I0J75000D01*
G01*
X237425000Y-96175000D01*
G75*
G02*
X237500000Y-96100000I75000J0D01*
G01*
X238825000Y-96100000D01*
G75*
G02*
X238900000Y-96175000I0J-75000D01*
G01*
G37*
G36*
G01*
X238900000Y-96675000D02*
X238900000Y-96825000D01*
G75*
G02*
X238825000Y-96900000I-75000J0D01*
G01*
X237500000Y-96900000D01*
G75*
G02*
X237425000Y-96825000I0J75000D01*
G01*
X237425000Y-96675000D01*
G75*
G02*
X237500000Y-96600000I75000J0D01*
G01*
X238825000Y-96600000D01*
G75*
G02*
X238900000Y-96675000I0J-75000D01*
G01*
G37*
G36*
G01*
X238900000Y-97175000D02*
X238900000Y-97325000D01*
G75*
G02*
X238825000Y-97400000I-75000J0D01*
G01*
X237500000Y-97400000D01*
G75*
G02*
X237425000Y-97325000I0J75000D01*
G01*
X237425000Y-97175000D01*
G75*
G02*
X237500000Y-97100000I75000J0D01*
G01*
X238825000Y-97100000D01*
G75*
G02*
X238900000Y-97175000I0J-75000D01*
G01*
G37*
G36*
G01*
X238900000Y-97675000D02*
X238900000Y-97825000D01*
G75*
G02*
X238825000Y-97900000I-75000J0D01*
G01*
X237500000Y-97900000D01*
G75*
G02*
X237425000Y-97825000I0J75000D01*
G01*
X237425000Y-97675000D01*
G75*
G02*
X237500000Y-97600000I75000J0D01*
G01*
X238825000Y-97600000D01*
G75*
G02*
X238900000Y-97675000I0J-75000D01*
G01*
G37*
G36*
G01*
X238900000Y-98175000D02*
X238900000Y-98325000D01*
G75*
G02*
X238825000Y-98400000I-75000J0D01*
G01*
X237500000Y-98400000D01*
G75*
G02*
X237425000Y-98325000I0J75000D01*
G01*
X237425000Y-98175000D01*
G75*
G02*
X237500000Y-98100000I75000J0D01*
G01*
X238825000Y-98100000D01*
G75*
G02*
X238900000Y-98175000I0J-75000D01*
G01*
G37*
G36*
G01*
X238900000Y-98675000D02*
X238900000Y-98825000D01*
G75*
G02*
X238825000Y-98900000I-75000J0D01*
G01*
X237500000Y-98900000D01*
G75*
G02*
X237425000Y-98825000I0J75000D01*
G01*
X237425000Y-98675000D01*
G75*
G02*
X237500000Y-98600000I75000J0D01*
G01*
X238825000Y-98600000D01*
G75*
G02*
X238900000Y-98675000I0J-75000D01*
G01*
G37*
G36*
G01*
X238900000Y-99175000D02*
X238900000Y-99325000D01*
G75*
G02*
X238825000Y-99400000I-75000J0D01*
G01*
X237500000Y-99400000D01*
G75*
G02*
X237425000Y-99325000I0J75000D01*
G01*
X237425000Y-99175000D01*
G75*
G02*
X237500000Y-99100000I75000J0D01*
G01*
X238825000Y-99100000D01*
G75*
G02*
X238900000Y-99175000I0J-75000D01*
G01*
G37*
G36*
G01*
X238900000Y-99675000D02*
X238900000Y-99825000D01*
G75*
G02*
X238825000Y-99900000I-75000J0D01*
G01*
X237500000Y-99900000D01*
G75*
G02*
X237425000Y-99825000I0J75000D01*
G01*
X237425000Y-99675000D01*
G75*
G02*
X237500000Y-99600000I75000J0D01*
G01*
X238825000Y-99600000D01*
G75*
G02*
X238900000Y-99675000I0J-75000D01*
G01*
G37*
G36*
G01*
X238900000Y-100175000D02*
X238900000Y-100325000D01*
G75*
G02*
X238825000Y-100400000I-75000J0D01*
G01*
X237500000Y-100400000D01*
G75*
G02*
X237425000Y-100325000I0J75000D01*
G01*
X237425000Y-100175000D01*
G75*
G02*
X237500000Y-100100000I75000J0D01*
G01*
X238825000Y-100100000D01*
G75*
G02*
X238900000Y-100175000I0J-75000D01*
G01*
G37*
G36*
G01*
X238900000Y-100675000D02*
X238900000Y-100825000D01*
G75*
G02*
X238825000Y-100900000I-75000J0D01*
G01*
X237500000Y-100900000D01*
G75*
G02*
X237425000Y-100825000I0J75000D01*
G01*
X237425000Y-100675000D01*
G75*
G02*
X237500000Y-100600000I75000J0D01*
G01*
X238825000Y-100600000D01*
G75*
G02*
X238900000Y-100675000I0J-75000D01*
G01*
G37*
G36*
G01*
X227820000Y-81835000D02*
X227520000Y-81835000D01*
G75*
G02*
X227370000Y-81685000I0J150000D01*
G01*
X227370000Y-80335000D01*
G75*
G02*
X227520000Y-80185000I150000J0D01*
G01*
X227820000Y-80185000D01*
G75*
G02*
X227970000Y-80335000I0J-150000D01*
G01*
X227970000Y-81685000D01*
G75*
G02*
X227820000Y-81835000I-150000J0D01*
G01*
G37*
G36*
G01*
X229090000Y-81835000D02*
X228790000Y-81835000D01*
G75*
G02*
X228640000Y-81685000I0J150000D01*
G01*
X228640000Y-80335000D01*
G75*
G02*
X228790000Y-80185000I150000J0D01*
G01*
X229090000Y-80185000D01*
G75*
G02*
X229240000Y-80335000I0J-150000D01*
G01*
X229240000Y-81685000D01*
G75*
G02*
X229090000Y-81835000I-150000J0D01*
G01*
G37*
G36*
G01*
X230360000Y-81835000D02*
X230060000Y-81835000D01*
G75*
G02*
X229910000Y-81685000I0J150000D01*
G01*
X229910000Y-80335000D01*
G75*
G02*
X230060000Y-80185000I150000J0D01*
G01*
X230360000Y-80185000D01*
G75*
G02*
X230510000Y-80335000I0J-150000D01*
G01*
X230510000Y-81685000D01*
G75*
G02*
X230360000Y-81835000I-150000J0D01*
G01*
G37*
G36*
G01*
X231630000Y-81835000D02*
X231330000Y-81835000D01*
G75*
G02*
X231180000Y-81685000I0J150000D01*
G01*
X231180000Y-80335000D01*
G75*
G02*
X231330000Y-80185000I150000J0D01*
G01*
X231630000Y-80185000D01*
G75*
G02*
X231780000Y-80335000I0J-150000D01*
G01*
X231780000Y-81685000D01*
G75*
G02*
X231630000Y-81835000I-150000J0D01*
G01*
G37*
G36*
G01*
X231630000Y-87085000D02*
X231330000Y-87085000D01*
G75*
G02*
X231180000Y-86935000I0J150000D01*
G01*
X231180000Y-85585000D01*
G75*
G02*
X231330000Y-85435000I150000J0D01*
G01*
X231630000Y-85435000D01*
G75*
G02*
X231780000Y-85585000I0J-150000D01*
G01*
X231780000Y-86935000D01*
G75*
G02*
X231630000Y-87085000I-150000J0D01*
G01*
G37*
G36*
G01*
X230360000Y-87085000D02*
X230060000Y-87085000D01*
G75*
G02*
X229910000Y-86935000I0J150000D01*
G01*
X229910000Y-85585000D01*
G75*
G02*
X230060000Y-85435000I150000J0D01*
G01*
X230360000Y-85435000D01*
G75*
G02*
X230510000Y-85585000I0J-150000D01*
G01*
X230510000Y-86935000D01*
G75*
G02*
X230360000Y-87085000I-150000J0D01*
G01*
G37*
G36*
G01*
X229090000Y-87085000D02*
X228790000Y-87085000D01*
G75*
G02*
X228640000Y-86935000I0J150000D01*
G01*
X228640000Y-85585000D01*
G75*
G02*
X228790000Y-85435000I150000J0D01*
G01*
X229090000Y-85435000D01*
G75*
G02*
X229240000Y-85585000I0J-150000D01*
G01*
X229240000Y-86935000D01*
G75*
G02*
X229090000Y-87085000I-150000J0D01*
G01*
G37*
G36*
G01*
X227820000Y-87085000D02*
X227520000Y-87085000D01*
G75*
G02*
X227370000Y-86935000I0J150000D01*
G01*
X227370000Y-85585000D01*
G75*
G02*
X227520000Y-85435000I150000J0D01*
G01*
X227820000Y-85435000D01*
G75*
G02*
X227970000Y-85585000I0J-150000D01*
G01*
X227970000Y-86935000D01*
G75*
G02*
X227820000Y-87085000I-150000J0D01*
G01*
G37*
D10*
G36*
X222600000Y-84216500D02*
G01*
X218475000Y-84216500D01*
X218475000Y-83800000D01*
X216000000Y-83800000D01*
X216000000Y-82900000D01*
X218475000Y-82900000D01*
X218475000Y-82483500D01*
X222600000Y-82483500D01*
X222600000Y-84216500D01*
G37*
D17*
X217150000Y-84850000D03*
X217150000Y-81850000D03*
D18*
X231000000Y-118250000D03*
X246000000Y-118250000D03*
X236000000Y-118250000D03*
X241000000Y-118250000D03*
X221000000Y-118250000D03*
X226000000Y-118250000D03*
D19*
X242825000Y-110250000D03*
X235175000Y-110250000D03*
X230325000Y-110250000D03*
X222675000Y-110250000D03*
G36*
G01*
X54725000Y-92225000D02*
X55275000Y-92225000D01*
G75*
G02*
X55475000Y-92425000I0J-200000D01*
G01*
X55475000Y-92825000D01*
G75*
G02*
X55275000Y-93025000I-200000J0D01*
G01*
X54725000Y-93025000D01*
G75*
G02*
X54525000Y-92825000I0J200000D01*
G01*
X54525000Y-92425000D01*
G75*
G02*
X54725000Y-92225000I200000J0D01*
G01*
G37*
G36*
G01*
X54725000Y-90575000D02*
X55275000Y-90575000D01*
G75*
G02*
X55475000Y-90775000I0J-200000D01*
G01*
X55475000Y-91175000D01*
G75*
G02*
X55275000Y-91375000I-200000J0D01*
G01*
X54725000Y-91375000D01*
G75*
G02*
X54525000Y-91175000I0J200000D01*
G01*
X54525000Y-90775000D01*
G75*
G02*
X54725000Y-90575000I200000J0D01*
G01*
G37*
G36*
G01*
X61725000Y-92237500D02*
X62275000Y-92237500D01*
G75*
G02*
X62475000Y-92437500I0J-200000D01*
G01*
X62475000Y-92837500D01*
G75*
G02*
X62275000Y-93037500I-200000J0D01*
G01*
X61725000Y-93037500D01*
G75*
G02*
X61525000Y-92837500I0J200000D01*
G01*
X61525000Y-92437500D01*
G75*
G02*
X61725000Y-92237500I200000J0D01*
G01*
G37*
G36*
G01*
X61725000Y-90587500D02*
X62275000Y-90587500D01*
G75*
G02*
X62475000Y-90787500I0J-200000D01*
G01*
X62475000Y-91187500D01*
G75*
G02*
X62275000Y-91387500I-200000J0D01*
G01*
X61725000Y-91387500D01*
G75*
G02*
X61525000Y-91187500I0J200000D01*
G01*
X61525000Y-90787500D01*
G75*
G02*
X61725000Y-90587500I200000J0D01*
G01*
G37*
G36*
G01*
X68725000Y-92237500D02*
X69275000Y-92237500D01*
G75*
G02*
X69475000Y-92437500I0J-200000D01*
G01*
X69475000Y-92837500D01*
G75*
G02*
X69275000Y-93037500I-200000J0D01*
G01*
X68725000Y-93037500D01*
G75*
G02*
X68525000Y-92837500I0J200000D01*
G01*
X68525000Y-92437500D01*
G75*
G02*
X68725000Y-92237500I200000J0D01*
G01*
G37*
G36*
G01*
X68725000Y-90587500D02*
X69275000Y-90587500D01*
G75*
G02*
X69475000Y-90787500I0J-200000D01*
G01*
X69475000Y-91187500D01*
G75*
G02*
X69275000Y-91387500I-200000J0D01*
G01*
X68725000Y-91387500D01*
G75*
G02*
X68525000Y-91187500I0J200000D01*
G01*
X68525000Y-90787500D01*
G75*
G02*
X68725000Y-90587500I200000J0D01*
G01*
G37*
G36*
G01*
X75725000Y-92225000D02*
X76275000Y-92225000D01*
G75*
G02*
X76475000Y-92425000I0J-200000D01*
G01*
X76475000Y-92825000D01*
G75*
G02*
X76275000Y-93025000I-200000J0D01*
G01*
X75725000Y-93025000D01*
G75*
G02*
X75525000Y-92825000I0J200000D01*
G01*
X75525000Y-92425000D01*
G75*
G02*
X75725000Y-92225000I200000J0D01*
G01*
G37*
G36*
G01*
X75725000Y-90575000D02*
X76275000Y-90575000D01*
G75*
G02*
X76475000Y-90775000I0J-200000D01*
G01*
X76475000Y-91175000D01*
G75*
G02*
X76275000Y-91375000I-200000J0D01*
G01*
X75725000Y-91375000D01*
G75*
G02*
X75525000Y-91175000I0J200000D01*
G01*
X75525000Y-90775000D01*
G75*
G02*
X75725000Y-90575000I200000J0D01*
G01*
G37*
G36*
G01*
X82725000Y-92225000D02*
X83275000Y-92225000D01*
G75*
G02*
X83475000Y-92425000I0J-200000D01*
G01*
X83475000Y-92825000D01*
G75*
G02*
X83275000Y-93025000I-200000J0D01*
G01*
X82725000Y-93025000D01*
G75*
G02*
X82525000Y-92825000I0J200000D01*
G01*
X82525000Y-92425000D01*
G75*
G02*
X82725000Y-92225000I200000J0D01*
G01*
G37*
G36*
G01*
X82725000Y-90575000D02*
X83275000Y-90575000D01*
G75*
G02*
X83475000Y-90775000I0J-200000D01*
G01*
X83475000Y-91175000D01*
G75*
G02*
X83275000Y-91375000I-200000J0D01*
G01*
X82725000Y-91375000D01*
G75*
G02*
X82525000Y-91175000I0J200000D01*
G01*
X82525000Y-90775000D01*
G75*
G02*
X82725000Y-90575000I200000J0D01*
G01*
G37*
G36*
G01*
X89625000Y-92225000D02*
X90175000Y-92225000D01*
G75*
G02*
X90375000Y-92425000I0J-200000D01*
G01*
X90375000Y-92825000D01*
G75*
G02*
X90175000Y-93025000I-200000J0D01*
G01*
X89625000Y-93025000D01*
G75*
G02*
X89425000Y-92825000I0J200000D01*
G01*
X89425000Y-92425000D01*
G75*
G02*
X89625000Y-92225000I200000J0D01*
G01*
G37*
G36*
G01*
X89625000Y-90575000D02*
X90175000Y-90575000D01*
G75*
G02*
X90375000Y-90775000I0J-200000D01*
G01*
X90375000Y-91175000D01*
G75*
G02*
X90175000Y-91375000I-200000J0D01*
G01*
X89625000Y-91375000D01*
G75*
G02*
X89425000Y-91175000I0J200000D01*
G01*
X89425000Y-90775000D01*
G75*
G02*
X89625000Y-90575000I200000J0D01*
G01*
G37*
G36*
G01*
X96725000Y-92237500D02*
X97275000Y-92237500D01*
G75*
G02*
X97475000Y-92437500I0J-200000D01*
G01*
X97475000Y-92837500D01*
G75*
G02*
X97275000Y-93037500I-200000J0D01*
G01*
X96725000Y-93037500D01*
G75*
G02*
X96525000Y-92837500I0J200000D01*
G01*
X96525000Y-92437500D01*
G75*
G02*
X96725000Y-92237500I200000J0D01*
G01*
G37*
G36*
G01*
X96725000Y-90587500D02*
X97275000Y-90587500D01*
G75*
G02*
X97475000Y-90787500I0J-200000D01*
G01*
X97475000Y-91187500D01*
G75*
G02*
X97275000Y-91387500I-200000J0D01*
G01*
X96725000Y-91387500D01*
G75*
G02*
X96525000Y-91187500I0J200000D01*
G01*
X96525000Y-90787500D01*
G75*
G02*
X96725000Y-90587500I200000J0D01*
G01*
G37*
G36*
G01*
X52925000Y-92237500D02*
X53475000Y-92237500D01*
G75*
G02*
X53675000Y-92437500I0J-200000D01*
G01*
X53675000Y-92837500D01*
G75*
G02*
X53475000Y-93037500I-200000J0D01*
G01*
X52925000Y-93037500D01*
G75*
G02*
X52725000Y-92837500I0J200000D01*
G01*
X52725000Y-92437500D01*
G75*
G02*
X52925000Y-92237500I200000J0D01*
G01*
G37*
G36*
G01*
X52925000Y-90587500D02*
X53475000Y-90587500D01*
G75*
G02*
X53675000Y-90787500I0J-200000D01*
G01*
X53675000Y-91187500D01*
G75*
G02*
X53475000Y-91387500I-200000J0D01*
G01*
X52925000Y-91387500D01*
G75*
G02*
X52725000Y-91187500I0J200000D01*
G01*
X52725000Y-90787500D01*
G75*
G02*
X52925000Y-90587500I200000J0D01*
G01*
G37*
G36*
G01*
X59925000Y-92225000D02*
X60475000Y-92225000D01*
G75*
G02*
X60675000Y-92425000I0J-200000D01*
G01*
X60675000Y-92825000D01*
G75*
G02*
X60475000Y-93025000I-200000J0D01*
G01*
X59925000Y-93025000D01*
G75*
G02*
X59725000Y-92825000I0J200000D01*
G01*
X59725000Y-92425000D01*
G75*
G02*
X59925000Y-92225000I200000J0D01*
G01*
G37*
G36*
G01*
X59925000Y-90575000D02*
X60475000Y-90575000D01*
G75*
G02*
X60675000Y-90775000I0J-200000D01*
G01*
X60675000Y-91175000D01*
G75*
G02*
X60475000Y-91375000I-200000J0D01*
G01*
X59925000Y-91375000D01*
G75*
G02*
X59725000Y-91175000I0J200000D01*
G01*
X59725000Y-90775000D01*
G75*
G02*
X59925000Y-90575000I200000J0D01*
G01*
G37*
G36*
G01*
X66925000Y-92225000D02*
X67475000Y-92225000D01*
G75*
G02*
X67675000Y-92425000I0J-200000D01*
G01*
X67675000Y-92825000D01*
G75*
G02*
X67475000Y-93025000I-200000J0D01*
G01*
X66925000Y-93025000D01*
G75*
G02*
X66725000Y-92825000I0J200000D01*
G01*
X66725000Y-92425000D01*
G75*
G02*
X66925000Y-92225000I200000J0D01*
G01*
G37*
G36*
G01*
X66925000Y-90575000D02*
X67475000Y-90575000D01*
G75*
G02*
X67675000Y-90775000I0J-200000D01*
G01*
X67675000Y-91175000D01*
G75*
G02*
X67475000Y-91375000I-200000J0D01*
G01*
X66925000Y-91375000D01*
G75*
G02*
X66725000Y-91175000I0J200000D01*
G01*
X66725000Y-90775000D01*
G75*
G02*
X66925000Y-90575000I200000J0D01*
G01*
G37*
G36*
G01*
X73925000Y-92225000D02*
X74475000Y-92225000D01*
G75*
G02*
X74675000Y-92425000I0J-200000D01*
G01*
X74675000Y-92825000D01*
G75*
G02*
X74475000Y-93025000I-200000J0D01*
G01*
X73925000Y-93025000D01*
G75*
G02*
X73725000Y-92825000I0J200000D01*
G01*
X73725000Y-92425000D01*
G75*
G02*
X73925000Y-92225000I200000J0D01*
G01*
G37*
G36*
G01*
X73925000Y-90575000D02*
X74475000Y-90575000D01*
G75*
G02*
X74675000Y-90775000I0J-200000D01*
G01*
X74675000Y-91175000D01*
G75*
G02*
X74475000Y-91375000I-200000J0D01*
G01*
X73925000Y-91375000D01*
G75*
G02*
X73725000Y-91175000I0J200000D01*
G01*
X73725000Y-90775000D01*
G75*
G02*
X73925000Y-90575000I200000J0D01*
G01*
G37*
G36*
G01*
X81025000Y-92212500D02*
X81575000Y-92212500D01*
G75*
G02*
X81775000Y-92412500I0J-200000D01*
G01*
X81775000Y-92812500D01*
G75*
G02*
X81575000Y-93012500I-200000J0D01*
G01*
X81025000Y-93012500D01*
G75*
G02*
X80825000Y-92812500I0J200000D01*
G01*
X80825000Y-92412500D01*
G75*
G02*
X81025000Y-92212500I200000J0D01*
G01*
G37*
G36*
G01*
X81025000Y-90562500D02*
X81575000Y-90562500D01*
G75*
G02*
X81775000Y-90762500I0J-200000D01*
G01*
X81775000Y-91162500D01*
G75*
G02*
X81575000Y-91362500I-200000J0D01*
G01*
X81025000Y-91362500D01*
G75*
G02*
X80825000Y-91162500I0J200000D01*
G01*
X80825000Y-90762500D01*
G75*
G02*
X81025000Y-90562500I200000J0D01*
G01*
G37*
G36*
G01*
X88025000Y-92225000D02*
X88575000Y-92225000D01*
G75*
G02*
X88775000Y-92425000I0J-200000D01*
G01*
X88775000Y-92825000D01*
G75*
G02*
X88575000Y-93025000I-200000J0D01*
G01*
X88025000Y-93025000D01*
G75*
G02*
X87825000Y-92825000I0J200000D01*
G01*
X87825000Y-92425000D01*
G75*
G02*
X88025000Y-92225000I200000J0D01*
G01*
G37*
G36*
G01*
X88025000Y-90575000D02*
X88575000Y-90575000D01*
G75*
G02*
X88775000Y-90775000I0J-200000D01*
G01*
X88775000Y-91175000D01*
G75*
G02*
X88575000Y-91375000I-200000J0D01*
G01*
X88025000Y-91375000D01*
G75*
G02*
X87825000Y-91175000I0J200000D01*
G01*
X87825000Y-90775000D01*
G75*
G02*
X88025000Y-90575000I200000J0D01*
G01*
G37*
G36*
G01*
X94925000Y-92225000D02*
X95475000Y-92225000D01*
G75*
G02*
X95675000Y-92425000I0J-200000D01*
G01*
X95675000Y-92825000D01*
G75*
G02*
X95475000Y-93025000I-200000J0D01*
G01*
X94925000Y-93025000D01*
G75*
G02*
X94725000Y-92825000I0J200000D01*
G01*
X94725000Y-92425000D01*
G75*
G02*
X94925000Y-92225000I200000J0D01*
G01*
G37*
G36*
G01*
X94925000Y-90575000D02*
X95475000Y-90575000D01*
G75*
G02*
X95675000Y-90775000I0J-200000D01*
G01*
X95675000Y-91175000D01*
G75*
G02*
X95475000Y-91375000I-200000J0D01*
G01*
X94925000Y-91375000D01*
G75*
G02*
X94725000Y-91175000I0J200000D01*
G01*
X94725000Y-90775000D01*
G75*
G02*
X94925000Y-90575000I200000J0D01*
G01*
G37*
G36*
G01*
X51225000Y-92225000D02*
X51775000Y-92225000D01*
G75*
G02*
X51975000Y-92425000I0J-200000D01*
G01*
X51975000Y-92825000D01*
G75*
G02*
X51775000Y-93025000I-200000J0D01*
G01*
X51225000Y-93025000D01*
G75*
G02*
X51025000Y-92825000I0J200000D01*
G01*
X51025000Y-92425000D01*
G75*
G02*
X51225000Y-92225000I200000J0D01*
G01*
G37*
G36*
G01*
X51225000Y-90575000D02*
X51775000Y-90575000D01*
G75*
G02*
X51975000Y-90775000I0J-200000D01*
G01*
X51975000Y-91175000D01*
G75*
G02*
X51775000Y-91375000I-200000J0D01*
G01*
X51225000Y-91375000D01*
G75*
G02*
X51025000Y-91175000I0J200000D01*
G01*
X51025000Y-90775000D01*
G75*
G02*
X51225000Y-90575000I200000J0D01*
G01*
G37*
G36*
G01*
X58225000Y-92225000D02*
X58775000Y-92225000D01*
G75*
G02*
X58975000Y-92425000I0J-200000D01*
G01*
X58975000Y-92825000D01*
G75*
G02*
X58775000Y-93025000I-200000J0D01*
G01*
X58225000Y-93025000D01*
G75*
G02*
X58025000Y-92825000I0J200000D01*
G01*
X58025000Y-92425000D01*
G75*
G02*
X58225000Y-92225000I200000J0D01*
G01*
G37*
G36*
G01*
X58225000Y-90575000D02*
X58775000Y-90575000D01*
G75*
G02*
X58975000Y-90775000I0J-200000D01*
G01*
X58975000Y-91175000D01*
G75*
G02*
X58775000Y-91375000I-200000J0D01*
G01*
X58225000Y-91375000D01*
G75*
G02*
X58025000Y-91175000I0J200000D01*
G01*
X58025000Y-90775000D01*
G75*
G02*
X58225000Y-90575000I200000J0D01*
G01*
G37*
G36*
G01*
X65225000Y-92225000D02*
X65775000Y-92225000D01*
G75*
G02*
X65975000Y-92425000I0J-200000D01*
G01*
X65975000Y-92825000D01*
G75*
G02*
X65775000Y-93025000I-200000J0D01*
G01*
X65225000Y-93025000D01*
G75*
G02*
X65025000Y-92825000I0J200000D01*
G01*
X65025000Y-92425000D01*
G75*
G02*
X65225000Y-92225000I200000J0D01*
G01*
G37*
G36*
G01*
X65225000Y-90575000D02*
X65775000Y-90575000D01*
G75*
G02*
X65975000Y-90775000I0J-200000D01*
G01*
X65975000Y-91175000D01*
G75*
G02*
X65775000Y-91375000I-200000J0D01*
G01*
X65225000Y-91375000D01*
G75*
G02*
X65025000Y-91175000I0J200000D01*
G01*
X65025000Y-90775000D01*
G75*
G02*
X65225000Y-90575000I200000J0D01*
G01*
G37*
G36*
G01*
X72225000Y-92225000D02*
X72775000Y-92225000D01*
G75*
G02*
X72975000Y-92425000I0J-200000D01*
G01*
X72975000Y-92825000D01*
G75*
G02*
X72775000Y-93025000I-200000J0D01*
G01*
X72225000Y-93025000D01*
G75*
G02*
X72025000Y-92825000I0J200000D01*
G01*
X72025000Y-92425000D01*
G75*
G02*
X72225000Y-92225000I200000J0D01*
G01*
G37*
G36*
G01*
X72225000Y-90575000D02*
X72775000Y-90575000D01*
G75*
G02*
X72975000Y-90775000I0J-200000D01*
G01*
X72975000Y-91175000D01*
G75*
G02*
X72775000Y-91375000I-200000J0D01*
G01*
X72225000Y-91375000D01*
G75*
G02*
X72025000Y-91175000I0J200000D01*
G01*
X72025000Y-90775000D01*
G75*
G02*
X72225000Y-90575000I200000J0D01*
G01*
G37*
G36*
G01*
X79225000Y-92237500D02*
X79775000Y-92237500D01*
G75*
G02*
X79975000Y-92437500I0J-200000D01*
G01*
X79975000Y-92837500D01*
G75*
G02*
X79775000Y-93037500I-200000J0D01*
G01*
X79225000Y-93037500D01*
G75*
G02*
X79025000Y-92837500I0J200000D01*
G01*
X79025000Y-92437500D01*
G75*
G02*
X79225000Y-92237500I200000J0D01*
G01*
G37*
G36*
G01*
X79225000Y-90587500D02*
X79775000Y-90587500D01*
G75*
G02*
X79975000Y-90787500I0J-200000D01*
G01*
X79975000Y-91187500D01*
G75*
G02*
X79775000Y-91387500I-200000J0D01*
G01*
X79225000Y-91387500D01*
G75*
G02*
X79025000Y-91187500I0J200000D01*
G01*
X79025000Y-90787500D01*
G75*
G02*
X79225000Y-90587500I200000J0D01*
G01*
G37*
G36*
G01*
X86225000Y-92225000D02*
X86775000Y-92225000D01*
G75*
G02*
X86975000Y-92425000I0J-200000D01*
G01*
X86975000Y-92825000D01*
G75*
G02*
X86775000Y-93025000I-200000J0D01*
G01*
X86225000Y-93025000D01*
G75*
G02*
X86025000Y-92825000I0J200000D01*
G01*
X86025000Y-92425000D01*
G75*
G02*
X86225000Y-92225000I200000J0D01*
G01*
G37*
G36*
G01*
X86225000Y-90575000D02*
X86775000Y-90575000D01*
G75*
G02*
X86975000Y-90775000I0J-200000D01*
G01*
X86975000Y-91175000D01*
G75*
G02*
X86775000Y-91375000I-200000J0D01*
G01*
X86225000Y-91375000D01*
G75*
G02*
X86025000Y-91175000I0J200000D01*
G01*
X86025000Y-90775000D01*
G75*
G02*
X86225000Y-90575000I200000J0D01*
G01*
G37*
G36*
G01*
X93225000Y-92225000D02*
X93775000Y-92225000D01*
G75*
G02*
X93975000Y-92425000I0J-200000D01*
G01*
X93975000Y-92825000D01*
G75*
G02*
X93775000Y-93025000I-200000J0D01*
G01*
X93225000Y-93025000D01*
G75*
G02*
X93025000Y-92825000I0J200000D01*
G01*
X93025000Y-92425000D01*
G75*
G02*
X93225000Y-92225000I200000J0D01*
G01*
G37*
G36*
G01*
X93225000Y-90575000D02*
X93775000Y-90575000D01*
G75*
G02*
X93975000Y-90775000I0J-200000D01*
G01*
X93975000Y-91175000D01*
G75*
G02*
X93775000Y-91375000I-200000J0D01*
G01*
X93225000Y-91375000D01*
G75*
G02*
X93025000Y-91175000I0J200000D01*
G01*
X93025000Y-90775000D01*
G75*
G02*
X93225000Y-90575000I200000J0D01*
G01*
G37*
G36*
G01*
X103725000Y-92225000D02*
X104275000Y-92225000D01*
G75*
G02*
X104475000Y-92425000I0J-200000D01*
G01*
X104475000Y-92825000D01*
G75*
G02*
X104275000Y-93025000I-200000J0D01*
G01*
X103725000Y-93025000D01*
G75*
G02*
X103525000Y-92825000I0J200000D01*
G01*
X103525000Y-92425000D01*
G75*
G02*
X103725000Y-92225000I200000J0D01*
G01*
G37*
G36*
G01*
X103725000Y-90575000D02*
X104275000Y-90575000D01*
G75*
G02*
X104475000Y-90775000I0J-200000D01*
G01*
X104475000Y-91175000D01*
G75*
G02*
X104275000Y-91375000I-200000J0D01*
G01*
X103725000Y-91375000D01*
G75*
G02*
X103525000Y-91175000I0J200000D01*
G01*
X103525000Y-90775000D01*
G75*
G02*
X103725000Y-90575000I200000J0D01*
G01*
G37*
G36*
G01*
X110725000Y-92225000D02*
X111275000Y-92225000D01*
G75*
G02*
X111475000Y-92425000I0J-200000D01*
G01*
X111475000Y-92825000D01*
G75*
G02*
X111275000Y-93025000I-200000J0D01*
G01*
X110725000Y-93025000D01*
G75*
G02*
X110525000Y-92825000I0J200000D01*
G01*
X110525000Y-92425000D01*
G75*
G02*
X110725000Y-92225000I200000J0D01*
G01*
G37*
G36*
G01*
X110725000Y-90575000D02*
X111275000Y-90575000D01*
G75*
G02*
X111475000Y-90775000I0J-200000D01*
G01*
X111475000Y-91175000D01*
G75*
G02*
X111275000Y-91375000I-200000J0D01*
G01*
X110725000Y-91375000D01*
G75*
G02*
X110525000Y-91175000I0J200000D01*
G01*
X110525000Y-90775000D01*
G75*
G02*
X110725000Y-90575000I200000J0D01*
G01*
G37*
G36*
G01*
X117725000Y-92225000D02*
X118275000Y-92225000D01*
G75*
G02*
X118475000Y-92425000I0J-200000D01*
G01*
X118475000Y-92825000D01*
G75*
G02*
X118275000Y-93025000I-200000J0D01*
G01*
X117725000Y-93025000D01*
G75*
G02*
X117525000Y-92825000I0J200000D01*
G01*
X117525000Y-92425000D01*
G75*
G02*
X117725000Y-92225000I200000J0D01*
G01*
G37*
G36*
G01*
X117725000Y-90575000D02*
X118275000Y-90575000D01*
G75*
G02*
X118475000Y-90775000I0J-200000D01*
G01*
X118475000Y-91175000D01*
G75*
G02*
X118275000Y-91375000I-200000J0D01*
G01*
X117725000Y-91375000D01*
G75*
G02*
X117525000Y-91175000I0J200000D01*
G01*
X117525000Y-90775000D01*
G75*
G02*
X117725000Y-90575000I200000J0D01*
G01*
G37*
G36*
G01*
X124725000Y-92225000D02*
X125275000Y-92225000D01*
G75*
G02*
X125475000Y-92425000I0J-200000D01*
G01*
X125475000Y-92825000D01*
G75*
G02*
X125275000Y-93025000I-200000J0D01*
G01*
X124725000Y-93025000D01*
G75*
G02*
X124525000Y-92825000I0J200000D01*
G01*
X124525000Y-92425000D01*
G75*
G02*
X124725000Y-92225000I200000J0D01*
G01*
G37*
G36*
G01*
X124725000Y-90575000D02*
X125275000Y-90575000D01*
G75*
G02*
X125475000Y-90775000I0J-200000D01*
G01*
X125475000Y-91175000D01*
G75*
G02*
X125275000Y-91375000I-200000J0D01*
G01*
X124725000Y-91375000D01*
G75*
G02*
X124525000Y-91175000I0J200000D01*
G01*
X124525000Y-90775000D01*
G75*
G02*
X124725000Y-90575000I200000J0D01*
G01*
G37*
G36*
G01*
X131725000Y-92225000D02*
X132275000Y-92225000D01*
G75*
G02*
X132475000Y-92425000I0J-200000D01*
G01*
X132475000Y-92825000D01*
G75*
G02*
X132275000Y-93025000I-200000J0D01*
G01*
X131725000Y-93025000D01*
G75*
G02*
X131525000Y-92825000I0J200000D01*
G01*
X131525000Y-92425000D01*
G75*
G02*
X131725000Y-92225000I200000J0D01*
G01*
G37*
G36*
G01*
X131725000Y-90575000D02*
X132275000Y-90575000D01*
G75*
G02*
X132475000Y-90775000I0J-200000D01*
G01*
X132475000Y-91175000D01*
G75*
G02*
X132275000Y-91375000I-200000J0D01*
G01*
X131725000Y-91375000D01*
G75*
G02*
X131525000Y-91175000I0J200000D01*
G01*
X131525000Y-90775000D01*
G75*
G02*
X131725000Y-90575000I200000J0D01*
G01*
G37*
G36*
G01*
X138725000Y-92212500D02*
X139275000Y-92212500D01*
G75*
G02*
X139475000Y-92412500I0J-200000D01*
G01*
X139475000Y-92812500D01*
G75*
G02*
X139275000Y-93012500I-200000J0D01*
G01*
X138725000Y-93012500D01*
G75*
G02*
X138525000Y-92812500I0J200000D01*
G01*
X138525000Y-92412500D01*
G75*
G02*
X138725000Y-92212500I200000J0D01*
G01*
G37*
G36*
G01*
X138725000Y-90562500D02*
X139275000Y-90562500D01*
G75*
G02*
X139475000Y-90762500I0J-200000D01*
G01*
X139475000Y-91162500D01*
G75*
G02*
X139275000Y-91362500I-200000J0D01*
G01*
X138725000Y-91362500D01*
G75*
G02*
X138525000Y-91162500I0J200000D01*
G01*
X138525000Y-90762500D01*
G75*
G02*
X138725000Y-90562500I200000J0D01*
G01*
G37*
G36*
G01*
X145725000Y-92212500D02*
X146275000Y-92212500D01*
G75*
G02*
X146475000Y-92412500I0J-200000D01*
G01*
X146475000Y-92812500D01*
G75*
G02*
X146275000Y-93012500I-200000J0D01*
G01*
X145725000Y-93012500D01*
G75*
G02*
X145525000Y-92812500I0J200000D01*
G01*
X145525000Y-92412500D01*
G75*
G02*
X145725000Y-92212500I200000J0D01*
G01*
G37*
G36*
G01*
X145725000Y-90562500D02*
X146275000Y-90562500D01*
G75*
G02*
X146475000Y-90762500I0J-200000D01*
G01*
X146475000Y-91162500D01*
G75*
G02*
X146275000Y-91362500I-200000J0D01*
G01*
X145725000Y-91362500D01*
G75*
G02*
X145525000Y-91162500I0J200000D01*
G01*
X145525000Y-90762500D01*
G75*
G02*
X145725000Y-90562500I200000J0D01*
G01*
G37*
G36*
G01*
X102025000Y-92225000D02*
X102575000Y-92225000D01*
G75*
G02*
X102775000Y-92425000I0J-200000D01*
G01*
X102775000Y-92825000D01*
G75*
G02*
X102575000Y-93025000I-200000J0D01*
G01*
X102025000Y-93025000D01*
G75*
G02*
X101825000Y-92825000I0J200000D01*
G01*
X101825000Y-92425000D01*
G75*
G02*
X102025000Y-92225000I200000J0D01*
G01*
G37*
G36*
G01*
X102025000Y-90575000D02*
X102575000Y-90575000D01*
G75*
G02*
X102775000Y-90775000I0J-200000D01*
G01*
X102775000Y-91175000D01*
G75*
G02*
X102575000Y-91375000I-200000J0D01*
G01*
X102025000Y-91375000D01*
G75*
G02*
X101825000Y-91175000I0J200000D01*
G01*
X101825000Y-90775000D01*
G75*
G02*
X102025000Y-90575000I200000J0D01*
G01*
G37*
G36*
G01*
X108925000Y-92225000D02*
X109475000Y-92225000D01*
G75*
G02*
X109675000Y-92425000I0J-200000D01*
G01*
X109675000Y-92825000D01*
G75*
G02*
X109475000Y-93025000I-200000J0D01*
G01*
X108925000Y-93025000D01*
G75*
G02*
X108725000Y-92825000I0J200000D01*
G01*
X108725000Y-92425000D01*
G75*
G02*
X108925000Y-92225000I200000J0D01*
G01*
G37*
G36*
G01*
X108925000Y-90575000D02*
X109475000Y-90575000D01*
G75*
G02*
X109675000Y-90775000I0J-200000D01*
G01*
X109675000Y-91175000D01*
G75*
G02*
X109475000Y-91375000I-200000J0D01*
G01*
X108925000Y-91375000D01*
G75*
G02*
X108725000Y-91175000I0J200000D01*
G01*
X108725000Y-90775000D01*
G75*
G02*
X108925000Y-90575000I200000J0D01*
G01*
G37*
G36*
G01*
X115925000Y-92312500D02*
X116475000Y-92312500D01*
G75*
G02*
X116675000Y-92512500I0J-200000D01*
G01*
X116675000Y-92912500D01*
G75*
G02*
X116475000Y-93112500I-200000J0D01*
G01*
X115925000Y-93112500D01*
G75*
G02*
X115725000Y-92912500I0J200000D01*
G01*
X115725000Y-92512500D01*
G75*
G02*
X115925000Y-92312500I200000J0D01*
G01*
G37*
G36*
G01*
X115925000Y-90662500D02*
X116475000Y-90662500D01*
G75*
G02*
X116675000Y-90862500I0J-200000D01*
G01*
X116675000Y-91262500D01*
G75*
G02*
X116475000Y-91462500I-200000J0D01*
G01*
X115925000Y-91462500D01*
G75*
G02*
X115725000Y-91262500I0J200000D01*
G01*
X115725000Y-90862500D01*
G75*
G02*
X115925000Y-90662500I200000J0D01*
G01*
G37*
G36*
G01*
X123025000Y-92225000D02*
X123575000Y-92225000D01*
G75*
G02*
X123775000Y-92425000I0J-200000D01*
G01*
X123775000Y-92825000D01*
G75*
G02*
X123575000Y-93025000I-200000J0D01*
G01*
X123025000Y-93025000D01*
G75*
G02*
X122825000Y-92825000I0J200000D01*
G01*
X122825000Y-92425000D01*
G75*
G02*
X123025000Y-92225000I200000J0D01*
G01*
G37*
G36*
G01*
X123025000Y-90575000D02*
X123575000Y-90575000D01*
G75*
G02*
X123775000Y-90775000I0J-200000D01*
G01*
X123775000Y-91175000D01*
G75*
G02*
X123575000Y-91375000I-200000J0D01*
G01*
X123025000Y-91375000D01*
G75*
G02*
X122825000Y-91175000I0J200000D01*
G01*
X122825000Y-90775000D01*
G75*
G02*
X123025000Y-90575000I200000J0D01*
G01*
G37*
G36*
G01*
X129925000Y-92225000D02*
X130475000Y-92225000D01*
G75*
G02*
X130675000Y-92425000I0J-200000D01*
G01*
X130675000Y-92825000D01*
G75*
G02*
X130475000Y-93025000I-200000J0D01*
G01*
X129925000Y-93025000D01*
G75*
G02*
X129725000Y-92825000I0J200000D01*
G01*
X129725000Y-92425000D01*
G75*
G02*
X129925000Y-92225000I200000J0D01*
G01*
G37*
G36*
G01*
X129925000Y-90575000D02*
X130475000Y-90575000D01*
G75*
G02*
X130675000Y-90775000I0J-200000D01*
G01*
X130675000Y-91175000D01*
G75*
G02*
X130475000Y-91375000I-200000J0D01*
G01*
X129925000Y-91375000D01*
G75*
G02*
X129725000Y-91175000I0J200000D01*
G01*
X129725000Y-90775000D01*
G75*
G02*
X129925000Y-90575000I200000J0D01*
G01*
G37*
G36*
G01*
X136925000Y-92237500D02*
X137475000Y-92237500D01*
G75*
G02*
X137675000Y-92437500I0J-200000D01*
G01*
X137675000Y-92837500D01*
G75*
G02*
X137475000Y-93037500I-200000J0D01*
G01*
X136925000Y-93037500D01*
G75*
G02*
X136725000Y-92837500I0J200000D01*
G01*
X136725000Y-92437500D01*
G75*
G02*
X136925000Y-92237500I200000J0D01*
G01*
G37*
G36*
G01*
X136925000Y-90587500D02*
X137475000Y-90587500D01*
G75*
G02*
X137675000Y-90787500I0J-200000D01*
G01*
X137675000Y-91187500D01*
G75*
G02*
X137475000Y-91387500I-200000J0D01*
G01*
X136925000Y-91387500D01*
G75*
G02*
X136725000Y-91187500I0J200000D01*
G01*
X136725000Y-90787500D01*
G75*
G02*
X136925000Y-90587500I200000J0D01*
G01*
G37*
G36*
G01*
X143925000Y-92225000D02*
X144475000Y-92225000D01*
G75*
G02*
X144675000Y-92425000I0J-200000D01*
G01*
X144675000Y-92825000D01*
G75*
G02*
X144475000Y-93025000I-200000J0D01*
G01*
X143925000Y-93025000D01*
G75*
G02*
X143725000Y-92825000I0J200000D01*
G01*
X143725000Y-92425000D01*
G75*
G02*
X143925000Y-92225000I200000J0D01*
G01*
G37*
G36*
G01*
X143925000Y-90575000D02*
X144475000Y-90575000D01*
G75*
G02*
X144675000Y-90775000I0J-200000D01*
G01*
X144675000Y-91175000D01*
G75*
G02*
X144475000Y-91375000I-200000J0D01*
G01*
X143925000Y-91375000D01*
G75*
G02*
X143725000Y-91175000I0J200000D01*
G01*
X143725000Y-90775000D01*
G75*
G02*
X143925000Y-90575000I200000J0D01*
G01*
G37*
G36*
G01*
X100325000Y-92212500D02*
X100875000Y-92212500D01*
G75*
G02*
X101075000Y-92412500I0J-200000D01*
G01*
X101075000Y-92812500D01*
G75*
G02*
X100875000Y-93012500I-200000J0D01*
G01*
X100325000Y-93012500D01*
G75*
G02*
X100125000Y-92812500I0J200000D01*
G01*
X100125000Y-92412500D01*
G75*
G02*
X100325000Y-92212500I200000J0D01*
G01*
G37*
G36*
G01*
X100325000Y-90562500D02*
X100875000Y-90562500D01*
G75*
G02*
X101075000Y-90762500I0J-200000D01*
G01*
X101075000Y-91162500D01*
G75*
G02*
X100875000Y-91362500I-200000J0D01*
G01*
X100325000Y-91362500D01*
G75*
G02*
X100125000Y-91162500I0J200000D01*
G01*
X100125000Y-90762500D01*
G75*
G02*
X100325000Y-90562500I200000J0D01*
G01*
G37*
G36*
G01*
X107225000Y-92212500D02*
X107775000Y-92212500D01*
G75*
G02*
X107975000Y-92412500I0J-200000D01*
G01*
X107975000Y-92812500D01*
G75*
G02*
X107775000Y-93012500I-200000J0D01*
G01*
X107225000Y-93012500D01*
G75*
G02*
X107025000Y-92812500I0J200000D01*
G01*
X107025000Y-92412500D01*
G75*
G02*
X107225000Y-92212500I200000J0D01*
G01*
G37*
G36*
G01*
X107225000Y-90562500D02*
X107775000Y-90562500D01*
G75*
G02*
X107975000Y-90762500I0J-200000D01*
G01*
X107975000Y-91162500D01*
G75*
G02*
X107775000Y-91362500I-200000J0D01*
G01*
X107225000Y-91362500D01*
G75*
G02*
X107025000Y-91162500I0J200000D01*
G01*
X107025000Y-90762500D01*
G75*
G02*
X107225000Y-90562500I200000J0D01*
G01*
G37*
G36*
G01*
X114225000Y-92225000D02*
X114775000Y-92225000D01*
G75*
G02*
X114975000Y-92425000I0J-200000D01*
G01*
X114975000Y-92825000D01*
G75*
G02*
X114775000Y-93025000I-200000J0D01*
G01*
X114225000Y-93025000D01*
G75*
G02*
X114025000Y-92825000I0J200000D01*
G01*
X114025000Y-92425000D01*
G75*
G02*
X114225000Y-92225000I200000J0D01*
G01*
G37*
G36*
G01*
X114225000Y-90575000D02*
X114775000Y-90575000D01*
G75*
G02*
X114975000Y-90775000I0J-200000D01*
G01*
X114975000Y-91175000D01*
G75*
G02*
X114775000Y-91375000I-200000J0D01*
G01*
X114225000Y-91375000D01*
G75*
G02*
X114025000Y-91175000I0J200000D01*
G01*
X114025000Y-90775000D01*
G75*
G02*
X114225000Y-90575000I200000J0D01*
G01*
G37*
G36*
G01*
X121225000Y-92225000D02*
X121775000Y-92225000D01*
G75*
G02*
X121975000Y-92425000I0J-200000D01*
G01*
X121975000Y-92825000D01*
G75*
G02*
X121775000Y-93025000I-200000J0D01*
G01*
X121225000Y-93025000D01*
G75*
G02*
X121025000Y-92825000I0J200000D01*
G01*
X121025000Y-92425000D01*
G75*
G02*
X121225000Y-92225000I200000J0D01*
G01*
G37*
G36*
G01*
X121225000Y-90575000D02*
X121775000Y-90575000D01*
G75*
G02*
X121975000Y-90775000I0J-200000D01*
G01*
X121975000Y-91175000D01*
G75*
G02*
X121775000Y-91375000I-200000J0D01*
G01*
X121225000Y-91375000D01*
G75*
G02*
X121025000Y-91175000I0J200000D01*
G01*
X121025000Y-90775000D01*
G75*
G02*
X121225000Y-90575000I200000J0D01*
G01*
G37*
G36*
G01*
X128225000Y-92225000D02*
X128775000Y-92225000D01*
G75*
G02*
X128975000Y-92425000I0J-200000D01*
G01*
X128975000Y-92825000D01*
G75*
G02*
X128775000Y-93025000I-200000J0D01*
G01*
X128225000Y-93025000D01*
G75*
G02*
X128025000Y-92825000I0J200000D01*
G01*
X128025000Y-92425000D01*
G75*
G02*
X128225000Y-92225000I200000J0D01*
G01*
G37*
G36*
G01*
X128225000Y-90575000D02*
X128775000Y-90575000D01*
G75*
G02*
X128975000Y-90775000I0J-200000D01*
G01*
X128975000Y-91175000D01*
G75*
G02*
X128775000Y-91375000I-200000J0D01*
G01*
X128225000Y-91375000D01*
G75*
G02*
X128025000Y-91175000I0J200000D01*
G01*
X128025000Y-90775000D01*
G75*
G02*
X128225000Y-90575000I200000J0D01*
G01*
G37*
G36*
G01*
X135225000Y-92225000D02*
X135775000Y-92225000D01*
G75*
G02*
X135975000Y-92425000I0J-200000D01*
G01*
X135975000Y-92825000D01*
G75*
G02*
X135775000Y-93025000I-200000J0D01*
G01*
X135225000Y-93025000D01*
G75*
G02*
X135025000Y-92825000I0J200000D01*
G01*
X135025000Y-92425000D01*
G75*
G02*
X135225000Y-92225000I200000J0D01*
G01*
G37*
G36*
G01*
X135225000Y-90575000D02*
X135775000Y-90575000D01*
G75*
G02*
X135975000Y-90775000I0J-200000D01*
G01*
X135975000Y-91175000D01*
G75*
G02*
X135775000Y-91375000I-200000J0D01*
G01*
X135225000Y-91375000D01*
G75*
G02*
X135025000Y-91175000I0J200000D01*
G01*
X135025000Y-90775000D01*
G75*
G02*
X135225000Y-90575000I200000J0D01*
G01*
G37*
G36*
G01*
X142225000Y-92225000D02*
X142775000Y-92225000D01*
G75*
G02*
X142975000Y-92425000I0J-200000D01*
G01*
X142975000Y-92825000D01*
G75*
G02*
X142775000Y-93025000I-200000J0D01*
G01*
X142225000Y-93025000D01*
G75*
G02*
X142025000Y-92825000I0J200000D01*
G01*
X142025000Y-92425000D01*
G75*
G02*
X142225000Y-92225000I200000J0D01*
G01*
G37*
G36*
G01*
X142225000Y-90575000D02*
X142775000Y-90575000D01*
G75*
G02*
X142975000Y-90775000I0J-200000D01*
G01*
X142975000Y-91175000D01*
G75*
G02*
X142775000Y-91375000I-200000J0D01*
G01*
X142225000Y-91375000D01*
G75*
G02*
X142025000Y-91175000I0J200000D01*
G01*
X142025000Y-90775000D01*
G75*
G02*
X142225000Y-90575000I200000J0D01*
G01*
G37*
G36*
G01*
X152625000Y-92225000D02*
X153175000Y-92225000D01*
G75*
G02*
X153375000Y-92425000I0J-200000D01*
G01*
X153375000Y-92825000D01*
G75*
G02*
X153175000Y-93025000I-200000J0D01*
G01*
X152625000Y-93025000D01*
G75*
G02*
X152425000Y-92825000I0J200000D01*
G01*
X152425000Y-92425000D01*
G75*
G02*
X152625000Y-92225000I200000J0D01*
G01*
G37*
G36*
G01*
X152625000Y-90575000D02*
X153175000Y-90575000D01*
G75*
G02*
X153375000Y-90775000I0J-200000D01*
G01*
X153375000Y-91175000D01*
G75*
G02*
X153175000Y-91375000I-200000J0D01*
G01*
X152625000Y-91375000D01*
G75*
G02*
X152425000Y-91175000I0J200000D01*
G01*
X152425000Y-90775000D01*
G75*
G02*
X152625000Y-90575000I200000J0D01*
G01*
G37*
G36*
G01*
X159725000Y-92225000D02*
X160275000Y-92225000D01*
G75*
G02*
X160475000Y-92425000I0J-200000D01*
G01*
X160475000Y-92825000D01*
G75*
G02*
X160275000Y-93025000I-200000J0D01*
G01*
X159725000Y-93025000D01*
G75*
G02*
X159525000Y-92825000I0J200000D01*
G01*
X159525000Y-92425000D01*
G75*
G02*
X159725000Y-92225000I200000J0D01*
G01*
G37*
G36*
G01*
X159725000Y-90575000D02*
X160275000Y-90575000D01*
G75*
G02*
X160475000Y-90775000I0J-200000D01*
G01*
X160475000Y-91175000D01*
G75*
G02*
X160275000Y-91375000I-200000J0D01*
G01*
X159725000Y-91375000D01*
G75*
G02*
X159525000Y-91175000I0J200000D01*
G01*
X159525000Y-90775000D01*
G75*
G02*
X159725000Y-90575000I200000J0D01*
G01*
G37*
G36*
G01*
X166725000Y-92225000D02*
X167275000Y-92225000D01*
G75*
G02*
X167475000Y-92425000I0J-200000D01*
G01*
X167475000Y-92825000D01*
G75*
G02*
X167275000Y-93025000I-200000J0D01*
G01*
X166725000Y-93025000D01*
G75*
G02*
X166525000Y-92825000I0J200000D01*
G01*
X166525000Y-92425000D01*
G75*
G02*
X166725000Y-92225000I200000J0D01*
G01*
G37*
G36*
G01*
X166725000Y-90575000D02*
X167275000Y-90575000D01*
G75*
G02*
X167475000Y-90775000I0J-200000D01*
G01*
X167475000Y-91175000D01*
G75*
G02*
X167275000Y-91375000I-200000J0D01*
G01*
X166725000Y-91375000D01*
G75*
G02*
X166525000Y-91175000I0J200000D01*
G01*
X166525000Y-90775000D01*
G75*
G02*
X166725000Y-90575000I200000J0D01*
G01*
G37*
G36*
G01*
X173725000Y-92237500D02*
X174275000Y-92237500D01*
G75*
G02*
X174475000Y-92437500I0J-200000D01*
G01*
X174475000Y-92837500D01*
G75*
G02*
X174275000Y-93037500I-200000J0D01*
G01*
X173725000Y-93037500D01*
G75*
G02*
X173525000Y-92837500I0J200000D01*
G01*
X173525000Y-92437500D01*
G75*
G02*
X173725000Y-92237500I200000J0D01*
G01*
G37*
G36*
G01*
X173725000Y-90587500D02*
X174275000Y-90587500D01*
G75*
G02*
X174475000Y-90787500I0J-200000D01*
G01*
X174475000Y-91187500D01*
G75*
G02*
X174275000Y-91387500I-200000J0D01*
G01*
X173725000Y-91387500D01*
G75*
G02*
X173525000Y-91187500I0J200000D01*
G01*
X173525000Y-90787500D01*
G75*
G02*
X173725000Y-90587500I200000J0D01*
G01*
G37*
G36*
G01*
X180725000Y-92237500D02*
X181275000Y-92237500D01*
G75*
G02*
X181475000Y-92437500I0J-200000D01*
G01*
X181475000Y-92837500D01*
G75*
G02*
X181275000Y-93037500I-200000J0D01*
G01*
X180725000Y-93037500D01*
G75*
G02*
X180525000Y-92837500I0J200000D01*
G01*
X180525000Y-92437500D01*
G75*
G02*
X180725000Y-92237500I200000J0D01*
G01*
G37*
G36*
G01*
X180725000Y-90587500D02*
X181275000Y-90587500D01*
G75*
G02*
X181475000Y-90787500I0J-200000D01*
G01*
X181475000Y-91187500D01*
G75*
G02*
X181275000Y-91387500I-200000J0D01*
G01*
X180725000Y-91387500D01*
G75*
G02*
X180525000Y-91187500I0J200000D01*
G01*
X180525000Y-90787500D01*
G75*
G02*
X180725000Y-90587500I200000J0D01*
G01*
G37*
G36*
G01*
X187725000Y-92212500D02*
X188275000Y-92212500D01*
G75*
G02*
X188475000Y-92412500I0J-200000D01*
G01*
X188475000Y-92812500D01*
G75*
G02*
X188275000Y-93012500I-200000J0D01*
G01*
X187725000Y-93012500D01*
G75*
G02*
X187525000Y-92812500I0J200000D01*
G01*
X187525000Y-92412500D01*
G75*
G02*
X187725000Y-92212500I200000J0D01*
G01*
G37*
G36*
G01*
X187725000Y-90562500D02*
X188275000Y-90562500D01*
G75*
G02*
X188475000Y-90762500I0J-200000D01*
G01*
X188475000Y-91162500D01*
G75*
G02*
X188275000Y-91362500I-200000J0D01*
G01*
X187725000Y-91362500D01*
G75*
G02*
X187525000Y-91162500I0J200000D01*
G01*
X187525000Y-90762500D01*
G75*
G02*
X187725000Y-90562500I200000J0D01*
G01*
G37*
G36*
G01*
X194725000Y-92225000D02*
X195275000Y-92225000D01*
G75*
G02*
X195475000Y-92425000I0J-200000D01*
G01*
X195475000Y-92825000D01*
G75*
G02*
X195275000Y-93025000I-200000J0D01*
G01*
X194725000Y-93025000D01*
G75*
G02*
X194525000Y-92825000I0J200000D01*
G01*
X194525000Y-92425000D01*
G75*
G02*
X194725000Y-92225000I200000J0D01*
G01*
G37*
G36*
G01*
X194725000Y-90575000D02*
X195275000Y-90575000D01*
G75*
G02*
X195475000Y-90775000I0J-200000D01*
G01*
X195475000Y-91175000D01*
G75*
G02*
X195275000Y-91375000I-200000J0D01*
G01*
X194725000Y-91375000D01*
G75*
G02*
X194525000Y-91175000I0J200000D01*
G01*
X194525000Y-90775000D01*
G75*
G02*
X194725000Y-90575000I200000J0D01*
G01*
G37*
G36*
G01*
X150925000Y-92237500D02*
X151475000Y-92237500D01*
G75*
G02*
X151675000Y-92437500I0J-200000D01*
G01*
X151675000Y-92837500D01*
G75*
G02*
X151475000Y-93037500I-200000J0D01*
G01*
X150925000Y-93037500D01*
G75*
G02*
X150725000Y-92837500I0J200000D01*
G01*
X150725000Y-92437500D01*
G75*
G02*
X150925000Y-92237500I200000J0D01*
G01*
G37*
G36*
G01*
X150925000Y-90587500D02*
X151475000Y-90587500D01*
G75*
G02*
X151675000Y-90787500I0J-200000D01*
G01*
X151675000Y-91187500D01*
G75*
G02*
X151475000Y-91387500I-200000J0D01*
G01*
X150925000Y-91387500D01*
G75*
G02*
X150725000Y-91187500I0J200000D01*
G01*
X150725000Y-90787500D01*
G75*
G02*
X150925000Y-90587500I200000J0D01*
G01*
G37*
G36*
G01*
X157925000Y-92225000D02*
X158475000Y-92225000D01*
G75*
G02*
X158675000Y-92425000I0J-200000D01*
G01*
X158675000Y-92825000D01*
G75*
G02*
X158475000Y-93025000I-200000J0D01*
G01*
X157925000Y-93025000D01*
G75*
G02*
X157725000Y-92825000I0J200000D01*
G01*
X157725000Y-92425000D01*
G75*
G02*
X157925000Y-92225000I200000J0D01*
G01*
G37*
G36*
G01*
X157925000Y-90575000D02*
X158475000Y-90575000D01*
G75*
G02*
X158675000Y-90775000I0J-200000D01*
G01*
X158675000Y-91175000D01*
G75*
G02*
X158475000Y-91375000I-200000J0D01*
G01*
X157925000Y-91375000D01*
G75*
G02*
X157725000Y-91175000I0J200000D01*
G01*
X157725000Y-90775000D01*
G75*
G02*
X157925000Y-90575000I200000J0D01*
G01*
G37*
G36*
G01*
X164925000Y-92225000D02*
X165475000Y-92225000D01*
G75*
G02*
X165675000Y-92425000I0J-200000D01*
G01*
X165675000Y-92825000D01*
G75*
G02*
X165475000Y-93025000I-200000J0D01*
G01*
X164925000Y-93025000D01*
G75*
G02*
X164725000Y-92825000I0J200000D01*
G01*
X164725000Y-92425000D01*
G75*
G02*
X164925000Y-92225000I200000J0D01*
G01*
G37*
G36*
G01*
X164925000Y-90575000D02*
X165475000Y-90575000D01*
G75*
G02*
X165675000Y-90775000I0J-200000D01*
G01*
X165675000Y-91175000D01*
G75*
G02*
X165475000Y-91375000I-200000J0D01*
G01*
X164925000Y-91375000D01*
G75*
G02*
X164725000Y-91175000I0J200000D01*
G01*
X164725000Y-90775000D01*
G75*
G02*
X164925000Y-90575000I200000J0D01*
G01*
G37*
G36*
G01*
X171925000Y-92225000D02*
X172475000Y-92225000D01*
G75*
G02*
X172675000Y-92425000I0J-200000D01*
G01*
X172675000Y-92825000D01*
G75*
G02*
X172475000Y-93025000I-200000J0D01*
G01*
X171925000Y-93025000D01*
G75*
G02*
X171725000Y-92825000I0J200000D01*
G01*
X171725000Y-92425000D01*
G75*
G02*
X171925000Y-92225000I200000J0D01*
G01*
G37*
G36*
G01*
X171925000Y-90575000D02*
X172475000Y-90575000D01*
G75*
G02*
X172675000Y-90775000I0J-200000D01*
G01*
X172675000Y-91175000D01*
G75*
G02*
X172475000Y-91375000I-200000J0D01*
G01*
X171925000Y-91375000D01*
G75*
G02*
X171725000Y-91175000I0J200000D01*
G01*
X171725000Y-90775000D01*
G75*
G02*
X171925000Y-90575000I200000J0D01*
G01*
G37*
G36*
G01*
X178925000Y-92225000D02*
X179475000Y-92225000D01*
G75*
G02*
X179675000Y-92425000I0J-200000D01*
G01*
X179675000Y-92825000D01*
G75*
G02*
X179475000Y-93025000I-200000J0D01*
G01*
X178925000Y-93025000D01*
G75*
G02*
X178725000Y-92825000I0J200000D01*
G01*
X178725000Y-92425000D01*
G75*
G02*
X178925000Y-92225000I200000J0D01*
G01*
G37*
G36*
G01*
X178925000Y-90575000D02*
X179475000Y-90575000D01*
G75*
G02*
X179675000Y-90775000I0J-200000D01*
G01*
X179675000Y-91175000D01*
G75*
G02*
X179475000Y-91375000I-200000J0D01*
G01*
X178925000Y-91375000D01*
G75*
G02*
X178725000Y-91175000I0J200000D01*
G01*
X178725000Y-90775000D01*
G75*
G02*
X178925000Y-90575000I200000J0D01*
G01*
G37*
G36*
G01*
X185925000Y-92225000D02*
X186475000Y-92225000D01*
G75*
G02*
X186675000Y-92425000I0J-200000D01*
G01*
X186675000Y-92825000D01*
G75*
G02*
X186475000Y-93025000I-200000J0D01*
G01*
X185925000Y-93025000D01*
G75*
G02*
X185725000Y-92825000I0J200000D01*
G01*
X185725000Y-92425000D01*
G75*
G02*
X185925000Y-92225000I200000J0D01*
G01*
G37*
G36*
G01*
X185925000Y-90575000D02*
X186475000Y-90575000D01*
G75*
G02*
X186675000Y-90775000I0J-200000D01*
G01*
X186675000Y-91175000D01*
G75*
G02*
X186475000Y-91375000I-200000J0D01*
G01*
X185925000Y-91375000D01*
G75*
G02*
X185725000Y-91175000I0J200000D01*
G01*
X185725000Y-90775000D01*
G75*
G02*
X185925000Y-90575000I200000J0D01*
G01*
G37*
G36*
G01*
X193025000Y-92237500D02*
X193575000Y-92237500D01*
G75*
G02*
X193775000Y-92437500I0J-200000D01*
G01*
X193775000Y-92837500D01*
G75*
G02*
X193575000Y-93037500I-200000J0D01*
G01*
X193025000Y-93037500D01*
G75*
G02*
X192825000Y-92837500I0J200000D01*
G01*
X192825000Y-92437500D01*
G75*
G02*
X193025000Y-92237500I200000J0D01*
G01*
G37*
G36*
G01*
X193025000Y-90587500D02*
X193575000Y-90587500D01*
G75*
G02*
X193775000Y-90787500I0J-200000D01*
G01*
X193775000Y-91187500D01*
G75*
G02*
X193575000Y-91387500I-200000J0D01*
G01*
X193025000Y-91387500D01*
G75*
G02*
X192825000Y-91187500I0J200000D01*
G01*
X192825000Y-90787500D01*
G75*
G02*
X193025000Y-90587500I200000J0D01*
G01*
G37*
G36*
G01*
X149225000Y-92225000D02*
X149775000Y-92225000D01*
G75*
G02*
X149975000Y-92425000I0J-200000D01*
G01*
X149975000Y-92825000D01*
G75*
G02*
X149775000Y-93025000I-200000J0D01*
G01*
X149225000Y-93025000D01*
G75*
G02*
X149025000Y-92825000I0J200000D01*
G01*
X149025000Y-92425000D01*
G75*
G02*
X149225000Y-92225000I200000J0D01*
G01*
G37*
G36*
G01*
X149225000Y-90575000D02*
X149775000Y-90575000D01*
G75*
G02*
X149975000Y-90775000I0J-200000D01*
G01*
X149975000Y-91175000D01*
G75*
G02*
X149775000Y-91375000I-200000J0D01*
G01*
X149225000Y-91375000D01*
G75*
G02*
X149025000Y-91175000I0J200000D01*
G01*
X149025000Y-90775000D01*
G75*
G02*
X149225000Y-90575000I200000J0D01*
G01*
G37*
G36*
G01*
X156225000Y-92225000D02*
X156775000Y-92225000D01*
G75*
G02*
X156975000Y-92425000I0J-200000D01*
G01*
X156975000Y-92825000D01*
G75*
G02*
X156775000Y-93025000I-200000J0D01*
G01*
X156225000Y-93025000D01*
G75*
G02*
X156025000Y-92825000I0J200000D01*
G01*
X156025000Y-92425000D01*
G75*
G02*
X156225000Y-92225000I200000J0D01*
G01*
G37*
G36*
G01*
X156225000Y-90575000D02*
X156775000Y-90575000D01*
G75*
G02*
X156975000Y-90775000I0J-200000D01*
G01*
X156975000Y-91175000D01*
G75*
G02*
X156775000Y-91375000I-200000J0D01*
G01*
X156225000Y-91375000D01*
G75*
G02*
X156025000Y-91175000I0J200000D01*
G01*
X156025000Y-90775000D01*
G75*
G02*
X156225000Y-90575000I200000J0D01*
G01*
G37*
G36*
G01*
X163225000Y-92212500D02*
X163775000Y-92212500D01*
G75*
G02*
X163975000Y-92412500I0J-200000D01*
G01*
X163975000Y-92812500D01*
G75*
G02*
X163775000Y-93012500I-200000J0D01*
G01*
X163225000Y-93012500D01*
G75*
G02*
X163025000Y-92812500I0J200000D01*
G01*
X163025000Y-92412500D01*
G75*
G02*
X163225000Y-92212500I200000J0D01*
G01*
G37*
G36*
G01*
X163225000Y-90562500D02*
X163775000Y-90562500D01*
G75*
G02*
X163975000Y-90762500I0J-200000D01*
G01*
X163975000Y-91162500D01*
G75*
G02*
X163775000Y-91362500I-200000J0D01*
G01*
X163225000Y-91362500D01*
G75*
G02*
X163025000Y-91162500I0J200000D01*
G01*
X163025000Y-90762500D01*
G75*
G02*
X163225000Y-90562500I200000J0D01*
G01*
G37*
G36*
G01*
X170225000Y-92225000D02*
X170775000Y-92225000D01*
G75*
G02*
X170975000Y-92425000I0J-200000D01*
G01*
X170975000Y-92825000D01*
G75*
G02*
X170775000Y-93025000I-200000J0D01*
G01*
X170225000Y-93025000D01*
G75*
G02*
X170025000Y-92825000I0J200000D01*
G01*
X170025000Y-92425000D01*
G75*
G02*
X170225000Y-92225000I200000J0D01*
G01*
G37*
G36*
G01*
X170225000Y-90575000D02*
X170775000Y-90575000D01*
G75*
G02*
X170975000Y-90775000I0J-200000D01*
G01*
X170975000Y-91175000D01*
G75*
G02*
X170775000Y-91375000I-200000J0D01*
G01*
X170225000Y-91375000D01*
G75*
G02*
X170025000Y-91175000I0J200000D01*
G01*
X170025000Y-90775000D01*
G75*
G02*
X170225000Y-90575000I200000J0D01*
G01*
G37*
G36*
G01*
X177225000Y-92225000D02*
X177775000Y-92225000D01*
G75*
G02*
X177975000Y-92425000I0J-200000D01*
G01*
X177975000Y-92825000D01*
G75*
G02*
X177775000Y-93025000I-200000J0D01*
G01*
X177225000Y-93025000D01*
G75*
G02*
X177025000Y-92825000I0J200000D01*
G01*
X177025000Y-92425000D01*
G75*
G02*
X177225000Y-92225000I200000J0D01*
G01*
G37*
G36*
G01*
X177225000Y-90575000D02*
X177775000Y-90575000D01*
G75*
G02*
X177975000Y-90775000I0J-200000D01*
G01*
X177975000Y-91175000D01*
G75*
G02*
X177775000Y-91375000I-200000J0D01*
G01*
X177225000Y-91375000D01*
G75*
G02*
X177025000Y-91175000I0J200000D01*
G01*
X177025000Y-90775000D01*
G75*
G02*
X177225000Y-90575000I200000J0D01*
G01*
G37*
G36*
G01*
X184225000Y-92225000D02*
X184775000Y-92225000D01*
G75*
G02*
X184975000Y-92425000I0J-200000D01*
G01*
X184975000Y-92825000D01*
G75*
G02*
X184775000Y-93025000I-200000J0D01*
G01*
X184225000Y-93025000D01*
G75*
G02*
X184025000Y-92825000I0J200000D01*
G01*
X184025000Y-92425000D01*
G75*
G02*
X184225000Y-92225000I200000J0D01*
G01*
G37*
G36*
G01*
X184225000Y-90575000D02*
X184775000Y-90575000D01*
G75*
G02*
X184975000Y-90775000I0J-200000D01*
G01*
X184975000Y-91175000D01*
G75*
G02*
X184775000Y-91375000I-200000J0D01*
G01*
X184225000Y-91375000D01*
G75*
G02*
X184025000Y-91175000I0J200000D01*
G01*
X184025000Y-90775000D01*
G75*
G02*
X184225000Y-90575000I200000J0D01*
G01*
G37*
G36*
G01*
X191225000Y-92225000D02*
X191775000Y-92225000D01*
G75*
G02*
X191975000Y-92425000I0J-200000D01*
G01*
X191975000Y-92825000D01*
G75*
G02*
X191775000Y-93025000I-200000J0D01*
G01*
X191225000Y-93025000D01*
G75*
G02*
X191025000Y-92825000I0J200000D01*
G01*
X191025000Y-92425000D01*
G75*
G02*
X191225000Y-92225000I200000J0D01*
G01*
G37*
G36*
G01*
X191225000Y-90575000D02*
X191775000Y-90575000D01*
G75*
G02*
X191975000Y-90775000I0J-200000D01*
G01*
X191975000Y-91175000D01*
G75*
G02*
X191775000Y-91375000I-200000J0D01*
G01*
X191225000Y-91375000D01*
G75*
G02*
X191025000Y-91175000I0J200000D01*
G01*
X191025000Y-90775000D01*
G75*
G02*
X191225000Y-90575000I200000J0D01*
G01*
G37*
G36*
G01*
X246950000Y-110700001D02*
X246950000Y-109799999D01*
G75*
G02*
X247199999Y-109550000I249999J0D01*
G01*
X247900001Y-109550000D01*
G75*
G02*
X248150000Y-109799999I0J-249999D01*
G01*
X248150000Y-110700001D01*
G75*
G02*
X247900001Y-110950000I-249999J0D01*
G01*
X247199999Y-110950000D01*
G75*
G02*
X246950000Y-110700001I0J249999D01*
G01*
G37*
G36*
G01*
X244950000Y-110700001D02*
X244950000Y-109799999D01*
G75*
G02*
X245199999Y-109550000I249999J0D01*
G01*
X245900001Y-109550000D01*
G75*
G02*
X246150000Y-109799999I0J-249999D01*
G01*
X246150000Y-110700001D01*
G75*
G02*
X245900001Y-110950000I-249999J0D01*
G01*
X245199999Y-110950000D01*
G75*
G02*
X244950000Y-110700001I0J249999D01*
G01*
G37*
G36*
G01*
X219300000Y-110700001D02*
X219300000Y-109799999D01*
G75*
G02*
X219549999Y-109550000I249999J0D01*
G01*
X220250001Y-109550000D01*
G75*
G02*
X220500000Y-109799999I0J-249999D01*
G01*
X220500000Y-110700001D01*
G75*
G02*
X220250001Y-110950000I-249999J0D01*
G01*
X219549999Y-110950000D01*
G75*
G02*
X219300000Y-110700001I0J249999D01*
G01*
G37*
G36*
G01*
X217300000Y-110700001D02*
X217300000Y-109799999D01*
G75*
G02*
X217549999Y-109550000I249999J0D01*
G01*
X218250001Y-109550000D01*
G75*
G02*
X218500000Y-109799999I0J-249999D01*
G01*
X218500000Y-110700001D01*
G75*
G02*
X218250001Y-110950000I-249999J0D01*
G01*
X217549999Y-110950000D01*
G75*
G02*
X217300000Y-110700001I0J249999D01*
G01*
G37*
G36*
G01*
X244700001Y-86800000D02*
X243799999Y-86800000D01*
G75*
G02*
X243550000Y-86550001I0J249999D01*
G01*
X243550000Y-85849999D01*
G75*
G02*
X243799999Y-85600000I249999J0D01*
G01*
X244700001Y-85600000D01*
G75*
G02*
X244950000Y-85849999I0J-249999D01*
G01*
X244950000Y-86550001D01*
G75*
G02*
X244700001Y-86800000I-249999J0D01*
G01*
G37*
G36*
G01*
X244700001Y-88800000D02*
X243799999Y-88800000D01*
G75*
G02*
X243550000Y-88550001I0J249999D01*
G01*
X243550000Y-87849999D01*
G75*
G02*
X243799999Y-87600000I249999J0D01*
G01*
X244700001Y-87600000D01*
G75*
G02*
X244950000Y-87849999I0J-249999D01*
G01*
X244950000Y-88550001D01*
G75*
G02*
X244700001Y-88800000I-249999J0D01*
G01*
G37*
G36*
G01*
X246499999Y-87600000D02*
X247400001Y-87600000D01*
G75*
G02*
X247650000Y-87849999I0J-249999D01*
G01*
X247650000Y-88550001D01*
G75*
G02*
X247400001Y-88800000I-249999J0D01*
G01*
X246499999Y-88800000D01*
G75*
G02*
X246250000Y-88550001I0J249999D01*
G01*
X246250000Y-87849999D01*
G75*
G02*
X246499999Y-87600000I249999J0D01*
G01*
G37*
G36*
G01*
X246499999Y-85600000D02*
X247400001Y-85600000D01*
G75*
G02*
X247650000Y-85849999I0J-249999D01*
G01*
X247650000Y-86550001D01*
G75*
G02*
X247400001Y-86800000I-249999J0D01*
G01*
X246499999Y-86800000D01*
G75*
G02*
X246250000Y-86550001I0J249999D01*
G01*
X246250000Y-85849999D01*
G75*
G02*
X246499999Y-85600000I249999J0D01*
G01*
G37*
G36*
G01*
X259950000Y-97950001D02*
X259950000Y-97049999D01*
G75*
G02*
X260199999Y-96800000I249999J0D01*
G01*
X260900001Y-96800000D01*
G75*
G02*
X261150000Y-97049999I0J-249999D01*
G01*
X261150000Y-97950001D01*
G75*
G02*
X260900001Y-98200000I-249999J0D01*
G01*
X260199999Y-98200000D01*
G75*
G02*
X259950000Y-97950001I0J249999D01*
G01*
G37*
G36*
G01*
X257950000Y-97950001D02*
X257950000Y-97049999D01*
G75*
G02*
X258199999Y-96800000I249999J0D01*
G01*
X258900001Y-96800000D01*
G75*
G02*
X259150000Y-97049999I0J-249999D01*
G01*
X259150000Y-97950001D01*
G75*
G02*
X258900001Y-98200000I-249999J0D01*
G01*
X258199999Y-98200000D01*
G75*
G02*
X257950000Y-97950001I0J249999D01*
G01*
G37*
G36*
G01*
X250400001Y-86800000D02*
X249499999Y-86800000D01*
G75*
G02*
X249250000Y-86550001I0J249999D01*
G01*
X249250000Y-85849999D01*
G75*
G02*
X249499999Y-85600000I249999J0D01*
G01*
X250400001Y-85600000D01*
G75*
G02*
X250650000Y-85849999I0J-249999D01*
G01*
X250650000Y-86550001D01*
G75*
G02*
X250400001Y-86800000I-249999J0D01*
G01*
G37*
G36*
G01*
X250400001Y-88800000D02*
X249499999Y-88800000D01*
G75*
G02*
X249250000Y-88550001I0J249999D01*
G01*
X249250000Y-87849999D01*
G75*
G02*
X249499999Y-87600000I249999J0D01*
G01*
X250400001Y-87600000D01*
G75*
G02*
X250650000Y-87849999I0J-249999D01*
G01*
X250650000Y-88550001D01*
G75*
G02*
X250400001Y-88800000I-249999J0D01*
G01*
G37*
G36*
G01*
X224350000Y-88549999D02*
X224350000Y-89450001D01*
G75*
G02*
X224100001Y-89700000I-249999J0D01*
G01*
X223399999Y-89700000D01*
G75*
G02*
X223150000Y-89450001I0J249999D01*
G01*
X223150000Y-88549999D01*
G75*
G02*
X223399999Y-88300000I249999J0D01*
G01*
X224100001Y-88300000D01*
G75*
G02*
X224350000Y-88549999I0J-249999D01*
G01*
G37*
G36*
G01*
X226350000Y-88549999D02*
X226350000Y-89450001D01*
G75*
G02*
X226100001Y-89700000I-249999J0D01*
G01*
X225399999Y-89700000D01*
G75*
G02*
X225150000Y-89450001I0J249999D01*
G01*
X225150000Y-88549999D01*
G75*
G02*
X225399999Y-88300000I249999J0D01*
G01*
X226100001Y-88300000D01*
G75*
G02*
X226350000Y-88549999I0J-249999D01*
G01*
G37*
G36*
G01*
X263550000Y-112350001D02*
X263550000Y-111449999D01*
G75*
G02*
X263799999Y-111200000I249999J0D01*
G01*
X264500001Y-111200000D01*
G75*
G02*
X264750000Y-111449999I0J-249999D01*
G01*
X264750000Y-112350001D01*
G75*
G02*
X264500001Y-112600000I-249999J0D01*
G01*
X263799999Y-112600000D01*
G75*
G02*
X263550000Y-112350001I0J249999D01*
G01*
G37*
G36*
G01*
X261550000Y-112350001D02*
X261550000Y-111449999D01*
G75*
G02*
X261799999Y-111200000I249999J0D01*
G01*
X262500001Y-111200000D01*
G75*
G02*
X262750000Y-111449999I0J-249999D01*
G01*
X262750000Y-112350001D01*
G75*
G02*
X262500001Y-112600000I-249999J0D01*
G01*
X261799999Y-112600000D01*
G75*
G02*
X261550000Y-112350001I0J249999D01*
G01*
G37*
G36*
G01*
X262750000Y-108599999D02*
X262750000Y-109500001D01*
G75*
G02*
X262500001Y-109750000I-249999J0D01*
G01*
X261799999Y-109750000D01*
G75*
G02*
X261550000Y-109500001I0J249999D01*
G01*
X261550000Y-108599999D01*
G75*
G02*
X261799999Y-108350000I249999J0D01*
G01*
X262500001Y-108350000D01*
G75*
G02*
X262750000Y-108599999I0J-249999D01*
G01*
G37*
G36*
G01*
X264750000Y-108599999D02*
X264750000Y-109500001D01*
G75*
G02*
X264500001Y-109750000I-249999J0D01*
G01*
X263799999Y-109750000D01*
G75*
G02*
X263550000Y-109500001I0J249999D01*
G01*
X263550000Y-108599999D01*
G75*
G02*
X263799999Y-108350000I249999J0D01*
G01*
X264500001Y-108350000D01*
G75*
G02*
X264750000Y-108599999I0J-249999D01*
G01*
G37*
G36*
G01*
X235950000Y-81599999D02*
X235950000Y-82500001D01*
G75*
G02*
X235700001Y-82750000I-249999J0D01*
G01*
X234999999Y-82750000D01*
G75*
G02*
X234750000Y-82500001I0J249999D01*
G01*
X234750000Y-81599999D01*
G75*
G02*
X234999999Y-81350000I249999J0D01*
G01*
X235700001Y-81350000D01*
G75*
G02*
X235950000Y-81599999I0J-249999D01*
G01*
G37*
G36*
G01*
X237950000Y-81599999D02*
X237950000Y-82500001D01*
G75*
G02*
X237700001Y-82750000I-249999J0D01*
G01*
X236999999Y-82750000D01*
G75*
G02*
X236750000Y-82500001I0J249999D01*
G01*
X236750000Y-81599999D01*
G75*
G02*
X236999999Y-81350000I249999J0D01*
G01*
X237700001Y-81350000D01*
G75*
G02*
X237950000Y-81599999I0J-249999D01*
G01*
G37*
G36*
G01*
X236750000Y-85350001D02*
X236750000Y-84449999D01*
G75*
G02*
X236999999Y-84200000I249999J0D01*
G01*
X237700001Y-84200000D01*
G75*
G02*
X237950000Y-84449999I0J-249999D01*
G01*
X237950000Y-85350001D01*
G75*
G02*
X237700001Y-85600000I-249999J0D01*
G01*
X236999999Y-85600000D01*
G75*
G02*
X236750000Y-85350001I0J249999D01*
G01*
G37*
G36*
G01*
X234750000Y-85350001D02*
X234750000Y-84449999D01*
G75*
G02*
X234999999Y-84200000I249999J0D01*
G01*
X235700001Y-84200000D01*
G75*
G02*
X235950000Y-84449999I0J-249999D01*
G01*
X235950000Y-85350001D01*
G75*
G02*
X235700001Y-85600000I-249999J0D01*
G01*
X234999999Y-85600000D01*
G75*
G02*
X234750000Y-85350001I0J249999D01*
G01*
G37*
D20*
X246950000Y-82910000D03*
X246000000Y-79490000D03*
X247900000Y-79490000D03*
X250900000Y-79500000D03*
X251850000Y-82920000D03*
X249950000Y-82920000D03*
D21*
X263960000Y-81710000D03*
X263960000Y-84250000D03*
X263960000Y-86790000D03*
X266500000Y-81710000D03*
X266500000Y-84250000D03*
G36*
G01*
X267350000Y-86190000D02*
X267350000Y-87390000D01*
G75*
G02*
X267100000Y-87640000I-250000J0D01*
G01*
X265900000Y-87640000D01*
G75*
G02*
X265650000Y-87390000I0J250000D01*
G01*
X265650000Y-86190000D01*
G75*
G02*
X265900000Y-85940000I250000J0D01*
G01*
X267100000Y-85940000D01*
G75*
G02*
X267350000Y-86190000I0J-250000D01*
G01*
G37*
D22*
X238620000Y-76750000D03*
X236080000Y-76750000D03*
X233540000Y-76750000D03*
D23*
X231000000Y-76750000D03*
D24*
X271050000Y-110650000D03*
X271050000Y-104850000D03*
D25*
X271050000Y-104250000D03*
X271050000Y-111250000D03*
D26*
X271050000Y-108750000D03*
D27*
X268350000Y-105250000D03*
D28*
X268350000Y-107750000D03*
X268350000Y-107100000D03*
X268350000Y-106450000D03*
X268350000Y-109050000D03*
X268350000Y-108400000D03*
D27*
X268350000Y-110250000D03*
D26*
X271050000Y-106750000D03*
D29*
X213750000Y-76750000D03*
X256250000Y-118250000D03*
X256250000Y-76750000D03*
X213750000Y-118250000D03*
G36*
G01*
X241275000Y-82500001D02*
X241275000Y-81599999D01*
G75*
G02*
X241524999Y-81350000I249999J0D01*
G01*
X242175001Y-81350000D01*
G75*
G02*
X242425000Y-81599999I0J-249999D01*
G01*
X242425000Y-82500001D01*
G75*
G02*
X242175001Y-82750000I-249999J0D01*
G01*
X241524999Y-82750000D01*
G75*
G02*
X241275000Y-82500001I0J249999D01*
G01*
G37*
G36*
G01*
X239225000Y-82500001D02*
X239225000Y-81599999D01*
G75*
G02*
X239474999Y-81350000I249999J0D01*
G01*
X240125001Y-81350000D01*
G75*
G02*
X240375000Y-81599999I0J-249999D01*
G01*
X240375000Y-82500001D01*
G75*
G02*
X240125001Y-82750000I-249999J0D01*
G01*
X239474999Y-82750000D01*
G75*
G02*
X239225000Y-82500001I0J249999D01*
G01*
G37*
G36*
G01*
X241275000Y-85300001D02*
X241275000Y-84399999D01*
G75*
G02*
X241524999Y-84150000I249999J0D01*
G01*
X242175001Y-84150000D01*
G75*
G02*
X242425000Y-84399999I0J-249999D01*
G01*
X242425000Y-85300001D01*
G75*
G02*
X242175001Y-85550000I-249999J0D01*
G01*
X241524999Y-85550000D01*
G75*
G02*
X241275000Y-85300001I0J249999D01*
G01*
G37*
G36*
G01*
X239225000Y-85300001D02*
X239225000Y-84399999D01*
G75*
G02*
X239474999Y-84150000I249999J0D01*
G01*
X240125001Y-84150000D01*
G75*
G02*
X240375000Y-84399999I0J-249999D01*
G01*
X240375000Y-85300001D01*
G75*
G02*
X240125001Y-85550000I-249999J0D01*
G01*
X239474999Y-85550000D01*
G75*
G02*
X239225000Y-85300001I0J249999D01*
G01*
G37*
G36*
G01*
X240512500Y-97162500D02*
X240987500Y-97162500D01*
G75*
G02*
X241225000Y-97400000I0J-237500D01*
G01*
X241225000Y-98000000D01*
G75*
G02*
X240987500Y-98237500I-237500J0D01*
G01*
X240512500Y-98237500D01*
G75*
G02*
X240275000Y-98000000I0J237500D01*
G01*
X240275000Y-97400000D01*
G75*
G02*
X240512500Y-97162500I237500J0D01*
G01*
G37*
G36*
G01*
X240512500Y-95437500D02*
X240987500Y-95437500D01*
G75*
G02*
X241225000Y-95675000I0J-237500D01*
G01*
X241225000Y-96275000D01*
G75*
G02*
X240987500Y-96512500I-237500J0D01*
G01*
X240512500Y-96512500D01*
G75*
G02*
X240275000Y-96275000I0J237500D01*
G01*
X240275000Y-95675000D01*
G75*
G02*
X240512500Y-95437500I237500J0D01*
G01*
G37*
G36*
G01*
X240987500Y-100087501D02*
X240512500Y-100087501D01*
G75*
G02*
X240275000Y-99850001I0J237500D01*
G01*
X240275000Y-99250001D01*
G75*
G02*
X240512500Y-99012501I237500J0D01*
G01*
X240987500Y-99012501D01*
G75*
G02*
X241225000Y-99250001I0J-237500D01*
G01*
X241225000Y-99850001D01*
G75*
G02*
X240987500Y-100087501I-237500J0D01*
G01*
G37*
G36*
G01*
X240987500Y-101812501D02*
X240512500Y-101812501D01*
G75*
G02*
X240275000Y-101575001I0J237500D01*
G01*
X240275000Y-100975001D01*
G75*
G02*
X240512500Y-100737501I237500J0D01*
G01*
X240987500Y-100737501D01*
G75*
G02*
X241225000Y-100975001I0J-237500D01*
G01*
X241225000Y-101575001D01*
G75*
G02*
X240987500Y-101812501I-237500J0D01*
G01*
G37*
G36*
G01*
X241887499Y-93025000D02*
X241887499Y-92075000D01*
G75*
G02*
X242137499Y-91825000I250000J0D01*
G01*
X242812499Y-91825000D01*
G75*
G02*
X243062499Y-92075000I0J-250000D01*
G01*
X243062499Y-93025000D01*
G75*
G02*
X242812499Y-93275000I-250000J0D01*
G01*
X242137499Y-93275000D01*
G75*
G02*
X241887499Y-93025000I0J250000D01*
G01*
G37*
G36*
G01*
X239812499Y-93025000D02*
X239812499Y-92075000D01*
G75*
G02*
X240062499Y-91825000I250000J0D01*
G01*
X240737499Y-91825000D01*
G75*
G02*
X240987499Y-92075000I0J-250000D01*
G01*
X240987499Y-93025000D01*
G75*
G02*
X240737499Y-93275000I-250000J0D01*
G01*
X240062499Y-93275000D01*
G75*
G02*
X239812499Y-93025000I0J250000D01*
G01*
G37*
G36*
G01*
X227050000Y-92275000D02*
X227050000Y-93225000D01*
G75*
G02*
X226800000Y-93475000I-250000J0D01*
G01*
X226125000Y-93475000D01*
G75*
G02*
X225875000Y-93225000I0J250000D01*
G01*
X225875000Y-92275000D01*
G75*
G02*
X226125000Y-92025000I250000J0D01*
G01*
X226800000Y-92025000D01*
G75*
G02*
X227050000Y-92275000I0J-250000D01*
G01*
G37*
G36*
G01*
X229125000Y-92275000D02*
X229125000Y-93225000D01*
G75*
G02*
X228875000Y-93475000I-250000J0D01*
G01*
X228200000Y-93475000D01*
G75*
G02*
X227950000Y-93225000I0J250000D01*
G01*
X227950000Y-92275000D01*
G75*
G02*
X228200000Y-92025000I250000J0D01*
G01*
X228875000Y-92025000D01*
G75*
G02*
X229125000Y-92275000I0J-250000D01*
G01*
G37*
G36*
G01*
X227262500Y-102775000D02*
X227262500Y-103725000D01*
G75*
G02*
X227012500Y-103975000I-250000J0D01*
G01*
X226337500Y-103975000D01*
G75*
G02*
X226087500Y-103725000I0J250000D01*
G01*
X226087500Y-102775000D01*
G75*
G02*
X226337500Y-102525000I250000J0D01*
G01*
X227012500Y-102525000D01*
G75*
G02*
X227262500Y-102775000I0J-250000D01*
G01*
G37*
G36*
G01*
X229337500Y-102775000D02*
X229337500Y-103725000D01*
G75*
G02*
X229087500Y-103975000I-250000J0D01*
G01*
X228412500Y-103975000D01*
G75*
G02*
X228162500Y-103725000I0J250000D01*
G01*
X228162500Y-102775000D01*
G75*
G02*
X228412500Y-102525000I250000J0D01*
G01*
X229087500Y-102525000D01*
G75*
G02*
X229337500Y-102775000I0J-250000D01*
G01*
G37*
G36*
G01*
X240487499Y-103725000D02*
X240487499Y-102775000D01*
G75*
G02*
X240737499Y-102525000I250000J0D01*
G01*
X241412499Y-102525000D01*
G75*
G02*
X241662499Y-102775000I0J-250000D01*
G01*
X241662499Y-103725000D01*
G75*
G02*
X241412499Y-103975000I-250000J0D01*
G01*
X240737499Y-103975000D01*
G75*
G02*
X240487499Y-103725000I0J250000D01*
G01*
G37*
G36*
G01*
X238412499Y-103725000D02*
X238412499Y-102775000D01*
G75*
G02*
X238662499Y-102525000I250000J0D01*
G01*
X239337499Y-102525000D01*
G75*
G02*
X239587499Y-102775000I0J-250000D01*
G01*
X239587499Y-103725000D01*
G75*
G02*
X239337499Y-103975000I-250000J0D01*
G01*
X238662499Y-103975000D01*
G75*
G02*
X238412499Y-103725000I0J250000D01*
G01*
G37*
G36*
G01*
X223825000Y-84837500D02*
X224775000Y-84837500D01*
G75*
G02*
X225025000Y-85087500I0J-250000D01*
G01*
X225025000Y-85762500D01*
G75*
G02*
X224775000Y-86012500I-250000J0D01*
G01*
X223825000Y-86012500D01*
G75*
G02*
X223575000Y-85762500I0J250000D01*
G01*
X223575000Y-85087500D01*
G75*
G02*
X223825000Y-84837500I250000J0D01*
G01*
G37*
G36*
G01*
X223825000Y-82762500D02*
X224775000Y-82762500D01*
G75*
G02*
X225025000Y-83012500I0J-250000D01*
G01*
X225025000Y-83687500D01*
G75*
G02*
X224775000Y-83937500I-250000J0D01*
G01*
X223825000Y-83937500D01*
G75*
G02*
X223575000Y-83687500I0J250000D01*
G01*
X223575000Y-83012500D01*
G75*
G02*
X223825000Y-82762500I250000J0D01*
G01*
G37*
G36*
G01*
X212262500Y-86475000D02*
X212262500Y-87425000D01*
G75*
G02*
X212012500Y-87675000I-250000J0D01*
G01*
X211337500Y-87675000D01*
G75*
G02*
X211087500Y-87425000I0J250000D01*
G01*
X211087500Y-86475000D01*
G75*
G02*
X211337500Y-86225000I250000J0D01*
G01*
X212012500Y-86225000D01*
G75*
G02*
X212262500Y-86475000I0J-250000D01*
G01*
G37*
G36*
G01*
X214337500Y-86475000D02*
X214337500Y-87425000D01*
G75*
G02*
X214087500Y-87675000I-250000J0D01*
G01*
X213412500Y-87675000D01*
G75*
G02*
X213162500Y-87425000I0J250000D01*
G01*
X213162500Y-86475000D01*
G75*
G02*
X213412500Y-86225000I250000J0D01*
G01*
X214087500Y-86225000D01*
G75*
G02*
X214337500Y-86475000I0J-250000D01*
G01*
G37*
G36*
G01*
X232962500Y-89375000D02*
X232962500Y-88425000D01*
G75*
G02*
X233212500Y-88175000I250000J0D01*
G01*
X233887500Y-88175000D01*
G75*
G02*
X234137500Y-88425000I0J-250000D01*
G01*
X234137500Y-89375000D01*
G75*
G02*
X233887500Y-89625000I-250000J0D01*
G01*
X233212500Y-89625000D01*
G75*
G02*
X232962500Y-89375000I0J250000D01*
G01*
G37*
G36*
G01*
X230887500Y-89375000D02*
X230887500Y-88425000D01*
G75*
G02*
X231137500Y-88175000I250000J0D01*
G01*
X231812500Y-88175000D01*
G75*
G02*
X232062500Y-88425000I0J-250000D01*
G01*
X232062500Y-89375000D01*
G75*
G02*
X231812500Y-89625000I-250000J0D01*
G01*
X231137500Y-89625000D01*
G75*
G02*
X230887500Y-89375000I0J250000D01*
G01*
G37*
G36*
G01*
X212312500Y-82875000D02*
X212312500Y-83825000D01*
G75*
G02*
X212062500Y-84075000I-250000J0D01*
G01*
X211387500Y-84075000D01*
G75*
G02*
X211137500Y-83825000I0J250000D01*
G01*
X211137500Y-82875000D01*
G75*
G02*
X211387500Y-82625000I250000J0D01*
G01*
X212062500Y-82625000D01*
G75*
G02*
X212312500Y-82875000I0J-250000D01*
G01*
G37*
G36*
G01*
X214387500Y-82875000D02*
X214387500Y-83825000D01*
G75*
G02*
X214137500Y-84075000I-250000J0D01*
G01*
X213462500Y-84075000D01*
G75*
G02*
X213212500Y-83825000I0J250000D01*
G01*
X213212500Y-82875000D01*
G75*
G02*
X213462500Y-82625000I250000J0D01*
G01*
X214137500Y-82625000D01*
G75*
G02*
X214387500Y-82875000I0J-250000D01*
G01*
G37*
D22*
X224440000Y-76700000D03*
D23*
X221900000Y-76700000D03*
M02*
