G04 #@! TF.GenerationSoftware,KiCad,Pcbnew,(5.1.10)-1*
G04 #@! TF.CreationDate,2022-05-27T17:54:39+02:00*
G04 #@! TF.ProjectId,POV_display_schematic,504f565f-6469-4737-906c-61795f736368,1*
G04 #@! TF.SameCoordinates,Original*
G04 #@! TF.FileFunction,Soldermask,Top*
G04 #@! TF.FilePolarity,Negative*
%FSLAX46Y46*%
G04 Gerber Fmt 4.6, Leading zero omitted, Abs format (unit mm)*
G04 Created by KiCad (PCBNEW (5.1.10)-1) date 2022-05-27 17:54:39*
%MOMM*%
%LPD*%
G01*
G04 APERTURE LIST*
%ADD10R,1.100000X2.000000*%
%ADD11C,1.800000*%
%ADD12R,1.800000X1.800000*%
%ADD13R,1.100000X1.050000*%
%ADD14C,0.152400*%
%ADD15R,2.300000X0.900000*%
%ADD16R,2.000000X2.000000*%
%ADD17R,1.500000X0.600000*%
%ADD18R,0.650000X2.000000*%
%ADD19C,1.700000*%
%ADD20O,1.700000X1.700000*%
%ADD21R,1.700000X1.700000*%
%ADD22R,1.900000X1.200000*%
%ADD23O,1.900000X1.200000*%
%ADD24R,1.900000X1.500000*%
%ADD25C,1.450000*%
%ADD26R,1.350000X0.400000*%
%ADD27C,3.200000*%
G04 APERTURE END LIST*
D10*
X54950000Y-99650000D03*
X53250000Y-99650000D03*
X51550000Y-99650000D03*
X51550000Y-94850000D03*
X53250000Y-94850000D03*
X54950000Y-94850000D03*
X61950000Y-99650000D03*
X60250000Y-99650000D03*
X58550000Y-99650000D03*
X58550000Y-94850000D03*
X60250000Y-94850000D03*
X61950000Y-94850000D03*
X68950000Y-99650000D03*
X67250000Y-99650000D03*
X65550000Y-99650000D03*
X65550000Y-94850000D03*
X67250000Y-94850000D03*
X68950000Y-94850000D03*
X75950000Y-99650000D03*
X74250000Y-99650000D03*
X72550000Y-99650000D03*
X72550000Y-94850000D03*
X74250000Y-94850000D03*
X75950000Y-94850000D03*
X82950000Y-99650000D03*
X81250000Y-99650000D03*
X79550000Y-99650000D03*
X79550000Y-94850000D03*
X81250000Y-94850000D03*
X82950000Y-94850000D03*
X89950000Y-99650000D03*
X88250000Y-99650000D03*
X86550000Y-99650000D03*
X86550000Y-94850000D03*
X88250000Y-94850000D03*
X89950000Y-94850000D03*
X96950000Y-99650000D03*
X95250000Y-99650000D03*
X93550000Y-99650000D03*
X93550000Y-94850000D03*
X95250000Y-94850000D03*
X96950000Y-94850000D03*
X103950000Y-99650000D03*
X102250000Y-99650000D03*
X100550000Y-99650000D03*
X100550000Y-94850000D03*
X102250000Y-94850000D03*
X103950000Y-94850000D03*
X110950000Y-99650000D03*
X109250000Y-99650000D03*
X107550000Y-99650000D03*
X107550000Y-94850000D03*
X109250000Y-94850000D03*
X110950000Y-94850000D03*
X117950000Y-99650000D03*
X116250000Y-99650000D03*
X114550000Y-99650000D03*
X114550000Y-94850000D03*
X116250000Y-94850000D03*
X117950000Y-94850000D03*
X124950000Y-99650000D03*
X123250000Y-99650000D03*
X121550000Y-99650000D03*
X121550000Y-94850000D03*
X123250000Y-94850000D03*
X124950000Y-94850000D03*
X131950000Y-99650000D03*
X130250000Y-99650000D03*
X128550000Y-99650000D03*
X128550000Y-94850000D03*
X130250000Y-94850000D03*
X131950000Y-94850000D03*
X138950000Y-99650000D03*
X137250000Y-99650000D03*
X135550000Y-99650000D03*
X135550000Y-94850000D03*
X137250000Y-94850000D03*
X138950000Y-94850000D03*
X145950000Y-99650000D03*
X144250000Y-99650000D03*
X142550000Y-99650000D03*
X142550000Y-94850000D03*
X144250000Y-94850000D03*
X145950000Y-94850000D03*
X152950000Y-99650000D03*
X151250000Y-99650000D03*
X149550000Y-99650000D03*
X149550000Y-94850000D03*
X151250000Y-94850000D03*
X152950000Y-94850000D03*
X159950000Y-99600000D03*
X158250000Y-99600000D03*
X156550000Y-99600000D03*
X156550000Y-94800000D03*
X158250000Y-94800000D03*
X159950000Y-94800000D03*
X166950000Y-99650000D03*
X165250000Y-99650000D03*
X163550000Y-99650000D03*
X163550000Y-94850000D03*
X165250000Y-94850000D03*
X166950000Y-94850000D03*
X173950000Y-99650000D03*
X172250000Y-99650000D03*
X170550000Y-99650000D03*
X170550000Y-94850000D03*
X172250000Y-94850000D03*
X173950000Y-94850000D03*
X180950000Y-99650000D03*
X179250000Y-99650000D03*
X177550000Y-99650000D03*
X177550000Y-94850000D03*
X179250000Y-94850000D03*
X180950000Y-94850000D03*
X187950000Y-99650000D03*
X186250000Y-99650000D03*
X184550000Y-99650000D03*
X184550000Y-94850000D03*
X186250000Y-94850000D03*
X187950000Y-94850000D03*
X194950000Y-99650000D03*
X193250000Y-99650000D03*
X191550000Y-99650000D03*
X191550000Y-94850000D03*
X193250000Y-94850000D03*
X194950000Y-94850000D03*
D11*
X267340000Y-97500000D03*
D12*
X264800000Y-97500000D03*
D13*
X243000000Y-100600000D03*
X243000000Y-98750000D03*
G36*
G01*
X236900000Y-101500000D02*
X236900000Y-102825000D01*
G75*
G02*
X236825000Y-102900000I-75000J0D01*
G01*
X236675000Y-102900000D01*
G75*
G02*
X236600000Y-102825000I0J75000D01*
G01*
X236600000Y-101500000D01*
G75*
G02*
X236675000Y-101425000I75000J0D01*
G01*
X236825000Y-101425000D01*
G75*
G02*
X236900000Y-101500000I0J-75000D01*
G01*
G37*
G36*
G01*
X236400000Y-101500000D02*
X236400000Y-102825000D01*
G75*
G02*
X236325000Y-102900000I-75000J0D01*
G01*
X236175000Y-102900000D01*
G75*
G02*
X236100000Y-102825000I0J75000D01*
G01*
X236100000Y-101500000D01*
G75*
G02*
X236175000Y-101425000I75000J0D01*
G01*
X236325000Y-101425000D01*
G75*
G02*
X236400000Y-101500000I0J-75000D01*
G01*
G37*
G36*
G01*
X235900000Y-101500000D02*
X235900000Y-102825000D01*
G75*
G02*
X235825000Y-102900000I-75000J0D01*
G01*
X235675000Y-102900000D01*
G75*
G02*
X235600000Y-102825000I0J75000D01*
G01*
X235600000Y-101500000D01*
G75*
G02*
X235675000Y-101425000I75000J0D01*
G01*
X235825000Y-101425000D01*
G75*
G02*
X235900000Y-101500000I0J-75000D01*
G01*
G37*
G36*
G01*
X235400000Y-101500000D02*
X235400000Y-102825000D01*
G75*
G02*
X235325000Y-102900000I-75000J0D01*
G01*
X235175000Y-102900000D01*
G75*
G02*
X235100000Y-102825000I0J75000D01*
G01*
X235100000Y-101500000D01*
G75*
G02*
X235175000Y-101425000I75000J0D01*
G01*
X235325000Y-101425000D01*
G75*
G02*
X235400000Y-101500000I0J-75000D01*
G01*
G37*
G36*
G01*
X234900000Y-101500000D02*
X234900000Y-102825000D01*
G75*
G02*
X234825000Y-102900000I-75000J0D01*
G01*
X234675000Y-102900000D01*
G75*
G02*
X234600000Y-102825000I0J75000D01*
G01*
X234600000Y-101500000D01*
G75*
G02*
X234675000Y-101425000I75000J0D01*
G01*
X234825000Y-101425000D01*
G75*
G02*
X234900000Y-101500000I0J-75000D01*
G01*
G37*
G36*
G01*
X234400000Y-101500000D02*
X234400000Y-102825000D01*
G75*
G02*
X234325000Y-102900000I-75000J0D01*
G01*
X234175000Y-102900000D01*
G75*
G02*
X234100000Y-102825000I0J75000D01*
G01*
X234100000Y-101500000D01*
G75*
G02*
X234175000Y-101425000I75000J0D01*
G01*
X234325000Y-101425000D01*
G75*
G02*
X234400000Y-101500000I0J-75000D01*
G01*
G37*
G36*
G01*
X233900000Y-101500000D02*
X233900000Y-102825000D01*
G75*
G02*
X233825000Y-102900000I-75000J0D01*
G01*
X233675000Y-102900000D01*
G75*
G02*
X233600000Y-102825000I0J75000D01*
G01*
X233600000Y-101500000D01*
G75*
G02*
X233675000Y-101425000I75000J0D01*
G01*
X233825000Y-101425000D01*
G75*
G02*
X233900000Y-101500000I0J-75000D01*
G01*
G37*
G36*
G01*
X233400000Y-101500000D02*
X233400000Y-102825000D01*
G75*
G02*
X233325000Y-102900000I-75000J0D01*
G01*
X233175000Y-102900000D01*
G75*
G02*
X233100000Y-102825000I0J75000D01*
G01*
X233100000Y-101500000D01*
G75*
G02*
X233175000Y-101425000I75000J0D01*
G01*
X233325000Y-101425000D01*
G75*
G02*
X233400000Y-101500000I0J-75000D01*
G01*
G37*
G36*
G01*
X232900000Y-101500000D02*
X232900000Y-102825000D01*
G75*
G02*
X232825000Y-102900000I-75000J0D01*
G01*
X232675000Y-102900000D01*
G75*
G02*
X232600000Y-102825000I0J75000D01*
G01*
X232600000Y-101500000D01*
G75*
G02*
X232675000Y-101425000I75000J0D01*
G01*
X232825000Y-101425000D01*
G75*
G02*
X232900000Y-101500000I0J-75000D01*
G01*
G37*
G36*
G01*
X232400000Y-101500000D02*
X232400000Y-102825000D01*
G75*
G02*
X232325000Y-102900000I-75000J0D01*
G01*
X232175000Y-102900000D01*
G75*
G02*
X232100000Y-102825000I0J75000D01*
G01*
X232100000Y-101500000D01*
G75*
G02*
X232175000Y-101425000I75000J0D01*
G01*
X232325000Y-101425000D01*
G75*
G02*
X232400000Y-101500000I0J-75000D01*
G01*
G37*
G36*
G01*
X231900000Y-101500000D02*
X231900000Y-102825000D01*
G75*
G02*
X231825000Y-102900000I-75000J0D01*
G01*
X231675000Y-102900000D01*
G75*
G02*
X231600000Y-102825000I0J75000D01*
G01*
X231600000Y-101500000D01*
G75*
G02*
X231675000Y-101425000I75000J0D01*
G01*
X231825000Y-101425000D01*
G75*
G02*
X231900000Y-101500000I0J-75000D01*
G01*
G37*
G36*
G01*
X231400000Y-101500000D02*
X231400000Y-102825000D01*
G75*
G02*
X231325000Y-102900000I-75000J0D01*
G01*
X231175000Y-102900000D01*
G75*
G02*
X231100000Y-102825000I0J75000D01*
G01*
X231100000Y-101500000D01*
G75*
G02*
X231175000Y-101425000I75000J0D01*
G01*
X231325000Y-101425000D01*
G75*
G02*
X231400000Y-101500000I0J-75000D01*
G01*
G37*
G36*
G01*
X230575000Y-100675000D02*
X230575000Y-100825000D01*
G75*
G02*
X230500000Y-100900000I-75000J0D01*
G01*
X229175000Y-100900000D01*
G75*
G02*
X229100000Y-100825000I0J75000D01*
G01*
X229100000Y-100675000D01*
G75*
G02*
X229175000Y-100600000I75000J0D01*
G01*
X230500000Y-100600000D01*
G75*
G02*
X230575000Y-100675000I0J-75000D01*
G01*
G37*
G36*
G01*
X230575000Y-100175000D02*
X230575000Y-100325000D01*
G75*
G02*
X230500000Y-100400000I-75000J0D01*
G01*
X229175000Y-100400000D01*
G75*
G02*
X229100000Y-100325000I0J75000D01*
G01*
X229100000Y-100175000D01*
G75*
G02*
X229175000Y-100100000I75000J0D01*
G01*
X230500000Y-100100000D01*
G75*
G02*
X230575000Y-100175000I0J-75000D01*
G01*
G37*
G36*
G01*
X230575000Y-99675000D02*
X230575000Y-99825000D01*
G75*
G02*
X230500000Y-99900000I-75000J0D01*
G01*
X229175000Y-99900000D01*
G75*
G02*
X229100000Y-99825000I0J75000D01*
G01*
X229100000Y-99675000D01*
G75*
G02*
X229175000Y-99600000I75000J0D01*
G01*
X230500000Y-99600000D01*
G75*
G02*
X230575000Y-99675000I0J-75000D01*
G01*
G37*
G36*
G01*
X230575000Y-99175000D02*
X230575000Y-99325000D01*
G75*
G02*
X230500000Y-99400000I-75000J0D01*
G01*
X229175000Y-99400000D01*
G75*
G02*
X229100000Y-99325000I0J75000D01*
G01*
X229100000Y-99175000D01*
G75*
G02*
X229175000Y-99100000I75000J0D01*
G01*
X230500000Y-99100000D01*
G75*
G02*
X230575000Y-99175000I0J-75000D01*
G01*
G37*
G36*
G01*
X230575000Y-98675000D02*
X230575000Y-98825000D01*
G75*
G02*
X230500000Y-98900000I-75000J0D01*
G01*
X229175000Y-98900000D01*
G75*
G02*
X229100000Y-98825000I0J75000D01*
G01*
X229100000Y-98675000D01*
G75*
G02*
X229175000Y-98600000I75000J0D01*
G01*
X230500000Y-98600000D01*
G75*
G02*
X230575000Y-98675000I0J-75000D01*
G01*
G37*
G36*
G01*
X230575000Y-98175000D02*
X230575000Y-98325000D01*
G75*
G02*
X230500000Y-98400000I-75000J0D01*
G01*
X229175000Y-98400000D01*
G75*
G02*
X229100000Y-98325000I0J75000D01*
G01*
X229100000Y-98175000D01*
G75*
G02*
X229175000Y-98100000I75000J0D01*
G01*
X230500000Y-98100000D01*
G75*
G02*
X230575000Y-98175000I0J-75000D01*
G01*
G37*
G36*
G01*
X230575000Y-97675000D02*
X230575000Y-97825000D01*
G75*
G02*
X230500000Y-97900000I-75000J0D01*
G01*
X229175000Y-97900000D01*
G75*
G02*
X229100000Y-97825000I0J75000D01*
G01*
X229100000Y-97675000D01*
G75*
G02*
X229175000Y-97600000I75000J0D01*
G01*
X230500000Y-97600000D01*
G75*
G02*
X230575000Y-97675000I0J-75000D01*
G01*
G37*
G36*
G01*
X230575000Y-97175000D02*
X230575000Y-97325000D01*
G75*
G02*
X230500000Y-97400000I-75000J0D01*
G01*
X229175000Y-97400000D01*
G75*
G02*
X229100000Y-97325000I0J75000D01*
G01*
X229100000Y-97175000D01*
G75*
G02*
X229175000Y-97100000I75000J0D01*
G01*
X230500000Y-97100000D01*
G75*
G02*
X230575000Y-97175000I0J-75000D01*
G01*
G37*
G36*
G01*
X230575000Y-96675000D02*
X230575000Y-96825000D01*
G75*
G02*
X230500000Y-96900000I-75000J0D01*
G01*
X229175000Y-96900000D01*
G75*
G02*
X229100000Y-96825000I0J75000D01*
G01*
X229100000Y-96675000D01*
G75*
G02*
X229175000Y-96600000I75000J0D01*
G01*
X230500000Y-96600000D01*
G75*
G02*
X230575000Y-96675000I0J-75000D01*
G01*
G37*
G36*
G01*
X230575000Y-96175000D02*
X230575000Y-96325000D01*
G75*
G02*
X230500000Y-96400000I-75000J0D01*
G01*
X229175000Y-96400000D01*
G75*
G02*
X229100000Y-96325000I0J75000D01*
G01*
X229100000Y-96175000D01*
G75*
G02*
X229175000Y-96100000I75000J0D01*
G01*
X230500000Y-96100000D01*
G75*
G02*
X230575000Y-96175000I0J-75000D01*
G01*
G37*
G36*
G01*
X230575000Y-95675000D02*
X230575000Y-95825000D01*
G75*
G02*
X230500000Y-95900000I-75000J0D01*
G01*
X229175000Y-95900000D01*
G75*
G02*
X229100000Y-95825000I0J75000D01*
G01*
X229100000Y-95675000D01*
G75*
G02*
X229175000Y-95600000I75000J0D01*
G01*
X230500000Y-95600000D01*
G75*
G02*
X230575000Y-95675000I0J-75000D01*
G01*
G37*
G36*
G01*
X230575000Y-95175000D02*
X230575000Y-95325000D01*
G75*
G02*
X230500000Y-95400000I-75000J0D01*
G01*
X229175000Y-95400000D01*
G75*
G02*
X229100000Y-95325000I0J75000D01*
G01*
X229100000Y-95175000D01*
G75*
G02*
X229175000Y-95100000I75000J0D01*
G01*
X230500000Y-95100000D01*
G75*
G02*
X230575000Y-95175000I0J-75000D01*
G01*
G37*
G36*
G01*
X231400000Y-93175000D02*
X231400000Y-94500000D01*
G75*
G02*
X231325000Y-94575000I-75000J0D01*
G01*
X231175000Y-94575000D01*
G75*
G02*
X231100000Y-94500000I0J75000D01*
G01*
X231100000Y-93175000D01*
G75*
G02*
X231175000Y-93100000I75000J0D01*
G01*
X231325000Y-93100000D01*
G75*
G02*
X231400000Y-93175000I0J-75000D01*
G01*
G37*
G36*
G01*
X231900000Y-93175000D02*
X231900000Y-94500000D01*
G75*
G02*
X231825000Y-94575000I-75000J0D01*
G01*
X231675000Y-94575000D01*
G75*
G02*
X231600000Y-94500000I0J75000D01*
G01*
X231600000Y-93175000D01*
G75*
G02*
X231675000Y-93100000I75000J0D01*
G01*
X231825000Y-93100000D01*
G75*
G02*
X231900000Y-93175000I0J-75000D01*
G01*
G37*
G36*
G01*
X232400000Y-93175000D02*
X232400000Y-94500000D01*
G75*
G02*
X232325000Y-94575000I-75000J0D01*
G01*
X232175000Y-94575000D01*
G75*
G02*
X232100000Y-94500000I0J75000D01*
G01*
X232100000Y-93175000D01*
G75*
G02*
X232175000Y-93100000I75000J0D01*
G01*
X232325000Y-93100000D01*
G75*
G02*
X232400000Y-93175000I0J-75000D01*
G01*
G37*
G36*
G01*
X232900000Y-93175000D02*
X232900000Y-94500000D01*
G75*
G02*
X232825000Y-94575000I-75000J0D01*
G01*
X232675000Y-94575000D01*
G75*
G02*
X232600000Y-94500000I0J75000D01*
G01*
X232600000Y-93175000D01*
G75*
G02*
X232675000Y-93100000I75000J0D01*
G01*
X232825000Y-93100000D01*
G75*
G02*
X232900000Y-93175000I0J-75000D01*
G01*
G37*
G36*
G01*
X233400000Y-93175000D02*
X233400000Y-94500000D01*
G75*
G02*
X233325000Y-94575000I-75000J0D01*
G01*
X233175000Y-94575000D01*
G75*
G02*
X233100000Y-94500000I0J75000D01*
G01*
X233100000Y-93175000D01*
G75*
G02*
X233175000Y-93100000I75000J0D01*
G01*
X233325000Y-93100000D01*
G75*
G02*
X233400000Y-93175000I0J-75000D01*
G01*
G37*
G36*
G01*
X233900000Y-93175000D02*
X233900000Y-94500000D01*
G75*
G02*
X233825000Y-94575000I-75000J0D01*
G01*
X233675000Y-94575000D01*
G75*
G02*
X233600000Y-94500000I0J75000D01*
G01*
X233600000Y-93175000D01*
G75*
G02*
X233675000Y-93100000I75000J0D01*
G01*
X233825000Y-93100000D01*
G75*
G02*
X233900000Y-93175000I0J-75000D01*
G01*
G37*
G36*
G01*
X234400000Y-93175000D02*
X234400000Y-94500000D01*
G75*
G02*
X234325000Y-94575000I-75000J0D01*
G01*
X234175000Y-94575000D01*
G75*
G02*
X234100000Y-94500000I0J75000D01*
G01*
X234100000Y-93175000D01*
G75*
G02*
X234175000Y-93100000I75000J0D01*
G01*
X234325000Y-93100000D01*
G75*
G02*
X234400000Y-93175000I0J-75000D01*
G01*
G37*
G36*
G01*
X234900000Y-93175000D02*
X234900000Y-94500000D01*
G75*
G02*
X234825000Y-94575000I-75000J0D01*
G01*
X234675000Y-94575000D01*
G75*
G02*
X234600000Y-94500000I0J75000D01*
G01*
X234600000Y-93175000D01*
G75*
G02*
X234675000Y-93100000I75000J0D01*
G01*
X234825000Y-93100000D01*
G75*
G02*
X234900000Y-93175000I0J-75000D01*
G01*
G37*
G36*
G01*
X235400000Y-93175000D02*
X235400000Y-94500000D01*
G75*
G02*
X235325000Y-94575000I-75000J0D01*
G01*
X235175000Y-94575000D01*
G75*
G02*
X235100000Y-94500000I0J75000D01*
G01*
X235100000Y-93175000D01*
G75*
G02*
X235175000Y-93100000I75000J0D01*
G01*
X235325000Y-93100000D01*
G75*
G02*
X235400000Y-93175000I0J-75000D01*
G01*
G37*
G36*
G01*
X235900000Y-93175000D02*
X235900000Y-94500000D01*
G75*
G02*
X235825000Y-94575000I-75000J0D01*
G01*
X235675000Y-94575000D01*
G75*
G02*
X235600000Y-94500000I0J75000D01*
G01*
X235600000Y-93175000D01*
G75*
G02*
X235675000Y-93100000I75000J0D01*
G01*
X235825000Y-93100000D01*
G75*
G02*
X235900000Y-93175000I0J-75000D01*
G01*
G37*
G36*
G01*
X236400000Y-93175000D02*
X236400000Y-94500000D01*
G75*
G02*
X236325000Y-94575000I-75000J0D01*
G01*
X236175000Y-94575000D01*
G75*
G02*
X236100000Y-94500000I0J75000D01*
G01*
X236100000Y-93175000D01*
G75*
G02*
X236175000Y-93100000I75000J0D01*
G01*
X236325000Y-93100000D01*
G75*
G02*
X236400000Y-93175000I0J-75000D01*
G01*
G37*
G36*
G01*
X236900000Y-93175000D02*
X236900000Y-94500000D01*
G75*
G02*
X236825000Y-94575000I-75000J0D01*
G01*
X236675000Y-94575000D01*
G75*
G02*
X236600000Y-94500000I0J75000D01*
G01*
X236600000Y-93175000D01*
G75*
G02*
X236675000Y-93100000I75000J0D01*
G01*
X236825000Y-93100000D01*
G75*
G02*
X236900000Y-93175000I0J-75000D01*
G01*
G37*
G36*
G01*
X238900000Y-95175000D02*
X238900000Y-95325000D01*
G75*
G02*
X238825000Y-95400000I-75000J0D01*
G01*
X237500000Y-95400000D01*
G75*
G02*
X237425000Y-95325000I0J75000D01*
G01*
X237425000Y-95175000D01*
G75*
G02*
X237500000Y-95100000I75000J0D01*
G01*
X238825000Y-95100000D01*
G75*
G02*
X238900000Y-95175000I0J-75000D01*
G01*
G37*
G36*
G01*
X238900000Y-95675000D02*
X238900000Y-95825000D01*
G75*
G02*
X238825000Y-95900000I-75000J0D01*
G01*
X237500000Y-95900000D01*
G75*
G02*
X237425000Y-95825000I0J75000D01*
G01*
X237425000Y-95675000D01*
G75*
G02*
X237500000Y-95600000I75000J0D01*
G01*
X238825000Y-95600000D01*
G75*
G02*
X238900000Y-95675000I0J-75000D01*
G01*
G37*
G36*
G01*
X238900000Y-96175000D02*
X238900000Y-96325000D01*
G75*
G02*
X238825000Y-96400000I-75000J0D01*
G01*
X237500000Y-96400000D01*
G75*
G02*
X237425000Y-96325000I0J75000D01*
G01*
X237425000Y-96175000D01*
G75*
G02*
X237500000Y-96100000I75000J0D01*
G01*
X238825000Y-96100000D01*
G75*
G02*
X238900000Y-96175000I0J-75000D01*
G01*
G37*
G36*
G01*
X238900000Y-96675000D02*
X238900000Y-96825000D01*
G75*
G02*
X238825000Y-96900000I-75000J0D01*
G01*
X237500000Y-96900000D01*
G75*
G02*
X237425000Y-96825000I0J75000D01*
G01*
X237425000Y-96675000D01*
G75*
G02*
X237500000Y-96600000I75000J0D01*
G01*
X238825000Y-96600000D01*
G75*
G02*
X238900000Y-96675000I0J-75000D01*
G01*
G37*
G36*
G01*
X238900000Y-97175000D02*
X238900000Y-97325000D01*
G75*
G02*
X238825000Y-97400000I-75000J0D01*
G01*
X237500000Y-97400000D01*
G75*
G02*
X237425000Y-97325000I0J75000D01*
G01*
X237425000Y-97175000D01*
G75*
G02*
X237500000Y-97100000I75000J0D01*
G01*
X238825000Y-97100000D01*
G75*
G02*
X238900000Y-97175000I0J-75000D01*
G01*
G37*
G36*
G01*
X238900000Y-97675000D02*
X238900000Y-97825000D01*
G75*
G02*
X238825000Y-97900000I-75000J0D01*
G01*
X237500000Y-97900000D01*
G75*
G02*
X237425000Y-97825000I0J75000D01*
G01*
X237425000Y-97675000D01*
G75*
G02*
X237500000Y-97600000I75000J0D01*
G01*
X238825000Y-97600000D01*
G75*
G02*
X238900000Y-97675000I0J-75000D01*
G01*
G37*
G36*
G01*
X238900000Y-98175000D02*
X238900000Y-98325000D01*
G75*
G02*
X238825000Y-98400000I-75000J0D01*
G01*
X237500000Y-98400000D01*
G75*
G02*
X237425000Y-98325000I0J75000D01*
G01*
X237425000Y-98175000D01*
G75*
G02*
X237500000Y-98100000I75000J0D01*
G01*
X238825000Y-98100000D01*
G75*
G02*
X238900000Y-98175000I0J-75000D01*
G01*
G37*
G36*
G01*
X238900000Y-98675000D02*
X238900000Y-98825000D01*
G75*
G02*
X238825000Y-98900000I-75000J0D01*
G01*
X237500000Y-98900000D01*
G75*
G02*
X237425000Y-98825000I0J75000D01*
G01*
X237425000Y-98675000D01*
G75*
G02*
X237500000Y-98600000I75000J0D01*
G01*
X238825000Y-98600000D01*
G75*
G02*
X238900000Y-98675000I0J-75000D01*
G01*
G37*
G36*
G01*
X238900000Y-99175000D02*
X238900000Y-99325000D01*
G75*
G02*
X238825000Y-99400000I-75000J0D01*
G01*
X237500000Y-99400000D01*
G75*
G02*
X237425000Y-99325000I0J75000D01*
G01*
X237425000Y-99175000D01*
G75*
G02*
X237500000Y-99100000I75000J0D01*
G01*
X238825000Y-99100000D01*
G75*
G02*
X238900000Y-99175000I0J-75000D01*
G01*
G37*
G36*
G01*
X238900000Y-99675000D02*
X238900000Y-99825000D01*
G75*
G02*
X238825000Y-99900000I-75000J0D01*
G01*
X237500000Y-99900000D01*
G75*
G02*
X237425000Y-99825000I0J75000D01*
G01*
X237425000Y-99675000D01*
G75*
G02*
X237500000Y-99600000I75000J0D01*
G01*
X238825000Y-99600000D01*
G75*
G02*
X238900000Y-99675000I0J-75000D01*
G01*
G37*
G36*
G01*
X238900000Y-100175000D02*
X238900000Y-100325000D01*
G75*
G02*
X238825000Y-100400000I-75000J0D01*
G01*
X237500000Y-100400000D01*
G75*
G02*
X237425000Y-100325000I0J75000D01*
G01*
X237425000Y-100175000D01*
G75*
G02*
X237500000Y-100100000I75000J0D01*
G01*
X238825000Y-100100000D01*
G75*
G02*
X238900000Y-100175000I0J-75000D01*
G01*
G37*
G36*
G01*
X238900000Y-100675000D02*
X238900000Y-100825000D01*
G75*
G02*
X238825000Y-100900000I-75000J0D01*
G01*
X237500000Y-100900000D01*
G75*
G02*
X237425000Y-100825000I0J75000D01*
G01*
X237425000Y-100675000D01*
G75*
G02*
X237500000Y-100600000I75000J0D01*
G01*
X238825000Y-100600000D01*
G75*
G02*
X238900000Y-100675000I0J-75000D01*
G01*
G37*
G36*
G01*
X227820000Y-81835000D02*
X227520000Y-81835000D01*
G75*
G02*
X227370000Y-81685000I0J150000D01*
G01*
X227370000Y-80335000D01*
G75*
G02*
X227520000Y-80185000I150000J0D01*
G01*
X227820000Y-80185000D01*
G75*
G02*
X227970000Y-80335000I0J-150000D01*
G01*
X227970000Y-81685000D01*
G75*
G02*
X227820000Y-81835000I-150000J0D01*
G01*
G37*
G36*
G01*
X229090000Y-81835000D02*
X228790000Y-81835000D01*
G75*
G02*
X228640000Y-81685000I0J150000D01*
G01*
X228640000Y-80335000D01*
G75*
G02*
X228790000Y-80185000I150000J0D01*
G01*
X229090000Y-80185000D01*
G75*
G02*
X229240000Y-80335000I0J-150000D01*
G01*
X229240000Y-81685000D01*
G75*
G02*
X229090000Y-81835000I-150000J0D01*
G01*
G37*
G36*
G01*
X230360000Y-81835000D02*
X230060000Y-81835000D01*
G75*
G02*
X229910000Y-81685000I0J150000D01*
G01*
X229910000Y-80335000D01*
G75*
G02*
X230060000Y-80185000I150000J0D01*
G01*
X230360000Y-80185000D01*
G75*
G02*
X230510000Y-80335000I0J-150000D01*
G01*
X230510000Y-81685000D01*
G75*
G02*
X230360000Y-81835000I-150000J0D01*
G01*
G37*
G36*
G01*
X231630000Y-81835000D02*
X231330000Y-81835000D01*
G75*
G02*
X231180000Y-81685000I0J150000D01*
G01*
X231180000Y-80335000D01*
G75*
G02*
X231330000Y-80185000I150000J0D01*
G01*
X231630000Y-80185000D01*
G75*
G02*
X231780000Y-80335000I0J-150000D01*
G01*
X231780000Y-81685000D01*
G75*
G02*
X231630000Y-81835000I-150000J0D01*
G01*
G37*
G36*
G01*
X231630000Y-87085000D02*
X231330000Y-87085000D01*
G75*
G02*
X231180000Y-86935000I0J150000D01*
G01*
X231180000Y-85585000D01*
G75*
G02*
X231330000Y-85435000I150000J0D01*
G01*
X231630000Y-85435000D01*
G75*
G02*
X231780000Y-85585000I0J-150000D01*
G01*
X231780000Y-86935000D01*
G75*
G02*
X231630000Y-87085000I-150000J0D01*
G01*
G37*
G36*
G01*
X230360000Y-87085000D02*
X230060000Y-87085000D01*
G75*
G02*
X229910000Y-86935000I0J150000D01*
G01*
X229910000Y-85585000D01*
G75*
G02*
X230060000Y-85435000I150000J0D01*
G01*
X230360000Y-85435000D01*
G75*
G02*
X230510000Y-85585000I0J-150000D01*
G01*
X230510000Y-86935000D01*
G75*
G02*
X230360000Y-87085000I-150000J0D01*
G01*
G37*
G36*
G01*
X229090000Y-87085000D02*
X228790000Y-87085000D01*
G75*
G02*
X228640000Y-86935000I0J150000D01*
G01*
X228640000Y-85585000D01*
G75*
G02*
X228790000Y-85435000I150000J0D01*
G01*
X229090000Y-85435000D01*
G75*
G02*
X229240000Y-85585000I0J-150000D01*
G01*
X229240000Y-86935000D01*
G75*
G02*
X229090000Y-87085000I-150000J0D01*
G01*
G37*
G36*
G01*
X227820000Y-87085000D02*
X227520000Y-87085000D01*
G75*
G02*
X227370000Y-86935000I0J150000D01*
G01*
X227370000Y-85585000D01*
G75*
G02*
X227520000Y-85435000I150000J0D01*
G01*
X227820000Y-85435000D01*
G75*
G02*
X227970000Y-85585000I0J-150000D01*
G01*
X227970000Y-86935000D01*
G75*
G02*
X227820000Y-87085000I-150000J0D01*
G01*
G37*
D14*
G36*
X222600000Y-84216500D02*
G01*
X218475000Y-84216500D01*
X218475000Y-83800000D01*
X216000000Y-83800000D01*
X216000000Y-82900000D01*
X218475000Y-82900000D01*
X218475000Y-82483500D01*
X222600000Y-82483500D01*
X222600000Y-84216500D01*
G37*
D15*
X217150000Y-84850000D03*
X217150000Y-81850000D03*
D16*
X231000000Y-118250000D03*
X246000000Y-118250000D03*
X236000000Y-118250000D03*
X241000000Y-118250000D03*
X221000000Y-118250000D03*
X226000000Y-118250000D03*
D17*
X242825000Y-110250000D03*
X235175000Y-110250000D03*
X230325000Y-110250000D03*
X222675000Y-110250000D03*
G36*
G01*
X54725000Y-92225000D02*
X55275000Y-92225000D01*
G75*
G02*
X55475000Y-92425000I0J-200000D01*
G01*
X55475000Y-92825000D01*
G75*
G02*
X55275000Y-93025000I-200000J0D01*
G01*
X54725000Y-93025000D01*
G75*
G02*
X54525000Y-92825000I0J200000D01*
G01*
X54525000Y-92425000D01*
G75*
G02*
X54725000Y-92225000I200000J0D01*
G01*
G37*
G36*
G01*
X54725000Y-90575000D02*
X55275000Y-90575000D01*
G75*
G02*
X55475000Y-90775000I0J-200000D01*
G01*
X55475000Y-91175000D01*
G75*
G02*
X55275000Y-91375000I-200000J0D01*
G01*
X54725000Y-91375000D01*
G75*
G02*
X54525000Y-91175000I0J200000D01*
G01*
X54525000Y-90775000D01*
G75*
G02*
X54725000Y-90575000I200000J0D01*
G01*
G37*
G36*
G01*
X61725000Y-92237500D02*
X62275000Y-92237500D01*
G75*
G02*
X62475000Y-92437500I0J-200000D01*
G01*
X62475000Y-92837500D01*
G75*
G02*
X62275000Y-93037500I-200000J0D01*
G01*
X61725000Y-93037500D01*
G75*
G02*
X61525000Y-92837500I0J200000D01*
G01*
X61525000Y-92437500D01*
G75*
G02*
X61725000Y-92237500I200000J0D01*
G01*
G37*
G36*
G01*
X61725000Y-90587500D02*
X62275000Y-90587500D01*
G75*
G02*
X62475000Y-90787500I0J-200000D01*
G01*
X62475000Y-91187500D01*
G75*
G02*
X62275000Y-91387500I-200000J0D01*
G01*
X61725000Y-91387500D01*
G75*
G02*
X61525000Y-91187500I0J200000D01*
G01*
X61525000Y-90787500D01*
G75*
G02*
X61725000Y-90587500I200000J0D01*
G01*
G37*
G36*
G01*
X68725000Y-92237500D02*
X69275000Y-92237500D01*
G75*
G02*
X69475000Y-92437500I0J-200000D01*
G01*
X69475000Y-92837500D01*
G75*
G02*
X69275000Y-93037500I-200000J0D01*
G01*
X68725000Y-93037500D01*
G75*
G02*
X68525000Y-92837500I0J200000D01*
G01*
X68525000Y-92437500D01*
G75*
G02*
X68725000Y-92237500I200000J0D01*
G01*
G37*
G36*
G01*
X68725000Y-90587500D02*
X69275000Y-90587500D01*
G75*
G02*
X69475000Y-90787500I0J-200000D01*
G01*
X69475000Y-91187500D01*
G75*
G02*
X69275000Y-91387500I-200000J0D01*
G01*
X68725000Y-91387500D01*
G75*
G02*
X68525000Y-91187500I0J200000D01*
G01*
X68525000Y-90787500D01*
G75*
G02*
X68725000Y-90587500I200000J0D01*
G01*
G37*
G36*
G01*
X75725000Y-92225000D02*
X76275000Y-92225000D01*
G75*
G02*
X76475000Y-92425000I0J-200000D01*
G01*
X76475000Y-92825000D01*
G75*
G02*
X76275000Y-93025000I-200000J0D01*
G01*
X75725000Y-93025000D01*
G75*
G02*
X75525000Y-92825000I0J200000D01*
G01*
X75525000Y-92425000D01*
G75*
G02*
X75725000Y-92225000I200000J0D01*
G01*
G37*
G36*
G01*
X75725000Y-90575000D02*
X76275000Y-90575000D01*
G75*
G02*
X76475000Y-90775000I0J-200000D01*
G01*
X76475000Y-91175000D01*
G75*
G02*
X76275000Y-91375000I-200000J0D01*
G01*
X75725000Y-91375000D01*
G75*
G02*
X75525000Y-91175000I0J200000D01*
G01*
X75525000Y-90775000D01*
G75*
G02*
X75725000Y-90575000I200000J0D01*
G01*
G37*
G36*
G01*
X82725000Y-92225000D02*
X83275000Y-92225000D01*
G75*
G02*
X83475000Y-92425000I0J-200000D01*
G01*
X83475000Y-92825000D01*
G75*
G02*
X83275000Y-93025000I-200000J0D01*
G01*
X82725000Y-93025000D01*
G75*
G02*
X82525000Y-92825000I0J200000D01*
G01*
X82525000Y-92425000D01*
G75*
G02*
X82725000Y-92225000I200000J0D01*
G01*
G37*
G36*
G01*
X82725000Y-90575000D02*
X83275000Y-90575000D01*
G75*
G02*
X83475000Y-90775000I0J-200000D01*
G01*
X83475000Y-91175000D01*
G75*
G02*
X83275000Y-91375000I-200000J0D01*
G01*
X82725000Y-91375000D01*
G75*
G02*
X82525000Y-91175000I0J200000D01*
G01*
X82525000Y-90775000D01*
G75*
G02*
X82725000Y-90575000I200000J0D01*
G01*
G37*
G36*
G01*
X89625000Y-92225000D02*
X90175000Y-92225000D01*
G75*
G02*
X90375000Y-92425000I0J-200000D01*
G01*
X90375000Y-92825000D01*
G75*
G02*
X90175000Y-93025000I-200000J0D01*
G01*
X89625000Y-93025000D01*
G75*
G02*
X89425000Y-92825000I0J200000D01*
G01*
X89425000Y-92425000D01*
G75*
G02*
X89625000Y-92225000I200000J0D01*
G01*
G37*
G36*
G01*
X89625000Y-90575000D02*
X90175000Y-90575000D01*
G75*
G02*
X90375000Y-90775000I0J-200000D01*
G01*
X90375000Y-91175000D01*
G75*
G02*
X90175000Y-91375000I-200000J0D01*
G01*
X89625000Y-91375000D01*
G75*
G02*
X89425000Y-91175000I0J200000D01*
G01*
X89425000Y-90775000D01*
G75*
G02*
X89625000Y-90575000I200000J0D01*
G01*
G37*
G36*
G01*
X96725000Y-92237500D02*
X97275000Y-92237500D01*
G75*
G02*
X97475000Y-92437500I0J-200000D01*
G01*
X97475000Y-92837500D01*
G75*
G02*
X97275000Y-93037500I-200000J0D01*
G01*
X96725000Y-93037500D01*
G75*
G02*
X96525000Y-92837500I0J200000D01*
G01*
X96525000Y-92437500D01*
G75*
G02*
X96725000Y-92237500I200000J0D01*
G01*
G37*
G36*
G01*
X96725000Y-90587500D02*
X97275000Y-90587500D01*
G75*
G02*
X97475000Y-90787500I0J-200000D01*
G01*
X97475000Y-91187500D01*
G75*
G02*
X97275000Y-91387500I-200000J0D01*
G01*
X96725000Y-91387500D01*
G75*
G02*
X96525000Y-91187500I0J200000D01*
G01*
X96525000Y-90787500D01*
G75*
G02*
X96725000Y-90587500I200000J0D01*
G01*
G37*
G36*
G01*
X52925000Y-92237500D02*
X53475000Y-92237500D01*
G75*
G02*
X53675000Y-92437500I0J-200000D01*
G01*
X53675000Y-92837500D01*
G75*
G02*
X53475000Y-93037500I-200000J0D01*
G01*
X52925000Y-93037500D01*
G75*
G02*
X52725000Y-92837500I0J200000D01*
G01*
X52725000Y-92437500D01*
G75*
G02*
X52925000Y-92237500I200000J0D01*
G01*
G37*
G36*
G01*
X52925000Y-90587500D02*
X53475000Y-90587500D01*
G75*
G02*
X53675000Y-90787500I0J-200000D01*
G01*
X53675000Y-91187500D01*
G75*
G02*
X53475000Y-91387500I-200000J0D01*
G01*
X52925000Y-91387500D01*
G75*
G02*
X52725000Y-91187500I0J200000D01*
G01*
X52725000Y-90787500D01*
G75*
G02*
X52925000Y-90587500I200000J0D01*
G01*
G37*
G36*
G01*
X59925000Y-92225000D02*
X60475000Y-92225000D01*
G75*
G02*
X60675000Y-92425000I0J-200000D01*
G01*
X60675000Y-92825000D01*
G75*
G02*
X60475000Y-93025000I-200000J0D01*
G01*
X59925000Y-93025000D01*
G75*
G02*
X59725000Y-92825000I0J200000D01*
G01*
X59725000Y-92425000D01*
G75*
G02*
X59925000Y-92225000I200000J0D01*
G01*
G37*
G36*
G01*
X59925000Y-90575000D02*
X60475000Y-90575000D01*
G75*
G02*
X60675000Y-90775000I0J-200000D01*
G01*
X60675000Y-91175000D01*
G75*
G02*
X60475000Y-91375000I-200000J0D01*
G01*
X59925000Y-91375000D01*
G75*
G02*
X59725000Y-91175000I0J200000D01*
G01*
X59725000Y-90775000D01*
G75*
G02*
X59925000Y-90575000I200000J0D01*
G01*
G37*
G36*
G01*
X66925000Y-92225000D02*
X67475000Y-92225000D01*
G75*
G02*
X67675000Y-92425000I0J-200000D01*
G01*
X67675000Y-92825000D01*
G75*
G02*
X67475000Y-93025000I-200000J0D01*
G01*
X66925000Y-93025000D01*
G75*
G02*
X66725000Y-92825000I0J200000D01*
G01*
X66725000Y-92425000D01*
G75*
G02*
X66925000Y-92225000I200000J0D01*
G01*
G37*
G36*
G01*
X66925000Y-90575000D02*
X67475000Y-90575000D01*
G75*
G02*
X67675000Y-90775000I0J-200000D01*
G01*
X67675000Y-91175000D01*
G75*
G02*
X67475000Y-91375000I-200000J0D01*
G01*
X66925000Y-91375000D01*
G75*
G02*
X66725000Y-91175000I0J200000D01*
G01*
X66725000Y-90775000D01*
G75*
G02*
X66925000Y-90575000I200000J0D01*
G01*
G37*
G36*
G01*
X73925000Y-92225000D02*
X74475000Y-92225000D01*
G75*
G02*
X74675000Y-92425000I0J-200000D01*
G01*
X74675000Y-92825000D01*
G75*
G02*
X74475000Y-93025000I-200000J0D01*
G01*
X73925000Y-93025000D01*
G75*
G02*
X73725000Y-92825000I0J200000D01*
G01*
X73725000Y-92425000D01*
G75*
G02*
X73925000Y-92225000I200000J0D01*
G01*
G37*
G36*
G01*
X73925000Y-90575000D02*
X74475000Y-90575000D01*
G75*
G02*
X74675000Y-90775000I0J-200000D01*
G01*
X74675000Y-91175000D01*
G75*
G02*
X74475000Y-91375000I-200000J0D01*
G01*
X73925000Y-91375000D01*
G75*
G02*
X73725000Y-91175000I0J200000D01*
G01*
X73725000Y-90775000D01*
G75*
G02*
X73925000Y-90575000I200000J0D01*
G01*
G37*
G36*
G01*
X81025000Y-92212500D02*
X81575000Y-92212500D01*
G75*
G02*
X81775000Y-92412500I0J-200000D01*
G01*
X81775000Y-92812500D01*
G75*
G02*
X81575000Y-93012500I-200000J0D01*
G01*
X81025000Y-93012500D01*
G75*
G02*
X80825000Y-92812500I0J200000D01*
G01*
X80825000Y-92412500D01*
G75*
G02*
X81025000Y-92212500I200000J0D01*
G01*
G37*
G36*
G01*
X81025000Y-90562500D02*
X81575000Y-90562500D01*
G75*
G02*
X81775000Y-90762500I0J-200000D01*
G01*
X81775000Y-91162500D01*
G75*
G02*
X81575000Y-91362500I-200000J0D01*
G01*
X81025000Y-91362500D01*
G75*
G02*
X80825000Y-91162500I0J200000D01*
G01*
X80825000Y-90762500D01*
G75*
G02*
X81025000Y-90562500I200000J0D01*
G01*
G37*
G36*
G01*
X88025000Y-92225000D02*
X88575000Y-92225000D01*
G75*
G02*
X88775000Y-92425000I0J-200000D01*
G01*
X88775000Y-92825000D01*
G75*
G02*
X88575000Y-93025000I-200000J0D01*
G01*
X88025000Y-93025000D01*
G75*
G02*
X87825000Y-92825000I0J200000D01*
G01*
X87825000Y-92425000D01*
G75*
G02*
X88025000Y-92225000I200000J0D01*
G01*
G37*
G36*
G01*
X88025000Y-90575000D02*
X88575000Y-90575000D01*
G75*
G02*
X88775000Y-90775000I0J-200000D01*
G01*
X88775000Y-91175000D01*
G75*
G02*
X88575000Y-91375000I-200000J0D01*
G01*
X88025000Y-91375000D01*
G75*
G02*
X87825000Y-91175000I0J200000D01*
G01*
X87825000Y-90775000D01*
G75*
G02*
X88025000Y-90575000I200000J0D01*
G01*
G37*
G36*
G01*
X94925000Y-92225000D02*
X95475000Y-92225000D01*
G75*
G02*
X95675000Y-92425000I0J-200000D01*
G01*
X95675000Y-92825000D01*
G75*
G02*
X95475000Y-93025000I-200000J0D01*
G01*
X94925000Y-93025000D01*
G75*
G02*
X94725000Y-92825000I0J200000D01*
G01*
X94725000Y-92425000D01*
G75*
G02*
X94925000Y-92225000I200000J0D01*
G01*
G37*
G36*
G01*
X94925000Y-90575000D02*
X95475000Y-90575000D01*
G75*
G02*
X95675000Y-90775000I0J-200000D01*
G01*
X95675000Y-91175000D01*
G75*
G02*
X95475000Y-91375000I-200000J0D01*
G01*
X94925000Y-91375000D01*
G75*
G02*
X94725000Y-91175000I0J200000D01*
G01*
X94725000Y-90775000D01*
G75*
G02*
X94925000Y-90575000I200000J0D01*
G01*
G37*
G36*
G01*
X51225000Y-92225000D02*
X51775000Y-92225000D01*
G75*
G02*
X51975000Y-92425000I0J-200000D01*
G01*
X51975000Y-92825000D01*
G75*
G02*
X51775000Y-93025000I-200000J0D01*
G01*
X51225000Y-93025000D01*
G75*
G02*
X51025000Y-92825000I0J200000D01*
G01*
X51025000Y-92425000D01*
G75*
G02*
X51225000Y-92225000I200000J0D01*
G01*
G37*
G36*
G01*
X51225000Y-90575000D02*
X51775000Y-90575000D01*
G75*
G02*
X51975000Y-90775000I0J-200000D01*
G01*
X51975000Y-91175000D01*
G75*
G02*
X51775000Y-91375000I-200000J0D01*
G01*
X51225000Y-91375000D01*
G75*
G02*
X51025000Y-91175000I0J200000D01*
G01*
X51025000Y-90775000D01*
G75*
G02*
X51225000Y-90575000I200000J0D01*
G01*
G37*
G36*
G01*
X58225000Y-92225000D02*
X58775000Y-92225000D01*
G75*
G02*
X58975000Y-92425000I0J-200000D01*
G01*
X58975000Y-92825000D01*
G75*
G02*
X58775000Y-93025000I-200000J0D01*
G01*
X58225000Y-93025000D01*
G75*
G02*
X58025000Y-92825000I0J200000D01*
G01*
X58025000Y-92425000D01*
G75*
G02*
X58225000Y-92225000I200000J0D01*
G01*
G37*
G36*
G01*
X58225000Y-90575000D02*
X58775000Y-90575000D01*
G75*
G02*
X58975000Y-90775000I0J-200000D01*
G01*
X58975000Y-91175000D01*
G75*
G02*
X58775000Y-91375000I-200000J0D01*
G01*
X58225000Y-91375000D01*
G75*
G02*
X58025000Y-91175000I0J200000D01*
G01*
X58025000Y-90775000D01*
G75*
G02*
X58225000Y-90575000I200000J0D01*
G01*
G37*
G36*
G01*
X65225000Y-92225000D02*
X65775000Y-92225000D01*
G75*
G02*
X65975000Y-92425000I0J-200000D01*
G01*
X65975000Y-92825000D01*
G75*
G02*
X65775000Y-93025000I-200000J0D01*
G01*
X65225000Y-93025000D01*
G75*
G02*
X65025000Y-92825000I0J200000D01*
G01*
X65025000Y-92425000D01*
G75*
G02*
X65225000Y-92225000I200000J0D01*
G01*
G37*
G36*
G01*
X65225000Y-90575000D02*
X65775000Y-90575000D01*
G75*
G02*
X65975000Y-90775000I0J-200000D01*
G01*
X65975000Y-91175000D01*
G75*
G02*
X65775000Y-91375000I-200000J0D01*
G01*
X65225000Y-91375000D01*
G75*
G02*
X65025000Y-91175000I0J200000D01*
G01*
X65025000Y-90775000D01*
G75*
G02*
X65225000Y-90575000I200000J0D01*
G01*
G37*
G36*
G01*
X72225000Y-92225000D02*
X72775000Y-92225000D01*
G75*
G02*
X72975000Y-92425000I0J-200000D01*
G01*
X72975000Y-92825000D01*
G75*
G02*
X72775000Y-93025000I-200000J0D01*
G01*
X72225000Y-93025000D01*
G75*
G02*
X72025000Y-92825000I0J200000D01*
G01*
X72025000Y-92425000D01*
G75*
G02*
X72225000Y-92225000I200000J0D01*
G01*
G37*
G36*
G01*
X72225000Y-90575000D02*
X72775000Y-90575000D01*
G75*
G02*
X72975000Y-90775000I0J-200000D01*
G01*
X72975000Y-91175000D01*
G75*
G02*
X72775000Y-91375000I-200000J0D01*
G01*
X72225000Y-91375000D01*
G75*
G02*
X72025000Y-91175000I0J200000D01*
G01*
X72025000Y-90775000D01*
G75*
G02*
X72225000Y-90575000I200000J0D01*
G01*
G37*
G36*
G01*
X79225000Y-92237500D02*
X79775000Y-92237500D01*
G75*
G02*
X79975000Y-92437500I0J-200000D01*
G01*
X79975000Y-92837500D01*
G75*
G02*
X79775000Y-93037500I-200000J0D01*
G01*
X79225000Y-93037500D01*
G75*
G02*
X79025000Y-92837500I0J200000D01*
G01*
X79025000Y-92437500D01*
G75*
G02*
X79225000Y-92237500I200000J0D01*
G01*
G37*
G36*
G01*
X79225000Y-90587500D02*
X79775000Y-90587500D01*
G75*
G02*
X79975000Y-90787500I0J-200000D01*
G01*
X79975000Y-91187500D01*
G75*
G02*
X79775000Y-91387500I-200000J0D01*
G01*
X79225000Y-91387500D01*
G75*
G02*
X79025000Y-91187500I0J200000D01*
G01*
X79025000Y-90787500D01*
G75*
G02*
X79225000Y-90587500I200000J0D01*
G01*
G37*
G36*
G01*
X86225000Y-92225000D02*
X86775000Y-92225000D01*
G75*
G02*
X86975000Y-92425000I0J-200000D01*
G01*
X86975000Y-92825000D01*
G75*
G02*
X86775000Y-93025000I-200000J0D01*
G01*
X86225000Y-93025000D01*
G75*
G02*
X86025000Y-92825000I0J200000D01*
G01*
X86025000Y-92425000D01*
G75*
G02*
X86225000Y-92225000I200000J0D01*
G01*
G37*
G36*
G01*
X86225000Y-90575000D02*
X86775000Y-90575000D01*
G75*
G02*
X86975000Y-90775000I0J-200000D01*
G01*
X86975000Y-91175000D01*
G75*
G02*
X86775000Y-91375000I-200000J0D01*
G01*
X86225000Y-91375000D01*
G75*
G02*
X86025000Y-91175000I0J200000D01*
G01*
X86025000Y-90775000D01*
G75*
G02*
X86225000Y-90575000I200000J0D01*
G01*
G37*
G36*
G01*
X93225000Y-92225000D02*
X93775000Y-92225000D01*
G75*
G02*
X93975000Y-92425000I0J-200000D01*
G01*
X93975000Y-92825000D01*
G75*
G02*
X93775000Y-93025000I-200000J0D01*
G01*
X93225000Y-93025000D01*
G75*
G02*
X93025000Y-92825000I0J200000D01*
G01*
X93025000Y-92425000D01*
G75*
G02*
X93225000Y-92225000I200000J0D01*
G01*
G37*
G36*
G01*
X93225000Y-90575000D02*
X93775000Y-90575000D01*
G75*
G02*
X93975000Y-90775000I0J-200000D01*
G01*
X93975000Y-91175000D01*
G75*
G02*
X93775000Y-91375000I-200000J0D01*
G01*
X93225000Y-91375000D01*
G75*
G02*
X93025000Y-91175000I0J200000D01*
G01*
X93025000Y-90775000D01*
G75*
G02*
X93225000Y-90575000I200000J0D01*
G01*
G37*
G36*
G01*
X103725000Y-92225000D02*
X104275000Y-92225000D01*
G75*
G02*
X104475000Y-92425000I0J-200000D01*
G01*
X104475000Y-92825000D01*
G75*
G02*
X104275000Y-93025000I-200000J0D01*
G01*
X103725000Y-93025000D01*
G75*
G02*
X103525000Y-92825000I0J200000D01*
G01*
X103525000Y-92425000D01*
G75*
G02*
X103725000Y-92225000I200000J0D01*
G01*
G37*
G36*
G01*
X103725000Y-90575000D02*
X104275000Y-90575000D01*
G75*
G02*
X104475000Y-90775000I0J-200000D01*
G01*
X104475000Y-91175000D01*
G75*
G02*
X104275000Y-91375000I-200000J0D01*
G01*
X103725000Y-91375000D01*
G75*
G02*
X103525000Y-91175000I0J200000D01*
G01*
X103525000Y-90775000D01*
G75*
G02*
X103725000Y-90575000I200000J0D01*
G01*
G37*
G36*
G01*
X110725000Y-92225000D02*
X111275000Y-92225000D01*
G75*
G02*
X111475000Y-92425000I0J-200000D01*
G01*
X111475000Y-92825000D01*
G75*
G02*
X111275000Y-93025000I-200000J0D01*
G01*
X110725000Y-93025000D01*
G75*
G02*
X110525000Y-92825000I0J200000D01*
G01*
X110525000Y-92425000D01*
G75*
G02*
X110725000Y-92225000I200000J0D01*
G01*
G37*
G36*
G01*
X110725000Y-90575000D02*
X111275000Y-90575000D01*
G75*
G02*
X111475000Y-90775000I0J-200000D01*
G01*
X111475000Y-91175000D01*
G75*
G02*
X111275000Y-91375000I-200000J0D01*
G01*
X110725000Y-91375000D01*
G75*
G02*
X110525000Y-91175000I0J200000D01*
G01*
X110525000Y-90775000D01*
G75*
G02*
X110725000Y-90575000I200000J0D01*
G01*
G37*
G36*
G01*
X117725000Y-92225000D02*
X118275000Y-92225000D01*
G75*
G02*
X118475000Y-92425000I0J-200000D01*
G01*
X118475000Y-92825000D01*
G75*
G02*
X118275000Y-93025000I-200000J0D01*
G01*
X117725000Y-93025000D01*
G75*
G02*
X117525000Y-92825000I0J200000D01*
G01*
X117525000Y-92425000D01*
G75*
G02*
X117725000Y-92225000I200000J0D01*
G01*
G37*
G36*
G01*
X117725000Y-90575000D02*
X118275000Y-90575000D01*
G75*
G02*
X118475000Y-90775000I0J-200000D01*
G01*
X118475000Y-91175000D01*
G75*
G02*
X118275000Y-91375000I-200000J0D01*
G01*
X117725000Y-91375000D01*
G75*
G02*
X117525000Y-91175000I0J200000D01*
G01*
X117525000Y-90775000D01*
G75*
G02*
X117725000Y-90575000I200000J0D01*
G01*
G37*
G36*
G01*
X124725000Y-92225000D02*
X125275000Y-92225000D01*
G75*
G02*
X125475000Y-92425000I0J-200000D01*
G01*
X125475000Y-92825000D01*
G75*
G02*
X125275000Y-93025000I-200000J0D01*
G01*
X124725000Y-93025000D01*
G75*
G02*
X124525000Y-92825000I0J200000D01*
G01*
X124525000Y-92425000D01*
G75*
G02*
X124725000Y-92225000I200000J0D01*
G01*
G37*
G36*
G01*
X124725000Y-90575000D02*
X125275000Y-90575000D01*
G75*
G02*
X125475000Y-90775000I0J-200000D01*
G01*
X125475000Y-91175000D01*
G75*
G02*
X125275000Y-91375000I-200000J0D01*
G01*
X124725000Y-91375000D01*
G75*
G02*
X124525000Y-91175000I0J200000D01*
G01*
X124525000Y-90775000D01*
G75*
G02*
X124725000Y-90575000I200000J0D01*
G01*
G37*
G36*
G01*
X131725000Y-92225000D02*
X132275000Y-92225000D01*
G75*
G02*
X132475000Y-92425000I0J-200000D01*
G01*
X132475000Y-92825000D01*
G75*
G02*
X132275000Y-93025000I-200000J0D01*
G01*
X131725000Y-93025000D01*
G75*
G02*
X131525000Y-92825000I0J200000D01*
G01*
X131525000Y-92425000D01*
G75*
G02*
X131725000Y-92225000I200000J0D01*
G01*
G37*
G36*
G01*
X131725000Y-90575000D02*
X132275000Y-90575000D01*
G75*
G02*
X132475000Y-90775000I0J-200000D01*
G01*
X132475000Y-91175000D01*
G75*
G02*
X132275000Y-91375000I-200000J0D01*
G01*
X131725000Y-91375000D01*
G75*
G02*
X131525000Y-91175000I0J200000D01*
G01*
X131525000Y-90775000D01*
G75*
G02*
X131725000Y-90575000I200000J0D01*
G01*
G37*
G36*
G01*
X138725000Y-92212500D02*
X139275000Y-92212500D01*
G75*
G02*
X139475000Y-92412500I0J-200000D01*
G01*
X139475000Y-92812500D01*
G75*
G02*
X139275000Y-93012500I-200000J0D01*
G01*
X138725000Y-93012500D01*
G75*
G02*
X138525000Y-92812500I0J200000D01*
G01*
X138525000Y-92412500D01*
G75*
G02*
X138725000Y-92212500I200000J0D01*
G01*
G37*
G36*
G01*
X138725000Y-90562500D02*
X139275000Y-90562500D01*
G75*
G02*
X139475000Y-90762500I0J-200000D01*
G01*
X139475000Y-91162500D01*
G75*
G02*
X139275000Y-91362500I-200000J0D01*
G01*
X138725000Y-91362500D01*
G75*
G02*
X138525000Y-91162500I0J200000D01*
G01*
X138525000Y-90762500D01*
G75*
G02*
X138725000Y-90562500I200000J0D01*
G01*
G37*
G36*
G01*
X145725000Y-92212500D02*
X146275000Y-92212500D01*
G75*
G02*
X146475000Y-92412500I0J-200000D01*
G01*
X146475000Y-92812500D01*
G75*
G02*
X146275000Y-93012500I-200000J0D01*
G01*
X145725000Y-93012500D01*
G75*
G02*
X145525000Y-92812500I0J200000D01*
G01*
X145525000Y-92412500D01*
G75*
G02*
X145725000Y-92212500I200000J0D01*
G01*
G37*
G36*
G01*
X145725000Y-90562500D02*
X146275000Y-90562500D01*
G75*
G02*
X146475000Y-90762500I0J-200000D01*
G01*
X146475000Y-91162500D01*
G75*
G02*
X146275000Y-91362500I-200000J0D01*
G01*
X145725000Y-91362500D01*
G75*
G02*
X145525000Y-91162500I0J200000D01*
G01*
X145525000Y-90762500D01*
G75*
G02*
X145725000Y-90562500I200000J0D01*
G01*
G37*
G36*
G01*
X102025000Y-92225000D02*
X102575000Y-92225000D01*
G75*
G02*
X102775000Y-92425000I0J-200000D01*
G01*
X102775000Y-92825000D01*
G75*
G02*
X102575000Y-93025000I-200000J0D01*
G01*
X102025000Y-93025000D01*
G75*
G02*
X101825000Y-92825000I0J200000D01*
G01*
X101825000Y-92425000D01*
G75*
G02*
X102025000Y-92225000I200000J0D01*
G01*
G37*
G36*
G01*
X102025000Y-90575000D02*
X102575000Y-90575000D01*
G75*
G02*
X102775000Y-90775000I0J-200000D01*
G01*
X102775000Y-91175000D01*
G75*
G02*
X102575000Y-91375000I-200000J0D01*
G01*
X102025000Y-91375000D01*
G75*
G02*
X101825000Y-91175000I0J200000D01*
G01*
X101825000Y-90775000D01*
G75*
G02*
X102025000Y-90575000I200000J0D01*
G01*
G37*
G36*
G01*
X108925000Y-92225000D02*
X109475000Y-92225000D01*
G75*
G02*
X109675000Y-92425000I0J-200000D01*
G01*
X109675000Y-92825000D01*
G75*
G02*
X109475000Y-93025000I-200000J0D01*
G01*
X108925000Y-93025000D01*
G75*
G02*
X108725000Y-92825000I0J200000D01*
G01*
X108725000Y-92425000D01*
G75*
G02*
X108925000Y-92225000I200000J0D01*
G01*
G37*
G36*
G01*
X108925000Y-90575000D02*
X109475000Y-90575000D01*
G75*
G02*
X109675000Y-90775000I0J-200000D01*
G01*
X109675000Y-91175000D01*
G75*
G02*
X109475000Y-91375000I-200000J0D01*
G01*
X108925000Y-91375000D01*
G75*
G02*
X108725000Y-91175000I0J200000D01*
G01*
X108725000Y-90775000D01*
G75*
G02*
X108925000Y-90575000I200000J0D01*
G01*
G37*
G36*
G01*
X115925000Y-92312500D02*
X116475000Y-92312500D01*
G75*
G02*
X116675000Y-92512500I0J-200000D01*
G01*
X116675000Y-92912500D01*
G75*
G02*
X116475000Y-93112500I-200000J0D01*
G01*
X115925000Y-93112500D01*
G75*
G02*
X115725000Y-92912500I0J200000D01*
G01*
X115725000Y-92512500D01*
G75*
G02*
X115925000Y-92312500I200000J0D01*
G01*
G37*
G36*
G01*
X115925000Y-90662500D02*
X116475000Y-90662500D01*
G75*
G02*
X116675000Y-90862500I0J-200000D01*
G01*
X116675000Y-91262500D01*
G75*
G02*
X116475000Y-91462500I-200000J0D01*
G01*
X115925000Y-91462500D01*
G75*
G02*
X115725000Y-91262500I0J200000D01*
G01*
X115725000Y-90862500D01*
G75*
G02*
X115925000Y-90662500I200000J0D01*
G01*
G37*
G36*
G01*
X123025000Y-92225000D02*
X123575000Y-92225000D01*
G75*
G02*
X123775000Y-92425000I0J-200000D01*
G01*
X123775000Y-92825000D01*
G75*
G02*
X123575000Y-93025000I-200000J0D01*
G01*
X123025000Y-93025000D01*
G75*
G02*
X122825000Y-92825000I0J200000D01*
G01*
X122825000Y-92425000D01*
G75*
G02*
X123025000Y-92225000I200000J0D01*
G01*
G37*
G36*
G01*
X123025000Y-90575000D02*
X123575000Y-90575000D01*
G75*
G02*
X123775000Y-90775000I0J-200000D01*
G01*
X123775000Y-91175000D01*
G75*
G02*
X123575000Y-91375000I-200000J0D01*
G01*
X123025000Y-91375000D01*
G75*
G02*
X122825000Y-91175000I0J200000D01*
G01*
X122825000Y-90775000D01*
G75*
G02*
X123025000Y-90575000I200000J0D01*
G01*
G37*
G36*
G01*
X129925000Y-92225000D02*
X130475000Y-92225000D01*
G75*
G02*
X130675000Y-92425000I0J-200000D01*
G01*
X130675000Y-92825000D01*
G75*
G02*
X130475000Y-93025000I-200000J0D01*
G01*
X129925000Y-93025000D01*
G75*
G02*
X129725000Y-92825000I0J200000D01*
G01*
X129725000Y-92425000D01*
G75*
G02*
X129925000Y-92225000I200000J0D01*
G01*
G37*
G36*
G01*
X129925000Y-90575000D02*
X130475000Y-90575000D01*
G75*
G02*
X130675000Y-90775000I0J-200000D01*
G01*
X130675000Y-91175000D01*
G75*
G02*
X130475000Y-91375000I-200000J0D01*
G01*
X129925000Y-91375000D01*
G75*
G02*
X129725000Y-91175000I0J200000D01*
G01*
X129725000Y-90775000D01*
G75*
G02*
X129925000Y-90575000I200000J0D01*
G01*
G37*
G36*
G01*
X136925000Y-92237500D02*
X137475000Y-92237500D01*
G75*
G02*
X137675000Y-92437500I0J-200000D01*
G01*
X137675000Y-92837500D01*
G75*
G02*
X137475000Y-93037500I-200000J0D01*
G01*
X136925000Y-93037500D01*
G75*
G02*
X136725000Y-92837500I0J200000D01*
G01*
X136725000Y-92437500D01*
G75*
G02*
X136925000Y-92237500I200000J0D01*
G01*
G37*
G36*
G01*
X136925000Y-90587500D02*
X137475000Y-90587500D01*
G75*
G02*
X137675000Y-90787500I0J-200000D01*
G01*
X137675000Y-91187500D01*
G75*
G02*
X137475000Y-91387500I-200000J0D01*
G01*
X136925000Y-91387500D01*
G75*
G02*
X136725000Y-91187500I0J200000D01*
G01*
X136725000Y-90787500D01*
G75*
G02*
X136925000Y-90587500I200000J0D01*
G01*
G37*
G36*
G01*
X143925000Y-92225000D02*
X144475000Y-92225000D01*
G75*
G02*
X144675000Y-92425000I0J-200000D01*
G01*
X144675000Y-92825000D01*
G75*
G02*
X144475000Y-93025000I-200000J0D01*
G01*
X143925000Y-93025000D01*
G75*
G02*
X143725000Y-92825000I0J200000D01*
G01*
X143725000Y-92425000D01*
G75*
G02*
X143925000Y-92225000I200000J0D01*
G01*
G37*
G36*
G01*
X143925000Y-90575000D02*
X144475000Y-90575000D01*
G75*
G02*
X144675000Y-90775000I0J-200000D01*
G01*
X144675000Y-91175000D01*
G75*
G02*
X144475000Y-91375000I-200000J0D01*
G01*
X143925000Y-91375000D01*
G75*
G02*
X143725000Y-91175000I0J200000D01*
G01*
X143725000Y-90775000D01*
G75*
G02*
X143925000Y-90575000I200000J0D01*
G01*
G37*
G36*
G01*
X100325000Y-92212500D02*
X100875000Y-92212500D01*
G75*
G02*
X101075000Y-92412500I0J-200000D01*
G01*
X101075000Y-92812500D01*
G75*
G02*
X100875000Y-93012500I-200000J0D01*
G01*
X100325000Y-93012500D01*
G75*
G02*
X100125000Y-92812500I0J200000D01*
G01*
X100125000Y-92412500D01*
G75*
G02*
X100325000Y-92212500I200000J0D01*
G01*
G37*
G36*
G01*
X100325000Y-90562500D02*
X100875000Y-90562500D01*
G75*
G02*
X101075000Y-90762500I0J-200000D01*
G01*
X101075000Y-91162500D01*
G75*
G02*
X100875000Y-91362500I-200000J0D01*
G01*
X100325000Y-91362500D01*
G75*
G02*
X100125000Y-91162500I0J200000D01*
G01*
X100125000Y-90762500D01*
G75*
G02*
X100325000Y-90562500I200000J0D01*
G01*
G37*
G36*
G01*
X107225000Y-92212500D02*
X107775000Y-92212500D01*
G75*
G02*
X107975000Y-92412500I0J-200000D01*
G01*
X107975000Y-92812500D01*
G75*
G02*
X107775000Y-93012500I-200000J0D01*
G01*
X107225000Y-93012500D01*
G75*
G02*
X107025000Y-92812500I0J200000D01*
G01*
X107025000Y-92412500D01*
G75*
G02*
X107225000Y-92212500I200000J0D01*
G01*
G37*
G36*
G01*
X107225000Y-90562500D02*
X107775000Y-90562500D01*
G75*
G02*
X107975000Y-90762500I0J-200000D01*
G01*
X107975000Y-91162500D01*
G75*
G02*
X107775000Y-91362500I-200000J0D01*
G01*
X107225000Y-91362500D01*
G75*
G02*
X107025000Y-91162500I0J200000D01*
G01*
X107025000Y-90762500D01*
G75*
G02*
X107225000Y-90562500I200000J0D01*
G01*
G37*
G36*
G01*
X114225000Y-92225000D02*
X114775000Y-92225000D01*
G75*
G02*
X114975000Y-92425000I0J-200000D01*
G01*
X114975000Y-92825000D01*
G75*
G02*
X114775000Y-93025000I-200000J0D01*
G01*
X114225000Y-93025000D01*
G75*
G02*
X114025000Y-92825000I0J200000D01*
G01*
X114025000Y-92425000D01*
G75*
G02*
X114225000Y-92225000I200000J0D01*
G01*
G37*
G36*
G01*
X114225000Y-90575000D02*
X114775000Y-90575000D01*
G75*
G02*
X114975000Y-90775000I0J-200000D01*
G01*
X114975000Y-91175000D01*
G75*
G02*
X114775000Y-91375000I-200000J0D01*
G01*
X114225000Y-91375000D01*
G75*
G02*
X114025000Y-91175000I0J200000D01*
G01*
X114025000Y-90775000D01*
G75*
G02*
X114225000Y-90575000I200000J0D01*
G01*
G37*
G36*
G01*
X121225000Y-92225000D02*
X121775000Y-92225000D01*
G75*
G02*
X121975000Y-92425000I0J-200000D01*
G01*
X121975000Y-92825000D01*
G75*
G02*
X121775000Y-93025000I-200000J0D01*
G01*
X121225000Y-93025000D01*
G75*
G02*
X121025000Y-92825000I0J200000D01*
G01*
X121025000Y-92425000D01*
G75*
G02*
X121225000Y-92225000I200000J0D01*
G01*
G37*
G36*
G01*
X121225000Y-90575000D02*
X121775000Y-90575000D01*
G75*
G02*
X121975000Y-90775000I0J-200000D01*
G01*
X121975000Y-91175000D01*
G75*
G02*
X121775000Y-91375000I-200000J0D01*
G01*
X121225000Y-91375000D01*
G75*
G02*
X121025000Y-91175000I0J200000D01*
G01*
X121025000Y-90775000D01*
G75*
G02*
X121225000Y-90575000I200000J0D01*
G01*
G37*
G36*
G01*
X128225000Y-92225000D02*
X128775000Y-92225000D01*
G75*
G02*
X128975000Y-92425000I0J-200000D01*
G01*
X128975000Y-92825000D01*
G75*
G02*
X128775000Y-93025000I-200000J0D01*
G01*
X128225000Y-93025000D01*
G75*
G02*
X128025000Y-92825000I0J200000D01*
G01*
X128025000Y-92425000D01*
G75*
G02*
X128225000Y-92225000I200000J0D01*
G01*
G37*
G36*
G01*
X128225000Y-90575000D02*
X128775000Y-90575000D01*
G75*
G02*
X128975000Y-90775000I0J-200000D01*
G01*
X128975000Y-91175000D01*
G75*
G02*
X128775000Y-91375000I-200000J0D01*
G01*
X128225000Y-91375000D01*
G75*
G02*
X128025000Y-91175000I0J200000D01*
G01*
X128025000Y-90775000D01*
G75*
G02*
X128225000Y-90575000I200000J0D01*
G01*
G37*
G36*
G01*
X135225000Y-92225000D02*
X135775000Y-92225000D01*
G75*
G02*
X135975000Y-92425000I0J-200000D01*
G01*
X135975000Y-92825000D01*
G75*
G02*
X135775000Y-93025000I-200000J0D01*
G01*
X135225000Y-93025000D01*
G75*
G02*
X135025000Y-92825000I0J200000D01*
G01*
X135025000Y-92425000D01*
G75*
G02*
X135225000Y-92225000I200000J0D01*
G01*
G37*
G36*
G01*
X135225000Y-90575000D02*
X135775000Y-90575000D01*
G75*
G02*
X135975000Y-90775000I0J-200000D01*
G01*
X135975000Y-91175000D01*
G75*
G02*
X135775000Y-91375000I-200000J0D01*
G01*
X135225000Y-91375000D01*
G75*
G02*
X135025000Y-91175000I0J200000D01*
G01*
X135025000Y-90775000D01*
G75*
G02*
X135225000Y-90575000I200000J0D01*
G01*
G37*
G36*
G01*
X142225000Y-92225000D02*
X142775000Y-92225000D01*
G75*
G02*
X142975000Y-92425000I0J-200000D01*
G01*
X142975000Y-92825000D01*
G75*
G02*
X142775000Y-93025000I-200000J0D01*
G01*
X142225000Y-93025000D01*
G75*
G02*
X142025000Y-92825000I0J200000D01*
G01*
X142025000Y-92425000D01*
G75*
G02*
X142225000Y-92225000I200000J0D01*
G01*
G37*
G36*
G01*
X142225000Y-90575000D02*
X142775000Y-90575000D01*
G75*
G02*
X142975000Y-90775000I0J-200000D01*
G01*
X142975000Y-91175000D01*
G75*
G02*
X142775000Y-91375000I-200000J0D01*
G01*
X142225000Y-91375000D01*
G75*
G02*
X142025000Y-91175000I0J200000D01*
G01*
X142025000Y-90775000D01*
G75*
G02*
X142225000Y-90575000I200000J0D01*
G01*
G37*
G36*
G01*
X152625000Y-92225000D02*
X153175000Y-92225000D01*
G75*
G02*
X153375000Y-92425000I0J-200000D01*
G01*
X153375000Y-92825000D01*
G75*
G02*
X153175000Y-93025000I-200000J0D01*
G01*
X152625000Y-93025000D01*
G75*
G02*
X152425000Y-92825000I0J200000D01*
G01*
X152425000Y-92425000D01*
G75*
G02*
X152625000Y-92225000I200000J0D01*
G01*
G37*
G36*
G01*
X152625000Y-90575000D02*
X153175000Y-90575000D01*
G75*
G02*
X153375000Y-90775000I0J-200000D01*
G01*
X153375000Y-91175000D01*
G75*
G02*
X153175000Y-91375000I-200000J0D01*
G01*
X152625000Y-91375000D01*
G75*
G02*
X152425000Y-91175000I0J200000D01*
G01*
X152425000Y-90775000D01*
G75*
G02*
X152625000Y-90575000I200000J0D01*
G01*
G37*
G36*
G01*
X159725000Y-92225000D02*
X160275000Y-92225000D01*
G75*
G02*
X160475000Y-92425000I0J-200000D01*
G01*
X160475000Y-92825000D01*
G75*
G02*
X160275000Y-93025000I-200000J0D01*
G01*
X159725000Y-93025000D01*
G75*
G02*
X159525000Y-92825000I0J200000D01*
G01*
X159525000Y-92425000D01*
G75*
G02*
X159725000Y-92225000I200000J0D01*
G01*
G37*
G36*
G01*
X159725000Y-90575000D02*
X160275000Y-90575000D01*
G75*
G02*
X160475000Y-90775000I0J-200000D01*
G01*
X160475000Y-91175000D01*
G75*
G02*
X160275000Y-91375000I-200000J0D01*
G01*
X159725000Y-91375000D01*
G75*
G02*
X159525000Y-91175000I0J200000D01*
G01*
X159525000Y-90775000D01*
G75*
G02*
X159725000Y-90575000I200000J0D01*
G01*
G37*
G36*
G01*
X166725000Y-92225000D02*
X167275000Y-92225000D01*
G75*
G02*
X167475000Y-92425000I0J-200000D01*
G01*
X167475000Y-92825000D01*
G75*
G02*
X167275000Y-93025000I-200000J0D01*
G01*
X166725000Y-93025000D01*
G75*
G02*
X166525000Y-92825000I0J200000D01*
G01*
X166525000Y-92425000D01*
G75*
G02*
X166725000Y-92225000I200000J0D01*
G01*
G37*
G36*
G01*
X166725000Y-90575000D02*
X167275000Y-90575000D01*
G75*
G02*
X167475000Y-90775000I0J-200000D01*
G01*
X167475000Y-91175000D01*
G75*
G02*
X167275000Y-91375000I-200000J0D01*
G01*
X166725000Y-91375000D01*
G75*
G02*
X166525000Y-91175000I0J200000D01*
G01*
X166525000Y-90775000D01*
G75*
G02*
X166725000Y-90575000I200000J0D01*
G01*
G37*
G36*
G01*
X173725000Y-92237500D02*
X174275000Y-92237500D01*
G75*
G02*
X174475000Y-92437500I0J-200000D01*
G01*
X174475000Y-92837500D01*
G75*
G02*
X174275000Y-93037500I-200000J0D01*
G01*
X173725000Y-93037500D01*
G75*
G02*
X173525000Y-92837500I0J200000D01*
G01*
X173525000Y-92437500D01*
G75*
G02*
X173725000Y-92237500I200000J0D01*
G01*
G37*
G36*
G01*
X173725000Y-90587500D02*
X174275000Y-90587500D01*
G75*
G02*
X174475000Y-90787500I0J-200000D01*
G01*
X174475000Y-91187500D01*
G75*
G02*
X174275000Y-91387500I-200000J0D01*
G01*
X173725000Y-91387500D01*
G75*
G02*
X173525000Y-91187500I0J200000D01*
G01*
X173525000Y-90787500D01*
G75*
G02*
X173725000Y-90587500I200000J0D01*
G01*
G37*
G36*
G01*
X180725000Y-92237500D02*
X181275000Y-92237500D01*
G75*
G02*
X181475000Y-92437500I0J-200000D01*
G01*
X181475000Y-92837500D01*
G75*
G02*
X181275000Y-93037500I-200000J0D01*
G01*
X180725000Y-93037500D01*
G75*
G02*
X180525000Y-92837500I0J200000D01*
G01*
X180525000Y-92437500D01*
G75*
G02*
X180725000Y-92237500I200000J0D01*
G01*
G37*
G36*
G01*
X180725000Y-90587500D02*
X181275000Y-90587500D01*
G75*
G02*
X181475000Y-90787500I0J-200000D01*
G01*
X181475000Y-91187500D01*
G75*
G02*
X181275000Y-91387500I-200000J0D01*
G01*
X180725000Y-91387500D01*
G75*
G02*
X180525000Y-91187500I0J200000D01*
G01*
X180525000Y-90787500D01*
G75*
G02*
X180725000Y-90587500I200000J0D01*
G01*
G37*
G36*
G01*
X187725000Y-92212500D02*
X188275000Y-92212500D01*
G75*
G02*
X188475000Y-92412500I0J-200000D01*
G01*
X188475000Y-92812500D01*
G75*
G02*
X188275000Y-93012500I-200000J0D01*
G01*
X187725000Y-93012500D01*
G75*
G02*
X187525000Y-92812500I0J200000D01*
G01*
X187525000Y-92412500D01*
G75*
G02*
X187725000Y-92212500I200000J0D01*
G01*
G37*
G36*
G01*
X187725000Y-90562500D02*
X188275000Y-90562500D01*
G75*
G02*
X188475000Y-90762500I0J-200000D01*
G01*
X188475000Y-91162500D01*
G75*
G02*
X188275000Y-91362500I-200000J0D01*
G01*
X187725000Y-91362500D01*
G75*
G02*
X187525000Y-91162500I0J200000D01*
G01*
X187525000Y-90762500D01*
G75*
G02*
X187725000Y-90562500I200000J0D01*
G01*
G37*
G36*
G01*
X194725000Y-92225000D02*
X195275000Y-92225000D01*
G75*
G02*
X195475000Y-92425000I0J-200000D01*
G01*
X195475000Y-92825000D01*
G75*
G02*
X195275000Y-93025000I-200000J0D01*
G01*
X194725000Y-93025000D01*
G75*
G02*
X194525000Y-92825000I0J200000D01*
G01*
X194525000Y-92425000D01*
G75*
G02*
X194725000Y-92225000I200000J0D01*
G01*
G37*
G36*
G01*
X194725000Y-90575000D02*
X195275000Y-90575000D01*
G75*
G02*
X195475000Y-90775000I0J-200000D01*
G01*
X195475000Y-91175000D01*
G75*
G02*
X195275000Y-91375000I-200000J0D01*
G01*
X194725000Y-91375000D01*
G75*
G02*
X194525000Y-91175000I0J200000D01*
G01*
X194525000Y-90775000D01*
G75*
G02*
X194725000Y-90575000I200000J0D01*
G01*
G37*
G36*
G01*
X150925000Y-92237500D02*
X151475000Y-92237500D01*
G75*
G02*
X151675000Y-92437500I0J-200000D01*
G01*
X151675000Y-92837500D01*
G75*
G02*
X151475000Y-93037500I-200000J0D01*
G01*
X150925000Y-93037500D01*
G75*
G02*
X150725000Y-92837500I0J200000D01*
G01*
X150725000Y-92437500D01*
G75*
G02*
X150925000Y-92237500I200000J0D01*
G01*
G37*
G36*
G01*
X150925000Y-90587500D02*
X151475000Y-90587500D01*
G75*
G02*
X151675000Y-90787500I0J-200000D01*
G01*
X151675000Y-91187500D01*
G75*
G02*
X151475000Y-91387500I-200000J0D01*
G01*
X150925000Y-91387500D01*
G75*
G02*
X150725000Y-91187500I0J200000D01*
G01*
X150725000Y-90787500D01*
G75*
G02*
X150925000Y-90587500I200000J0D01*
G01*
G37*
G36*
G01*
X157925000Y-92225000D02*
X158475000Y-92225000D01*
G75*
G02*
X158675000Y-92425000I0J-200000D01*
G01*
X158675000Y-92825000D01*
G75*
G02*
X158475000Y-93025000I-200000J0D01*
G01*
X157925000Y-93025000D01*
G75*
G02*
X157725000Y-92825000I0J200000D01*
G01*
X157725000Y-92425000D01*
G75*
G02*
X157925000Y-92225000I200000J0D01*
G01*
G37*
G36*
G01*
X157925000Y-90575000D02*
X158475000Y-90575000D01*
G75*
G02*
X158675000Y-90775000I0J-200000D01*
G01*
X158675000Y-91175000D01*
G75*
G02*
X158475000Y-91375000I-200000J0D01*
G01*
X157925000Y-91375000D01*
G75*
G02*
X157725000Y-91175000I0J200000D01*
G01*
X157725000Y-90775000D01*
G75*
G02*
X157925000Y-90575000I200000J0D01*
G01*
G37*
G36*
G01*
X164925000Y-92225000D02*
X165475000Y-92225000D01*
G75*
G02*
X165675000Y-92425000I0J-200000D01*
G01*
X165675000Y-92825000D01*
G75*
G02*
X165475000Y-93025000I-200000J0D01*
G01*
X164925000Y-93025000D01*
G75*
G02*
X164725000Y-92825000I0J200000D01*
G01*
X164725000Y-92425000D01*
G75*
G02*
X164925000Y-92225000I200000J0D01*
G01*
G37*
G36*
G01*
X164925000Y-90575000D02*
X165475000Y-90575000D01*
G75*
G02*
X165675000Y-90775000I0J-200000D01*
G01*
X165675000Y-91175000D01*
G75*
G02*
X165475000Y-91375000I-200000J0D01*
G01*
X164925000Y-91375000D01*
G75*
G02*
X164725000Y-91175000I0J200000D01*
G01*
X164725000Y-90775000D01*
G75*
G02*
X164925000Y-90575000I200000J0D01*
G01*
G37*
G36*
G01*
X171925000Y-92225000D02*
X172475000Y-92225000D01*
G75*
G02*
X172675000Y-92425000I0J-200000D01*
G01*
X172675000Y-92825000D01*
G75*
G02*
X172475000Y-93025000I-200000J0D01*
G01*
X171925000Y-93025000D01*
G75*
G02*
X171725000Y-92825000I0J200000D01*
G01*
X171725000Y-92425000D01*
G75*
G02*
X171925000Y-92225000I200000J0D01*
G01*
G37*
G36*
G01*
X171925000Y-90575000D02*
X172475000Y-90575000D01*
G75*
G02*
X172675000Y-90775000I0J-200000D01*
G01*
X172675000Y-91175000D01*
G75*
G02*
X172475000Y-91375000I-200000J0D01*
G01*
X171925000Y-91375000D01*
G75*
G02*
X171725000Y-91175000I0J200000D01*
G01*
X171725000Y-90775000D01*
G75*
G02*
X171925000Y-90575000I200000J0D01*
G01*
G37*
G36*
G01*
X178925000Y-92225000D02*
X179475000Y-92225000D01*
G75*
G02*
X179675000Y-92425000I0J-200000D01*
G01*
X179675000Y-92825000D01*
G75*
G02*
X179475000Y-93025000I-200000J0D01*
G01*
X178925000Y-93025000D01*
G75*
G02*
X178725000Y-92825000I0J200000D01*
G01*
X178725000Y-92425000D01*
G75*
G02*
X178925000Y-92225000I200000J0D01*
G01*
G37*
G36*
G01*
X178925000Y-90575000D02*
X179475000Y-90575000D01*
G75*
G02*
X179675000Y-90775000I0J-200000D01*
G01*
X179675000Y-91175000D01*
G75*
G02*
X179475000Y-91375000I-200000J0D01*
G01*
X178925000Y-91375000D01*
G75*
G02*
X178725000Y-91175000I0J200000D01*
G01*
X178725000Y-90775000D01*
G75*
G02*
X178925000Y-90575000I200000J0D01*
G01*
G37*
G36*
G01*
X185925000Y-92225000D02*
X186475000Y-92225000D01*
G75*
G02*
X186675000Y-92425000I0J-200000D01*
G01*
X186675000Y-92825000D01*
G75*
G02*
X186475000Y-93025000I-200000J0D01*
G01*
X185925000Y-93025000D01*
G75*
G02*
X185725000Y-92825000I0J200000D01*
G01*
X185725000Y-92425000D01*
G75*
G02*
X185925000Y-92225000I200000J0D01*
G01*
G37*
G36*
G01*
X185925000Y-90575000D02*
X186475000Y-90575000D01*
G75*
G02*
X186675000Y-90775000I0J-200000D01*
G01*
X186675000Y-91175000D01*
G75*
G02*
X186475000Y-91375000I-200000J0D01*
G01*
X185925000Y-91375000D01*
G75*
G02*
X185725000Y-91175000I0J200000D01*
G01*
X185725000Y-90775000D01*
G75*
G02*
X185925000Y-90575000I200000J0D01*
G01*
G37*
G36*
G01*
X193025000Y-92237500D02*
X193575000Y-92237500D01*
G75*
G02*
X193775000Y-92437500I0J-200000D01*
G01*
X193775000Y-92837500D01*
G75*
G02*
X193575000Y-93037500I-200000J0D01*
G01*
X193025000Y-93037500D01*
G75*
G02*
X192825000Y-92837500I0J200000D01*
G01*
X192825000Y-92437500D01*
G75*
G02*
X193025000Y-92237500I200000J0D01*
G01*
G37*
G36*
G01*
X193025000Y-90587500D02*
X193575000Y-90587500D01*
G75*
G02*
X193775000Y-90787500I0J-200000D01*
G01*
X193775000Y-91187500D01*
G75*
G02*
X193575000Y-91387500I-200000J0D01*
G01*
X193025000Y-91387500D01*
G75*
G02*
X192825000Y-91187500I0J200000D01*
G01*
X192825000Y-90787500D01*
G75*
G02*
X193025000Y-90587500I200000J0D01*
G01*
G37*
G36*
G01*
X149225000Y-92225000D02*
X149775000Y-92225000D01*
G75*
G02*
X149975000Y-92425000I0J-200000D01*
G01*
X149975000Y-92825000D01*
G75*
G02*
X149775000Y-93025000I-200000J0D01*
G01*
X149225000Y-93025000D01*
G75*
G02*
X149025000Y-92825000I0J200000D01*
G01*
X149025000Y-92425000D01*
G75*
G02*
X149225000Y-92225000I200000J0D01*
G01*
G37*
G36*
G01*
X149225000Y-90575000D02*
X149775000Y-90575000D01*
G75*
G02*
X149975000Y-90775000I0J-200000D01*
G01*
X149975000Y-91175000D01*
G75*
G02*
X149775000Y-91375000I-200000J0D01*
G01*
X149225000Y-91375000D01*
G75*
G02*
X149025000Y-91175000I0J200000D01*
G01*
X149025000Y-90775000D01*
G75*
G02*
X149225000Y-90575000I200000J0D01*
G01*
G37*
G36*
G01*
X156225000Y-92225000D02*
X156775000Y-92225000D01*
G75*
G02*
X156975000Y-92425000I0J-200000D01*
G01*
X156975000Y-92825000D01*
G75*
G02*
X156775000Y-93025000I-200000J0D01*
G01*
X156225000Y-93025000D01*
G75*
G02*
X156025000Y-92825000I0J200000D01*
G01*
X156025000Y-92425000D01*
G75*
G02*
X156225000Y-92225000I200000J0D01*
G01*
G37*
G36*
G01*
X156225000Y-90575000D02*
X156775000Y-90575000D01*
G75*
G02*
X156975000Y-90775000I0J-200000D01*
G01*
X156975000Y-91175000D01*
G75*
G02*
X156775000Y-91375000I-200000J0D01*
G01*
X156225000Y-91375000D01*
G75*
G02*
X156025000Y-91175000I0J200000D01*
G01*
X156025000Y-90775000D01*
G75*
G02*
X156225000Y-90575000I200000J0D01*
G01*
G37*
G36*
G01*
X163225000Y-92212500D02*
X163775000Y-92212500D01*
G75*
G02*
X163975000Y-92412500I0J-200000D01*
G01*
X163975000Y-92812500D01*
G75*
G02*
X163775000Y-93012500I-200000J0D01*
G01*
X163225000Y-93012500D01*
G75*
G02*
X163025000Y-92812500I0J200000D01*
G01*
X163025000Y-92412500D01*
G75*
G02*
X163225000Y-92212500I200000J0D01*
G01*
G37*
G36*
G01*
X163225000Y-90562500D02*
X163775000Y-90562500D01*
G75*
G02*
X163975000Y-90762500I0J-200000D01*
G01*
X163975000Y-91162500D01*
G75*
G02*
X163775000Y-91362500I-200000J0D01*
G01*
X163225000Y-91362500D01*
G75*
G02*
X163025000Y-91162500I0J200000D01*
G01*
X163025000Y-90762500D01*
G75*
G02*
X163225000Y-90562500I200000J0D01*
G01*
G37*
G36*
G01*
X170225000Y-92225000D02*
X170775000Y-92225000D01*
G75*
G02*
X170975000Y-92425000I0J-200000D01*
G01*
X170975000Y-92825000D01*
G75*
G02*
X170775000Y-93025000I-200000J0D01*
G01*
X170225000Y-93025000D01*
G75*
G02*
X170025000Y-92825000I0J200000D01*
G01*
X170025000Y-92425000D01*
G75*
G02*
X170225000Y-92225000I200000J0D01*
G01*
G37*
G36*
G01*
X170225000Y-90575000D02*
X170775000Y-90575000D01*
G75*
G02*
X170975000Y-90775000I0J-200000D01*
G01*
X170975000Y-91175000D01*
G75*
G02*
X170775000Y-91375000I-200000J0D01*
G01*
X170225000Y-91375000D01*
G75*
G02*
X170025000Y-91175000I0J200000D01*
G01*
X170025000Y-90775000D01*
G75*
G02*
X170225000Y-90575000I200000J0D01*
G01*
G37*
G36*
G01*
X177225000Y-92225000D02*
X177775000Y-92225000D01*
G75*
G02*
X177975000Y-92425000I0J-200000D01*
G01*
X177975000Y-92825000D01*
G75*
G02*
X177775000Y-93025000I-200000J0D01*
G01*
X177225000Y-93025000D01*
G75*
G02*
X177025000Y-92825000I0J200000D01*
G01*
X177025000Y-92425000D01*
G75*
G02*
X177225000Y-92225000I200000J0D01*
G01*
G37*
G36*
G01*
X177225000Y-90575000D02*
X177775000Y-90575000D01*
G75*
G02*
X177975000Y-90775000I0J-200000D01*
G01*
X177975000Y-91175000D01*
G75*
G02*
X177775000Y-91375000I-200000J0D01*
G01*
X177225000Y-91375000D01*
G75*
G02*
X177025000Y-91175000I0J200000D01*
G01*
X177025000Y-90775000D01*
G75*
G02*
X177225000Y-90575000I200000J0D01*
G01*
G37*
G36*
G01*
X184225000Y-92225000D02*
X184775000Y-92225000D01*
G75*
G02*
X184975000Y-92425000I0J-200000D01*
G01*
X184975000Y-92825000D01*
G75*
G02*
X184775000Y-93025000I-200000J0D01*
G01*
X184225000Y-93025000D01*
G75*
G02*
X184025000Y-92825000I0J200000D01*
G01*
X184025000Y-92425000D01*
G75*
G02*
X184225000Y-92225000I200000J0D01*
G01*
G37*
G36*
G01*
X184225000Y-90575000D02*
X184775000Y-90575000D01*
G75*
G02*
X184975000Y-90775000I0J-200000D01*
G01*
X184975000Y-91175000D01*
G75*
G02*
X184775000Y-91375000I-200000J0D01*
G01*
X184225000Y-91375000D01*
G75*
G02*
X184025000Y-91175000I0J200000D01*
G01*
X184025000Y-90775000D01*
G75*
G02*
X184225000Y-90575000I200000J0D01*
G01*
G37*
G36*
G01*
X191225000Y-92225000D02*
X191775000Y-92225000D01*
G75*
G02*
X191975000Y-92425000I0J-200000D01*
G01*
X191975000Y-92825000D01*
G75*
G02*
X191775000Y-93025000I-200000J0D01*
G01*
X191225000Y-93025000D01*
G75*
G02*
X191025000Y-92825000I0J200000D01*
G01*
X191025000Y-92425000D01*
G75*
G02*
X191225000Y-92225000I200000J0D01*
G01*
G37*
G36*
G01*
X191225000Y-90575000D02*
X191775000Y-90575000D01*
G75*
G02*
X191975000Y-90775000I0J-200000D01*
G01*
X191975000Y-91175000D01*
G75*
G02*
X191775000Y-91375000I-200000J0D01*
G01*
X191225000Y-91375000D01*
G75*
G02*
X191025000Y-91175000I0J200000D01*
G01*
X191025000Y-90775000D01*
G75*
G02*
X191225000Y-90575000I200000J0D01*
G01*
G37*
G36*
G01*
X246950000Y-110700001D02*
X246950000Y-109799999D01*
G75*
G02*
X247199999Y-109550000I249999J0D01*
G01*
X247900001Y-109550000D01*
G75*
G02*
X248150000Y-109799999I0J-249999D01*
G01*
X248150000Y-110700001D01*
G75*
G02*
X247900001Y-110950000I-249999J0D01*
G01*
X247199999Y-110950000D01*
G75*
G02*
X246950000Y-110700001I0J249999D01*
G01*
G37*
G36*
G01*
X244950000Y-110700001D02*
X244950000Y-109799999D01*
G75*
G02*
X245199999Y-109550000I249999J0D01*
G01*
X245900001Y-109550000D01*
G75*
G02*
X246150000Y-109799999I0J-249999D01*
G01*
X246150000Y-110700001D01*
G75*
G02*
X245900001Y-110950000I-249999J0D01*
G01*
X245199999Y-110950000D01*
G75*
G02*
X244950000Y-110700001I0J249999D01*
G01*
G37*
G36*
G01*
X219300000Y-110700001D02*
X219300000Y-109799999D01*
G75*
G02*
X219549999Y-109550000I249999J0D01*
G01*
X220250001Y-109550000D01*
G75*
G02*
X220500000Y-109799999I0J-249999D01*
G01*
X220500000Y-110700001D01*
G75*
G02*
X220250001Y-110950000I-249999J0D01*
G01*
X219549999Y-110950000D01*
G75*
G02*
X219300000Y-110700001I0J249999D01*
G01*
G37*
G36*
G01*
X217300000Y-110700001D02*
X217300000Y-109799999D01*
G75*
G02*
X217549999Y-109550000I249999J0D01*
G01*
X218250001Y-109550000D01*
G75*
G02*
X218500000Y-109799999I0J-249999D01*
G01*
X218500000Y-110700001D01*
G75*
G02*
X218250001Y-110950000I-249999J0D01*
G01*
X217549999Y-110950000D01*
G75*
G02*
X217300000Y-110700001I0J249999D01*
G01*
G37*
G36*
G01*
X244700001Y-86800000D02*
X243799999Y-86800000D01*
G75*
G02*
X243550000Y-86550001I0J249999D01*
G01*
X243550000Y-85849999D01*
G75*
G02*
X243799999Y-85600000I249999J0D01*
G01*
X244700001Y-85600000D01*
G75*
G02*
X244950000Y-85849999I0J-249999D01*
G01*
X244950000Y-86550001D01*
G75*
G02*
X244700001Y-86800000I-249999J0D01*
G01*
G37*
G36*
G01*
X244700001Y-88800000D02*
X243799999Y-88800000D01*
G75*
G02*
X243550000Y-88550001I0J249999D01*
G01*
X243550000Y-87849999D01*
G75*
G02*
X243799999Y-87600000I249999J0D01*
G01*
X244700001Y-87600000D01*
G75*
G02*
X244950000Y-87849999I0J-249999D01*
G01*
X244950000Y-88550001D01*
G75*
G02*
X244700001Y-88800000I-249999J0D01*
G01*
G37*
G36*
G01*
X246499999Y-87600000D02*
X247400001Y-87600000D01*
G75*
G02*
X247650000Y-87849999I0J-249999D01*
G01*
X247650000Y-88550001D01*
G75*
G02*
X247400001Y-88800000I-249999J0D01*
G01*
X246499999Y-88800000D01*
G75*
G02*
X246250000Y-88550001I0J249999D01*
G01*
X246250000Y-87849999D01*
G75*
G02*
X246499999Y-87600000I249999J0D01*
G01*
G37*
G36*
G01*
X246499999Y-85600000D02*
X247400001Y-85600000D01*
G75*
G02*
X247650000Y-85849999I0J-249999D01*
G01*
X247650000Y-86550001D01*
G75*
G02*
X247400001Y-86800000I-249999J0D01*
G01*
X246499999Y-86800000D01*
G75*
G02*
X246250000Y-86550001I0J249999D01*
G01*
X246250000Y-85849999D01*
G75*
G02*
X246499999Y-85600000I249999J0D01*
G01*
G37*
G36*
G01*
X259950000Y-97950001D02*
X259950000Y-97049999D01*
G75*
G02*
X260199999Y-96800000I249999J0D01*
G01*
X260900001Y-96800000D01*
G75*
G02*
X261150000Y-97049999I0J-249999D01*
G01*
X261150000Y-97950001D01*
G75*
G02*
X260900001Y-98200000I-249999J0D01*
G01*
X260199999Y-98200000D01*
G75*
G02*
X259950000Y-97950001I0J249999D01*
G01*
G37*
G36*
G01*
X257950000Y-97950001D02*
X257950000Y-97049999D01*
G75*
G02*
X258199999Y-96800000I249999J0D01*
G01*
X258900001Y-96800000D01*
G75*
G02*
X259150000Y-97049999I0J-249999D01*
G01*
X259150000Y-97950001D01*
G75*
G02*
X258900001Y-98200000I-249999J0D01*
G01*
X258199999Y-98200000D01*
G75*
G02*
X257950000Y-97950001I0J249999D01*
G01*
G37*
G36*
G01*
X250400001Y-86800000D02*
X249499999Y-86800000D01*
G75*
G02*
X249250000Y-86550001I0J249999D01*
G01*
X249250000Y-85849999D01*
G75*
G02*
X249499999Y-85600000I249999J0D01*
G01*
X250400001Y-85600000D01*
G75*
G02*
X250650000Y-85849999I0J-249999D01*
G01*
X250650000Y-86550001D01*
G75*
G02*
X250400001Y-86800000I-249999J0D01*
G01*
G37*
G36*
G01*
X250400001Y-88800000D02*
X249499999Y-88800000D01*
G75*
G02*
X249250000Y-88550001I0J249999D01*
G01*
X249250000Y-87849999D01*
G75*
G02*
X249499999Y-87600000I249999J0D01*
G01*
X250400001Y-87600000D01*
G75*
G02*
X250650000Y-87849999I0J-249999D01*
G01*
X250650000Y-88550001D01*
G75*
G02*
X250400001Y-88800000I-249999J0D01*
G01*
G37*
G36*
G01*
X224350000Y-88549999D02*
X224350000Y-89450001D01*
G75*
G02*
X224100001Y-89700000I-249999J0D01*
G01*
X223399999Y-89700000D01*
G75*
G02*
X223150000Y-89450001I0J249999D01*
G01*
X223150000Y-88549999D01*
G75*
G02*
X223399999Y-88300000I249999J0D01*
G01*
X224100001Y-88300000D01*
G75*
G02*
X224350000Y-88549999I0J-249999D01*
G01*
G37*
G36*
G01*
X226350000Y-88549999D02*
X226350000Y-89450001D01*
G75*
G02*
X226100001Y-89700000I-249999J0D01*
G01*
X225399999Y-89700000D01*
G75*
G02*
X225150000Y-89450001I0J249999D01*
G01*
X225150000Y-88549999D01*
G75*
G02*
X225399999Y-88300000I249999J0D01*
G01*
X226100001Y-88300000D01*
G75*
G02*
X226350000Y-88549999I0J-249999D01*
G01*
G37*
G36*
G01*
X263550000Y-112350001D02*
X263550000Y-111449999D01*
G75*
G02*
X263799999Y-111200000I249999J0D01*
G01*
X264500001Y-111200000D01*
G75*
G02*
X264750000Y-111449999I0J-249999D01*
G01*
X264750000Y-112350001D01*
G75*
G02*
X264500001Y-112600000I-249999J0D01*
G01*
X263799999Y-112600000D01*
G75*
G02*
X263550000Y-112350001I0J249999D01*
G01*
G37*
G36*
G01*
X261550000Y-112350001D02*
X261550000Y-111449999D01*
G75*
G02*
X261799999Y-111200000I249999J0D01*
G01*
X262500001Y-111200000D01*
G75*
G02*
X262750000Y-111449999I0J-249999D01*
G01*
X262750000Y-112350001D01*
G75*
G02*
X262500001Y-112600000I-249999J0D01*
G01*
X261799999Y-112600000D01*
G75*
G02*
X261550000Y-112350001I0J249999D01*
G01*
G37*
G36*
G01*
X262750000Y-108599999D02*
X262750000Y-109500001D01*
G75*
G02*
X262500001Y-109750000I-249999J0D01*
G01*
X261799999Y-109750000D01*
G75*
G02*
X261550000Y-109500001I0J249999D01*
G01*
X261550000Y-108599999D01*
G75*
G02*
X261799999Y-108350000I249999J0D01*
G01*
X262500001Y-108350000D01*
G75*
G02*
X262750000Y-108599999I0J-249999D01*
G01*
G37*
G36*
G01*
X264750000Y-108599999D02*
X264750000Y-109500001D01*
G75*
G02*
X264500001Y-109750000I-249999J0D01*
G01*
X263799999Y-109750000D01*
G75*
G02*
X263550000Y-109500001I0J249999D01*
G01*
X263550000Y-108599999D01*
G75*
G02*
X263799999Y-108350000I249999J0D01*
G01*
X264500001Y-108350000D01*
G75*
G02*
X264750000Y-108599999I0J-249999D01*
G01*
G37*
G36*
G01*
X235950000Y-81599999D02*
X235950000Y-82500001D01*
G75*
G02*
X235700001Y-82750000I-249999J0D01*
G01*
X234999999Y-82750000D01*
G75*
G02*
X234750000Y-82500001I0J249999D01*
G01*
X234750000Y-81599999D01*
G75*
G02*
X234999999Y-81350000I249999J0D01*
G01*
X235700001Y-81350000D01*
G75*
G02*
X235950000Y-81599999I0J-249999D01*
G01*
G37*
G36*
G01*
X237950000Y-81599999D02*
X237950000Y-82500001D01*
G75*
G02*
X237700001Y-82750000I-249999J0D01*
G01*
X236999999Y-82750000D01*
G75*
G02*
X236750000Y-82500001I0J249999D01*
G01*
X236750000Y-81599999D01*
G75*
G02*
X236999999Y-81350000I249999J0D01*
G01*
X237700001Y-81350000D01*
G75*
G02*
X237950000Y-81599999I0J-249999D01*
G01*
G37*
G36*
G01*
X236750000Y-85350001D02*
X236750000Y-84449999D01*
G75*
G02*
X236999999Y-84200000I249999J0D01*
G01*
X237700001Y-84200000D01*
G75*
G02*
X237950000Y-84449999I0J-249999D01*
G01*
X237950000Y-85350001D01*
G75*
G02*
X237700001Y-85600000I-249999J0D01*
G01*
X236999999Y-85600000D01*
G75*
G02*
X236750000Y-85350001I0J249999D01*
G01*
G37*
G36*
G01*
X234750000Y-85350001D02*
X234750000Y-84449999D01*
G75*
G02*
X234999999Y-84200000I249999J0D01*
G01*
X235700001Y-84200000D01*
G75*
G02*
X235950000Y-84449999I0J-249999D01*
G01*
X235950000Y-85350001D01*
G75*
G02*
X235700001Y-85600000I-249999J0D01*
G01*
X234999999Y-85600000D01*
G75*
G02*
X234750000Y-85350001I0J249999D01*
G01*
G37*
D18*
X246950000Y-82910000D03*
X246000000Y-79490000D03*
X247900000Y-79490000D03*
X250900000Y-79500000D03*
X251850000Y-82920000D03*
X249950000Y-82920000D03*
D19*
X263960000Y-81710000D03*
X263960000Y-84250000D03*
X263960000Y-86790000D03*
X266500000Y-81710000D03*
X266500000Y-84250000D03*
G36*
G01*
X267350000Y-86190000D02*
X267350000Y-87390000D01*
G75*
G02*
X267100000Y-87640000I-250000J0D01*
G01*
X265900000Y-87640000D01*
G75*
G02*
X265650000Y-87390000I0J250000D01*
G01*
X265650000Y-86190000D01*
G75*
G02*
X265900000Y-85940000I250000J0D01*
G01*
X267100000Y-85940000D01*
G75*
G02*
X267350000Y-86190000I0J-250000D01*
G01*
G37*
D20*
X238620000Y-76750000D03*
X236080000Y-76750000D03*
X233540000Y-76750000D03*
D21*
X231000000Y-76750000D03*
D22*
X271050000Y-110650000D03*
X271050000Y-104850000D03*
D23*
X271050000Y-104250000D03*
X271050000Y-111250000D03*
D24*
X271050000Y-108750000D03*
D25*
X268350000Y-105250000D03*
D26*
X268350000Y-107750000D03*
X268350000Y-107100000D03*
X268350000Y-106450000D03*
X268350000Y-109050000D03*
X268350000Y-108400000D03*
D25*
X268350000Y-110250000D03*
D24*
X271050000Y-106750000D03*
D27*
X213750000Y-76750000D03*
X256250000Y-118250000D03*
X256250000Y-76750000D03*
X213750000Y-118250000D03*
G36*
G01*
X241275000Y-82500001D02*
X241275000Y-81599999D01*
G75*
G02*
X241524999Y-81350000I249999J0D01*
G01*
X242175001Y-81350000D01*
G75*
G02*
X242425000Y-81599999I0J-249999D01*
G01*
X242425000Y-82500001D01*
G75*
G02*
X242175001Y-82750000I-249999J0D01*
G01*
X241524999Y-82750000D01*
G75*
G02*
X241275000Y-82500001I0J249999D01*
G01*
G37*
G36*
G01*
X239225000Y-82500001D02*
X239225000Y-81599999D01*
G75*
G02*
X239474999Y-81350000I249999J0D01*
G01*
X240125001Y-81350000D01*
G75*
G02*
X240375000Y-81599999I0J-249999D01*
G01*
X240375000Y-82500001D01*
G75*
G02*
X240125001Y-82750000I-249999J0D01*
G01*
X239474999Y-82750000D01*
G75*
G02*
X239225000Y-82500001I0J249999D01*
G01*
G37*
G36*
G01*
X241275000Y-85300001D02*
X241275000Y-84399999D01*
G75*
G02*
X241524999Y-84150000I249999J0D01*
G01*
X242175001Y-84150000D01*
G75*
G02*
X242425000Y-84399999I0J-249999D01*
G01*
X242425000Y-85300001D01*
G75*
G02*
X242175001Y-85550000I-249999J0D01*
G01*
X241524999Y-85550000D01*
G75*
G02*
X241275000Y-85300001I0J249999D01*
G01*
G37*
G36*
G01*
X239225000Y-85300001D02*
X239225000Y-84399999D01*
G75*
G02*
X239474999Y-84150000I249999J0D01*
G01*
X240125001Y-84150000D01*
G75*
G02*
X240375000Y-84399999I0J-249999D01*
G01*
X240375000Y-85300001D01*
G75*
G02*
X240125001Y-85550000I-249999J0D01*
G01*
X239474999Y-85550000D01*
G75*
G02*
X239225000Y-85300001I0J249999D01*
G01*
G37*
G36*
G01*
X240512500Y-97162500D02*
X240987500Y-97162500D01*
G75*
G02*
X241225000Y-97400000I0J-237500D01*
G01*
X241225000Y-98000000D01*
G75*
G02*
X240987500Y-98237500I-237500J0D01*
G01*
X240512500Y-98237500D01*
G75*
G02*
X240275000Y-98000000I0J237500D01*
G01*
X240275000Y-97400000D01*
G75*
G02*
X240512500Y-97162500I237500J0D01*
G01*
G37*
G36*
G01*
X240512500Y-95437500D02*
X240987500Y-95437500D01*
G75*
G02*
X241225000Y-95675000I0J-237500D01*
G01*
X241225000Y-96275000D01*
G75*
G02*
X240987500Y-96512500I-237500J0D01*
G01*
X240512500Y-96512500D01*
G75*
G02*
X240275000Y-96275000I0J237500D01*
G01*
X240275000Y-95675000D01*
G75*
G02*
X240512500Y-95437500I237500J0D01*
G01*
G37*
G36*
G01*
X240987500Y-100087501D02*
X240512500Y-100087501D01*
G75*
G02*
X240275000Y-99850001I0J237500D01*
G01*
X240275000Y-99250001D01*
G75*
G02*
X240512500Y-99012501I237500J0D01*
G01*
X240987500Y-99012501D01*
G75*
G02*
X241225000Y-99250001I0J-237500D01*
G01*
X241225000Y-99850001D01*
G75*
G02*
X240987500Y-100087501I-237500J0D01*
G01*
G37*
G36*
G01*
X240987500Y-101812501D02*
X240512500Y-101812501D01*
G75*
G02*
X240275000Y-101575001I0J237500D01*
G01*
X240275000Y-100975001D01*
G75*
G02*
X240512500Y-100737501I237500J0D01*
G01*
X240987500Y-100737501D01*
G75*
G02*
X241225000Y-100975001I0J-237500D01*
G01*
X241225000Y-101575001D01*
G75*
G02*
X240987500Y-101812501I-237500J0D01*
G01*
G37*
G36*
G01*
X241887499Y-93025000D02*
X241887499Y-92075000D01*
G75*
G02*
X242137499Y-91825000I250000J0D01*
G01*
X242812499Y-91825000D01*
G75*
G02*
X243062499Y-92075000I0J-250000D01*
G01*
X243062499Y-93025000D01*
G75*
G02*
X242812499Y-93275000I-250000J0D01*
G01*
X242137499Y-93275000D01*
G75*
G02*
X241887499Y-93025000I0J250000D01*
G01*
G37*
G36*
G01*
X239812499Y-93025000D02*
X239812499Y-92075000D01*
G75*
G02*
X240062499Y-91825000I250000J0D01*
G01*
X240737499Y-91825000D01*
G75*
G02*
X240987499Y-92075000I0J-250000D01*
G01*
X240987499Y-93025000D01*
G75*
G02*
X240737499Y-93275000I-250000J0D01*
G01*
X240062499Y-93275000D01*
G75*
G02*
X239812499Y-93025000I0J250000D01*
G01*
G37*
G36*
G01*
X227050000Y-92275000D02*
X227050000Y-93225000D01*
G75*
G02*
X226800000Y-93475000I-250000J0D01*
G01*
X226125000Y-93475000D01*
G75*
G02*
X225875000Y-93225000I0J250000D01*
G01*
X225875000Y-92275000D01*
G75*
G02*
X226125000Y-92025000I250000J0D01*
G01*
X226800000Y-92025000D01*
G75*
G02*
X227050000Y-92275000I0J-250000D01*
G01*
G37*
G36*
G01*
X229125000Y-92275000D02*
X229125000Y-93225000D01*
G75*
G02*
X228875000Y-93475000I-250000J0D01*
G01*
X228200000Y-93475000D01*
G75*
G02*
X227950000Y-93225000I0J250000D01*
G01*
X227950000Y-92275000D01*
G75*
G02*
X228200000Y-92025000I250000J0D01*
G01*
X228875000Y-92025000D01*
G75*
G02*
X229125000Y-92275000I0J-250000D01*
G01*
G37*
G36*
G01*
X227262500Y-102775000D02*
X227262500Y-103725000D01*
G75*
G02*
X227012500Y-103975000I-250000J0D01*
G01*
X226337500Y-103975000D01*
G75*
G02*
X226087500Y-103725000I0J250000D01*
G01*
X226087500Y-102775000D01*
G75*
G02*
X226337500Y-102525000I250000J0D01*
G01*
X227012500Y-102525000D01*
G75*
G02*
X227262500Y-102775000I0J-250000D01*
G01*
G37*
G36*
G01*
X229337500Y-102775000D02*
X229337500Y-103725000D01*
G75*
G02*
X229087500Y-103975000I-250000J0D01*
G01*
X228412500Y-103975000D01*
G75*
G02*
X228162500Y-103725000I0J250000D01*
G01*
X228162500Y-102775000D01*
G75*
G02*
X228412500Y-102525000I250000J0D01*
G01*
X229087500Y-102525000D01*
G75*
G02*
X229337500Y-102775000I0J-250000D01*
G01*
G37*
G36*
G01*
X240487499Y-103725000D02*
X240487499Y-102775000D01*
G75*
G02*
X240737499Y-102525000I250000J0D01*
G01*
X241412499Y-102525000D01*
G75*
G02*
X241662499Y-102775000I0J-250000D01*
G01*
X241662499Y-103725000D01*
G75*
G02*
X241412499Y-103975000I-250000J0D01*
G01*
X240737499Y-103975000D01*
G75*
G02*
X240487499Y-103725000I0J250000D01*
G01*
G37*
G36*
G01*
X238412499Y-103725000D02*
X238412499Y-102775000D01*
G75*
G02*
X238662499Y-102525000I250000J0D01*
G01*
X239337499Y-102525000D01*
G75*
G02*
X239587499Y-102775000I0J-250000D01*
G01*
X239587499Y-103725000D01*
G75*
G02*
X239337499Y-103975000I-250000J0D01*
G01*
X238662499Y-103975000D01*
G75*
G02*
X238412499Y-103725000I0J250000D01*
G01*
G37*
G36*
G01*
X223825000Y-84837500D02*
X224775000Y-84837500D01*
G75*
G02*
X225025000Y-85087500I0J-250000D01*
G01*
X225025000Y-85762500D01*
G75*
G02*
X224775000Y-86012500I-250000J0D01*
G01*
X223825000Y-86012500D01*
G75*
G02*
X223575000Y-85762500I0J250000D01*
G01*
X223575000Y-85087500D01*
G75*
G02*
X223825000Y-84837500I250000J0D01*
G01*
G37*
G36*
G01*
X223825000Y-82762500D02*
X224775000Y-82762500D01*
G75*
G02*
X225025000Y-83012500I0J-250000D01*
G01*
X225025000Y-83687500D01*
G75*
G02*
X224775000Y-83937500I-250000J0D01*
G01*
X223825000Y-83937500D01*
G75*
G02*
X223575000Y-83687500I0J250000D01*
G01*
X223575000Y-83012500D01*
G75*
G02*
X223825000Y-82762500I250000J0D01*
G01*
G37*
G36*
G01*
X212262500Y-86475000D02*
X212262500Y-87425000D01*
G75*
G02*
X212012500Y-87675000I-250000J0D01*
G01*
X211337500Y-87675000D01*
G75*
G02*
X211087500Y-87425000I0J250000D01*
G01*
X211087500Y-86475000D01*
G75*
G02*
X211337500Y-86225000I250000J0D01*
G01*
X212012500Y-86225000D01*
G75*
G02*
X212262500Y-86475000I0J-250000D01*
G01*
G37*
G36*
G01*
X214337500Y-86475000D02*
X214337500Y-87425000D01*
G75*
G02*
X214087500Y-87675000I-250000J0D01*
G01*
X213412500Y-87675000D01*
G75*
G02*
X213162500Y-87425000I0J250000D01*
G01*
X213162500Y-86475000D01*
G75*
G02*
X213412500Y-86225000I250000J0D01*
G01*
X214087500Y-86225000D01*
G75*
G02*
X214337500Y-86475000I0J-250000D01*
G01*
G37*
G36*
G01*
X232962500Y-89375000D02*
X232962500Y-88425000D01*
G75*
G02*
X233212500Y-88175000I250000J0D01*
G01*
X233887500Y-88175000D01*
G75*
G02*
X234137500Y-88425000I0J-250000D01*
G01*
X234137500Y-89375000D01*
G75*
G02*
X233887500Y-89625000I-250000J0D01*
G01*
X233212500Y-89625000D01*
G75*
G02*
X232962500Y-89375000I0J250000D01*
G01*
G37*
G36*
G01*
X230887500Y-89375000D02*
X230887500Y-88425000D01*
G75*
G02*
X231137500Y-88175000I250000J0D01*
G01*
X231812500Y-88175000D01*
G75*
G02*
X232062500Y-88425000I0J-250000D01*
G01*
X232062500Y-89375000D01*
G75*
G02*
X231812500Y-89625000I-250000J0D01*
G01*
X231137500Y-89625000D01*
G75*
G02*
X230887500Y-89375000I0J250000D01*
G01*
G37*
G36*
G01*
X212312500Y-82875000D02*
X212312500Y-83825000D01*
G75*
G02*
X212062500Y-84075000I-250000J0D01*
G01*
X211387500Y-84075000D01*
G75*
G02*
X211137500Y-83825000I0J250000D01*
G01*
X211137500Y-82875000D01*
G75*
G02*
X211387500Y-82625000I250000J0D01*
G01*
X212062500Y-82625000D01*
G75*
G02*
X212312500Y-82875000I0J-250000D01*
G01*
G37*
G36*
G01*
X214387500Y-82875000D02*
X214387500Y-83825000D01*
G75*
G02*
X214137500Y-84075000I-250000J0D01*
G01*
X213462500Y-84075000D01*
G75*
G02*
X213212500Y-83825000I0J250000D01*
G01*
X213212500Y-82875000D01*
G75*
G02*
X213462500Y-82625000I250000J0D01*
G01*
X214137500Y-82625000D01*
G75*
G02*
X214387500Y-82875000I0J-250000D01*
G01*
G37*
D20*
X224440000Y-76700000D03*
D21*
X221900000Y-76700000D03*
M02*
